<?xml version="1.0" encoding="UTF-8"?>
<svg width="512px" height="512px" viewBox="0 0 512 512" version="1.1" xmlns="http://www.w3.org/2000/svg" xmlns:xlink="http://www.w3.org/1999/xlink">
    <!-- Generator: Sketch 46 (44423) - http://www.bohemiancoding.com/sketch -->
    <title>logo-dark-biparted</title>
    <desc>Created with Sketch.</desc>
    <defs></defs>
    <g id="logo" stroke="none" stroke-width="1" fill="none" fill-rule="evenodd">
        <g id="logo-dark-biparted">
            <g id="logo">
                <rect id="bound" stroke="#424242" stroke-width="0.01" x="0.005" y="0.005" width="511.99" height="511.99"></rect>
                <path d="M231.41723,342.999914 C238.393192,337.074652 247.428102,333.5 257.297917,333.5 C267.67863,333.5 277.068498,337.455527 283.599485,343.430611 C299.172797,357.516156 321.352449,363.65838 343.144368,357.819253 C377.286199,348.670977 397.547478,313.577412 388.399202,279.435581 C382.55771,257.634838 366.137636,241.493565 346.982156,235.330356 C337.811724,232.415653 329.658628,226.202685 324.468271,217.212724 C319.533364,208.665214 318.111649,199.053427 319.755094,190.049435 C324.404901,169.48051 318.685445,146.87786 302.552751,130.745166 C277.559196,105.751611 237.036637,105.751611 212.043083,130.745166 C201.173118,141.615131 195.030617,155.422366 193.615581,169.61197 C192.970888,176.076772 193.307488,182.620944 194.625379,189.002867 C196.622911,198.159174 195.318872,208.326446 190.128515,217.316407 C185.193608,225.863917 177.577329,231.801275 168.95792,234.880005 C148.821009,241.138859 132.102431,257.394839 126.196632,279.435581 C117.048356,313.577412 137.309635,348.670977 171.451466,357.819253 C193.558892,363.74292 216.065361,357.335787 231.668594,342.813828" id="around" stroke="#B2FF59" stroke-width="8"></path>
                <path d="M257.297917,216 C235.206527,216 217.297917,198.09139 217.297917,176 C217.297917,153.90861 235.206527,136 257.297917,136 C279.389307,136 297.297917,153.90861 297.297917,176 C297.297917,198.09139 279.389307,216 257.297917,216 Z M361.220965,316 C350.17527,335.131705 325.711654,341.686711 306.579949,330.641016 C287.448244,319.595321 280.893238,295.131705 291.938933,276 C302.984628,256.868295 327.448244,250.313289 346.579949,261.358984 C365.711654,272.404679 372.26666,296.868295 361.220965,316 Z M153.374868,316 C142.329173,296.868295 148.884179,272.404679 168.015884,261.358984 C187.147589,250.313289 211.611206,256.868295 222.656901,276 C233.702596,295.131705 227.147589,319.595321 208.015884,330.641016 C188.884179,341.686711 164.420563,335.131705 153.374868,316 Z" id="Combined-Shape" stroke="#FFFFFF" stroke-width="8"></path>
            </g>
            <text id="CONNECT-platform" font-family="Futura-Bold, Futura" font-size="28" font-weight="bold" fill="#FFFFFF">
                <tspan x="183.256" y="435">CONNECT</tspan>
                <tspan x="213.961" y="471" font-size="18">platform</tspan>
            </text>
        </g>
    </g>
</svg>