<?xml version="1.0" encoding="UTF-8"?>
<svg width="256px" height="256px" viewBox="0 0 256 256" version="1.1" xmlns="http://www.w3.org/2000/svg" xmlns:xlink="http://www.w3.org/1999/xlink">
    <!-- Generator: Sketch 46 (44423) - http://www.bohemiancoding.com/sketch -->
    <title>auth</title>
    <desc>Created with Sketch.</desc>
    <defs></defs>
    <g id="assets" stroke="none" stroke-width="1" fill="none" fill-rule="evenodd">
        <g id="auth">
            <path d="M176,91.9873311 C173.418517,90.0465342 170.746345,88.282441 168,86.6950514 L168,76 C168,53.90861 150.09139,36 128,36 C105.90861,36 88,53.90861 88,76 L88,86.6950514 C85.2536546,88.282441 82.5814833,90.0465342 80,91.9873311 L80,76 C80,49.490332 101.490332,28 128,28 C154.509668,28 176,49.490332 176,76 L176,91.9873311 L176,91.9873311 Z M66.0162798,140 C67.5277145,134.127664 69.8516511,128.58151 72.8611054,123.488522 L67.0361747,117.663592 C69.8491459,113.199328 73.1998582,108.976765 77.0883118,105.088312 C80.9767653,101.199858 85.1993283,97.8491459 89.6635917,95.0361747 L95.4885224,100.861105 C100.58151,97.8516511 106.127664,95.5277145 112,94.0162798 L112,85.7841314 C117.145782,84.6164915 122.500896,84 128,84 C133.499104,84 138.854218,84.6164915 144,85.7841314 L144,94.0162798 C149.872336,95.5277145 155.41849,97.8516511 160.511478,100.861105 L166.336408,95.0361747 C170.800672,97.8491459 175.023235,101.199858 178.911688,105.088312 C182.800142,108.976765 186.150854,113.199328 188.963825,117.663592 L183.138895,123.488522 C186.148349,128.58151 188.472285,134.127664 189.98372,140 L198.215869,140 C199.383508,145.145782 200,150.500896 200,156 C200,161.499104 199.383508,166.854218 198.215869,172 L189.98372,172 C188.472285,177.872336 186.148349,183.41849 183.138895,188.511478 L188.963825,194.336408 C186.150854,198.800672 182.800142,203.023235 178.911688,206.911688 C175.023235,210.800142 170.800672,214.150854 166.336408,216.963825 L160.511478,211.138895 C155.41849,214.148349 149.872336,216.472285 144,217.98372 L144,226.215869 C138.854218,227.383508 133.499104,228 128,228 C122.500896,228 117.145782,227.383508 112,226.215869 L112,217.98372 C106.127664,216.472285 100.58151,214.148349 95.4885224,211.138895 L89.6635917,216.963825 C85.1993283,214.150854 80.9767653,210.800142 77.0883118,206.911688 C73.1998582,203.023235 69.8491459,198.800672 67.0361747,194.336408 L72.8611054,188.511478 C69.8516511,183.41849 67.5277145,177.872336 66.0162798,172 L57.7841314,172 C56.6164915,166.854218 56,161.499104 56,156 C56,150.500896 56.6164915,145.145782 57.7841314,140 L66.0162798,140 Z M128,212 C158.927946,212 184,186.927946 184,156 C184,125.072054 158.927946,100 128,100 C97.072054,100 72,125.072054 72,156 C72,186.927946 97.072054,212 128,212 Z" id="Combined-Shape" stroke="#FFFFFF" stroke-width="4"></path>
            <path d="M112.864994,178.360437 C106.486537,176.651334 102.701277,170.095072 104.41038,163.716615 C105.483101,159.713164 108.51828,156.605671 112.382535,155.398119 C113.74314,154.908169 114.876594,153.98031 115.604324,152.719844 C116.374896,151.385174 116.608166,149.837757 116.291304,148.385078 C116.045546,147.194988 115.982103,145.972929 116.102693,144.763689 C116.374595,142.03713 117.567357,139.480044 119.545386,137.502016 C124.21474,132.832661 131.78526,132.832661 136.454614,137.502016 C139.385157,140.432559 140.558586,144.614252 139.671996,148.564341 C139.418163,149.976401 139.663099,151.432678 140.395841,152.701825 C141.169188,154.041301 142.394667,155.013573 143.841562,155.473455 C147.555194,156.668303 150.531849,159.76896 151.58962,163.716615 C153.298723,170.095072 149.513463,176.651334 143.135006,178.360437 C139.166882,179.423692 135.001489,178.377261 132.007822,175.669569 C130.976515,174.726045 129.527939,174.162461 128,174.162461 C126.560209,174.162461 125.199416,174.660543 124.11282,175.556015 C121.11917,178.345068 116.89158,179.439357 112.864994,178.360437 Z M127.824612,153.742343 C132.124542,153.742343 135.610325,150.256561 135.610325,145.95663 C135.610325,141.6567 132.124542,138.170918 127.824612,138.170918 C123.524682,138.170918 120.038899,141.6567 120.038899,145.95663 C120.038899,150.256561 123.524682,153.742343 127.824612,153.742343 Z M135.972158,173.553844 C139.696007,175.703809 144.457674,174.427924 146.607639,170.704075 C148.757604,166.980226 147.481719,162.218559 143.75787,160.068593 C140.034021,157.918628 135.272354,159.194513 133.122389,162.918362 C130.972424,166.642211 132.248309,171.403878 135.972158,173.553844 Z M109.041585,170.704075 C111.19155,174.427924 115.953217,175.703809 119.677066,173.553844 C123.400915,171.403878 124.6768,166.642211 122.526835,162.918362 C120.37687,159.194513 115.615203,157.918628 111.891354,160.068593 C108.167505,162.218559 106.89162,166.980226 109.041585,170.704075 Z M127.824612,152.073976 C124.446095,152.073976 121.707266,149.335147 121.707266,145.95663 C121.707266,142.578114 124.446095,139.839285 127.824612,139.839285 C131.203129,139.839285 133.941958,142.578114 133.941958,145.95663 C133.941958,149.335147 131.203129,152.073976 127.824612,152.073976 Z M145.162791,169.869891 C143.473532,172.795773 139.732222,173.798254 136.806341,172.108995 C133.88046,170.419737 132.877979,166.678427 134.567237,163.752546 C136.256495,160.826664 139.997805,159.824183 142.923687,161.513442 C145.849568,163.2027 146.852049,166.94401 145.162791,169.869891 Z M110.486433,169.869891 C108.797175,166.94401 109.799656,163.2027 112.725537,161.513442 C115.651418,159.824183 119.392728,160.826664 121.081987,163.752546 C122.771245,166.678427 121.768764,170.419737 118.842883,172.108995 C115.917002,173.798254 112.175692,172.795773 110.486433,169.869891 Z" id="Combined-Shape" fill="#FFFFFF" fill-rule="nonzero"></path>
        </g>
    </g>
</svg>