<?xml version="1.0" encoding="UTF-8"?>
<svg width="256px" height="256px" viewBox="0 0 256 256" version="1.1" xmlns="http://www.w3.org/2000/svg" xmlns:xlink="http://www.w3.org/1999/xlink">
    <!-- Generator: Sketch 46 (44423) - http://www.bohemiancoding.com/sketch -->
    <title>collapse</title>
    <desc>Created with Sketch.</desc>
    <defs></defs>
    <g id="assets" stroke="none" stroke-width="1" fill="none" fill-rule="evenodd">
        <g id="collapse" fill="#FFFFFF">
            <path d="M152,108 L191,108 C194.313708,108 197,110.686292 197,114 C197,117.313708 194.313708,120 191,120 L148,120 C141.372583,120 136,114.627417 136,108 L136,65 C136,61.6862915 138.686292,59 142,59 C145.313708,59 148,61.6862915 148,65 L148,104 C148,106.209139 149.790861,108 152,108 Z M148,116 L191,116 C192.104569,116 193,115.104569 193,114 C193,112.895431 192.104569,112 191,112 L148,112 C145.790861,112 144,110.209139 144,108 L144,65 C144,63.8954305 143.104569,63 142,63 C140.895431,63 140,63.8954305 140,65 L140,108 C140,112.418278 143.581722,116 148,116 Z" id="Combined-Shape"></path>
            <path d="M75,108 L114,108 C117.313708,108 120,110.686292 120,114 C120,117.313708 117.313708,120 114,120 L71,120 C64.372583,120 59,114.627417 59,108 L59,65 C59,61.6862915 61.6862915,59 65,59 C68.3137085,59 71,61.6862915 71,65 L71,104 C71,106.209139 72.790861,108 75,108 Z M71,116 L114,116 C115.104569,116 116,115.104569 116,114 C116,112.895431 115.104569,112 114,112 L71,112 C68.790861,112 67,110.209139 67,108 L67,65 C67,63.8954305 66.1045695,63 65,63 C63.8954305,63 63,63.8954305 63,65 L63,108 C63,112.418278 66.581722,116 71,116 Z" id="Combined-Shape-Copy" transform="translate(89.500000, 89.500000) rotate(270.000000) translate(-89.500000, -89.500000) "></path>
            <path d="M75,185 L114,185 C117.313708,185 120,187.686292 120,191 C120,194.313708 117.313708,197 114,197 L71,197 C64.372583,197 59,191.627417 59,185 L59,142 C59,138.686292 61.6862915,136 65,136 C68.3137085,136 71,138.686292 71,142 L71,181 C71,183.209139 72.790861,185 75,185 Z M71,193 L114,193 C115.104569,193 116,192.104569 116,191 C116,189.895431 115.104569,189 114,189 L71,189 C68.790861,189 67,187.209139 67,185 L67,142 C67,140.895431 66.1045695,140 65,140 C63.8954305,140 63,140.895431 63,142 L63,185 C63,189.418278 66.581722,193 71,193 Z" id="Combined-Shape-Copy-2" transform="translate(89.500000, 166.500000) rotate(180.000000) translate(-89.500000, -166.500000) "></path>
            <path d="M152,185 L191,185 C194.313708,185 197,187.686292 197,191 C197,194.313708 194.313708,197 191,197 L148,197 C141.372583,197 136,191.627417 136,185 L136,142 C136,138.686292 138.686292,136 142,136 C145.313708,136 148,138.686292 148,142 L148,181 C148,183.209139 149.790861,185 152,185 Z M148,193 L191,193 C192.104569,193 193,192.104569 193,191 C193,189.895431 192.104569,189 191,189 L148,189 C145.790861,189 144,187.209139 144,185 L144,142 C144,140.895431 143.104569,140 142,140 C140.895431,140 140,140.895431 140,142 L140,185 C140,189.418278 143.581722,193 148,193 Z" id="Combined-Shape-Copy-3" transform="translate(166.500000, 166.500000) rotate(90.000000) translate(-166.500000, -166.500000) "></path>
        </g>
    </g>
</svg>