<?xml version="1.0" encoding="UTF-8"?>
<svg width="256px" height="256px" viewBox="0 0 256 256" version="1.1" xmlns="http://www.w3.org/2000/svg" xmlns:xlink="http://www.w3.org/1999/xlink">
    <!-- Generator: Sketch 46 (44423) - http://www.bohemiancoding.com/sketch -->
    <title>config</title>
    <desc>Created with Sketch.</desc>
    <defs></defs>
    <g id="assets" stroke="none" stroke-width="1" fill="none" fill-rule="evenodd">
        <g id="config" stroke="#FFFFFF" stroke-width="4">
            <path d="M89.6407435,179.239034 L118.031775,149.83926 C127.025814,153.944542 138.005349,152.188923 145.264356,144.672002 C151.978354,137.719453 153.655617,127.758026 150.374952,119.302596 C150.108645,118.616227 149.037403,117.731992 148.34989,118.443933 L133.754919,133.557468 C130.685725,136.735711 125.621177,136.824113 122.442934,133.754919 C119.264691,130.685725 119.176289,125.621177 122.245482,122.442934 L136.833308,107.336798 C137.527966,106.617458 136.683302,105.608479 136.027702,105.376304 C127.436404,102.333764 117.480393,104.344424 110.736045,111.3284 C103.477039,118.845321 102.105669,129.879438 106.522339,138.724726 L78.1313067,168.1245 C76.408095,165.988291 74.8419861,163.7659 73.4332538,161.473024 L79.2008284,155.500525 C77.2917502,152.116081 75.7613649,148.573231 74.6107645,144.934554 L66.3051594,145.079529 C64.899878,139.98936 64.1063691,134.641106 64.0099482,129.117155 C63.9135273,123.593203 64.5199013,118.220514 65.7466824,113.084403 L74.0522875,112.939428 C75.0751989,109.262812 76.4810084,105.66871 78.2708081,102.219702 L72.2983098,96.4521274 C74.9039184,91.8591507 78.1246097,87.5162686 81.9624535,83.542065 C85.8002973,79.5678614 90.0281334,76.1975677 94.5273777,73.4332538 L100.499876,79.2008284 C103.88432,77.2917502 107.427171,75.7613649 111.065847,74.6107645 L110.920872,66.3051594 C116.011041,64.899878 121.359295,64.1063691 126.883247,64.0099482 C132.407198,63.9135273 137.779887,64.5199013 142.915999,65.7466824 L143.060974,74.0522875 C146.737589,75.0751989 150.331691,76.4810084 153.780699,78.2708081 L159.548274,72.2983098 C164.141251,74.9039184 168.484133,78.1246097 172.458336,81.9624535 C176.43254,85.8002973 179.802834,90.0281334 182.567148,94.5273777 L176.799573,100.499876 C178.708651,103.88432 180.239037,107.427171 181.389637,111.065847 L189.695242,110.920872 C191.100523,116.011041 191.894032,121.359295 191.990453,126.883247 C192.086874,132.407198 191.4805,137.779887 190.253719,142.915999 L181.948114,143.060974 C180.925202,146.737589 179.519393,150.331691 177.729593,153.780699 L183.702092,159.548274 C181.096483,164.141251 177.875792,168.484133 174.037948,172.458336 C170.200104,176.43254 165.972268,179.802834 161.473024,182.567148 L155.500525,176.799573 C152.116081,178.708651 148.573231,180.239037 144.934554,181.389637 L145.079529,189.695242 C139.98936,191.100523 134.641106,191.894032 129.117155,191.990453 C123.593203,192.086874 118.220514,191.4805 113.084403,190.253719 L112.939428,181.948114 C109.262812,180.925202 105.66871,179.519393 102.219702,177.729593 L96.4521274,183.702092 C94.1114835,182.374238 91.8357907,180.886643 89.6407435,179.239034 L89.6407435,179.239034 Z M108.06335,171.678318 C112.157222,173.546945 116.456776,174.808425 120.827485,175.465107 L120.968856,183.564266 C123.587805,183.892345 126.261778,184.039075 128.977535,183.991672 C131.693292,183.944268 134.360516,183.704306 136.96642,183.285028 L136.825048,175.185869 C143.805193,173.88656 150.547356,171.033858 156.493842,166.637499 L162.318017,172.26184 C164.40188,170.64195 166.396419,168.854919 168.28323,166.901069 C170.17004,164.94722 171.886374,162.891529 173.432551,160.752403 L167.608376,155.128062 C171.794528,149.031768 174.410194,142.194154 175.465107,135.172916 L183.564266,135.031545 C183.892345,132.412596 184.039075,129.738623 183.991672,127.022866 C183.944268,124.307109 183.704306,121.639885 183.285028,119.033982 L175.185869,119.175353 C173.88656,112.195209 171.033858,105.453046 166.637499,99.5065597 L172.26184,93.6823843 C170.64195,91.5985217 168.854919,89.6039826 166.901069,87.7171719 C164.94722,85.8303612 162.891529,84.1140277 160.752403,82.5678503 L155.128062,88.3920258 C149.031768,84.2058735 142.194154,81.5902078 135.172916,80.5352941 L135.031545,72.436135 C132.412596,72.1080568 129.738623,71.9613261 127.022866,72.0087298 C124.307109,72.0561335 121.639885,72.2960952 119.033982,72.7153735 L119.175353,80.8145326 C112.195209,82.1138414 105.453046,84.966543 99.5065597,89.3629027 L93.6823843,83.7385619 C91.5985217,85.3584518 89.6039826,87.1454823 87.7171719,89.099332 C85.8303612,91.0531817 84.1140277,93.1088722 82.5678503,95.2479987 L88.3920258,100.87234 C84.2058735,106.968634 81.5902078,113.806248 80.5352941,120.827485 L72.436135,120.968856 C72.1080568,123.587805 71.9613261,126.261778 72.0087298,128.977535 C72.0561335,131.693292 72.2960952,134.360516 72.7153735,136.96642 L80.8145326,136.825048 C81.62335,141.170176 83.0341133,145.423084 85.0444743,149.449246 L97.2355467,136.825015 C94.1987046,126.200662 96.7534363,114.291363 104.981327,105.771133 C117.258102,93.05816 137.516296,92.7045519 150.229269,104.981327 C162.942241,117.258102 163.295849,137.516296 151.019074,150.229269 C142.791184,158.749499 130.978298,161.718303 120.254433,159.054095 L108.06335,171.678318 Z" id="Combined-Shape"></path>
        </g>
    </g>
</svg>