<?xml version="1.0" encoding="UTF-8"?>
<svg width="256px" height="256px" viewBox="0 0 256 256" version="1.1" xmlns="http://www.w3.org/2000/svg" xmlns:xlink="http://www.w3.org/1999/xlink">
    <!-- Generator: Sketch 46 (44423) - http://www.bohemiancoding.com/sketch -->
    <title>config</title>
    <desc>Created with Sketch.</desc>
    <defs></defs>
    <g id="assets" stroke="none" stroke-width="1" fill="none" fill-rule="evenodd">
        <g id="config">
            <path d="M66.0162798,112 C67.5277145,106.127664 69.8516511,100.58151 72.8611054,95.4885224 L67.0361747,89.6635917 C69.8491459,85.1993283 73.1998582,80.9767653 77.0883118,77.0883118 C80.9767653,73.1998582 85.1993283,69.8491459 89.6635917,67.0361747 L95.4885224,72.8611054 C100.58151,69.8516511 106.127664,67.5277145 112,66.0162798 L112,57.7841314 C117.145782,56.6164915 122.500896,56 128,56 C133.499104,56 138.854218,56.6164915 144,57.7841314 L144,66.0162798 C149.872336,67.5277145 155.41849,69.8516511 160.511478,72.8611054 L166.336408,67.0361747 C170.800672,69.8491459 175.023235,73.1998582 178.911688,77.0883118 C182.800142,80.9767653 186.150854,85.1993283 188.963825,89.6635917 L183.138895,95.4885224 C186.148349,100.58151 188.472285,106.127664 189.98372,112 L198.215869,112 C199.383508,117.145782 200,122.500896 200,128 C200,133.499104 199.383508,138.854218 198.215869,144 L189.98372,144 C188.472285,149.872336 186.148349,155.41849 183.138895,160.511478 L188.963825,166.336408 C186.150854,170.800672 182.800142,175.023235 178.911688,178.911688 C175.023235,182.800142 170.800672,186.150854 166.336408,188.963825 L160.511478,183.138895 C155.41849,186.148349 149.872336,188.472285 144,189.98372 L144,198.215869 C138.854218,199.383508 133.499104,200 128,200 C122.500896,200 117.145782,199.383508 112,198.215869 L112,189.98372 C106.127664,188.472285 100.58151,186.148349 95.4885224,183.138895 L89.6635917,188.963825 C85.1993283,186.150854 80.9767653,182.800142 77.0883118,178.911688 C73.1998582,175.023235 69.8491459,170.800672 67.0361747,166.336408 L72.8611054,160.511478 C69.8516511,155.41849 67.5277145,149.872336 66.0162798,144 L57.7841314,144 C56.6164915,138.854218 56,133.499104 56,128 C56,122.500896 56.6164915,117.145782 57.7841314,112 L66.0162798,112 Z M128,184 C158.927946,184 184,158.927946 184,128 C184,97.072054 158.927946,72 128,72 C97.072054,72 72,97.072054 72,128 C72,158.927946 97.072054,184 128,184 Z" id="Combined-Shape" stroke="#448AFF" stroke-width="4"></path>
            <path d="M112.864994,150.360437 C106.486537,148.651334 102.701277,142.095072 104.41038,135.716615 C105.483101,131.713164 108.51828,128.605671 112.382535,127.398119 C113.74314,126.908169 114.876594,125.98031 115.604324,124.719844 C116.374896,123.385174 116.608166,121.837757 116.291304,120.385078 C116.045546,119.194988 115.982103,117.972929 116.102693,116.763689 C116.374595,114.03713 117.567357,111.480044 119.545386,109.502016 C124.21474,104.832661 131.78526,104.832661 136.454614,109.502016 C139.385157,112.432559 140.558586,116.614252 139.671996,120.564341 C139.418163,121.976401 139.663099,123.432678 140.395841,124.701825 C141.169188,126.041301 142.394667,127.013573 143.841562,127.473455 C147.555194,128.668303 150.531849,131.76896 151.58962,135.716615 C153.298723,142.095072 149.513463,148.651334 143.135006,150.360437 C139.166882,151.423692 135.001489,150.377261 132.007822,147.669569 C130.976515,146.726045 129.527939,146.162461 128,146.162461 C126.560209,146.162461 125.199416,146.660543 124.11282,147.556015 C121.11917,150.345068 116.89158,151.439357 112.864994,150.360437 Z M127.824612,125.742343 C132.124542,125.742343 135.610325,122.256561 135.610325,117.95663 C135.610325,113.6567 132.124542,110.170918 127.824612,110.170918 C123.524682,110.170918 120.038899,113.6567 120.038899,117.95663 C120.038899,122.256561 123.524682,125.742343 127.824612,125.742343 Z M135.972158,145.553844 C139.696007,147.703809 144.457674,146.427924 146.607639,142.704075 C148.757604,138.980226 147.481719,134.218559 143.75787,132.068593 C140.034021,129.918628 135.272354,131.194513 133.122389,134.918362 C130.972424,138.642211 132.248309,143.403878 135.972158,145.553844 Z M109.041585,142.704075 C111.19155,146.427924 115.953217,147.703809 119.677066,145.553844 C123.400915,143.403878 124.6768,138.642211 122.526835,134.918362 C120.37687,131.194513 115.615203,129.918628 111.891354,132.068593 C108.167505,134.218559 106.89162,138.980226 109.041585,142.704075 Z M127.824612,124.073976 C124.446095,124.073976 121.707266,121.335147 121.707266,117.95663 C121.707266,114.578114 124.446095,111.839285 127.824612,111.839285 C131.203129,111.839285 133.941958,114.578114 133.941958,117.95663 C133.941958,121.335147 131.203129,124.073976 127.824612,124.073976 Z M145.162791,141.869891 C143.473532,144.795773 139.732222,145.798254 136.806341,144.108995 C133.88046,142.419737 132.877979,138.678427 134.567237,135.752546 C136.256495,132.826664 139.997805,131.824183 142.923687,133.513442 C145.849568,135.2027 146.852049,138.94401 145.162791,141.869891 Z M110.486433,141.869891 C108.797175,138.94401 109.799656,135.2027 112.725537,133.513442 C115.651418,131.824183 119.392728,132.826664 121.081987,135.752546 C122.771245,138.678427 121.768764,142.419737 118.842883,144.108995 C115.917002,145.798254 112.175692,144.795773 110.486433,141.869891 Z" id="Combined-Shape" fill="#448AFF" fill-rule="nonzero"></path>
        </g>
    </g>
</svg>