<?xml version="1.0" encoding="UTF-8"?>
<svg width="256px" height="256px" viewBox="0 0 256 256" version="1.1" xmlns="http://www.w3.org/2000/svg" xmlns:xlink="http://www.w3.org/1999/xlink">
    <!-- Generator: Sketch 52.5 (67469) - http://www.bohemiancoding.com/sketch -->
    <title>copy</title>
    <desc>Created with Sketch.</desc>
    <g id="copy" stroke="none" stroke-width="1" fill="none" fill-rule="evenodd">
        <path d="M188,60 C196.836556,60 204,67.163444 204,76 L204,204 C204,212.836556 196.836556,220 188,220 L92,220 C83.163444,220 76,212.836556 76,204 L76,76 C76,67.163444 83.163444,60 92,60 L188,60 Z M188,64 L92,64 C85.372583,64 80,69.372583 80,76 L80,204 C80,210.627417 85.372583,216 92,216 L188,216 C194.627417,216 200,210.627417 200,204 L200,76 C200,69.372583 194.627417,64 188,64 Z M92,212 C87.581722,212 84,208.418278 84,204 L84,76 C84,71.581722 87.581722,68 92,68 L188,68 C192.418278,68 196,71.581722 196,76 L196,204 C196,208.418278 192.418278,212 188,212 L92,212 Z M88,204 C88,206.209139 89.790861,208 92,208 L188,208 C190.209139,208 192,206.209139 192,204 L192,76 C192,73.790861 190.209139,72 188,72 L92,72 C89.790861,72 88,73.790861 88,76 L88,204 Z M166,48 L68.0000062,48 C65.790861,48 64,49.790861 64,52 L64,182 C64,185.313708 61.3137085,188 58,188 C54.6862915,188 52,185.313708 52,182 L52,52 C52,43.163444 59.163444,36 68,36 L166,36 C169.313708,36 172,38.6862915 172,42 C172,45.3137085 169.313708,48 166,48 Z M166,44 C167.104569,44 168,43.1045695 168,42 C168,40.8954305 167.104569,40 166,40 L68,40 C61.372583,40 56,45.372583 56,52 L56,182 C56,183.104569 56.8954305,184 58,184 C59.1045695,184 60,183.104569 60,182 L60,52 C60,47.581722 63.581722,44 68.0000002,44 L166,44 Z" id="Shape" fill="#FFFFFF" fill-rule="nonzero"></path>
    </g>
</svg>