<?xml version="1.0" encoding="UTF-8"?>
<svg width="256px" height="256px" viewBox="0 0 256 256" version="1.1" xmlns="http://www.w3.org/2000/svg" xmlns:xlink="http://www.w3.org/1999/xlink">
    <!-- Generator: Sketch 46 (44423) - http://www.bohemiancoding.com/sketch -->
    <title>empty</title>
    <desc>Created with Sketch.</desc>
    <defs></defs>
    <g id="assets" stroke="none" stroke-width="1" fill="none" fill-rule="evenodd">
        <g id="empty" stroke="#FFFFFF" stroke-width="4">
            <path d="M189.707658,52.4974226 L215.707658,97.5307436 C219.021367,103.270255 217.054865,110.60934 211.315353,113.923048 L193.994845,123.923048 L205.994845,144.707658 C211.734357,141.39395 219.073442,143.360452 222.38715,149.099963 L230.38715,162.956369 C233.700859,168.695881 231.734357,176.034966 225.994845,179.348674 L129,235.348674 C123.260489,238.662383 115.921404,236.695881 112.607695,230.956369 L104.607695,217.099963 C101.293987,211.360452 103.260489,204.021367 109,200.707658 L37,76 L133.994845,20 L155.994845,58.1051178 L173.315353,48.1051178 C179.054865,44.7914093 186.39395,46.7579111 189.707658,52.4974226 Z M182.779455,56.4974226 C181.674885,54.5842521 179.228524,53.9287515 177.315353,55.033321 L159.994845,65.033321 L189.994845,116.994845 L207.315353,106.994845 C209.228524,105.890276 209.884024,103.443914 208.779455,101.530744 L182.779455,56.4974226 Z M209.994845,151.635861 L203.066642,155.635861 L131.066642,30.9282032 L47.9282032,78.9282032 L119.928203,203.635861 L113,207.635861 C111.08683,208.740431 110.431329,211.186792 111.535898,213.099963 L119.535898,226.956369 C120.640468,228.86954 123.08683,229.525041 125,228.420471 L221.994845,172.420471 C223.908016,171.315902 224.563516,168.86954 223.458947,166.956369 L215.458947,153.099963 C214.354377,151.186792 211.908016,150.531292 209.994845,151.635861 Z M129.78461,188.707658 L185.210236,156.707658 L189.210236,163.635861 L133.78461,195.635861 L129.78461,188.707658 Z M87.2487113,107.033321 L94.1769145,103.033321 L132.176915,168.851252 L125.248711,172.851252 L87.2487113,107.033321 Z M128.817931,83.033321 L135.746134,79.033321 L173.746134,144.851252 L166.817931,148.851252 L128.817931,83.033321 Z M108.033321,95.033321 L114.961524,91.033321 L152.961524,156.851252 L146.033321,160.851252 L108.033321,95.033321 Z M27.5147186,119.485281 L36,111 L44.4852814,119.485281 C49.1715729,124.171573 49.1715729,131.769553 44.4852814,136.455844 C39.7989899,141.142136 32.2010101,141.142136 27.5147186,136.455844 C22.8284271,131.769553 22.8284271,124.171573 27.5147186,119.485281 Z M33.1715729,125.142136 C31.6094757,126.704233 31.6094757,129.236893 33.1715729,130.79899 C34.73367,132.361087 37.26633,132.361087 38.8284271,130.79899 C40.3905243,129.236893 40.3905243,126.704233 38.8284271,125.142136 L36,122.313708 L33.1715729,125.142136 Z" id="Combined-Shape"></path>
        </g>
    </g>
</svg>