<?xml version="1.0" encoding="UTF-8"?>
<svg width="256px" height="256px" viewBox="0 0 256 256" version="1.1" xmlns="http://www.w3.org/2000/svg" xmlns:xlink="http://www.w3.org/1999/xlink">
    <!-- Generator: Sketch 46 (44423) - http://www.bohemiancoding.com/sketch -->
    <title>expand</title>
    <desc>Created with Sketch.</desc>
    <defs></defs>
    <g id="assets" stroke="none" stroke-width="1" fill="none" fill-rule="evenodd">
        <g id="expand" fill="#FFFFFF">
            <path d="M59,201 L98,201 C101.313708,201 104,203.686292 104,207 C104,210.313708 101.313708,213 98,213 L55,213 C48.372583,213 43,207.627417 43,201 L43,158 C43,154.686292 45.6862915,152 49,152 C52.3137085,152 55,154.686292 55,158 L55,197 C55,199.209139 56.790861,201 59,201 Z M55,59 L55,98 C55,101.313708 52.3137085,104 49,104 C45.6862915,104 43,101.313708 43,98 L43,55 C43,48.372583 48.372583,43 55,43 L98,43 C101.313708,43 104,45.6862915 104,49 C104,52.3137085 101.313708,55 98,55 L59,55 C56.790861,55 55,56.790861 55,59 Z M197,55 L158,55 C154.686292,55 152,52.3137085 152,49 C152,45.6862915 154.686292,43 158,43 L201,43 C207.627417,43 213,48.372583 213,55 L213,98 C213,101.313708 210.313708,104 207,104 C203.686292,104 201,101.313708 201,98 L201,59 C201,56.790861 199.209139,55 197,55 Z M201,197 L201,158 C201,154.686292 203.686292,152 207,152 C210.313708,152 213,154.686292 213,158 L213,201 C213,207.627417 207.627417,213 201,213 L158,213 C154.686292,213 152,210.313708 152,207 C152,203.686292 154.686292,201 158,201 L197,201 C199.209139,201 201,199.209139 201,197 Z M55,209 L98,209 C99.1045695,209 100,208.104569 100,207 C100,205.895431 99.1045695,205 98,205 L55,205 C52.790861,205 51,203.209139 51,201 L51,158 C51,156.895431 50.1045695,156 49,156 C47.8954305,156 47,156.895431 47,158 L47,201 C47,205.418278 50.581722,209 55,209 Z M47,55 L47,98 C47,99.1045695 47.8954305,100 49,100 C50.1045695,100 51,99.1045695 51,98 L51,55 C51,52.790861 52.790861,51 55,51 L98,51 C99.1045695,51 100,50.1045695 100,49 C100,47.8954305 99.1045695,47 98,47 L55,47 C50.581722,47 47,50.581722 47,55 Z M201,47 L158,47 C156.895431,47 156,47.8954305 156,49 C156,50.1045695 156.895431,51 158,51 L201,51 C203.209139,51 205,52.790861 205,55 L205,98 C205,99.1045695 205.895431,100 207,100 C208.104569,100 209,99.1045695 209,98 L209,55 C209,50.581722 205.418278,47 201,47 Z M209,201 L209,158 C209,156.895431 208.104569,156 207,156 C205.895431,156 205,156.895431 205,158 L205,201 C205,203.209139 203.209139,205 201,205 L158,205 C156.895431,205 156,205.895431 156,207 C156,208.104569 156.895431,209 158,209 L201,209 C205.418278,209 209,205.418278 209,201 Z" id="Combined-Shape"></path>
        </g>
    </g>
</svg>