<?xml version="1.0" encoding="UTF-8"?>
<svg width="256px" height="256px" viewBox="0 0 256 256" version="1.1" xmlns="http://www.w3.org/2000/svg" xmlns:xlink="http://www.w3.org/1999/xlink">
    <!-- Generator: Sketch 52.5 (67469) - http://www.bohemiancoding.com/sketch -->
    <title>folder</title>
    <desc>Created with Sketch.</desc>
    <g id="folder" stroke="none" stroke-width="1" fill="none" fill-rule="evenodd">
        <path d="M48,200 C39.163444,200 32,192.836556 32,184 L32,72 C32,63.163444 39.163444,56 48,56 L112,56 C120.836556,56 128,63.163444 128,72 L128,88 L212,88 C220.836556,88 228,95.163444 228,104 L228,184 C228,192.836556 220.836556,200 212,200 L48,200 Z M48,196 L212,196 C218.627417,196 224,190.627417 224,184 L224,104 C224,97.372583 218.627417,92 212,92 L124,92 L124,72 C124,65.372583 118.627417,60 112,60 L48,60 C41.372583,60 36,65.372583 36,72 L36,184 C36,190.627417 41.372583,196 48,196 Z M48,192 C43.581722,192 40,188.418278 40,184 L40,72 C40,67.581722 43.581722,64 48,64 L112,64 C116.418278,64 120,67.581722 120,72 L120,96 L212,96 C216.418278,96 220,99.581722 220,104 L220,184 C220,188.418278 216.418278,192 212,192 L48,192 Z M212,188 C214.209139,188 216,186.209139 216,184 L216,104 C216,101.790861 214.209139,100 212,100 L116,100 L116,72 C116,69.790861 114.209139,68 112,68 L48,68 C45.790861,68 44,69.790861 44,72 L44,184 C44,186.209139 45.790861,188 48,188 L212,188 Z" id="Shape" fill="#FFFFFF" fill-rule="nonzero"></path>
    </g>
</svg>