<?xml version="1.0" encoding="UTF-8"?>
<svg width="256px" height="256px" viewBox="0 0 256 256" version="1.1" xmlns="http://www.w3.org/2000/svg" xmlns:xlink="http://www.w3.org/1999/xlink">
    <!-- Generator: Sketch 52.5 (67469) - http://www.bohemiancoding.com/sketch -->
    <title>folder-open</title>
    <desc>Created with Sketch.</desc>
    <g id="folder-open" stroke="none" stroke-width="1" fill="none" fill-rule="evenodd">
        <path d="M32,171.712813 L32,72 C32,63.163444 39.163444,56 48,56 L112,56 C120.836556,56 128,63.163444 128,72 L128,88 L212,88 C220.836556,88 228,95.163444 228,104 L228,115.5 L224,115.5 L224,104 C224,97.372583 218.627417,92 212,92 L124,92 L124,72 C124,65.372583 118.627417,60 112,60 L48,60 C41.372583,60 36,65.372583 36,72 L36,164.78461 L32,171.712813 Z M40,157.856406 L40,72 C40,67.581722 43.581722,64 48,64 L112,64 C116.418278,64 120,67.581722 120,72 L120,96 L212,96 C216.418278,96 220,99.581722 220,104 L220,115.5 L216,115.5 L216,104 C216,101.790861 214.209139,100 212,100 L116,100 L116,72 C116,69.790861 114.209139,68 112,68 L48,68 C45.790861,68 44,69.790861 44,72 L44,150.928203 L40,157.856406 Z M48,200 C39.163444,200 32,192.836556 32,184 C32,180.986015 32.83337,178.166675 34.2822526,175.759836 L62.1435935,127.502577 C65.1169197,122.352625 70.5209059,119.480946 76.0698172,119.5 L239.960061,119.5 C242.692275,119.490619 245.463309,120.181612 248,121.646171 C255.652682,126.064449 258.274684,135.849895 253.856406,143.502577 L226.009966,191.734028 C223.283326,196.662732 218.031393,200 212,200 L48,200 Z M222.507474,189.800521 L250.392305,141.502577 C253.706013,135.763066 251.739511,128.423981 246,125.110273 C244.106685,124.017166 242.039309,123.498636 240,123.5 L75.9996985,123.500579 C71.8565154,123.504556 67.8282821,125.656408 65.6076952,129.502577 L37.7116894,177.819877 C36.6250275,179.625006 36,181.739511 36,184 C36,190.627417 41.372583,196 48,196 L212,196 C216.523545,196 220.462494,193.497049 222.507474,189.800521 Z M212,192 L48,192 C43.581722,192 40,188.418278 40,184 C40,182.493008 40.416685,181.083337 41.1411263,179.879918 L69.0717968,131.502577 C70.5521162,128.938589 73.2374162,127.504036 75.9993968,127.501246 L240,127.5 C241.359229,127.499872 242.737648,127.845555 244,128.574374 C247.826341,130.783513 249.137342,135.676236 246.928203,139.502577 L219.004983,187.867014 C217.641663,190.331366 215.015697,192 212,192 Z M215.502491,185.933507 L243.464102,137.502577 C244.568671,135.589407 243.91317,133.143045 242,132.038476 C241.368601,131.673938 240.679129,131.501103 240,131.5 L75.9989801,131.501912 C74.6182426,131.503555 73.2759298,132.220805 72.5358984,133.502577 L44.5705631,181.939959 C44.2083425,182.541669 44,183.246504 44,184 C44,186.209139 45.790861,188 48,188 L212,188 C213.507848,188 214.820831,187.165683 215.502491,185.933507 Z" id="Shape" fill="#FFFFFF" fill-rule="nonzero"></path>
    </g>
</svg>