<?xml version="1.0" encoding="UTF-8"?>
<svg width="256px" height="256px" viewBox="0 0 256 256" version="1.1" xmlns="http://www.w3.org/2000/svg" xmlns:xlink="http://www.w3.org/1999/xlink">
    <!-- Generator: Sketch 46 (44423) - http://www.bohemiancoding.com/sketch -->
    <title>info</title>
    <desc>Created with Sketch.</desc>
    <defs></defs>
    <g id="assets" stroke="none" stroke-width="1" fill="none" fill-rule="evenodd">
        <g id="info" stroke="#FFFFFF" stroke-width="4">
            <path d="M80,32 L64,32 C46.326888,32 32,46.326888 32,64 L32,192 C32,209.673112 46.326888,224 64,224 L80,224 L80,216 L64,216 C50.745166,216 40,205.254834 40,192 L40,64 C40,50.745166 50.745166,40 64,40 L80,40 L80,32 Z M176,32 L192,32 C209.673112,32 224,46.326888 224,64 L224,192 C224,209.673112 209.673112,224 192,224 L180,224 L180,216 L192,216 C205.254834,216 216,205.254834 216,192 L216,64 C216,50.745166 205.254834,40 192,40 L176,40 L176,32 Z M128,112 C110.326888,112 96,97.673112 96,80 C96,62.326888 110.326888,48 128,48 C145.673112,48 160,62.326888 160,80 C160,97.673112 145.673112,112 128,112 Z M116,208 C109.372583,208 104,202.627417 104,196 L104,140 C104,133.372583 109.372583,128 116,128 L140,128 C146.627417,128 152,133.372583 152,140 L152,196 C152,202.627417 146.627417,208 140,208 L116,208 Z M116,136 C113.790861,136 112,137.790861 112,140 L112,196 C112,198.209139 113.790861,200 116,200 L140,200 C142.209139,200 144,198.209139 144,196 L144,140 C144,137.790861 142.209139,136 140,136 L116.000006,136 L116,136 Z M128,104 C141.254834,104 152,93.254834 152,80 C152,66.745166 141.254834,56 128,56 C114.745166,56 104,66.745166 104,80 C104,93.254834 114.745166,104 128,104 Z" id="Combined-Shape"></path>
        </g>
    </g>
</svg>