<?xml version="1.0" encoding="UTF-8"?>
<svg width="256px" height="256px" viewBox="0 0 256 256" version="1.1" xmlns="http://www.w3.org/2000/svg" xmlns:xlink="http://www.w3.org/1999/xlink">
    <!-- Generator: Sketch 46 (44423) - http://www.bohemiancoding.com/sketch -->
    <title>installing</title>
    <desc>Created with Sketch.</desc>
    <defs></defs>
    <g id="assets" stroke="none" stroke-width="1" fill="none" fill-rule="evenodd">
        <g id="installing">
            <g id="logo" transform="translate(48.000000, 48.000000)" stroke-width="0.01" stroke="#424242">
                <rect id="inner-bound" x="0.005" y="0.005" width="159.99" height="159.99"></rect>
            </g>

            <path id="path-slow" stroke="#FFFFFF" stroke-width="4"
              stroke-dasharray="300 700" stroke-dashoffset="500"
              d="M24,128 C24,185.437614 70.562386,232 128,232 C185.437614,232 232,185.437614 232,128 C232,78.8226938 197.8672,37.6175303 152,26.7829094 L152,136 L192,136 C193.104569,136 194,136.895431 194,138 C194,138.503747 193.813761,138.963995 193.506382,139.315647 L129.486756,203.337769 C129.120672,203.74436 128.59019,204 128,204 C127.442809,204 126.938835,203.772147 126.576173,203.404534 L62.5909041,139.419313 C62.225969,139.056988 62,138.554883 62,138 C62,136.895431 62.8954305,136 64,136 L104,136 L104,26.7829094 C58.1328,37.6175303 24,78.8226938 24,128 Z M32,128 C32,181.019336 74.980664,224 128,224 C181.019336,224 224,181.019336 224,128 C224,86.2009977 197.286156,50.641348 160,37.4625828 L160,128 L192,128 C197.522847,128 202,132.477153 202,138 C202,141.272955 201,143 198,146 L136.002939,207.997061 C134.005879,209.994121 131.272955,212 128,212 C124.727045,212 123,211 119.997061,207.997061 L58.0029394,146.002939 C56.0058788,144.005879 54,141.272955 54,138 C54,132.477153 58.4771525,128 64,128 L96,128 L96,37.4625788 C58.7138438,50.641348 32,86.2009977 32,128 Z">
              <!--  path animations -->
              <animate attributeName="stroke-dashoffset" from="500" to="-500" dur="3s" repeatCount="indefinite"/>
            </path>

            <path id="path-fast" stroke="#FFFFFF" stroke-width="4"
              stroke-dasharray="300 700" stroke-dashoffset="1000"
              d="M24,128 C24,185.437614 70.562386,232 128,232 C185.437614,232 232,185.437614 232,128 C232,78.8226938 197.8672,37.6175303 152,26.7829094 L152,136 L192,136 C193.104569,136 194,136.895431 194,138 C194,138.503747 193.813761,138.963995 193.506382,139.315647 L129.486756,203.337769 C129.120672,203.74436 128.59019,204 128,204 C127.442809,204 126.938835,203.772147 126.576173,203.404534 L62.5909041,139.419313 C62.225969,139.056988 62,138.554883 62,138 C62,136.895431 62.8954305,136 64,136 L104,136 L104,26.7829094 C58.1328,37.6175303 24,78.8226938 24,128 Z M32,128 C32,181.019336 74.980664,224 128,224 C181.019336,224 224,181.019336 224,128 C224,86.2009977 197.286156,50.641348 160,37.4625828 L160,128 L192,128 C197.522847,128 202,132.477153 202,138 C202,141.272955 201,143 198,146 L136.002939,207.997061 C134.005879,209.994121 131.272955,212 128,212 C124.727045,212 123,211 119.997061,207.997061 L58.0029394,146.002939 C56.0058788,144.005879 54,141.272955 54,138 C54,132.477153 58.4771525,128 64,128 L96,128 L96,37.4625788 C58.7138438,50.641348 32,86.2009977 32,128 Z">
              <!--  path animations -->
              <animate attributeName="stroke-dashoffset" from="1000" to="0" dur="3s" repeatCount="indefinite"/>
            </path>
        </g>
    </g>
</svg>
