<?xml version="1.0" encoding="UTF-8"?>
<svg width="256px" height="256px" viewBox="0 0 256 256" version="1.1" xmlns="http://www.w3.org/2000/svg" xmlns:xlink="http://www.w3.org/1999/xlink">
    <!-- Generator: Sketch 46 (44423) - http://www.bohemiancoding.com/sketch -->
    <title>key</title>
    <desc>Created with Sketch.</desc>
    <defs></defs>
    <g id="assets" stroke="none" stroke-width="1" fill="none" fill-rule="evenodd">
        <g id="key" fill="#FFFFFF">
            <path d="M117.962486,96 L204,96 C209,96 210,98 211.861365,99.8613648 L236.572037,124.572037 C239,127 239,129 236.572037,132 C234.953395,134 225.429383,143.333333 208,160 L192,144 L176,160 L160,144 L144,160 L117.962486,160 C107.842917,174.507873 91.0299609,184 72,184 C41.072054,184 16,158.927946 16,128 C16,97.072054 41.072054,72 72,72 C91.0299609,72 107.842917,81.4921272 117.962486,96 L117.962486,96 Z M113.578447,103.999987 C105.279019,89.6527611 89.766771,80 72,80 C45.490332,80 24,101.490332 24,128 C24,154.509668 45.490332,176 72,176 C89.766771,176 105.279019,166.347239 113.578447,152.000013 L140,152 L160,132 L176,148 L192,132 L208,148 L224.425301,131.574699 C227,129 227,127 224.425301,124 C221.850603,121 209.320547,108.561093 208.44492,107.594699 C207,106 206,104 200,104 L113.578455,104 L113.578447,103.999987 Z M120,112 L192,112 L192,120 L120,120 L120,112 Z M64,152 C50.745166,152 40,141.254834 40,128 C40,114.745166 50.745166,104 64,104 C77.254834,104 88,114.745166 88,128 C88,141.254834 77.254834,152 64,152 Z M64,144 C72.836556,144 80,136.836556 80,128 C80,119.163444 72.836556,112 64,112 C55.163444,112 48,119.163444 48,128 C48,136.836556 55.163444,144 64,144 Z" id="Combined-Shape"></path>
        </g>
    </g>
</svg>