<?xml version="1.0" encoding="UTF-8"?>
<svg width="1024px" height="900px" viewBox="0 0 1024 900" version="1.1" xmlns="http://www.w3.org/2000/svg" xmlns:xlink="http://www.w3.org/1999/xlink">
    <!-- Generator: Sketch 46 (44423) - http://www.bohemiancoding.com/sketch -->
    <title>logo</title>
    <desc>Created with Sketch.</desc>
    <defs></defs>
    <g id="idea" stroke="none" stroke-width="1" fill="none" fill-rule="evenodd" opacity="0.15">
        <g id="node-view,-dark-theme" transform="translate(-208.000000, 0.000000)" stroke="#424242">
            <g id="logo" transform="translate(208.000000, -62.000000)">
                <rect id="bound" stroke-width="0.5" x="0.25" y="0.25" width="1023.5" height="1023.5"></rect>
                <path d="M460.238626,685.999828 L460.741354,685.627656 C429.534889,714.671575 384.521951,727.48584 340.307098,715.638506 C272.023436,697.341954 231.500878,627.154823 249.79743,558.871162 C261.609028,514.789677 295.046185,482.277718 335.320007,469.76001 C352.558824,463.60255 367.791382,451.727834 377.661197,434.632813 C388.04191,416.652891 390.649988,396.318347 386.654925,378.005734 C384.019142,365.241888 383.345943,352.153545 384.635328,339.223941 C387.465401,310.844732 399.750402,283.230262 421.490332,261.490332 C471.477441,211.503223 552.522559,211.503223 602.509668,261.490332 C634.775056,293.75572 646.213969,338.96102 636.914355,380.09887 C633.627464,398.106854 636.470894,417.330428 646.340709,434.425449 C656.721422,452.405371 673.027614,464.831305 691.368479,470.660713 C729.679439,482.98713 762.519588,515.269677 774.20257,558.871162 C792.499122,627.154823 751.976564,697.341954 683.692902,715.638506 C640.109064,727.31676 595.74976,715.032312 564.603137,686.861222 C551.541163,674.911054 532.761426,667 512,667 C492.260371,667 474.190551,674.149304 460.238626,685.999828 Z M512,432 C556.18278,432 592,396.18278 592,352 C592,307.81722 556.18278,272 512,272 C467.81722,272 432,307.81722 432,352 C432,396.18278 467.81722,432 512,432 Z M719.846097,632 C741.937487,593.73659 728.827474,544.809358 690.564065,522.717968 C652.300655,500.626578 603.373422,513.73659 581.282032,552 C559.190642,590.26341 572.300655,639.190642 610.564065,661.282032 C648.827474,683.373422 697.754707,670.26341 719.846097,632 Z M304.153903,632 C326.245293,670.26341 375.172526,683.373422 413.435935,661.282032 C451.699345,639.190642 464.809358,590.26341 442.717968,552 C420.626578,513.73659 371.699345,500.626578 333.435935,522.717968 C295.172526,544.809358 282.062513,593.73659 304.153903,632 Z" id="Combined-Shape" stroke-width="16"></path>
            </g>
        </g>
    </g>
</svg>