<?xml version="1.0" encoding="UTF-8"?>
<svg width="288px" height="288px" viewBox="0 0 288 288" version="1.1" xmlns="http://www.w3.org/2000/svg" xmlns:xlink="http://www.w3.org/1999/xlink">
    <!-- Generator: Sketch 46 (44423) - http://www.bohemiancoding.com/sketch -->
    <title>logo</title>
    <desc>Created with Sketch.</desc>
    <defs></defs>
    <g id="logo" stroke="none" stroke-width="1" fill="none" fill-rule="evenodd">
        <g id="logo-dark-biparted" transform="translate(-112.000000, -92.000000)">
            <g id="logo" transform="translate(112.000000, 92.000000)">
                <rect id="inner-bound" stroke="#424242" stroke-width="0.01" x="0.005" y="0.005" width="287.99" height="287.99"></rect>
                <path d="M119.41723,250.999914 C126.393192,245.074652 135.428102,241.5 145.297917,241.5 C155.67863,241.5 165.068498,245.455527 171.599485,251.430611 C187.172797,265.516156 209.352449,271.65838 231.144368,265.819253 C265.286199,256.670977 285.547478,221.577412 276.399202,187.435581 C270.55771,165.634838 254.137636,149.493565 234.982156,143.330356 C225.811724,140.415653 217.658628,134.202685 212.468271,125.212724 C207.533364,116.665214 206.111649,107.053427 207.755094,98.049435 C212.404901,77.4805102 206.685445,54.87786 190.552751,38.745166 C165.559196,13.7516113 125.036637,13.7516113 100.043083,38.745166 C89.1731177,49.6151311 83.030617,63.4223659 81.6155808,77.6119703 C80.9708884,84.0767724 81.3074879,90.6209439 82.6253791,97.0028671 C84.6229108,106.159174 83.3188716,116.326446 78.1285151,125.316407 C73.1936078,133.863917 65.5773289,139.801275 56.9579204,142.880005 C36.8210093,149.138859 20.1024306,165.394839 14.1966315,187.435581 C5.04835557,221.577412 25.3096349,256.670977 59.4514655,265.819253 C81.5588924,271.74292 104.065361,265.335787 119.668594,250.813828" id="around" stroke="#B2FF59" stroke-width="8"></path>
                <path d="M145.297917,124 C123.206527,124 105.297917,106.09139 105.297917,84 C105.297917,61.90861 123.206527,44 145.297917,44 C167.389307,44 185.297917,61.90861 185.297917,84 C185.297917,106.09139 167.389307,124 145.297917,124 Z M249.220965,224 C238.17527,243.131705 213.711654,249.686711 194.579949,238.641016 C175.448244,227.595321 168.893238,203.131705 179.938933,184 C190.984628,164.868295 215.448244,158.313289 234.579949,169.358984 C253.711654,180.404679 260.26666,204.868295 249.220965,224 Z M41.3748682,224 C30.3291733,204.868295 36.8841795,180.404679 56.0158844,169.358984 C75.1475893,158.313289 99.6112056,164.868295 110.656901,184 C121.702596,203.131705 115.147589,227.595321 96.0158844,238.641016 C76.8841795,249.686711 52.4205632,243.131705 41.3748682,224 Z" id="Combined-Shape" stroke="#FFFFFF" stroke-width="8"></path>
            </g>
        </g>
    </g>
</svg>