<?xml version="1.0" encoding="UTF-8"?>
<svg width="288px" height="288px" viewBox="0 0 288 288" version="1.1" xmlns="http://www.w3.org/2000/svg" xmlns:xlink="http://www.w3.org/1999/xlink">
    <!-- Generator: Sketch 46 (44423) - http://www.bohemiancoding.com/sketch -->
    <title>logo</title>
    <desc>Created with Sketch.</desc>
    <defs></defs>
    <g id="logo" stroke="none" stroke-width="1" fill="none" fill-rule="evenodd">
        <g id="logo-dark-biparted" transform="translate(-112.000000, -92.000000)">
            <g id="logo" transform="translate(112.000000, 92.000000)">
                <rect id="inner-bound" stroke="#424242" stroke-width="0.01" x="0.005" y="0.005" width="287.99" height="287.99"></rect>
                <path d="M116.847671,247.974707 C124.721652,241.246267 134.726048,237.5 145.297917,237.5 C156.290349,237.5 166.744274,241.567212 174.282657,248.464033 C189.295827,262.042948 210.191666,267.292408 230.109092,261.95555 C262.117058,253.379041 281.112007,220.478823 272.535499,188.470857 C267.226276,168.65657 252.294111,153.102361 233.770535,147.142439 C223.389988,143.843116 214.561988,136.839149 209.00417,127.212724 C203.718235,118.057218 201.960399,107.520022 203.820105,97.3312044 C208.33887,77.326121 202.456203,56.3054729 187.724324,41.5735931 C164.292866,18.1421356 126.302967,18.1421356 102.87151,41.5735931 C92.9399729,51.5051301 86.9605379,64.3240539 85.5958384,78.0088953 C84.9902518,84.0815549 85.3088689,90.2189357 86.5334607,96.1502835 C88.8094305,106.582898 87.1296272,117.726023 81.5926167,127.316407 C76.3288505,136.433517 68.1079425,143.144882 58.3034093,146.646921 C38.718661,152.737799 23.452969,168.345273 18.0603348,188.470857 C9.48382613,220.478823 28.4787755,253.379041 60.4867417,261.95555 C80.6544656,267.359475 101.815933,261.904478 116.847671,247.974707 Z M58.4161893,269.682956 C22.1404943,259.962913 0.612885023,222.676 10.3329282,186.400305 C16.4353646,163.625702 33.7038131,145.949885 55.687808,139.086075 C63.6992488,136.205317 70.3780248,130.74065 74.6644135,123.316407 C79.1986599,115.462862 80.5716106,106.35527 78.7080325,97.811814 C77.3102958,91.0432371 76.9494628,84.0926698 77.6353232,77.2150453 C79.1817125,61.708267 85.9646689,47.1667255 97.2146556,35.9167389 C123.770307,9.36108704 166.825526,9.36108704 193.381178,35.9167389 C210.052283,52.5878436 216.724894,76.377247 211.675781,98.8465191 C210.177023,107.161318 211.617728,115.739541 215.932373,123.212724 C220.483026,131.094687 227.696087,136.817392 236.20729,139.522595 C257.318587,146.31508 274.247021,163.948719 280.262905,186.400305 C289.982948,222.676 268.455339,259.962913 232.179644,269.682956 C209.611609,275.730043 185.922705,269.778908 168.89945,254.381849 C162.817816,248.817871 154.289917,245.5 145.297917,245.5 C136.809235,245.5 128.785016,248.443117 122.384579,253.732039 C105.359382,269.595806 81.3166909,275.819127 58.4161893,269.682956 Z" id="around" fill="#B2FF59" fill-rule="nonzero"></path>
                <path d="M145.297917,120 C165.180168,120 181.297917,103.882251 181.297917,84 C181.297917,64.117749 165.180168,48 145.297917,48 C125.415666,48 109.297917,64.117749 109.297917,84 C109.297917,103.882251 125.415666,120 145.297917,120 Z M145.297917,128 C120.997388,128 101.297917,108.300529 101.297917,84 C101.297917,59.699471 120.997388,40 145.297917,40 C169.598446,40 189.297917,59.699471 189.297917,84 C189.297917,108.300529 169.598446,128 145.297917,128 Z M245.756864,222 C255.697989,204.781466 249.798483,182.764211 232.579949,172.823085 C215.361415,162.88196 193.34416,168.781466 183.403034,186 C173.461909,203.218534 179.361415,225.235789 196.579949,235.176915 C213.798483,245.11804 235.815738,239.218534 245.756864,222 Z M252.685067,226 C240.534802,247.044875 213.624824,254.255382 192.579949,242.105118 C171.535074,229.954853 164.324567,203.044875 176.474831,182 C188.625096,160.955125 215.535074,153.744618 236.579949,165.894882 C257.624824,178.045147 264.835331,204.955125 252.685067,226 Z M44.8389699,222 C54.7800954,239.218534 76.79735,245.11804 94.0158844,235.176915 C111.234419,225.235789 117.133924,203.218534 107.192799,186 C97.2516734,168.781466 75.2344188,162.88196 58.0158844,172.823085 C40.79735,182.764211 34.8978444,204.781466 44.8389699,222 Z M37.9107666,226 C25.7605021,204.955125 32.971009,178.045147 54.0158844,165.894882 C75.0607598,153.744618 101.970738,160.955125 114.121002,182 C126.271267,203.044875 119.06076,229.954853 98.0158844,242.105118 C76.971009,254.255382 50.0610311,247.044875 37.9107666,226 Z" id="Combined-Shape" fill="#FFFFFF" fill-rule="nonzero"></path>
            </g>
        </g>
    </g>
</svg>