<?xml version="1.0" encoding="UTF-8"?>
<svg width="256px" height="256px" viewBox="0 0 256 256" version="1.1" xmlns="http://www.w3.org/2000/svg" xmlns:xlink="http://www.w3.org/1999/xlink">
    <!-- Generator: Sketch 46 (44423) - http://www.bohemiancoding.com/sketch -->
    <title>package</title>
    <desc>Created with Sketch.</desc>
    <defs></defs>
    <g id="assets" stroke="none" stroke-width="1" fill="none" fill-rule="evenodd">
        <g id="package" stroke="#FFFFFF">
            <path d="M196,72 C202.627417,72 208,77.372583 208,84 L208,196 C208,202.627417 202.627417,208 196,208 L60,208 C53.372583,208 48,202.627417 48,196 L48,84 C48,77.372583 53.372583,72 60,72 L68,72 L68,60 C68,53.372583 73.372583,48 80,48 L108,48 C114.627417,48 120,53.372583 120,60 L120,72 L136,72 L136,60 C136,53.372583 141.372583,48 148,48 L176,48 C182.627417,48 188,53.372583 188,60 L188,72 L196,72 Z M56,84 L56,196 C56,198.209139 57.790861,200 60,200 L196,200 C198.209139,200 200,198.209139 200,196 L200,84 C200,81.790861 198.209139,80 196,80 L180,80 L180,60 C180,57.790861 178.209139,56 176,56 L148,56 C145.790861,56 144,57.790861 144,60 L144,80 L112,80 L112,60 C112,57.790861 110.209139,56 108,56 L80,56 C77.790861,56 76,57.790861 76,60 L76,80 L60,80 C57.790861,80 56,81.790861 56,84 Z M112.864994,160.360437 C106.486537,158.651334 102.701277,152.095072 104.41038,145.716615 C105.483101,141.713164 108.51828,138.605671 112.382535,137.398119 C113.74314,136.908169 114.876594,135.98031 115.604324,134.719844 C116.374896,133.385174 116.608166,131.837757 116.291304,130.385078 C116.045546,129.194988 115.982103,127.972929 116.102693,126.763689 C116.374595,124.03713 117.567357,121.480044 119.545386,119.502016 C124.21474,114.832661 131.78526,114.832661 136.454614,119.502016 C139.385157,122.432559 140.558586,126.614252 139.671996,130.564341 C139.418163,131.976401 139.663099,133.432678 140.395841,134.701825 C141.169188,136.041301 142.394667,137.013573 143.841562,137.473455 C147.555194,138.668303 150.531849,141.76896 151.58962,145.716615 C153.298723,152.095072 149.513463,158.651334 143.135006,160.360437 C139.166882,161.423692 135.001489,160.377261 132.007822,157.669569 C130.976515,156.726045 129.527939,156.162461 128,156.162461 C126.560209,156.162461 125.199416,156.660543 124.11282,157.556015 C121.11917,160.345068 116.89158,161.439357 112.864994,160.360437 Z M127.824612,135.742343 C132.124542,135.742343 135.610325,132.256561 135.610325,127.95663 C135.610325,123.6567 132.124542,120.170918 127.824612,120.170918 C123.524682,120.170918 120.038899,123.6567 120.038899,127.95663 C120.038899,132.256561 123.524682,135.742343 127.824612,135.742343 Z M135.972158,155.553844 C139.696007,157.703809 144.457674,156.427924 146.607639,152.704075 C148.757604,148.980226 147.481719,144.218559 143.75787,142.068593 C140.034021,139.918628 135.272354,141.194513 133.122389,144.918362 C130.972424,148.642211 132.248309,153.403878 135.972158,155.553844 Z M109.041585,152.704075 C111.19155,156.427924 115.953217,157.703809 119.677066,155.553844 C123.400915,153.403878 124.6768,148.642211 122.526835,144.918362 C120.37687,141.194513 115.615203,139.918628 111.891354,142.068593 C108.167505,144.218559 106.89162,148.980226 109.041585,152.704075 Z M127.824612,134.073976 C124.446095,134.073976 121.707266,131.335147 121.707266,127.95663 C121.707266,124.578114 124.446095,121.839285 127.824612,121.839285 C131.203129,121.839285 133.941958,124.578114 133.941958,127.95663 C133.941958,131.335147 131.203129,134.073976 127.824612,134.073976 Z M145.162791,151.869891 C143.473532,154.795773 139.732222,155.798254 136.806341,154.108995 C133.88046,152.419737 132.877979,148.678427 134.567237,145.752546 C136.256495,142.826664 139.997805,141.824183 142.923687,143.513442 C145.849568,145.2027 146.852049,148.94401 145.162791,151.869891 Z M110.486433,151.869891 C108.797175,148.94401 109.799656,145.2027 112.725537,143.513442 C115.651418,141.824183 119.392728,142.826664 121.081987,145.752546 C122.771245,148.678427 121.768764,152.419737 118.842883,154.108995 C115.917002,155.798254 112.175692,154.795773 110.486433,151.869891 Z" id="Combined-Shape"></path>
        </g>
    </g>
</svg>