<?xml version="1.0" encoding="UTF-8"?>
<svg width="256px" height="256px" viewBox="0 0 256 256" version="1.1" xmlns="http://www.w3.org/2000/svg" xmlns:xlink="http://www.w3.org/1999/xlink">
    <!-- Generator: Sketch 46 (44423) - http://www.bohemiancoding.com/sketch -->
    <title>packages</title>
    <desc>Created with Sketch.</desc>
    <defs>
        <path d="M180.444444,70.8888889 C166.944151,70.8888889 156,59.9447383 156,46.4444444 C156,32.9441506 166.944151,22 180.444444,22 C193.944738,22 204.888889,32.9441506 204.888889,46.4444444 C204.888889,59.9447383 193.944738,70.8888889 180.444444,70.8888889 Z M180.444444,66.4444444 C191.490139,66.4444444 200.444444,57.4901394 200.444444,46.4444444 C200.444444,35.3987494 191.490139,26.4444444 180.444444,26.4444444 C169.398749,26.4444444 160.444444,35.3987494 160.444444,46.4444444 C160.444444,57.4901394 169.398749,66.4444444 180.444444,66.4444444 Z" id="path-1"></path>
    </defs>
    <g id="assets" stroke="none" stroke-width="1" fill="none" fill-rule="evenodd">
        <g id="packages">
            <g id="logo" transform="translate(26.000000, 64.000000)">
                <rect id="inner-bound" stroke="#424242" stroke-width="0.01" x="0.005" y="0.005" width="159.99" height="159.99"></rect>
                <path d="M64.915373,137.763726 C69.2898064,134.025704 74.8478047,131.944444 80.7210648,131.944444 C86.8279718,131.944444 92.635708,134.204007 96.8236984,138.035574 C105.164348,145.579415 116.773148,148.495782 127.838384,145.530861 C145.620588,140.766134 156.173337,122.488235 151.40861,104.706032 C148.459042,93.6980945 140.163395,85.0568672 129.872519,81.7457994 C124.105549,79.9128421 119.201105,76.0217494 116.113428,70.6737357 C113.176797,65.5873432 112.200222,59.7333458 113.233391,54.0728913 C115.743817,42.9589561 112.475669,31.2808183 104.291291,23.0964406 C91.2738145,10.0789642 70.1683152,10.0789642 57.1508388,23.0964406 C51.6333183,28.6139611 48.3114099,35.7355855 47.5532435,43.3382752 C47.2168066,46.7119749 47.3938161,50.1216309 48.0741448,53.4168242 C49.3385725,59.2127209 48.4053484,65.4033463 45.3292315,70.731337 C42.4049169,75.7963985 37.8377458,79.5249342 32.3907829,81.4705118 C21.5103672,84.8543326 13.0294272,93.5251514 10.0335193,104.706032 C5.26879229,122.488235 15.8215419,140.766134 33.6037454,145.530861 C44.8080364,148.533042 56.5644072,145.502488 64.915373,137.763726 Z M32.4534385,149.823865 C12.3002746,144.423841 0.34049168,123.708889 5.74051567,103.555725 C9.13075812,90.9031679 18.7243406,81.0832694 30.9376711,77.2700415 C35.3884716,75.6696204 39.0989027,72.6336942 41.4802297,68.5091148 C43.9992555,64.1460342 44.7620059,59.0862611 43.7266847,54.3398966 C42.9501643,50.5795762 42.7497015,46.7181499 43.1307351,42.8972474 C43.9898403,34.2823705 47.7581494,26.2037364 54.008142,19.9537438 C68.7612819,5.20060391 92.6808478,5.20060391 107.433988,19.9537438 C116.695713,29.2154687 120.402719,42.4318039 117.597656,54.9147328 C116.765013,59.5340653 117.565405,64.2997447 119.962429,68.4515135 C122.49057,72.8303816 126.497826,76.0096624 131.226272,77.5125527 C142.95477,81.2861558 152.359456,91.0826218 155.701614,103.555725 C161.101638,123.708889 149.141855,144.423841 128.988691,149.823865 C116.450894,153.183357 103.290392,149.877171 93.8330276,141.32325 C90.4543423,138.232151 85.7166203,136.388889 80.7210648,136.388889 C76.0051304,136.388889 71.5472313,138.023954 67.9914327,140.962244 C58.5329902,149.775448 45.1759394,153.232848 32.4534385,149.823865 Z" id="around" fill="#FFFFFF" fill-rule="nonzero"></path>
                <path d="M80.7210648,71.1100006 C67.2207709,71.1100006 56.2766204,60.1656015 56.2766204,46.6650009 C56.2766204,33.1644004 67.2207709,22.2200012 80.7210648,22.2200012 C94.2213587,22.2200012 105.165509,33.1644004 105.165509,46.6650009 C105.165509,60.1656015 94.2213587,71.1100006 80.7210648,71.1100006 Z M80.7210648,66.6654552 C91.7667598,66.6654552 100.721065,57.7109468 100.721065,46.6650009 C100.721065,35.619055 91.7667598,26.6645466 80.7210648,26.6645466 C69.6753698,26.6645466 60.7210648,35.619055 60.7210648,46.6650009 C60.7210648,57.7109468 69.6753698,66.6654552 80.7210648,66.6654552 Z" id="Combined-Shape" stroke="#757575" stroke-width="2"></path>
                <path d="M81,22 L182,22" id="Line" stroke="#757575" stroke-width="2" stroke-linecap="square" stroke-dasharray="4,4,4,4"></path>
                <path d="M79,71 L180,71" id="Line-Copy" stroke="#757575" stroke-width="2" stroke-linecap="square" stroke-dasharray="4,4,4,4"></path>
                <g id="Combined-Shape-Copy">
                    <use fill="#FFFFFF" fill-rule="evenodd" xlink:href="#path-1"></use>
                    <path stroke="#757575" stroke-width="1" d="M180.444444,71.3888889 C166.668008,71.3888889 155.5,60.2208807 155.5,46.4444444 C155.5,32.6680082 166.668008,21.5 180.444444,21.5 C194.220881,21.5 205.388889,32.6680082 205.388889,46.4444444 C205.388889,60.2208807 194.220881,71.3888889 180.444444,71.3888889 Z M180.444444,65.9444444 C191.213997,65.9444444 199.944444,57.2139971 199.944444,46.4444444 C199.944444,35.6748918 191.213997,26.9444444 180.444444,26.9444444 C169.674892,26.9444444 160.944444,35.6748918 160.944444,46.4444444 C160.944444,57.2139971 169.674892,65.9444444 180.444444,65.9444444 Z"></path>
                </g>
                <path d="M140.380593,125.555556 C133.630446,137.247153 118.680458,141.25299 106.988861,134.502843 C95.2972631,127.752696 91.291426,112.802709 98.0415729,101.111111 C104.79172,89.4195136 119.741708,85.4136765 131.433305,92.1638235 C143.124902,98.9139704 147.13074,113.863958 140.380593,125.555556 Z M136.531591,123.333333 C142.054438,113.767481 138.776935,101.535673 129.211083,96.0128253 C119.64523,90.4899778 107.413422,93.7674809 101.890575,103.333333 C96.3677272,112.899186 99.6452303,125.130994 109.211083,130.653841 C118.776935,136.176689 131.008743,132.899186 136.531591,123.333333 Z" id="Combined-Shape" fill="#FFFFFF"></path>
                <path d="M21.061537,125.555556 C14.3113901,113.863958 18.3172272,98.9139704 30.0088247,92.1638235 C41.7004221,85.4136765 56.6504098,89.4195136 63.4005568,101.111111 C70.1507037,112.802709 66.1448666,127.752696 54.4532691,134.502843 C42.7616716,141.25299 27.811684,137.247153 21.061537,125.555556 Z M24.9105388,123.333333 C30.4333863,132.899186 42.6651944,136.176689 52.2310469,130.653841 C61.7968994,125.130994 65.0744025,112.899186 59.551555,103.333333 C54.0287075,93.7674809 41.7968994,90.4899778 32.2310469,96.0128253 C22.6651944,101.535673 19.3876913,113.767481 24.9105388,123.333333 Z" id="Combined-Shape" fill="#FFFFFF"></path>
            </g>
        </g>
    </g>
</svg>