<?xml version="1.0" encoding="UTF-8"?>
<svg width="256px" height="256px" viewBox="0 0 256 256" version="1.1" xmlns="http://www.w3.org/2000/svg" xmlns:xlink="http://www.w3.org/1999/xlink">
    <!-- Generator: Sketch 46 (44423) - http://www.bohemiancoding.com/sketch -->
    <title>packages v2</title>
    <desc>Created with Sketch.</desc>
    <defs></defs>
    <g id="assets" stroke="none" stroke-width="1" fill="none" fill-rule="evenodd">
        <g id="packages-v2" fill="#FFFFFF">
            <path d="M144.45554,68.6344856 L144.45554,68.6344856 L195,68.6344856 C208.805217,68.6344856 219.996557,79.8258253 219.996557,93.6310424 C219.996557,107.43626 208.805217,118.627599 195,118.627599 L157.002481,118.627599 C159.513727,121.707591 162.852924,123.968054 166.645939,125.173627 C178.639342,129.032462 188.256446,139.050195 191.674091,151.805021 C197.196082,172.413372 184.966171,193.596201 164.357819,199.118192 C151.536838,202.553563 138.079087,199.172702 128.408115,190.425579 C124.953117,187.264663 120.108387,185.379768 115,185.379768 C110.177696,185.379768 105.619239,187.051662 101.983182,190.056146 C92.3107763,199.068681 78.6520375,202.604172 65.6421809,199.118192 C45.0338292,193.596201 32.8039176,172.413372 38.3259088,151.805021 C41.7927247,138.866688 51.6029918,128.824993 64.0921778,124.925638 C68.6435058,123.289069 72.4377423,120.184572 74.872855,115.966833 C77.4487765,111.505206 78.2287547,106.331151 77.1700493,101.477583 C76.3759902,97.6323306 76.1709996,93.6836885 76.5606394,89.7764855 C77.4391487,80.9670294 81.2925704,72.7059279 87.6837279,66.3147704 C102.770088,51.2284099 127.229912,51.2284099 142.316272,66.3147704 C143.065025,67.063523 143.778275,67.837551 144.45554,68.6344856 Z M138.174843,68.6344856 C124.806515,56.2239421 103.903926,56.52193 90.897407,69.5284494 C85.2552654,75.170591 81.8583271,82.4530673 81.0830364,90.2274745 C80.7390006,93.6773741 80.9200081,97.164042 81.615703,100.533662 C82.9086896,106.460467 81.9543873,112.790917 78.8087919,118.239248 C75.8184276,123.418711 71.1481004,127.231461 65.5781102,129.220982 C54.4519448,132.681231 45.7794508,141.547892 42.7158761,152.981309 C37.8435309,171.165149 48.6346294,189.855879 66.8184691,194.728225 C78.2756325,197.798162 90.2973261,194.699315 98.8368839,186.786057 C103.31055,182.963207 108.994084,180.83494 115,180.83494 C121.24484,180.83494 127.183752,183.145538 131.466334,187.063646 C139.99537,194.777876 151.86637,197.760113 163.181531,194.728225 C181.365371,189.855879 192.156469,171.165149 187.284124,152.981309 C184.267936,141.724742 175.78492,132.88834 165.26161,129.502487 C159.526367,127.679614 154.625343,123.866149 151.456114,118.627605 L115,118.627599 C101.194783,118.627599 90.0034431,107.43626 90.0034431,93.6310424 C90.0034431,79.8258253 101.194783,68.6344856 115,68.6344856 L138.174843,68.6344856 L138.174843,68.6344856 Z M180.624348,73.1793141 L115,73.1793141 C103.704822,73.1793141 94.5482716,82.3358648 94.5482716,93.6310424 C94.5482716,104.92622 103.704822,114.082771 115,114.082771 L180.624348,114.082771 C174.200358,109.558997 170.003443,102.085141 170.003443,93.6310424 C170.003443,85.1769444 174.200358,77.7030883 180.624348,73.1793141 L180.624348,73.1793141 Z M195,114.082771 C206.295178,114.082771 215.451728,104.92622 215.451728,93.6310424 C215.451728,82.3358648 206.295178,73.1793141 195,73.1793141 C183.704822,73.1793141 174.548272,82.3358648 174.548272,93.6310424 C174.548272,104.92622 183.704822,114.082771 195,114.082771 Z M53.9929772,174.301749 C47.0903686,162.34608 51.1866832,147.058426 63.142352,140.155817 C75.0980208,133.253208 90.3856751,137.349523 97.2882837,149.305192 C104.190892,161.260861 100.094578,176.548515 88.1389089,183.451124 C76.1832401,190.353732 60.8955857,186.257418 53.9929772,174.301749 Z M176.007023,174.301749 C169.104414,186.257418 153.81676,190.353732 141.861091,183.451124 C129.905422,176.548515 125.809108,161.260861 132.711716,149.305192 C139.614325,137.349523 154.901979,133.253208 166.857648,140.155817 C178.813317,147.058426 182.909631,162.34608 176.007023,174.301749 Z M172.071086,172.029334 C177.718675,162.247424 174.367145,149.739343 164.585234,144.091754 C154.803323,138.444165 142.295242,141.795695 136.647653,151.577606 C131.000064,161.359517 134.351595,173.867598 144.133505,179.515187 C153.915416,185.162775 166.423497,181.811245 172.071086,172.029334 Z M57.9289141,172.029334 C63.576503,181.811245 76.0845838,185.162775 85.8664946,179.515187 C95.6484054,173.867598 98.9999356,161.359517 93.3523467,151.577606 C87.7047579,141.795695 75.1966771,138.444165 65.4147663,144.091754 C55.6328554,149.739343 52.2813253,162.247424 57.9289141,172.029334 Z" id="Combined-Shape"></path>
        </g>
    </g>
</svg>