<?xml version="1.0" encoding="UTF-8"?>
<svg width="256px" height="256px" viewBox="0 0 256 256" version="1.1" xmlns="http://www.w3.org/2000/svg" xmlns:xlink="http://www.w3.org/1999/xlink">
    <!-- Generator: Sketch 46 (44423) - http://www.bohemiancoding.com/sketch -->
    <title>services</title>
    <desc>Created with Sketch.</desc>
    <defs></defs>
    <g id="assets" stroke="none" stroke-width="1" fill="none" fill-rule="evenodd">
        <g id="services" fill-rule="nonzero" fill="#FFFFFF">
            <path d="M155.322954,71.1200027 C163.930307,70.3528974 172.803716,73.2635244 179.392076,79.8518839 C186.801456,87.2612638 189.767061,97.834332 187.523011,107.820675 C186.856896,111.516141 187.497209,115.328685 189.414829,118.6501 C191.437342,122.153194 194.643147,124.696619 198.425903,125.898931 C207.808702,128.917814 215.332451,136.754986 218.006177,146.733469 C222.326196,162.856 212.75837,179.427961 196.635839,183.747981 C186.605601,186.435575 176.077199,183.790626 168.511308,176.947489 C165.80836,174.474609 162.018182,173 158.021738,173 C154.74173,173 151.61775,173.988688 148.988386,175.791615 C145.322897,179.550024 140.629906,182.401728 135.190953,183.859092 C132.806623,184.497971 130.394144,184.835519 128,184.886972 L65,184.880005 C62.6567049,184.820908 60.2963845,184.484387 57.9627508,183.859092 C41.8402197,179.539072 32.2723933,162.967111 36.5924125,146.84458 C39.3046065,136.722534 46.9794725,128.866615 56.7501369,125.816033 C60.3107773,124.535696 63.2791221,122.106955 65.1841838,118.807292 C67.1994044,115.316827 67.8096047,111.269009 66.9813478,107.471917 C66.3601315,104.463661 66.1997612,101.37452 66.5045881,98.3177979 C67.1918722,91.4258964 70.2065195,84.9629891 75.2065136,79.9629951 C80.9610547,74.208454 88.4588572,71.2630701 96,71.1200027 L155.322954,71.1200027 Z M143.58098,74.6642635 C112.849975,74.6530866 97.0332721,74.6549981 96.1308716,74.6699982 C89.455693,74.7809554 82.8142335,77.3869215 77.720671,82.480484 C73.3066546,86.8945004 70.649128,92.5917999 70.0425948,98.6739516 C69.7734453,101.372911 69.9150529,104.100636 70.4593159,106.736791 C71.470858,111.373508 70.7242787,116.326009 68.2633852,120.588401 C65.9239335,124.64045 62.2701967,127.623279 57.9126264,129.179741 C49.2082938,131.886798 42.4235418,138.823453 40.0268155,147.768157 C36.2150338,161.99392 44.6572336,176.616239 58.8829963,180.42802 C60.9116088,180.971585 62.9628439,181.267947 65,181.400002 L113.332091,181.400002 C100.982928,175.021785 94.2926244,160.708782 98.0372982,146.733469 C100.749492,136.611423 108.424358,128.755504 118.195023,125.704922 C121.755663,124.424585 124.724008,121.995844 126.629069,118.696181 C128.64429,115.205716 129.25449,111.157898 128.426233,107.360806 C127.805017,104.35255 127.644647,101.263409 127.949474,98.2066868 C128.636758,91.3147853 131.651405,84.851878 136.651399,79.8518839 C138.755836,77.7474474 141.09341,76.0182406 143.580983,74.6642635 L143.58098,74.6642635 Z M145.820746,174.214312 C149.320293,171.223895 153.766691,169.558887 158.4653,169.558887 C163.350825,169.558887 167.997014,171.366537 171.347406,174.43179 C178.019926,180.466864 187.306966,182.799957 196.159155,180.42802 C210.384918,176.616239 218.827118,161.99392 215.015336,147.768157 C212.655682,138.961807 206.019164,132.048825 197.786463,129.399971 C193.172887,127.933605 189.249331,124.820731 186.77919,120.54232 C184.429886,116.473206 183.648625,111.790008 184.475161,107.261645 C186.483501,98.3704964 183.868982,89.0279861 177.32148,82.480484 C166.907499,72.0665029 150.0231,72.0665029 139.609119,82.480484 C135.195102,86.8945004 132.537576,92.5917999 131.931042,98.6739516 C131.661893,101.372911 131.803501,104.100636 132.347764,106.736791 C133.359306,111.373508 132.612726,116.326009 130.151833,120.588401 C127.812381,124.64045 124.158644,127.623279 119.801074,129.179741 C111.096741,131.886798 104.311989,138.823453 101.915263,147.768157 C98.1034815,161.99392 106.545681,176.616239 120.771444,180.42802 C129.734877,182.829765 139.139973,180.405322 145.820746,174.214312 Z M110.506636,164.421256 C105.101431,155.059167 108.30912,143.08791 117.671209,137.682706 C127.033298,132.277501 139.004554,135.48519 144.409759,144.847279 C149.814964,154.209368 146.607275,166.180624 137.245186,171.585829 C127.883097,176.991034 115.91184,173.783345 110.506636,164.421256 Z M113.588738,162.641803 C118.011178,170.301695 127.805843,172.926167 135.465734,168.503727 C143.125625,164.081287 145.750097,154.286622 141.327657,146.626731 C136.905217,138.96684 127.110552,136.342368 119.450661,140.764808 C111.79077,145.187248 109.166298,154.981912 113.588738,162.641803 Z M206.409759,164.421256 C201.004554,173.783345 189.033298,176.991034 179.671209,171.585829 C170.30912,166.180624 167.101431,154.209368 172.506636,144.847279 C177.91184,135.48519 189.883097,132.277501 199.245186,137.682706 C208.607275,143.08791 211.814964,155.059167 206.409759,164.421256 Z M203.187209,162.641803 C207.609649,154.981912 204.985177,145.187248 197.325286,140.764808 C189.665395,136.342368 179.87073,138.96684 175.44829,146.626731 C171.02585,154.286622 173.650322,164.081287 181.310213,168.503727 C188.970104,172.926167 198.764769,170.301695 203.187209,162.641803 Z M176.409759,110.421256 C171.004554,119.783345 159.033298,122.991034 149.671209,117.585829 C140.30912,112.180624 137.101431,100.209368 142.506636,90.8472785 C147.91184,81.4851895 159.883097,78.2775009 169.245186,83.6827055 C178.607275,89.0879102 181.814964,101.059167 176.409759,110.421256 Z M145.788286,108.641803 C150.210727,116.301695 160.005391,118.926167 167.665282,114.503727 C175.325173,110.081287 177.949646,100.286622 173.527206,92.626731 C169.104765,84.96684 159.310101,82.3423675 151.65021,86.7648077 C143.990319,91.1872478 141.365846,100.981912 145.788286,108.641803 Z" id="Combined-Shape"></path>
        </g>
    </g>
</svg>