<?xml version="1.0" encoding="UTF-8"?>
<svg width="256px" height="256px" viewBox="0 0 256 256" version="1.1" xmlns="http://www.w3.org/2000/svg" xmlns:xlink="http://www.w3.org/1999/xlink">
    <!-- Generator: Sketch 46 (44423) - http://www.bohemiancoding.com/sketch -->
    <title>timer</title>
    <desc>Created with Sketch.</desc>
    <defs></defs>
    <g id="assets" stroke="none" stroke-width="1" fill="none" fill-rule="evenodd">
        <g id="timer" stroke="#FFFFFF" stroke-width="4">
            <path d="M128,232 C74.980664,232 32,189.019336 32,136 C32,82.980664 74.980664,40 128,40 C181.019336,40 224,82.980664 224,136 C224,189.019336 181.019336,232 128,232 Z M128,224 C176.601058,224 216,184.601058 216,136 C216,87.398942 176.601058,48 128,48 C79.398942,48 40,87.398942 40,136 C40,184.601058 79.398942,224 128,224 Z M195.203646,92.5811548 L195.203646,92.5811548 L184.889727,98.5358984 C182.976557,99.6404679 182.321056,102.08683 183.425626,104 C184.530195,105.91317 186.976557,106.568671 188.889727,105.464102 L199.21,99.5056897 C204.255659,109.331326 207.32745,120.337306 207.90174,132 L196,132 C193.790861,132 192,133.790861 192,136 C192,138.209139 193.790861,140 196,140 L207.901739,140.000012 C207.327448,151.662704 204.255656,162.668682 199.21,172.49431 L188.889727,166.535898 C186.976557,165.431329 184.530195,166.08683 183.425626,168 C182.321056,169.91317 182.976557,172.359532 184.889727,173.464102 L195.203646,179.418845 C192.100671,184.211756 188.498904,188.651666 184.471831,192.66509 L144.584763,153.347837 C149.15407,148.978295 152,142.821499 152,136 C152,122.745166 141.254834,112 128,112 L128,72 C130.209139,72 132,70.209139 132,68 L132,56.09826 C143.662694,56.6725502 154.668674,59.7443408 164.49431,64.7900003 L158.535898,75.1102725 C157.431329,77.023443 158.08683,79.4698047 160,80.5743742 C161.91317,81.6789437 164.359532,81.023443 165.464102,79.1102725 L171.418845,68.7963541 C180.927866,74.9525833 189.047417,83.0721338 195.203646,92.5811548 Z M128,152 C119.163444,152 112,144.836556 112,136 C112,127.163444 119.163444,120 128,120 C136.836556,120 144,127.163444 144,136 C144,144.836556 136.836556,152 128,152 Z M128,144 C132.418278,144 136,140.418278 136,136 C136,131.581722 132.418278,128 128,128 C123.581722,128 120,131.581722 120,136 C120,140.418278 123.581722,144 128,144 Z M100,24 L156,24 C158.209139,24 160,25.790861 160,28 L160,28 C160,30.209139 158.209139,32 156,32 L100,32 C97.790861,32 96,30.209139 96,28 L96,28 L96,28 C96,25.790861 97.790861,24 100,24 Z" id="Combined-Shape"></path>
        </g>
    </g>
</svg>