<?xml version="1.0" encoding="UTF-8"?>
<svg width="256px" height="256px" viewBox="0 0 256 256" version="1.1" xmlns="http://www.w3.org/2000/svg" xmlns:xlink="http://www.w3.org/1999/xlink">
    <!-- Generator: Sketch 46 (44423) - http://www.bohemiancoding.com/sketch -->
    <title>update</title>
    <desc>Created with Sketch.</desc>
    <defs></defs>
    <g id="assets" stroke="none" stroke-width="1" fill="none" fill-rule="evenodd">
        <g id="update" stroke="#FFFFFF" stroke-width="4">
            <path d="M195.064233,138.252017 C184.572516,165.034028 158.501128,184 128,184 L103.313708,184 L133.254834,154.058875 L127.59798,148.40202 L88,188 L127.59798,227.59798 L133.254834,221.941125 L103.313708,192 L128,192 C162.205944,192 191.397798,170.53213 202.837181,140.334772 L195.064233,138.252017 Z M199.196186,122.794751 C199.725594,119.273528 200,115.668809 200,112 C200,94.9998903 194.108217,79.3758802 184.255195,67.0585135 L189.943563,61.3701459 C201.229078,75.1611105 208,92.7898384 208,112 C208,116.383783 207.647399,120.685212 206.96901,124.877473 L199.196186,122.794751 Z M172.941486,55.744805 C160.62412,45.8917829 145.00011,40 128,40 C124.45926,40 120.978215,40.2555826 117.574307,40.7493054 L115.490473,32.9723307 C119.566352,32.332287 123.744371,32 128,32 C147.210162,32 164.838889,38.7709223 178.629854,50.0564374 L172.941486,55.744805 Z M102.095453,44.800691 C89.2043153,49.7733507 78.103859,58.348598 70.0281721,69.2923453 L63.0600697,65.2693095 C72.2377417,52.5378329 85.0671251,42.6138176 100.013764,37.0317197 L102.095453,44.800691 Z M62.0164164,83.1419646 C58.1470341,91.976719 56,101.737626 56,112 C56,116.10115 56.3428899,120.122214 57.0015651,124.036088 L49.2661546,126.254171 C48.434268,121.628643 48,116.865036 48,112 C48,100.280203 50.5201475,89.1490182 55.0480891,79.1187989 L62.0164164,83.1419646 Z M61.4045326,139.418338 C65.1031157,148.391963 70.5626724,156.454257 77.3527785,163.174797 L71.7253094,168.860885 C63.9723939,161.1874 57.7806495,151.939597 53.669052,141.636452 L61.4045326,139.418338 Z" id="Combined-Shape"></path>
        </g>
    </g>
</svg>