<?xml version="1.0" encoding="UTF-8"?>
<svg width="256px" height="256px" viewBox="0 0 256 256" version="1.1" xmlns="http://www.w3.org/2000/svg" xmlns:xlink="http://www.w3.org/1999/xlink">
    <!-- Generator: Sketch 46 (44423) - http://www.bohemiancoding.com/sketch -->
    <title>watching</title>
    <desc>Created with Sketch.</desc>
    <defs></defs>
    <g id="assets" stroke="none" stroke-width="1" fill="none" fill-rule="evenodd">
        <g id="watching" stroke="#FFFFFF" stroke-width="4">
            <path d="M72,104 L72,88 C72,79.163444 79.163444,72 88,72 L136.50407,72 C138.280241,65.0990911 144.544642,60 152,60 L184,60 C192.836556,60 200,67.163444 200,76 C200,84.836556 192.836556,92 184,92 L152,92 C144.544642,92 138.280241,86.9009089 136.50407,80 L88,80 C83.581722,80 80,83.581722 80,88 L80,104 L184,104 C192.836556,104 200,111.163444 200,120 L200,132.928546 C209.717094,130.158518 220.717094,125.849003 233,120 L233,184 C220.717094,178.150997 209.717094,173.841482 200,171.071454 L200,184 C200,192.836556 192.836556,200 184,200 L55,200 C46.6292703,199.453062 40,192.500705 40,184 L40,176 C32.5446423,176 26.2802411,170.900909 24.5040699,164 L24,141 C25.6850114,133.597418 32.1888322,128 40,128 L40,120 C40,111.499295 46.6292703,104.546938 55,104.030742 L72,104 Z M200,142 L200,162 C210.666667,164.666667 219,167 225,169 L225,134 C216.333333,136.666667 208,139.333333 200,142 Z M153,68.0618938 C152.672406,68.0210433 152.33866,68 152,68 C147.581722,68 144,71.581722 144,76 C144,80.418278 147.581722,84 152,84 C152.33866,84 152.672406,83.9789567 153,83.9381062 L153,84 L183,84 L183,83.9381062 C183.327594,83.9789567 183.66134,84 184,84 C188.418278,84 192,80.418278 192,76 C192,71.581722 188.418278,68 184,68 C183.66134,68 183.327594,68.0210433 183,68.0618938 L183,68 L153,68 L153,68.0618938 Z M40,136 C35.581722,136 32,139.581722 32,144 L32,160 C32,164.418278 35.581722,168 40,168 L104,168 C108.418278,168 112,164.418278 112,160 L112,144 C112,139.581722 108.418278,136 104,136 L40.0000002,136 L40,136 Z M48,128 L104,128 C112.836556,128 120,135.163444 120,144 L120,160 C120,168.836556 112.836556,176 104,176 L48,176 L48,184 C48,188.418278 51.581722,192 56,192 L184,192 C188.418278,192 192,188.418278 192,184 L192,120 C192,115.581722 188.418278,112 184,112 L56,112 C51.581722,112 48,115.581722 48,120 L48,128 Z M88,148 L96,148 C98.209139,148 100,149.790861 100,152 C100,154.209139 98.209139,156 96,156 L88,156 C85.790861,156 84,154.209139 84,152 C84,149.790861 85.790861,148 88,148 Z M68,148 C70.209139,148 72,149.790861 72,152 C72,154.209139 70.209139,156 68,156 C65.790861,156 64,154.209139 64,152 C64,149.790861 65.790861,148 68,148 Z" id="Combined-Shape"></path>
        </g>
    </g>
</svg>