<?xml version="1.0" encoding="UTF-8"?>
<svg width="2000px" height="2000px" viewBox="0 0 2000 2000" version="1.1" xmlns="http://www.w3.org/2000/svg" xmlns:xlink="http://www.w3.org/1999/xlink">
    <!-- Generator: Sketch 46 (44423) - http://www.bohemiancoding.com/sketch -->
    <title>Artboard</title>
    <desc>Created with Sketch.</desc>
    <defs>
        <linearGradient x1="7.90443066%" y1="71.4835112%" x2="97.8328469%" y2="10.69009%" id="linearGradient-1">
            <stop stop-color="#000000" stop-opacity="0" offset="0%"></stop>
            <stop stop-color="#000000" offset="100%"></stop>
        </linearGradient>
        <linearGradient x1="50%" y1="3.10698263%" x2="50%" y2="91.9167473%" id="linearGradient-2">
            <stop stop-color="#9E9E9E" offset="0%"></stop>
            <stop stop-color="#D0D0D0" offset="49.9521684%"></stop>
            <stop stop-color="#D0D0D0" offset="100%"></stop>
        </linearGradient>
        <linearGradient x1="50%" y1="3.41561765%" x2="50%" y2="94.8192519%" id="linearGradient-3">
            <stop stop-color="#BDBDBD" offset="0%"></stop>
            <stop stop-color="#F5F5F5" offset="69.2861129%"></stop>
            <stop stop-color="#F5F5F5" offset="100%"></stop>
        </linearGradient>
        <linearGradient x1="100%" y1="67.3106849%" x2="0%" y2="67.3106849%" id="linearGradient-4">
            <stop stop-color="#F5F5F5" offset="1.85546875%"></stop>
            <stop stop-color="#F5F5F5" offset="18.4311224%"></stop>
            <stop stop-color="#D0D0D0" offset="25.2471301%"></stop>
            <stop stop-color="#D0D0D0" offset="100%"></stop>
        </linearGradient>
        <path d="M11.7155944,85.3524443 C9.42725346,85.8463973 7.18231846,86.3938004 5,87 C-2.52485833,89.0902384 -2.74011537,99 13,99 C13.2210664,99 201.5544,99 578,99 C592.163255,98.822685 612.399208,96.9047748 625.865363,90.9991314 C626.968819,90.5029462 627.49043,90.2547851 628,90 C628.714995,89.6425026 629.246017,89.2689278 629.610951,88.8850142 C718.822904,37.1647362 763.619254,11.2030648 764,11 C779,3 753,1 750,1 L334,0 C320,0 293,4 286,6 C285.560938,6.12544622 285.043736,6.37709319 284.505333,6.7191034 L11.7155944,85.3524443 Z" id="path-5"></path>
        <linearGradient x1="0%" y1="100%" x2="100%" y2="0%" id="linearGradient-7">
            <stop stop-color="#9E9E9E" offset="0%"></stop>
            <stop stop-color="#9E9E9E" offset="49.1988202%"></stop>
            <stop stop-color="#757575" offset="49.3263712%"></stop>
            <stop stop-color="#757575" offset="100%"></stop>
        </linearGradient>
        <path d="M707.234625,1431 L721.111655,1431 L721.111655,1431 C721.66394,1431 722.111655,1431.44772 722.111655,1432 C722.111655,1432.40234 721.870526,1432.7655 721.499712,1432.92164 L707.80806,1438.68654 C707.31671,1438.89343 706.78896,1439 706.255832,1439 L691.596118,1439 L676.936404,1439 C676.384119,1439 675.936404,1438.55228 675.936404,1438 C675.936404,1437.58136 676.197181,1437.20702 676.589887,1437.06196 L676.589887,1437.06196 L692.664561,1431.12391 L692.664561,1431.12391 C692.886428,1431.04195 693.121074,1431 693.357594,1431 L707.234625,1431 Z M580.261217,1445.06166 L593.665291,1440.12331 C593.886684,1440.04175 594.120762,1440 594.356702,1440 L734.945032,1440 L734.945032,1440 C735.497317,1440 735.945032,1440.44772 735.945032,1441 C735.945032,1441.40522 735.700483,1441.77039 735.325782,1441.92468 L723.731698,1446.69871 L723.731698,1446.69871 C723.248581,1446.89764 722.73117,1447 722.208699,1447 L580.606922,1447 L580.606922,1447 C580.054638,1447 579.606922,1446.55228 579.606922,1446 C579.606922,1445.58104 579.868088,1445.20649 580.261217,1445.06166 L580.261217,1445.06166 Z M730.674218,1445.07532 L742.634151,1440.15064 C742.87571,1440.05118 743.134415,1440 743.39565,1440 L773.219393,1440 L773.219393,1440 C773.771678,1440 774.219393,1440.44772 774.219393,1441 C774.219393,1441.3973 773.984199,1441.75691 773.620212,1441.91616 L762.766562,1446.66463 C762.260992,1446.88582 761.715124,1447 761.163286,1447 L731.054968,1447 C730.502683,1447 730.054968,1446.55228 730.054968,1446 C730.054968,1445.59478 730.299517,1445.22961 730.674218,1445.07532 Z M538.66965,1445.05614 L552.794959,1440.11228 L552.794959,1440.11228 C553.00731,1440.03796 553.230679,1440 553.45566,1440 L585.714991,1440 L585.714991,1440 C586.267276,1440 586.714991,1440.44772 586.714991,1441 C586.714991,1441.42867 586.441775,1441.80966 586.035758,1441.94716 L571.739893,1446.78863 L571.739893,1446.78863 C571.326595,1446.9286 570.89318,1447 570.456825,1447 L539,1447 L539,1447 C538.447715,1447 538,1446.55228 538,1446 C538,1445.57506 538.268563,1445.19652 538.66965,1445.05614 L538.66965,1445.05614 Z M601.671479,1437.0555 L618.761908,1431.11101 L618.761908,1431.11101 C618.973173,1431.03752 619.195269,1431 619.418949,1431 L646.647025,1431 L646.647025,1431 C647.19931,1431 647.647025,1431.44772 647.647025,1432 C647.647025,1432.41494 647.390777,1432.78677 647.003021,1432.93449 L631.76893,1438.73795 L631.76893,1438.73795 C631.314162,1438.9112 630.831598,1439 630.344949,1439 L602,1439 C601.447715,1439 601,1438.55228 601,1438 C601,1437.57434 601.269449,1437.19534 601.671479,1437.0555 Z M607.66965,1428.05614 L621.794959,1423.11228 L621.794959,1423.11228 C622.00731,1423.03796 622.230679,1423 622.45566,1423 L651.508846,1423 L651.508846,1423 C652.061131,1423 652.508846,1423.44772 652.508846,1424 C652.508846,1424.41896 652.24768,1424.79351 651.854552,1424.93834 L638.785186,1429.75337 L638.785186,1429.75337 C638.342401,1429.9165 637.874244,1430 637.402365,1430 L608,1430 L608,1430 C607.447715,1430 607,1429.55228 607,1429 C607,1428.57506 607.268563,1428.19652 607.66965,1428.05614 L607.66965,1428.05614 Z M573.66965,1420.05614 L587.794959,1415.11228 L587.794959,1415.11228 C588.00731,1415.03796 588.230679,1415 588.45566,1415 L617.199384,1415 L617.199384,1415 C617.751669,1415 618.199384,1415.44772 618.199384,1416 C618.199384,1416.4256 617.93,1416.80457 617.528039,1416.94445 L603.638532,1421.7778 L603.638532,1421.7778 C603.215842,1421.92489 602.771463,1422 602.323911,1422 L574,1422 C573.447715,1422 573,1421.55228 573,1421 C573,1420.57506 573.268563,1420.19652 573.66965,1420.05614 Z M611.66965,1420.05614 L625.794959,1415.11228 L625.794959,1415.11228 C626.00731,1415.03796 626.230679,1415 626.45566,1415 L655.508846,1415 C656.061131,1415 656.508846,1415.44772 656.508846,1416 C656.508846,1416.41896 656.24768,1416.79351 655.854552,1416.93834 L642.785186,1421.75337 L642.785186,1421.75337 C642.342401,1421.9165 641.874244,1422 641.402365,1422 L612,1422 L612,1422 C611.447715,1422 611,1421.55228 611,1421 C611,1420.57506 611.268563,1420.19652 611.66965,1420.05614 Z M649.66965,1420.05614 L663.794959,1415.11228 L663.794959,1415.11228 C664.00731,1415.03796 664.230679,1415 664.45566,1415 L689.393078,1415 L689.393078,1415 C689.945362,1415 690.393078,1415.44772 690.393078,1416 C690.393078,1416.41896 690.131912,1416.79351 689.738783,1416.93834 L676.669418,1421.75337 L676.669418,1421.75337 C676.226633,1421.9165 675.758476,1422 675.286596,1422 L650,1422 C649.447715,1422 649,1421.55228 649,1421 C649,1420.57506 649.268563,1420.19652 649.66965,1420.05614 L649.66965,1420.05614 Z M684.65614,1420.06098 L698.143737,1415.12196 C698.364049,1415.04128 698.596838,1415 698.831457,1415 L726.030557,1415 L726.030557,1415 C726.582841,1415 727.030557,1415.44772 727.030557,1416 C727.030557,1416.41241 726.777374,1416.78253 726.393003,1416.932 L714.060395,1421.72802 L714.060395,1421.72802 C713.598174,1421.90777 713.106554,1422 712.61061,1422 L685,1422 L685,1422 C684.447715,1422 684,1421.55228 684,1421 C684,1420.58032 684.262051,1420.20529 684.65614,1420.06098 Z M720.65614,1420.06098 L734.143737,1415.12196 L734.143737,1415.12196 C734.364049,1415.04128 734.596838,1415 734.831457,1415 L761.04422,1415 C761.596504,1415 762.04422,1415.44772 762.04422,1416 C762.04422,1416.40245 761.802961,1416.76569 761.432,1416.92175 L750.104996,1421.68701 L750.104996,1421.68701 C749.613957,1421.89359 749.0866,1422 748.553877,1422 L721,1422 L721,1422 C720.447715,1422 720,1421.55228 720,1421 C720,1420.58032 720.262051,1420.20529 720.65614,1420.06098 L720.65614,1420.06098 Z M755.637554,1420.068 L768.319851,1415.13599 L768.319851,1415.13599 C768.550962,1415.04611 768.796772,1415 769.044744,1415 L793.888935,1415 L793.888935,1415 C794.441219,1415 794.888935,1415.44772 794.888935,1416 C794.888935,1416.3973 794.653741,1416.75691 794.289754,1416.91616 L783.436103,1421.66463 L783.436103,1421.66463 C782.930533,1421.88582 782.384665,1422 781.832828,1422 L756,1422 L756,1422 C755.447715,1422 755,1421.55228 755,1421 C755,1420.58759 755.253182,1420.21747 755.637554,1420.068 L755.637554,1420.068 Z M790.592122,1420.08696 L801.589984,1415.17393 L801.589984,1415.17393 C801.846657,1415.05926 802.124619,1415 802.405739,1415 L830.529172,1415 L830.529172,1415 C831.081456,1415 831.529172,1415.44772 831.529172,1416 C831.529172,1416.3973 831.293978,1416.75691 830.92999,1416.91616 L820.07634,1421.66463 C819.57077,1421.88582 819.024902,1422 818.473065,1422 L791,1422 L791,1422 C790.447715,1422 790,1421.55228 790,1421 C790,1420.6055 790.231931,1420.24787 790.592122,1420.08696 Z M792.61925,1412.07532 L804.579183,1407.15064 L804.579183,1407.15064 C804.820742,1407.05118 805.079447,1407 805.340682,1407 L830.474203,1407 L830.474203,1407 C831.026488,1407 831.474203,1407.44772 831.474203,1408 C831.474203,1408.3973 831.23901,1408.75691 830.875022,1408.91616 L820.021372,1413.66463 L820.021372,1413.66463 C819.515802,1413.88582 818.969934,1414 818.418097,1414 L793,1414 L793,1414 C792.447715,1414 792,1413.55228 792,1413 C792,1412.59478 792.244549,1412.22961 792.61925,1412.07532 L792.61925,1412.07532 Z M757.61925,1412.07532 L769.579183,1407.15064 L769.579183,1407.15064 C769.820742,1407.05118 770.079447,1407 770.340682,1407 L796.945032,1407 L796.945032,1407 C797.497317,1407 797.945032,1407.44772 797.945032,1408 C797.945032,1408.40522 797.700483,1408.77039 797.325782,1408.92468 L785.731698,1413.69871 L785.731698,1413.69871 C785.248581,1413.89764 784.73117,1414 784.208699,1414 L758,1414 C757.447715,1414 757,1413.55228 757,1413 C757,1412.59478 757.244549,1412.22961 757.61925,1412.07532 Z M723.637554,1412.068 L736.319851,1407.13599 L736.319851,1407.13599 C736.550962,1407.04611 736.796772,1407 737.044744,1407 L761.614574,1407 L761.614574,1407 C762.166858,1407 762.614574,1407.44772 762.614574,1408 C762.614574,1408.40522 762.370025,1408.77039 761.995323,1408.92468 L750.40124,1413.69871 L750.40124,1413.69871 C749.918123,1413.89764 749.400712,1414 748.878241,1414 L724,1414 L724,1414 C723.447715,1414 723,1413.55228 723,1413 C723,1412.58759 723.253182,1412.21747 723.637554,1412.068 L723.637554,1412.068 Z M690.637554,1412.068 L703.319851,1407.13599 L703.319851,1407.13599 C703.550962,1407.04611 703.796772,1407 704.044744,1407 L728.614574,1407 L728.614574,1407 C729.166858,1407 729.614574,1407.44772 729.614574,1408 C729.614574,1408.40522 729.370025,1408.77039 728.995323,1408.92468 L717.40124,1413.69871 L717.40124,1413.69871 C716.918123,1413.89764 716.400712,1414 715.878241,1414 L691,1414 L691,1414 C690.447715,1414 690,1413.55228 690,1413 C690,1412.58759 690.253182,1412.21747 690.637554,1412.068 L690.637554,1412.068 Z M653.664719,1412.05788 L667.551747,1407.11576 L667.551747,1407.11576 C667.767014,1407.03915 667.993817,1407 668.22231,1407 L695.600572,1407 L695.600572,1407 C696.152856,1407 696.600572,1407.44772 696.600572,1408 C696.600572,1408.41896 696.339406,1408.79351 695.946277,1408.93834 L682.876912,1413.75337 L682.876912,1413.75337 C682.434127,1413.9165 681.96597,1414 681.49409,1414 L654,1414 L654,1414 C653.447715,1414 653,1413.55228 653,1413 C653,1412.57698 653.26618,1412.19971 653.664719,1412.05788 L653.664719,1412.05788 Z M621.682097,1404.05188 L636.439547,1399.10375 L636.439547,1399.10375 C636.644483,1399.03504 636.859203,1399 637.075352,1399 L664.137576,1399 L664.137576,1399 C664.68986,1399 665.137576,1399.44772 665.137576,1400 C665.137576,1400.42612 664.867546,1400.80543 664.464899,1400.94491 L650.508053,1405.77965 C650.086945,1405.92552 649.644419,1406 649.19876,1406 L622,1406 L622,1406 C621.447715,1406 621,1405.55228 621,1405 C621,1404.57022 621.274612,1404.1885 621.682097,1404.05188 L621.682097,1404.05188 Z M658.671524,1404.05549 L672.889152,1399.11098 L672.889152,1399.11098 C673.100391,1399.03751 673.322456,1399 673.546104,1399 L700.324023,1399 L700.324023,1399 C700.876308,1399 701.324023,1399.44772 701.324023,1400 C701.324023,1400.42494 701.055461,1400.80348 700.654374,1400.94386 L686.849874,1405.77543 L686.849874,1405.77543 C686.425172,1405.92408 685.978435,1406 685.528472,1406 L659,1406 L659,1406 C658.447715,1406 658,1405.55228 658,1405 C658,1404.57433 658.269471,1404.19531 658.671524,1404.05549 Z M694.671524,1404.05549 L708.889152,1399.11098 L708.889152,1399.11098 C709.100391,1399.03751 709.322456,1399 709.546104,1399 L732.393078,1399 L732.393078,1399 C732.945362,1399 733.393078,1399.44772 733.393078,1400 C733.393078,1400.41896 733.131912,1400.79351 732.738783,1400.93834 L719.669418,1405.75337 L719.669418,1405.75337 C719.226633,1405.9165 718.758476,1406 718.286596,1406 L695,1406 L695,1406 C694.447715,1406 694,1405.55228 694,1405 C694,1404.57433 694.269471,1404.19531 694.671524,1404.05549 L694.671524,1404.05549 Z M727.671524,1404.05549 L741.889152,1399.11098 L741.889152,1399.11098 C742.100391,1399.03751 742.322456,1399 742.546104,1399 L767.669542,1399 L767.669542,1399 C768.221826,1399 768.669542,1399.44772 768.669542,1400 C768.669542,1400.41241 768.416359,1400.78253 768.031988,1400.932 L755.699381,1405.72802 L755.699381,1405.72802 C755.237159,1405.90777 754.745539,1406 754.249595,1406 L728,1406 L728,1406 C727.447715,1406 727,1405.55228 727,1405 C727,1404.57433 727.269471,1404.19531 727.671524,1404.05549 L727.671524,1404.05549 Z M762.653005,1404.06213 L775.999211,1399.12427 L775.999211,1399.12427 C776.221357,1399.04208 776.456337,1399 776.693201,1399 L801.280112,1399 L801.280112,1399 C801.832397,1399 802.280112,1399.44772 802.280112,1400 C802.280112,1400.40522 802.035564,1400.77039 801.660862,1400.92468 L790.066779,1405.69871 L790.066779,1405.69871 C789.583661,1405.89764 789.066251,1406 788.54378,1406 L763,1406 L763,1406 C762.447715,1406 762,1405.55228 762,1405 C762,1404.58154 762.260548,1404.20734 762.653005,1404.06213 L762.653005,1404.06213 Z M796.630153,1404.07091 L809.012539,1399.14181 L809.012539,1399.14181 C809.247897,1399.04812 809.498912,1399 809.752232,1399 L833.313823,1399 L833.313823,1399 C833.866108,1399 834.313823,1399.44772 834.313823,1400 C834.313823,1400.40522 834.069274,1400.77039 833.694573,1400.92468 L822.10049,1405.69871 L822.10049,1405.69871 C821.617372,1405.89764 821.099962,1406 820.57749,1406 L797,1406 C796.447715,1406 796,1405.55228 796,1405 C796,1404.59049 796.24968,1404.22236 796.630153,1404.07091 Z M828.623344,1404.07365 L840.739306,1399.14729 L840.739306,1399.14729 C840.978545,1399.05002 841.234359,1399 841.492617,1399 L866.593998,1399 L866.593998,1399 C867.146283,1399 867.593998,1399.44772 867.593998,1400 C867.593998,1400.38852 867.368958,1400.74188 867.016884,1400.90618 L856.905706,1405.62473 L856.905706,1405.62473 C856.376049,1405.87191 855.798657,1406 855.214164,1406 L829,1406 L829,1406 C828.447715,1406 828,1405.55228 828,1405 C828,1404.59316 828.246471,1404.22688 828.623344,1404.07365 L828.623344,1404.07365 Z M862.29913,1404.0828 L873.61878,1399.1656 L873.61878,1399.1656 C873.87024,1399.05637 874.141474,1399 874.415634,1399 L903.492436,1399 L903.492436,1399 C904.044721,1399 904.492436,1399.44772 904.492436,1400 C904.492436,1400.38852 904.267396,1400.74188 903.915322,1400.90618 L893.804145,1405.62473 L893.804145,1405.62473 C893.274487,1405.87191 892.697095,1406 892.112603,1406 L862.697558,1406 L862.697558,1406 C862.145273,1406 861.697558,1405.55228 861.697558,1405 C861.697558,1404.60176 861.93386,1404.24147 862.29913,1404.0828 L862.29913,1404.0828 Z M826.598223,1420.08676 L837.611047,1415.17353 L837.611047,1415.17353 C837.867474,1415.05912 838.145117,1415 838.425906,1415 L868.492436,1415 L868.492436,1415 C869.044721,1415 869.492436,1415.44772 869.492436,1416 C869.492436,1416.38852 869.267396,1416.74188 868.915322,1416.90618 L858.804145,1421.62473 C858.274487,1421.87191 857.697095,1422 857.112603,1422 L827.005652,1422 L827.005652,1422 C826.453367,1422 826.005652,1421.55228 826.005652,1421 C826.005652,1420.60532 826.23779,1420.24757 826.598223,1420.08676 Z M645.66965,1428.05614 L659.794959,1423.11228 L659.794959,1423.11228 C660.00731,1423.03796 660.230679,1423 660.45566,1423 L686.669542,1423 L686.669542,1423 C687.221826,1423 687.669542,1423.44772 687.669542,1424 C687.669542,1424.41241 687.416359,1424.78253 687.031988,1424.932 L674.699381,1429.72802 L674.699381,1429.72802 C674.237159,1429.90777 673.745539,1430 673.249595,1430 L646,1430 L646,1430 C645.447715,1430 645,1429.55228 645,1429 C645,1428.57506 645.268563,1428.19652 645.66965,1428.05614 L645.66965,1428.05614 Z M681.261217,1428.06166 L694.665291,1423.12331 L694.665291,1423.12331 C694.886684,1423.04175 695.120762,1423 695.356702,1423 L721.669542,1423 L721.669542,1423 C722.221826,1423 722.669542,1423.44772 722.669542,1424 C722.669542,1424.41241 722.416359,1424.78253 722.031988,1424.932 L709.699381,1429.72802 L709.699381,1429.72802 C709.237159,1429.90777 708.745539,1430 708.249595,1430 L681.606922,1430 L681.606922,1430 C681.054638,1430 680.606922,1429.55228 680.606922,1429 C680.606922,1428.58104 680.868088,1428.20649 681.261217,1428.06166 Z M716.539109,1428.06404 L729.659537,1423.12808 L729.659537,1423.12808 C729.884666,1423.04339 730.123226,1423 730.363759,1423 L757.945032,1423 L757.945032,1423 C758.497317,1423 758.945032,1423.44772 758.945032,1424 C758.945032,1424.40522 758.700483,1424.77039 758.325782,1424.92468 L746.731698,1429.69871 L746.731698,1429.69871 C746.248581,1429.89764 745.73117,1430 745.208699,1430 L716.891221,1430 L716.891221,1430 C716.338936,1430 715.891221,1429.55228 715.891221,1429 C715.891221,1428.58354 716.149322,1428.21068 716.539109,1428.06404 L716.539109,1428.06404 Z M753.706207,1428.07447 L765.744748,1423.14894 C765.985133,1423.05059 766.242374,1423 766.502102,1423 L793.249162,1423 L793.249162,1423 C793.801447,1423 794.249162,1423.44772 794.249162,1424 C794.249162,1424.39639 794.015033,1424.75536 793.65228,1424.91515 L782.879294,1429.66059 L782.879294,1429.66059 C782.371185,1429.88441 781.822044,1430 781.266823,1430 L754.084884,1430 C753.532599,1430 753.084884,1429.55228 753.084884,1429 C753.084884,1428.59396 753.330405,1428.22823 753.706207,1428.07447 L753.706207,1428.07447 Z M548.684867,1428.05095 L563.589313,1423.1019 C563.79259,1423.03441 564.005389,1423 564.219579,1423 L613.115769,1423 L613.115769,1423 C613.668053,1423 614.115769,1423.44772 614.115769,1424 C614.115769,1424.42494 613.847206,1424.80348 613.446119,1424.94386 L599.641619,1429.77543 L599.641619,1429.77543 C599.216918,1429.92408 598.77018,1430 598.320217,1430 L549,1430 L549,1430 C548.447715,1430 548,1429.55228 548,1429 C548,1428.56914 548.275965,1428.18673 548.684867,1428.05095 L548.684867,1428.05095 Z M597.684867,1412.05095 L612.589313,1407.1019 L612.589313,1407.1019 C612.79259,1407.03441 613.005389,1407 613.219579,1407 L659.115769,1407 L659.115769,1407 C659.668053,1407 660.115769,1407.44772 660.115769,1408 C660.115769,1408.42494 659.847206,1408.80348 659.446119,1408.94386 L645.641619,1413.77543 L645.641619,1413.77543 C645.216918,1413.92408 644.77018,1414 644.320217,1414 L598,1414 L598,1414 C597.447715,1414 597,1413.55228 597,1413 C597,1412.56914 597.275965,1412.18673 597.684867,1412.05095 Z M638.394717,1437.06061 L654.667857,1431.12123 L654.667857,1431.12123 C654.887582,1431.04103 655.119672,1431 655.353574,1431 L684.565974,1431 C685.118259,1431 685.565974,1431.44772 685.565974,1432 C685.565974,1432.41494 685.309726,1432.78677 684.92197,1432.93449 L669.687879,1438.73795 C669.233111,1438.9112 668.750547,1439 668.263897,1439 L638.737575,1439 C638.185291,1439 637.737575,1438.55228 637.737575,1438 C637.737575,1437.57993 638.000107,1437.20464 638.394717,1437.06061 L638.394717,1437.06061 Z M713.821192,1437.07152 L728.642383,1431.14305 C728.878624,1431.04855 729.130726,1431 729.385165,1431 L756.111655,1431 L756.111655,1431 C756.66394,1431 757.111655,1431.44772 757.111655,1432 C757.111655,1432.40234 756.870526,1432.7655 756.499712,1432.92164 L742.80806,1438.68654 L742.80806,1438.68654 C742.31671,1438.89343 741.78896,1439 741.255832,1439 L714.192582,1439 L714.192582,1439 C713.640298,1439 713.192582,1438.55228 713.192582,1438 C713.192582,1437.5911 713.441533,1437.22339 713.821192,1437.07152 L713.821192,1437.07152 Z M496.682196,1445.05184 L511.444831,1440.10369 C511.649708,1440.03502 511.864359,1440 512.080439,1440 L543.469168,1440 C544.021453,1440 544.469168,1440.44772 544.469168,1441 C544.469168,1441.42867 544.195952,1441.80966 543.789935,1441.94716 L529.49407,1446.78863 L529.49407,1446.78863 C529.080773,1446.9286 528.647357,1447 528.211002,1447 L497,1447 C496.447715,1447 496,1446.55228 496,1446 C496,1445.57018 496.274661,1445.18844 496.682196,1445.05184 L496.682196,1445.05184 Z M520.685307,1437.05081 L538.629603,1431.10161 L538.629603,1431.10161 C538.832615,1431.03431 539.045109,1431 539.258988,1431 L610.017144,1431 L610.017144,1431 C610.569429,1431 611.017144,1431.44772 611.017144,1432 C611.017144,1432.42566 610.747695,1432.80466 610.345665,1432.9445 L593.57438,1438.77799 L593.57438,1438.77799 C593.151849,1438.92495 592.707658,1439 592.260297,1439 L521,1439 L521,1439 C520.447715,1439 520,1438.55228 520,1438 C520,1437.56897 520.27618,1437.18645 520.685307,1437.05081 L520.685307,1437.05081 Z M748.644005,1437.06551 L764.222035,1431.13102 C764.449419,1431.0444 764.690701,1431 764.934026,1431 L834.85376,1431 L834.85376,1431 C835.406045,1431 835.85376,1431.44772 835.85376,1432 C835.85376,1432.39519 835.621026,1432.75331 835.259898,1432.91381 L822.34167,1438.65525 C821.830234,1438.88255 821.27679,1439 820.717117,1439 L749,1439 L749,1439 C748.447715,1439 748,1438.55228 748,1438 C748,1437.58506 748.256249,1437.21323 748.644005,1437.06551 L748.644005,1437.06551 Z M788.599181,1428.08384 L799.836112,1423.16769 C800.088897,1423.05709 800.361831,1423 800.63775,1423 L852.123442,1423 C852.675727,1423 853.123442,1423.44772 853.123442,1424 C853.123442,1424.3936 852.892553,1424.75059 852.533579,1424.91202 L842.001923,1429.6481 L842.001923,1429.6481 C841.486103,1429.88006 840.926955,1430 840.361378,1430 L789,1430 C788.447715,1430 788,1429.55228 788,1429 C788,1428.6027 788.235194,1428.24309 788.599181,1428.08384 L788.599181,1428.08384 Z M825.674218,1412.07532 L837.634151,1407.15064 L837.634151,1407.15064 C837.87571,1407.05118 838.134415,1407 838.39565,1407 L885.492436,1407 L885.492436,1407 C886.044721,1407 886.492436,1407.44772 886.492436,1408 C886.492436,1408.38852 886.267396,1408.74188 885.915322,1408.90618 L875.804145,1413.62473 C875.274487,1413.87191 874.697095,1414 874.112603,1414 L826.054968,1414 L826.054968,1414 C825.502683,1414 825.054968,1413.55228 825.054968,1413 C825.054968,1412.59478 825.299517,1412.22961 825.674218,1412.07532 L825.674218,1412.07532 Z M769.379788,1445.08384 L780.616719,1440.16769 C780.869504,1440.05709 781.142438,1440 781.418357,1440 L814.492436,1440 L814.492436,1440 C815.044721,1440 815.492436,1440.44772 815.492436,1441 C815.492436,1441.38852 815.267396,1441.74188 814.915322,1441.90618 L804.804145,1446.62473 L804.804145,1446.62473 C804.274487,1446.87191 803.697095,1447 803.112603,1447 L769.780607,1447 C769.228322,1447 768.780607,1446.55228 768.780607,1446 C768.780607,1445.6027 769.015801,1445.24309 769.379788,1445.08384 Z" id="path-8"></path>
        <filter x="-0.1%" y="-1.0%" width="100.2%" height="104.2%" filterUnits="objectBoundingBox" id="filter-9">
            <feOffset dx="0" dy="1" in="SourceAlpha" result="shadowOffsetOuter1"></feOffset>
            <feColorMatrix values="0 0 0 0 0.258823529   0 0 0 0 0.258823529   0 0 0 0 0.258823529  0 0 0 1 0" type="matrix" in="shadowOffsetOuter1"></feColorMatrix>
        </filter>
        <linearGradient x1="55.3664386%" y1="0%" x2="55.3662103%" y2="98.7942457%" id="linearGradient-10">
            <stop stop-color="#D0D0D0" offset="0%"></stop>
            <stop stop-color="#D0D0D0" offset="30.2694515%"></stop>
            <stop stop-color="#F0F0F0" offset="59.3949298%"></stop>
            <stop stop-color="#F0F0F0" offset="100%"></stop>
        </linearGradient>
        <linearGradient x1="0%" y1="0%" x2="100%" y2="100%" id="linearGradient-11">
            <stop stop-color="#212121" offset="0%"></stop>
            <stop stop-color="#212121" offset="50.0298948%"></stop>
            <stop stop-color="#000000" offset="50.1594388%"></stop>
            <stop stop-color="#000000" offset="100%"></stop>
        </linearGradient>
        <path d="M0.516402277,7.5 C0.77369532,3.59098409 4.02587865,0.5 8,0.5 L458,0.5 C461.974121,0.5 465.226305,3.59098409 465.483598,7.5 L465.5,7.5 L465.5,277 C465.5,281.142136 462.142136,284.5 458,284.5 L8,284.5 C3.85786438,284.5 0.5,281.142136 0.5,277 L0.5,7.5 L0.516402277,7.5 L0.516402277,7.5 Z" id="path-12"></path>
        <path d="M329.89361,180.680326 L398.429945,301.238217 C400.672303,304.24002 402,307.96496 402,312 C402,321.941125 393.941125,330 384,330 C376.375629,330 369.858428,325.25964 367.234882,318.565403 L296.767302,186.438692 L28.3617067,326.720362 C27.0716255,327.630115 25.6566397,328.374557 24.1475394,328.922889 L24,329 L23.9923948,328.978452 C22.1178708,329.640049 20.1009709,330 18,330 C8.0588745,330 0,321.941125 0,312 C0,304.159845 5.01247858,297.490418 12.0076052,295.021548 L12,295 L244.032692,176.933895 C238.734545,174.775475 235,169.573862 235,163.5 C235,155.491871 241.491871,149 249.5,149 C249.667148,149 249.833636,149.002828 249.999418,149.008439 L250,149 L287,149 L287,7 L319,0 L319,149 L547,149 L547,149.008459 C554.776612,149.27198 561,155.659215 561,163.5 C561,171.340785 554.776612,177.72802 547,177.991541 L547,178 L329.89361,180.680326 Z" id="path-14"></path>
        <path d="M51.0216148,154.450679 C49.4741381,148.870537 47.8020141,143.054767 46,137 C47.3333333,125.666667 52,94.3333333 60,43 C44,-4.33333333 29,-12 15,20 C-6,68 19,68 0,146 L10,168 L19,168 L17.2335567,172.416108 L51.0216148,154.450679 L51.0216148,154.450679 Z M58.9070316,185.3676 C70.4797981,235.77758 68.6078836,259.217465 60,260 C55.5087078,260.408299 44.2637228,241.316183 26.2650448,202.723652 L58.9070316,185.3676 L58.9070316,185.3676 Z" id="path-16"></path>
        <path d="M108,0 C84.6666667,72 67,126.666667 55,164 C79,229 73,261 64,261 C56.492802,261 40.8261353,233.666667 17,179 L17,164 L7,164 L-4.54747351e-13,145 C40,84 22,85 40,44 C52,16.6666667 74.6666667,2 108,0 Z" id="path-18"></path>
        <path d="M361,100 L479.325899,26.5234336 C481.410805,25.3831111 483.309131,24.2077632 485,23 C495.785459,15.296101 493.130986,2.59456478 449.142269,1.08694224 L446,1 C441.218941,0.898275349 436.520666,0.900029744 431.91149,1 L226,1 L0,100 L341.515382,100 C348,104 355,102.713482 361,100 Z" id="path-20"></path>
        <path d="M110,0 C118.666667,7.33333333 121.333333,18.3333333 118,33 C115.611562,43.5091275 122,51 123,64 C119,65.3333333 117.333333,66 118,66 C118.219109,80.2284488 117.219109,89.5617821 115,94 C109.666667,104.666667 99,113.666667 83,121 L96,155 L42,199 L5.68434189e-14,151 L14,106 L55,23 L110,0 Z" id="path-22"></path>
        <path d="M0,5 C9.33333333,1 14.3333333,-0.333333333 15,1 C16,3 30,-1 32,3 C34.4888969,7.97779386 23.8222303,13.9777939 0,21 L0,5 Z" id="path-24"></path>
        <path d="M125,1 C151.894836,-1.3830867 177,9 177,30 C152,20 139.935978,46.6654648 38,93 C8.66666667,106.333333 -3.33333333,90 2,44 C31.3333333,20 72.3333333,5.66666667 125,1 Z" id="path-26"></path>
        <path d="M95,-2.27373675e-13 C125,31 158,25 191,4 C235,4 284.666667,52.6666667 340,150 L475,204 C478.333333,206.666667 479,212 477,220 C475,228 469.666667,231.666667 461,231 C396.333333,219.666667 347,207.666667 313,195 C309,182 291,188 264,122 C270.666667,229.333333 282.666667,291.666667 300,309 C264,404.333333 164,337 0,107 C6,55.6666667 37.6666667,20 95,-2.27373675e-13 Z" id="path-28"></path>
        <path d="M15.5,39 C15.1666667,35.6666667 13,33 9,31 C16.3333333,31 21.3333333,32.6666667 24,36 C26.6666667,25.3333333 33,18.6666667 43,16 C39.6666667,23.3333333 39.3333333,28 42,30 C50,15.3333333 65.6666667,5.33333333 89,0 C79,8 75,14 77,18 C92.3333333,8 116.333333,3 149,3 C135,7.66666667 127,12.6666667 125,18 C150.333333,12.6666667 171.333333,17.6666667 188,33 C174.666667,33 165,35 159,39 C168.333333,40.3333333 175.333333,49 180,65 C176,59.6666667 168.333333,56.6666667 157,56 C142,73 136,68 125,85 C121.225222,90.8337471 121.225222,98.1670804 125,107 C119.293821,102.90206 115.293821,101.235393 113,102 C109.559268,103.146911 108.302848,107.662835 110,112 C111.868566,116.775223 115.868566,121.108556 122,125 C111.333333,137 104,150.333333 100,165 C96.3073896,162.333333 93.8073896,159.666667 92.5,157 C88.1666667,159 86.3333333,164 87,172 C80.3333333,166 77,161 77,157 C73,161.666667 71.3333333,167 72,173 C67.3333333,169.666667 64,164.333333 62,157 C58,163.666667 57,170.666667 59,178 C51.6666667,174.666667 46,167.666667 42,157 C39.3333333,162.333333 38.3333333,167.666667 39,173 C9,159 -16,89 15.5,39 Z" id="path-30"></path>
        <linearGradient x1="50%" y1="0%" x2="50%" y2="98.180405%" id="linearGradient-32">
            <stop stop-color="#D0D0D0" offset="0%"></stop>
            <stop stop-color="#D0D0D0" offset="90.8262915%"></stop>
            <stop stop-color="#BBBBBB" offset="100%"></stop>
        </linearGradient>
        <path d="M269,1572.5 C269.645591,1613.36889 294.588346,1640.93768 320.214753,1638.5 L682.699699,1638.5 C666.988798,1636.04927 649,1612.69198 649,1572.5 L649,1478 L648,1351 C648,1315.65378 619.346224,1287 584,1287 L331,1287 C295.653776,1287 269,1315.65378 269,1351 L269,1523.93661 L269,1572.5 Z" id="path-33"></path>
        <filter x="-1.6%" y="-1.8%" width="103.4%" height="102.6%" filterUnits="objectBoundingBox" id="filter-34">
            <feOffset dx="5" dy="0" in="SourceAlpha" result="shadowOffsetOuter1"></feOffset>
            <feColorMatrix values="0 0 0 0 0.960784314   0 0 0 0 0.960784314   0 0 0 0 0.960784314  0 0 0 1 0" type="matrix" in="shadowOffsetOuter1" result="shadowMatrixOuter1"></feColorMatrix>
            <feOffset dx="-4" dy="-4" in="SourceAlpha" result="shadowOffsetOuter2"></feOffset>
            <feColorMatrix values="0 0 0 0 0.960784314   0 0 0 0 0.960784314   0 0 0 0 0.960784314  0 0 0 1 0" type="matrix" in="shadowOffsetOuter2" result="shadowMatrixOuter2"></feColorMatrix>
            <feMerge>
                <feMergeNode in="shadowMatrixOuter1"></feMergeNode>
                <feMergeNode in="shadowMatrixOuter2"></feMergeNode>
            </feMerge>
        </filter>
    </defs>
    <g id="graphic" stroke="none" stroke-width="1" fill="none" fill-rule="evenodd">
        <g id="Artboard">
            <g id="grid" opacity="0" transform="translate(-52.000000, -22.000000)" stroke="#979797">
                <g id="depthlines" stroke-linecap="square">
                    <path d="M52,22 L1632.5,1110.5" id="Line"></path>
                    <path d="M152.5,22.5 L1632.5,1110.5" id="Line-Copy-4"></path>
                    <path d="M252.5,22.5 L1632.5,1110.5" id="Line-Copy-5"></path>
                    <path d="M352.5,22.5 L1632.5,1110.5" id="Line-Copy-6"></path>
                    <path d="M452.5,22.5 L1632.5,1110.5" id="Line-Copy-7"></path>
                    <path d="M551.5,22.5 L1632.5,1110.5" id="Line-Copy-8"></path>
                    <path d="M652.5,22.5 L1632.5,1110.5" id="Line-Copy-9"></path>
                    <path d="M751.5,22.5 L1632.5,1110.5" id="Line-Copy-10"></path>
                    <path d="M849.5,18.5 L1632.5,1110.5" id="Line-Copy-11"></path>
                    <path d="M946.5,13.5 L1632.5,1110.5" id="Line-Copy-12"></path>
                    <path d="M1045.5,9.5 L1632.5,1110.5" id="Line-Copy-13"></path>
                    <path d="M1148.5,10.5 L1632.5,1110.5" id="Line-Copy-14"></path>
                    <path d="M1248.5,9.5 L1632.5,1110.5" id="Line-Copy-15"></path>
                    <path d="M1349.5,10.5 L1632.5,1110.5" id="Line-Copy-16"></path>
                    <path d="M1451.5,9.5 L1632.5,1110.5" id="Line-Copy-17"></path>
                    <path d="M1552.5,7.5 L1632.5,1110.5" id="Line-Copy-18"></path>
                    <path d="M1651.5,8.5 L1632.5,1110.5" id="Line-Copy-19"></path>
                    <path d="M1754.5,10.5 L1632.5,1110.5" id="Line-Copy-20"></path>
                    <path d="M1854.5,8.5 L1632.5,1110.5" id="Line-Copy-21"></path>
                    <path d="M1959.5,0.5 L1632.5,1110.5" id="Line-Copy-22"></path>
                    <path d="M2052,22 L1632.5,1110.5" id="Line-Copy-2"></path>
                    <path d="M2075.5,174.5 L1632.5,1110.5" id="Line-Copy-23"></path>
                    <path d="M2075.5,279.5 L1632.5,1110.5" id="Line-Copy-24"></path>
                    <path d="M2079.5,373.5 L1632.5,1110.5" id="Line-Copy-25"></path>
                    <path d="M2079.5,481.5 L1632.5,1110.5" id="Line-Copy-26"></path>
                    <path d="M2085.5,584.5 L1632.5,1110.5" id="Line-Copy-27"></path>
                    <path d="M2090.5,687.5 L1632.5,1110.5" id="Line-Copy-28"></path>
                    <path d="M2091.5,797.5 L1632.5,1110.5" id="Line-Copy-29"></path>
                    <path d="M2097.5,903.5 L1632.5,1110.5" id="Line-Copy-30"></path>
                    <path d="M2100.5,1014.5 L1632.5,1110.5" id="Line-Copy-31"></path>
                    <path d="M2099.5,1120.5 L1632.5,1110.5" id="Line-Copy-32"></path>
                    <path d="M2093.5,1233.5 L1632.5,1110.5" id="Line-Copy-33"></path>
                    <path d="M2092.5,1340.5 L1632.5,1110.5" id="Line-Copy-34"></path>
                    <path d="M2092.5,1449.5 L1632.5,1110.5" id="Line-Copy-35"></path>
                    <path d="M2091.5,1558.5 L1632.5,1110.5" id="Line-Copy-36"></path>
                    <path d="M2086.5,1660.5 L1632.5,1110.5" id="Line-Copy-37"></path>
                    <path d="M2077.5,1759.5 L1632.5,1110.5" id="Line-Copy-38"></path>
                    <path d="M2072.5,1855.5 L1632.5,1110.5" id="Line-Copy-39"></path>
                    <path d="M2071.5,1958.5 L1632.5,1110.5" id="Line-Copy-40"></path>
                    <path d="M2052,2022 L1632.5,1110.5" id="Line-Copy-3"></path>
                    <path d="M1961.5,2055.5 L1632.5,1110.5" id="Line-Copy-41"></path>
                    <path d="M1860.5,2056.5 L1632.5,1110.5" id="Line-Copy-42"></path>
                    <path d="M1755.5,2057.5 L1632.5,1110.5" id="Line-Copy-43"></path>
                    <path d="M1654.5,2054.5 L1632.5,1110.5" id="Line-Copy-44"></path>
                    <path d="M1550.5,2053.5 L1632.5,1110.5" id="Line-Copy-45"></path>
                    <path d="M1446.5,2061.5 L1632.5,1110.5" id="Line-Copy-46"></path>
                    <path d="M1343.5,2059.5 L1632.5,1110.5" id="Line-Copy-47"></path>
                    <path d="M1240.5,2057.5 L1632.5,1110.5" id="Line-Copy-48"></path>
                    <path d="M1141.5,2046.5 L1632.5,1110.5" id="Line-Copy-49"></path>
                    <path d="M1047.5,2026.5 L1632.5,1110.5" id="Line-Copy-50"></path>
                    <path d="M939.5,2037.5 L1632.5,1110.5" id="Line-Copy-51"></path>
                    <path d="M838.5,2041.5 L1632.5,1110.5" id="Line-Copy-52"></path>
                    <path d="M747.5,2031.5 L1632.5,1110.5" id="Line-Copy-53"></path>
                    <path d="M641.5,2035.5 L1632.5,1110.5" id="Line-Copy-54"></path>
                    <path d="M535.5,2036.5 L1632.5,1110.5" id="Line-Copy-55"></path>
                    <path d="M439.5,2034.5 L1632.5,1110.5" id="Line-Copy-56"></path>
                    <path d="M333.5,2038.5 L1632.5,1110.5" id="Line-Copy-57"></path>
                    <path d="M227.5,2037.5 L1632.5,1110.5" id="Line-Copy-58"></path>
                    <path d="M128.5,2040.5 L1632.5,1110.5" id="Line-Copy-59"></path>
                    <path d="M52,2022 L1632.5,1110.5" id="Line-Copy"></path>
                    <path d="M23.5,1934.5 L1632.5,1110.5" id="Line-Copy-60"></path>
                    <path d="M15.5,1836.5 L1632.5,1110.5" id="Line-Copy-61"></path>
                    <path d="M11.5,1734.5 L1632.5,1110.5" id="Line-Copy-62"></path>
                    <path d="M9.5,1633.5 L1632.5,1110.5" id="Line-Copy-63"></path>
                    <path d="M3.5,1532.5 L1632.5,1110.5" id="Line-Copy-64"></path>
                    <path d="M0.5,1428.5 L1632.5,1110.5" id="Line-Copy-65"></path>
                    <path d="M0.5,1326.5 L1632.5,1110.5" id="Line-Copy-66"></path>
                    <path d="M4.5,1226.5 L1632.5,1110.5" id="Line-Copy-67"></path>
                    <path d="M2.5,1123.5 L1632.5,1110.5" id="Line-Copy-68"></path>
                    <path d="M6.5,1021.5 L1632.5,1110.5" id="Line-Copy-69"></path>
                    <path d="M9.5,919.5 L1632.5,1110.5" id="Line-Copy-70"></path>
                    <path d="M10.5,816.5 L1632.5,1110.5" id="Line-Copy-71"></path>
                    <path d="M6.5,712.5 L1632.5,1110.5" id="Line-Copy-72"></path>
                    <path d="M4.5,608.5 L1632.5,1110.5" id="Line-Copy-73"></path>
                    <path d="M6.5,507.5 L1632.5,1110.5" id="Line-Copy-74"></path>
                    <path d="M4.5,401.5 L1632.5,1110.5" id="Line-Copy-75"></path>
                    <path d="M0.5,298.5 L1632.5,1110.5" id="Line-Copy-76"></path>
                    <path d="M7.5,198.5 L1632.5,1110.5" id="Line-Copy-77"></path>
                    <path d="M11.5,97.5 L1632.5,1110.5" id="Line-Copy-78"></path>
                </g>
                <g id="scales" transform="translate(52.000000, 22.000000)">
                    <rect id="1" stroke-width="0.95" x="80.475" y="55.475" width="1899.05" height="1899.05"></rect>
                    <rect id="2" stroke-width="0.9025" x="153.45125" y="106.45125" width="1804.0975" height="1804.0975"></rect>
                    <rect id="3" stroke-width="0.857375" x="225.628687" y="156.066187" width="1713.89262" height="1713.89262"></rect>
                    <rect id="4" stroke-width="0.81450625" x="292.407253" y="203.407253" width="1628.18549" height="1628.18549"></rect>
                    <rect id="5" stroke-width="0.773780937" x="357.54689" y="248.18439" width="1546.77622" height="1546.77622"></rect>
                    <rect id="6" stroke-width="0.735091891" x="416.986046" y="289.704546" width="1469.43741" height="1469.43741"></rect>
                    <rect id="7" stroke-width="0.698337296" x="475.774569" y="330.115912" width="1395.96554" height="1395.96554"></rect>
                    <rect id="8" stroke-width="0.663420431" x="531.33171" y="366.33171" width="1326.33658" height="1326.33658"></rect>
                    <rect id="9" stroke-width="0.63024941" x="584.395125" y="402.807625" width="1260.01975" height="1260.01975"></rect>
                    <rect id="10" stroke-width="0.598736939" x="632.814868" y="436.630368" width="1197.01876" height="1197.01876"></rect>
                    <rect id="11" stroke-width="0.568800092" x="680.7046" y="469.549881" width="1137.16782" height="1137.16782"></rect>
                    <rect id="12" stroke-width="0.540360088" x="725.01218" y="500.96068" width="1080.30114" height="1080.30114"></rect>
                    <rect id="13" stroke-width="0.513342083" x="768.232331" y="530.670312" width="1026.28608" height="1026.28608"></rect>
                    <rect id="14" stroke-width="0.5" x="807.676375" y="558.225099" width="974.959454" height="974.959454"></rect>
                    <rect id="15" stroke-width="0.5" x="846.694753" y="585.050234" width="926.186481" height="926.186481"></rect>
                    <rect id="16" stroke-width="0.5" x="884.25" y="610.25" width="880.5" height="880.5"></rect>
                    <rect id="17" stroke-width="0.5" x="919.49" y="634.4775" width="836.45" height="836.45"></rect>
                    <rect id="18" stroke-width="0.5" x="951.6465" y="656.943" width="794.6025" height="794.6025"></rect>
                    <rect id="19" stroke-width="0.5" x="983.4506" y="678.808319" width="754.847375" height="754.847375"></rect>
                    <rect id="20" stroke-width="0.5" x="1012.876" y="699.6715" width="717.0745" height="717.0745"></rect>
                    <rect id="21" stroke-width="0.5" x="1041.57898" y="719.404799" width="681.195775" height="681.195775"></rect>
                    <rect id="22" stroke-width="0.5" x="1067.77045" y="737.702948" width="647.110986" height="647.110986"></rect>
                    <rect id="23" stroke-width="0.5" x="1093.67489" y="755.512251" width="614.730437" height="614.730437"></rect>
                    <rect id="24" stroke-width="0.5" x="1118.1555" y="771.473" width="584.0435" height="584.0435"></rect>
                    <rect id="25" stroke-width="0.5" x="1141.53724" y="787.547946" width="554.816325" height="554.816325"></rect>
                    <rect id="26" stroke-width="0.5" x="1162.87308" y="802.453806" width="527.050509" height="527.050509"></rect>
                    <rect id="27" stroke-width="0.5" x="1183.9751" y="816.961444" width="500.672983" height="500.672983"></rect>
                    <rect id="28" stroke-width="0.5" x="1203.49885" y="830.804165" width="475.610681" height="475.610681"></rect>
                    <rect id="29" stroke-width="0.5" x="1222.54328" y="843.897209" width="451.805147" height="451.805147"></rect>
                    <rect id="30" stroke-width="0.5" x="1239.92132" y="856.038031" width="429.189889" height="429.189889"></rect>
                    <rect id="31" stroke-width="0.5" x="1257.10891" y="867.854503" width="407.705395" height="407.705395"></rect>
                    <rect id="32" stroke-width="0.5" x="1273.25" y="877.25" width="387.5" height="387.5"></rect>
                    <rect id="33" stroke-width="0.5" x="1288.77" y="887.92" width="368.1" height="368.1"></rect>
                    <rect id="34" stroke-width="0.5" x="1302.932" y="897.814" width="349.67" height="349.67"></rect>
                    <rect id="35" stroke-width="0.5" x="1316.9388" y="907.443675" width="332.1615" height="332.1615"></rect>
                    <rect id="36" stroke-width="0.5" x="1329.898" y="916.632" width="315.526" height="315.526"></rect>
                    <rect id="37" stroke-width="0.5" x="1342.53904" y="925.322715" width="299.7247" height="299.7247"></rect>
                    <rect id="38" stroke-width="0.5" x="1354.07399" y="933.381378" width="284.713465" height="284.713465"></rect>
                    <rect id="39" stroke-width="0.5" x="1365.48253" y="941.224748" width="270.452792" height="270.452792"></rect>
                    <rect id="40" stroke-width="0.5" x="1376.264" y="948.254" width="256.938" height="256.938"></rect>
                    <rect id="41" stroke-width="0.5" x="1386.56152" y="955.333545" width="244.0661" height="244.0661"></rect>
                    <rect id="42" stroke-width="0.5" x="1395.95801" y="961.898214" width="231.837795" height="231.837795"></rect>
                    <rect id="43" stroke-width="0.5" x="1405.25152" y="968.287503" width="220.220905" height="220.220905"></rect>
                    <rect id="44" stroke-width="0.5" x="1413.84995" y="974.383957" width="209.183251" height="209.183251"></rect>
                    <rect id="45" stroke-width="0.5" x="1422.23728" y="980.150246" width="198.699088" height="198.699088"></rect>
                    <rect id="46" stroke-width="0.5" x="1429.89072" y="985.497169" width="188.739134" height="188.739134"></rect>
                    <rect id="47" stroke-width="0.5" x="1437.46028" y="990.701245" width="179.277177" height="179.277177"></rect>
                    <rect id="0" x="0.5" y="0.5" width="1999" height="1999"></rect>
                </g>
            </g>
            <g id="ground-shadows" opacity="0.04" transform="translate(-14.000000, 1629.000000)" fill="url(#linearGradient-1)">
                <path d="M287.851493,297.646921 L14,371 L14,353 L0,331 L259.382903,266.079825 L294.333333,248.916667 L14,319 L14,289 L376.165865,208.731048 L492.660902,151.523664 L16,258 L16,153 L833,0 L880,65 L559.441135,136.60632 L444.38802,207.25297 C459.054344,207.983992 472.670582,208.750185 485.236736,209.551548 L871,113 L883,126 L544.581628,214.401577 C580.880835,218.314999 598.686959,222.847807 598,228 C596.950531,235.871018 545.099667,240.23137 442.447408,241.081057 L349.944381,265.244678 L341.346154,270.524291 L348.546407,279.240387 L325.566322,280.213662 L341.346154,270.524291 L348.546407,279.240387 L400.923059,277.022082 L452,257.853773 L488,253 L498,261 L506,251 C613.892567,239.930729 666.2259,236.930729 663,242 C658.011137,249.839642 636.450933,258.726898 598.319389,268.661767 L732,263 L714,282 L500.419511,289.842048 C487.987721,292.183271 474.847883,294.569255 461,297 L212,371 L82,371 L343.69438,295.596535 L287.851493,297.646921 L14,371 L14,347 L242.839133,282.751789 L284.961655,288.083754 L251,299 L287.851493,297.646921 Z" id="Combined-Shape"></path>
            </g>
            <g id="table-stand" transform="translate(430.000000, 1394.000000)">
                <path d="M305,300 C305,235.333333 283.333333,187 240,155 C196.666667,123 116.666667,101 0,89 L468,89 C446,121.666667 432.666667,152.666667 428,182 C423.333333,211.333333 425.666667,250.666667 435,300 L305,300 Z" id="front-face" fill="url(#linearGradient-2)"></path>
                <path d="M468,89 L623,0 C573,40 538.333333,80 519,120 C499.666667,160 495.333333,199.333333 506,238 L435,299 C425.666667,252.333333 423.333333,212.666667 428,180 C432.666667,147.333333 446,117 468,89 Z" id="side-face" fill="url(#linearGradient-3)"></path>
            </g>
            <g id="table" transform="translate(329.000000, 1360.000000)">
                <path d="M769,6 L769,39 C769.369192,40.473661 768.788778,42.1408147 766,44 C675.126926,103.040441 629.460259,132.707108 629,133 C618,140 598,142.973893 575,143 L11,143 C1.29658101,143 -0.766074114,139.985443 0.505464995,136.935584 L0,93 L769,6 Z" id="volume" fill="url(#linearGradient-4)"></path>
                <g id="top-face">
                    <mask id="mask-6" fill="white">
                        <use xlink:href="#path-5"></use>
                    </mask>
                    <use fill="#F0F0F0" xlink:href="#path-5"></use>
                    <polygon id="monitor-shadow" fill="#000000" opacity="0.05" mask="url(#mask-6)" points="602 29 -23 86 307 -25"></polygon>
                    <path d="M541,74 C541,75.3333333 539.666667,77.3333333 537,80 C520.359828,96.6401725 470.693161,106.973506 388,111 L273,97 L518,72 L541,74 Z" id="hand-shadow" fill="#000000" opacity="0.08" mask="url(#mask-6)"></path>
                </g>
            </g>
            <g id="keyboard">
                <use fill="black" fill-opacity="1" filter="url(#filter-9)" xlink:href="#path-8"></use>
                <use fill="url(#linearGradient-7)" fill-rule="evenodd" xlink:href="#path-8"></use>
            </g>
            <g id="monitor-stand" transform="translate(665.000000, 1215.000000)">
                <path d="M89,0 L87.9813866,1.64809367 C87.1894072,58.1184036 61.0892115,125.293305 3,144 C1.99653297,144.32315 0.996466865,144.621408 -1.22811443e-05,144.895162 L1.13686839e-13,173 L1.69406589e-21,174 L265,174 L323,134 L330,0 L90,0 L89,0 Z" id="volume" fill="url(#linearGradient-10)"></path>
                <path d="M264,175 L330,144 L330,0 L328.855316,2.49749336 C327.080795,60.838932 308.801225,126.011951 264.000011,144.594717 L264,175 Z" id="side-face" fill="#F5F5F5"></path>
                <rect id="front-face" fill="#D0D0D0" x="0" y="145" width="264" height="30"></rect>
            </g>
            <g id="monitor" transform="translate(633.000000, 916.000000)">
                <path d="M15,0 L15.0000072,0 L465,0 C472.606154,0 478.890044,5.66128108 479.867829,13 L480,13 L480,284 C480,292.284271 473.284271,299 465,299 L15,299 C6.71572875,299 0,292.284271 0,284 L0,13 L0.132171334,13 C1.10995569,5.66128108 7.39384632,0 15,0 Z M7.51640228,14.5 L7.51640228,14.5 L7.5,14.5 L7.5,284 C7.5,288.142136 10.8578644,291.5 15,291.5 L465,291.5 C469.142136,291.5 472.5,288.142136 472.5,284 L472.5,14.5 L472.483598,14.5 C472.226305,10.5909841 468.974121,7.5 465,7.5 L15,7.5 C11.0258787,7.5 7.77369532,10.5909841 7.51640228,14.5 Z" id="frame" fill="#D0D0D0"></path>
                <g id="screen" opacity="0.65" transform="translate(7.000000, 7.000000)">
                    <mask id="mask-13" fill="white">
                        <use xlink:href="#path-12"></use>
                    </mask>
                    <use fill="url(#linearGradient-11)" xlink:href="#path-12"></use>
                    <g id="logo" mask="url(#mask-13)">
                        <g transform="translate(135.000000, 45.000000)">
                            <rect id="inner-bound" stroke="#424242" stroke-width="0.01" fill="none" x="0.005" y="0.005" width="195.99" height="195.99"></rect>
                            <path d="M79.521332,168.760564 C84.8800128,164.181487 91.6885607,161.631944 98.8833044,161.631944 C106.364265,161.631944 113.478742,164.399908 118.609031,169.093578 C128.826327,178.334784 143.047106,181.907333 156.602021,178.275305 C178.38522,172.438514 191.312338,150.048088 185.475548,128.264889 C181.862327,114.780166 171.700159,104.194662 159.093836,100.138604 C152.029297,97.8932316 146.021353,93.126643 142.238949,86.5753263 C138.641577,80.3444954 137.445272,73.1733486 138.710904,66.2392919 C141.786175,52.6247212 137.782694,38.3190024 127.756831,28.2931398 C111.810423,12.3467312 85.9561861,12.3467312 70.0097775,28.2931398 C63.2508149,35.0521024 59.1814772,43.7760923 58.2527233,53.0893871 C57.8405881,57.2221693 58.0574247,61.3989979 58.8908274,65.4356096 C60.4397513,72.535583 59.2965518,80.1190992 55.5283086,86.6458879 C51.9460232,92.8505881 46.3512386,97.4180444 39.6787091,99.801377 C26.3501998,103.946557 15.9610484,114.56831 12.2910612,128.264889 C6.45427056,150.048088 19.3813889,172.438514 41.1645881,178.275305 C54.8898446,181.952976 69.2913988,178.240547 79.521332,168.760564 Z M39.7554622,183.534234 C15.0678364,176.919205 0.417102307,151.543389 7.0321317,126.855763 C11.1851787,111.356381 22.9373172,99.327005 37.8986471,94.6558009 C43.3508777,92.695285 47.8961558,88.9762754 50.8132814,83.9236656 C53.899088,78.5788919 54.8334572,72.3806698 53.5651888,66.5663734 C52.6139513,61.9599808 52.3683844,57.2297336 52.8351505,52.549128 C53.8875544,41.9959039 58.503733,32.0995771 66.1599739,24.4433362 C84.2325703,6.37073979 113.534039,6.37073979 131.606635,24.4433362 C142.952248,35.7889491 147.49333,51.9789598 144.057129,67.2705477 C143.037141,72.92923 144.017621,78.7671873 146.953976,83.853104 C150.050948,89.2172175 154.959837,93.1118364 160.752183,94.9528771 C175.119594,99.5755409 186.640334,111.576212 190.734477,126.855763 C197.349507,151.543389 182.698772,176.919205 158.011147,183.534234 C142.652345,187.649612 126.53073,183.599535 114.945459,173.120981 C110.806569,169.334385 105.00286,167.076389 98.8833044,167.076389 C93.1062847,167.076389 87.6453583,169.079343 83.289505,172.678749 C71.702913,183.474923 55.3405258,187.710239 39.7554622,183.534234 Z" id="around" stroke="none" fill="#B2FF59" fill-rule="nonzero"></path>
                            <path d="M98.8833044,81.6666667 C112.414281,81.6666667 123.383304,70.697643 123.383304,57.1666667 C123.383304,43.6356903 112.414281,32.6666667 98.8833044,32.6666667 C85.3523281,32.6666667 74.3833044,43.6356903 74.3833044,57.1666667 C74.3833044,70.697643 85.3523281,81.6666667 98.8833044,81.6666667 Z M98.8833044,87.1111111 C82.3454444,87.1111111 68.93886,73.7045267 68.93886,57.1666667 C68.93886,40.6288067 82.3454444,27.2222222 98.8833044,27.2222222 C115.421164,27.2222222 128.827749,40.6288067 128.827749,57.1666667 C128.827749,73.7045267 115.421164,87.1111111 98.8833044,87.1111111 Z M167.251199,151.083333 C174.016687,139.365164 170.001746,124.381199 158.283576,117.615711 C146.565407,110.850223 131.581442,114.865164 124.815954,126.583333 C118.050466,138.301503 122.065407,153.285468 133.783576,160.050956 C145.501746,166.816444 160.485711,162.801503 167.251199,151.083333 Z M171.966226,153.805556 C163.697296,168.127762 145.383561,173.034913 131.061354,164.765983 C116.739147,156.497053 111.831997,138.183318 120.100927,123.861111 C128.369857,109.538904 146.683592,104.631754 161.005799,112.900684 C175.328006,121.169614 180.235156,139.483349 171.966226,153.805556 Z M30.51541,151.083333 C37.2808982,162.801503 52.2648632,166.816444 63.9830324,160.050956 C75.7012017,153.285468 79.716143,138.301503 72.9506548,126.583333 C66.1851666,114.865164 51.2012017,110.850223 39.4830324,117.615711 C27.7648632,124.381199 23.7499219,139.365164 30.51541,151.083333 Z M25.8003828,153.805556 C17.5314528,139.483349 22.4386033,121.169614 36.7608102,112.900684 C51.0830171,104.631754 69.396752,109.538904 77.665682,123.861111 C85.934612,138.183318 81.0274616,156.497053 66.7052547,164.765983 C52.3830478,173.034913 34.0693129,168.127762 25.8003828,153.805556 Z" id="Combined-Shape" stroke="none" fill="#FFFFFF" fill-rule="nonzero"></path>
                        </g>
                    </g>
                </g>
                <path d="M25,55 L61,55 C64.3137085,55 67,57.6862915 67,61 C67,64.3137085 64.3137085,67 61,67 L25,67 C21.6862915,67 19,64.3137085 19,61 C19,57.6862915 21.6862915,55 25,55 Z M61,64 C59.3431458,64 58,62.6568542 58,61 C58,59.3431458 59.3431458,58 61,58 C62.6568542,58 64,59.3431458 64,61 C64,62.6568542 62.6568542,64 61,64 Z M25,58 L52,58 L52,58 C53.6568542,58 55,59.3431458 55,61 L55,61 C55,62.6568542 53.6568542,64 52,64 L25,64 L25,64 C23.3431458,64 22,62.6568542 22,61 L22,61 L22,61 C22,59.3431458 23.3431458,58 25,58 Z" id="Combined-Shape" fill="#BDBDBD"></path>
                <path d="M25,73 L61,73 C64.3137085,73 67,75.6862915 67,79 C67,82.3137085 64.3137085,85 61,85 L25,85 C21.6862915,85 19,82.3137085 19,79 C19,75.6862915 21.6862915,73 25,73 Z M61,82 C59.3431458,82 58,80.6568542 58,79 C58,77.3431458 59.3431458,76 61,76 C62.6568542,76 64,77.3431458 64,79 C64,80.6568542 62.6568542,82 61,82 Z M25,76 L52,76 L52,76 C53.6568542,76 55,77.3431458 55,79 L55,79 C55,80.6568542 53.6568542,82 52,82 L25,82 L25,82 C23.3431458,82 22,80.6568542 22,79 L22,79 L22,79 C22,77.3431458 23.3431458,76 25,76 Z" id="Combined-Shape-Copy" fill="#BDBDBD"></path>
                <path d="M25,91 L61,91 C64.3137085,91 67,93.6862915 67,97 C67,100.313708 64.3137085,103 61,103 L25,103 C21.6862915,103 19,100.313708 19,97 C19,93.6862915 21.6862915,91 25,91 Z M61,100 C59.3431458,100 58,98.6568542 58,97 C58,95.3431458 59.3431458,94 61,94 C62.6568542,94 64,95.3431458 64,97 C64,98.6568542 62.6568542,100 61,100 Z M25,94 L52,94 L52,94 C53.6568542,94 55,95.3431458 55,97 L55,97 C55,98.6568542 53.6568542,100 52,100 L25,100 L25,100 C23.3431458,100 22,98.6568542 22,97 L22,97 L22,97 C22,95.3431458 23.3431458,94 25,94 Z" id="Combined-Shape-Copy-2" fill="#BDBDBD"></path>
                <path d="M455,220 C458.313708,220 461,222.686292 461,226 C461,229.313708 458.313708,232 455,232 L419,232 C415.686292,232 413,229.313708 413,226 C413,222.686292 415.686292,220 419,220 L455,220 Z M419,229 C420.656854,229 422,227.656854 422,226 C422,224.343146 420.656854,223 419,223 C417.343146,223 416,224.343146 416,226 C416,227.656854 417.343146,229 419,229 Z M455,223 L428,223 C426.343146,223 425,224.343146 425,226 C425,227.656854 426.343146,229 428,229 L455,229 C456.656854,229 458,227.656854 458,226 C458,224.343146 456.656854,223 455,223 Z" id="Combined-Shape-Copy-5" fill="#BDBDBD"></path>
                <path d="M455,238 C458.313708,238 461,240.686292 461,244 C461,247.313708 458.313708,250 455,250 L419,250 C415.686292,250 413,247.313708 413,244 C413,240.686292 415.686292,238 419,238 L455,238 Z M419,247 C420.656854,247 422,245.656854 422,244 C422,242.343146 420.656854,241 419,241 C417.343146,241 416,242.343146 416,244 C416,245.656854 417.343146,247 419,247 Z M455,241 L428,241 C426.343146,241 425,242.343146 425,244 C425,245.656854 426.343146,247 428,247 L455,247 C456.656854,247 458,245.656854 458,244 C458,242.343146 456.656854,241 455,241 Z" id="Combined-Shape-Copy-6" fill="#BDBDBD"></path>
                <path d="M455,268 C458.313708,268 461,270.686292 461,274 C461,277.313708 458.313708,280 455,280 L419,280 C415.686292,280 413,277.313708 413,274 C413,270.686292 415.686292,268 419,268 L455,268 Z M419,277 C420.656854,277 422,275.656854 422,274 C422,272.343146 420.656854,271 419,271 C417.343146,271 416,272.343146 416,274 C416,275.656854 417.343146,277 419,277 Z M455,271 L428,271 C426.343146,271 425,272.343146 425,274 C425,275.656854 426.343146,277 428,277 L455,277 C456.656854,277 458,275.656854 458,274 C458,272.343146 456.656854,271 455,271 Z" id="Combined-Shape-Copy-7" fill="#F5A623"></path>
                <path d="M25,121 L61,121 C64.3137085,121 67,123.686292 67,127 C67,130.313708 64.3137085,133 61,133 L25,133 C21.6862915,133 19,130.313708 19,127 C19,123.686292 21.6862915,121 25,121 Z M61,130 C59.3431458,130 58,128.656854 58,127 C58,125.343146 59.3431458,124 61,124 C62.6568542,124 64,125.343146 64,127 C64,128.656854 62.6568542,130 61,130 Z M25,124 L52,124 L52,124 C53.6568542,124 55,125.343146 55,127 L55,127 C55,128.656854 53.6568542,130 52,130 L25,130 L25,130 C23.3431458,130 22,128.656854 22,127 L22,127 L22,127 C22,125.343146 23.3431458,124 25,124 Z" id="Combined-Shape-Copy-3" fill="#BDBDBD"></path>
                <rect id="Rectangle" fill="#CDFF93" x="19" y="19" width="24" height="6" rx="3"></rect>
                <rect id="Rectangle-Copy-2" fill="#FFFFFF" x="19" y="31" width="48" height="6" rx="3"></rect>
                <rect id="Rectangle-Copy" fill="#BDBDBD" x="48" y="19" width="19" height="6" rx="3"></rect>
                <rect id="Rectangle-Copy-4" fill="#9E9E9E" x="19" y="43" width="19" height="6" rx="3"></rect>
                <rect id="Rectangle-Copy-5" fill="#9E9E9E" x="19" y="109" width="19" height="6" rx="3"></rect>
                <rect id="Rectangle-Copy-6" fill="#9E9E9E" x="442" y="208" width="19" height="6" rx="3"></rect>
                <rect id="Rectangle-Copy-7" fill="#9E9E9E" x="442" y="256" width="19" height="6" rx="3"></rect>
                <path d="M437,67 C423.745166,67 413,56.254834 413,43 C413,29.745166 423.745166,19 437,19 C450.254834,19 461,29.745166 461,43 C461,56.254834 450.254834,67 437,67 Z M441,39 L441,35 C441,32.790861 439.209139,31 437,31 C434.790861,31 433,32.790861 433,35 L433,39 L429,39 C426.790861,39 425,40.790861 425,43 C425,45.209139 426.790861,47 429,47 L433,47 L433,51 C433,53.209139 434.790861,55 437,55 C439.209139,55 441,53.209139 441,51 L441,47 L445,47 C447.209139,47 449,45.209139 449,43 C449,40.790861 447.209139,39 445,39 L441,39 Z" id="Combined-Shape" fill="#9E9E9E"></path>
                <rect id="Rectangle-2" fill="#9E9E9E" x="19" y="250" width="48" height="12" rx="6"></rect>
                <rect id="Rectangle-2-Copy-2" fill="#9E9E9E" x="19" y="232" width="48" height="12" rx="6"></rect>
                <rect id="Rectangle-2-Copy" fill="#9E9E9E" x="19" y="268" width="48" height="12" rx="6"></rect>
            </g>
            <g id="chair" transform="translate(269.000000, 1287.000000)"></g>
            <g id="chair-stand" transform="translate(315.000000, 1581.000000)">
                <mask id="mask-15" fill="white">
                    <use xlink:href="#path-14"></use>
                </mask>
                <use id="Mask" fill="#F0F0F0" xlink:href="#path-14"></use>
                <polygon id="Path-3" fill="#D0D0D0" mask="url(#mask-15)" points="292 45 292 153.5 240 179 219 144"></polygon>
                <path d="M560,168 C557.333333,175.333333 553,178.666667 547,178 L330,181 L328.25,178 C443.118751,176.35442 509.035417,175.187753 526,174.5 C563,173 557.834092,169.40784 560,168 Z" id="Path-3-Copy" fill="#D0D0D0" mask="url(#mask-15)"></path>
                <path d="M385,330 C379,332 347.666667,331 291,327 L297,185 C298.918057,183.509459 300.25139,183.509459 301,185 C336.310433,255.305834 361.810564,294.739622 378,299 C397,304 394,327 385,330 Z" id="Path-3-Copy-2" fill="#D0D0D0" mask="url(#mask-15)"></path>
                <path d="M4.4408921e-16,313 C8,342 99,278 275,188 C284.64583,183.067473 298.877085,179.764188 300,182 C320.364642,222.547595 186.049918,292.7533 22,331 C-3.58181989,336.964161 -6,317 4.4408921e-16,313 Z" id="Path-3-Copy-3" fill="#D0D0D0" mask="url(#mask-15)"></path>
            </g>
            <g id="left-foot" transform="translate(542.000000, 1586.000000)">
                <mask id="mask-17" fill="white">
                    <use xlink:href="#path-16"></use>
                </mask>
                <use id="Combined-Shape" fill="#5C5757" xlink:href="#path-16"></use>
                <path d="M51,53 C47,88 38,77 34,102 C32.3554013,112.278742 32.6887347,125.945408 35,143 L7,144 L35,144 L42,168 L2,168 L-17,91 L-11,25 C33,20.3333333 53.6666667,29.6666667 51,53 Z" id="Path-8" fill="#000000" opacity="0.25" mask="url(#mask-17)"></path>
                <path d="M14,178 L44,177 C62.6666667,231.666667 68,259.333333 60,260 C54.3011387,260.474905 38.9678054,233.141572 14,178 Z" id="Path-10" fill="#000000" opacity="0.25" mask="url(#mask-17)"></path>
            </g>
            <g id="right-foot" transform="translate(704.000000, 1560.000000)">
                <mask id="mask-19" fill="white">
                    <use xlink:href="#path-18"></use>
                </mask>
                <use id="Mask" fill="#5C5757" xlink:href="#path-18"></use>
                <path d="M-1,144 L4,164 L36,164 L30,144 L7,144 L30,142 C36,82 94,56 89,1 L17,49 L-1,144 Z" id="Path-13" fill="#000000" opacity="0.25" mask="url(#mask-19)"></path>
                <path d="M15,179 L42,179 C64.7134628,232.203613 72.0467961,259.536946 64,261 C56.6666667,262.333333 40.3333333,235 15,179 Z" id="Path-14" fill="#000000" opacity="0.25" mask="url(#mask-19)"></path>
            </g>
            <g id="chair-seat" transform="translate(333.000000, 1536.000000)">
                <mask id="mask-21" fill="white">
                    <use xlink:href="#path-20"></use>
                </mask>
                <use id="Mask" fill="#F0F0F0" xlink:href="#path-20"></use>
                <polygon id="Path-2" fill-opacity="0.05" fill="#000000" mask="url(#mask-21)" points="392 -1 131 40 208 -14"></polygon>
                <polygon id="Path-2-Copy" fill-opacity="0.2" fill="#000000" mask="url(#mask-21)" points="461 5 288 106 288 46"></polygon>
            </g>
            <g id="face" transform="translate(462.000000, 1077.000000)">
                <mask id="mask-23" fill="white">
                    <use xlink:href="#path-22"></use>
                </mask>
                <use id="Mask" fill="#FFEBBB" xlink:href="#path-22"></use>
                <path d="M70,168 C66,136 65.6666667,116 69,108 C69,110.666667 72,114 78,118 C78,109 84,92 99,74 C83.0112132,66.9912167 51.6778799,70.9912167 5,86 L-14,148 L32,185 C50.1057467,182.736579 62.7724133,177.069913 70,168 Z" id="Path-18" fill="#CD5555" opacity="0.25" mask="url(#mask-23)"></path>
                <path d="M131,3 L36,8 L102,56 C100.666667,40.6666667 111,30.3333333 133,25 C155,19.6666667 154.333333,12.3333333 131,3 Z" id="Path-18-Copy" fill="#CD5555" opacity="0.25" mask="url(#mask-23)"></path>
            </g>
            <g id="hand" transform="translate(838.000000, 1430.000000)">
                <mask id="mask-25" fill="white">
                    <use xlink:href="#path-24"></use>
                </mask>
                <use id="Mask" fill="#FFEBBB" xlink:href="#path-24"></use>
                <path d="M33,3 C30.3333333,11.6666667 16.6666667,15.6666667 -8,15 L8,26 C23.3333333,18.3333333 31.6666667,10.6666667 33,3 Z" id="Path-17" fill="#CD5555" opacity="0.25" mask="url(#mask-25)"></path>
            </g>
            <g id="leg" transform="translate(636.000000, 1512.000000)">
                <mask id="mask-27" fill="white">
                    <use xlink:href="#path-26"></use>
                </mask>
                <use id="Mask" fill="#5C5757" xlink:href="#path-26"></use>
                <path d="M166,27 C145,16 58,92 -18,75 L26,117 L166,27 Z" id="Path-15" fill="#000000" opacity="0.25" mask="url(#mask-27)"></path>
            </g>
            <g id="body" transform="translate(367.000000, 1228.000000)">
                <mask id="mask-29" fill="white">
                    <use xlink:href="#path-28"></use>
                </mask>
                <use id="Mask" fill="#929AAB" xlink:href="#path-28"></use>
                <path d="M10,89 C38.7103802,40.5398726 69.7103802,13.2065393 103,7 C124.802464,2.93513391 152.780099,-12.9609038 160,7 C177,54 264.329852,59.4286855 272,97.4592175 C283,152 310,134 334,174 C330.369139,172.962611 379.702472,187.962611 482,219 L472,244 L10,89 Z" id="Path-16" fill="#000000" opacity="0.1" mask="url(#mask-29)"></path>
            </g>
            <g id="hair" transform="translate(439.000000, 1026.000000)">
                <mask id="mask-31" fill="white">
                    <use xlink:href="#path-30"></use>
                </mask>
                <use id="Mask" fill="#424242" xlink:href="#path-30"></use>
                <path d="M16,39 C4.66666667,63.6666667 1.33333333,81 6,91 C4.66666667,78.3333333 8,71.6666667 16,71 C16.6666667,88.3333333 18.6666667,99 22,103 C22,96.3333333 24.6666667,90.6666667 30,86 C30,93.3333333 33.3333333,101 40,109 C37.3333333,99 40.3333333,90.3333333 49,83 C49,90.3333333 52,97 58,103 C61.3333333,94.3333333 66.3333333,88.6666667 73,86 C70.3333333,102.666667 71.3333333,113.666667 76,119 C76,113.666667 79.6666667,109.666667 87,107 C79.6666667,125.666667 81.6666667,142.333333 93,157 C96.3102715,168.365266 102.310272,170.365266 111,163 L77,186 L20,180 L-17,86 L-5,44 L16,39 Z" id="Path-19" fill="#212121" opacity="0.25" mask="url(#mask-31)"></path>
            </g>
            <g id="chair-back">
                <use fill="black" fill-opacity="1" filter="url(#filter-34)" xlink:href="#path-33"></use>
                <use fill="url(#linearGradient-32)" fill-rule="evenodd" xlink:href="#path-33"></use>
            </g>
        </g>
    </g>
</svg>