<?xml version="1.0" encoding="UTF-8"?>
<svg width="256px" height="256px" viewBox="0 0 256 256" version="1.1" xmlns="http://www.w3.org/2000/svg" xmlns:xlink="http://www.w3.org/1999/xlink">
    <!-- Generator: Sketch 46 (44423) - http://www.bohemiancoding.com/sketch -->
    <title>auth</title>
    <desc>Created with Sketch.</desc>
    <defs></defs>
    <g id="assets" stroke="none" stroke-width="1" fill="none" fill-rule="evenodd">
        <g id="auth">
            <path d="M176,95.9873311 L176,80 C176,53.490332 154.509668,32 128,32 C101.490332,32 80,53.490332 80,80 L80,95.9873311 C82.5814833,94.0465342 85.2536546,92.282441 88,90.6950514 L88,80 C88,57.90861 105.90861,40 128,40 C150.09139,40 168,57.90861 168,80 L168,90.6950514 C170.746345,92.282441 173.418517,94.0465342 176,95.9873311 Z" id="Combined-Shape" stroke="#FFFFFF" stroke-width="4"></path>
            <path d="M66.0162798,144 C67.5277145,138.127664 69.8516511,132.58151 72.8611054,127.488522 L67.0361747,121.663592 C69.8491459,117.199328 73.1998582,112.976765 77.0883118,109.088312 C80.9767653,105.199858 85.1993283,101.849146 89.6635917,99.0361747 L95.4885224,104.861105 C100.58151,101.851651 106.127664,99.5277145 112,98.0162798 L112,89.7841314 C117.145782,88.6164915 122.500896,88 128,88 C133.499104,88 138.854218,88.6164915 144,89.7841314 L144,98.0162798 C149.872336,99.5277145 155.41849,101.851651 160.511478,104.861105 L166.336408,99.0361747 C170.800672,101.849146 175.023235,105.199858 178.911688,109.088312 C182.800142,112.976765 186.150854,117.199328 188.963825,121.663592 L183.138895,127.488522 C186.148349,132.58151 188.472285,138.127664 189.98372,144 L198.215869,144 C199.383508,149.145782 200,154.500896 200,160 C200,165.499104 199.383508,170.854218 198.215869,176 L189.98372,176 C188.472285,181.872336 186.148349,187.41849 183.138895,192.511478 L188.963825,198.336408 C186.150854,202.800672 182.800142,207.023235 178.911688,210.911688 C175.023235,214.800142 170.800672,218.150854 166.336408,220.963825 L160.511478,215.138895 C155.41849,218.148349 149.872336,220.472285 144,221.98372 L144,230.215869 C138.854218,231.383508 133.499104,232 128,232 C122.500896,232 117.145782,231.383508 112,230.215869 L112,221.98372 C106.127664,220.472285 100.58151,218.148349 95.4885224,215.138895 L89.6635917,220.963825 C85.1993283,218.150854 80.9767653,214.800142 77.0883118,210.911688 C73.1998582,207.023235 69.8491459,202.800672 67.0361747,198.336408 L72.8611054,192.511478 C69.8516511,187.41849 67.5277145,181.872336 66.0162798,176 L57.7841314,176 C56.6164915,170.854218 56,165.499104 56,160 C56,154.500896 56.6164915,149.145782 57.7841314,144 L66.0162798,144 Z M128,216 C158.927946,216 184,190.927946 184,160 C184,129.072054 158.927946,104 128,104 C97.072054,104 72,129.072054 72,160 C72,190.927946 97.072054,216 128,216 Z" id="Combined-Shape" stroke="#FFFFFF" stroke-width="4"></path>
            <path d="M112.864994,182.360437 C106.486537,180.651334 102.701277,174.095072 104.41038,167.716615 C105.483101,163.713164 108.51828,160.605671 112.382535,159.398119 C113.74314,158.908169 114.876594,157.98031 115.604324,156.719844 C116.374896,155.385174 116.608166,153.837757 116.291304,152.385078 C116.045546,151.194988 115.982103,149.972929 116.102693,148.763689 C116.374595,146.03713 117.567357,143.480044 119.545386,141.502016 C124.21474,136.832661 131.78526,136.832661 136.454614,141.502016 C139.385157,144.432559 140.558586,148.614252 139.671996,152.564341 C139.418163,153.976401 139.663099,155.432678 140.395841,156.701825 C141.169188,158.041301 142.394667,159.013573 143.841562,159.473455 C147.555194,160.668303 150.531849,163.76896 151.58962,167.716615 C153.298723,174.095072 149.513463,180.651334 143.135006,182.360437 C139.166882,183.423692 135.001489,182.377261 132.007822,179.669569 C130.976515,178.726045 129.527939,178.162461 128,178.162461 C126.560209,178.162461 125.199416,178.660543 124.11282,179.556015 C121.11917,182.345068 116.89158,183.439357 112.864994,182.360437 Z M127.824612,157.742343 C132.124542,157.742343 135.610325,154.256561 135.610325,149.95663 C135.610325,145.6567 132.124542,142.170918 127.824612,142.170918 C123.524682,142.170918 120.038899,145.6567 120.038899,149.95663 C120.038899,154.256561 123.524682,157.742343 127.824612,157.742343 Z M135.972158,177.553844 C139.696007,179.703809 144.457674,178.427924 146.607639,174.704075 C148.757604,170.980226 147.481719,166.218559 143.75787,164.068593 C140.034021,161.918628 135.272354,163.194513 133.122389,166.918362 C130.972424,170.642211 132.248309,175.403878 135.972158,177.553844 Z M109.041585,174.704075 C111.19155,178.427924 115.953217,179.703809 119.677066,177.553844 C123.400915,175.403878 124.6768,170.642211 122.526835,166.918362 C120.37687,163.194513 115.615203,161.918628 111.891354,164.068593 C108.167505,166.218559 106.89162,170.980226 109.041585,174.704075 Z M127.824612,156.073976 C124.446095,156.073976 121.707266,153.335147 121.707266,149.95663 C121.707266,146.578114 124.446095,143.839285 127.824612,143.839285 C131.203129,143.839285 133.941958,146.578114 133.941958,149.95663 C133.941958,153.335147 131.203129,156.073976 127.824612,156.073976 Z M145.162791,173.869891 C143.473532,176.795773 139.732222,177.798254 136.806341,176.108995 C133.88046,174.419737 132.877979,170.678427 134.567237,167.752546 C136.256495,164.826664 139.997805,163.824183 142.923687,165.513442 C145.849568,167.2027 146.852049,170.94401 145.162791,173.869891 Z M110.486433,173.869891 C108.797175,170.94401 109.799656,167.2027 112.725537,165.513442 C115.651418,163.824183 119.392728,164.826664 121.081987,167.752546 C122.771245,170.678427 121.768764,174.419737 118.842883,176.108995 C115.917002,177.798254 112.175692,176.795773 110.486433,173.869891 Z" id="Combined-Shape" fill="#FFFFFF" fill-rule="nonzero"></path>
        </g>
    </g>
</svg>