<?xml version="1.0" encoding="UTF-8"?>
<svg width="1440px" height="1440px" viewBox="0 0 1440 1440" version="1.1" xmlns="http://www.w3.org/2000/svg" xmlns:xlink="http://www.w3.org/1999/xlink">
    <!-- Generator: Sketch 46 (44423) - http://www.bohemiancoding.com/sketch -->
    <title>carbon</title>
    <desc>Created with Sketch.</desc>
    <defs></defs>
    <g id="textures" stroke="none" stroke-width="1" fill="none" fill-rule="evenodd" opacity="0.1">
        <g id="carbon" fill="#000000">
            <g id="texture" transform="translate(0.000000, 146.000000)">
                <path d="M694.882422,675.604359 C701.473883,670.005572 710.010805,666.627878 719.336614,666.627878 C729.145162,666.627878 738.017478,670.365461 744.18849,676.011326 C758.90343,689.320775 779.860582,695.124571 800.451371,689.607172 C832.711369,680.962954 851.855885,647.802998 843.211844,615.542338 C837.692325,594.942787 822.177294,579.690877 804.077628,573.867253 C795.412652,571.113145 787.708939,565.242505 782.804666,556.747878 C778.141761,548.671325 776.798408,539.589134 778.35127,531.081251 C782.744789,511.645647 777.340578,490.288373 762.097087,475.044569 C738.48113,451.428126 700.192098,451.428126 676.576141,475.044569 C666.305308,485.315613 660.50137,498.362088 659.164328,511.769863 C658.55517,517.878463 658.873217,524.06206 660.118468,530.092347 C662.0059,538.744153 660.773737,548.351222 655.869463,556.845848 C651.206559,564.922402 644.010075,570.532619 635.865752,573.441715 C616.838749,579.355715 601.041667,594.716011 595.461384,615.542338 C586.817344,647.802998 605.96186,680.962954 638.221857,689.607172 C659.110764,695.204453 680.376719,689.150345 695.119931,675.428526" id="Combined-Shape"></path>
                <path d="M1089.84305,674.659458 C1096.43451,669.06067 1104.97144,665.682977 1114.29724,665.682977 C1124.10579,665.682977 1132.97811,669.42056 1139.14912,675.066424 C1153.86406,688.375874 1174.82121,694.17967 1195.412,688.662271 C1227.672,680.018053 1246.81651,646.858097 1238.17247,614.597436 C1232.65295,593.997886 1217.13792,578.745975 1199.03826,572.922351 C1190.37328,570.168244 1182.66957,564.297603 1177.7653,555.802977 C1173.10239,547.726424 1171.75904,538.644233 1173.3119,530.136349 C1177.70542,510.700745 1172.30121,489.343471 1157.05772,474.099668 C1133.44176,450.483225 1095.15273,450.483225 1071.53677,474.099668 C1061.26594,484.370712 1055.462,497.417186 1054.12496,510.824962 C1053.5158,516.933562 1053.83385,523.117158 1055.0791,529.147446 C1056.96653,537.799252 1055.73437,547.406321 1050.83009,555.900947 C1046.16719,563.9775 1038.9707,569.587718 1030.82638,572.496814 C1011.79938,578.410813 996.002297,593.77111 990.422014,614.597436 C981.777974,646.858097 1000.92249,680.018053 1033.18249,688.662271 C1054.07139,694.259552 1075.33735,688.205444 1090.08056,674.483625" id="Combined-Shape-Copy-18" opacity="0.66"></path>
                <path d="M299.921792,675.604359 C306.513253,670.005572 315.050175,666.627878 324.375984,666.627878 C334.184532,666.627878 343.056849,670.365461 349.22786,676.011326 C363.9428,689.320775 384.899952,695.124571 405.490741,689.607172 C437.750739,680.962954 456.895255,647.802998 448.251214,615.542338 C442.731695,594.942787 427.216664,579.690877 409.116998,573.867253 C400.452023,571.113145 392.74831,565.242505 387.844036,556.747878 C383.181131,548.671325 381.837778,539.589134 383.39064,531.081251 C387.784159,511.645647 382.379948,490.288373 367.136457,475.044569 C343.5205,451.428126 305.231468,451.428126 281.615511,475.044569 C271.344678,485.315613 265.54074,498.362088 264.203698,511.769863 C263.59454,517.878463 263.912587,524.06206 265.157839,530.092347 C267.04527,538.744153 265.813107,548.351222 260.908833,556.845848 C256.245929,564.922402 249.049445,570.532619 240.905122,573.441715 C221.878119,579.355715 206.081037,594.716011 200.500754,615.542338 C191.856714,647.802998 211.00123,680.962954 243.261227,689.607172 C264.150135,695.204453 285.416089,689.150345 300.159301,675.428526" id="Combined-Shape-Copy-2" opacity="0.66"></path>
                <path d="M102.441477,789.937419 C109.032938,784.338631 117.56986,780.960937 126.895669,780.960937 C136.704217,780.960937 145.576534,784.69852 151.747545,790.344385 C166.462485,803.653835 187.419637,809.45763 208.010426,803.940232 C240.270424,795.296014 259.41494,762.136058 250.770899,729.875397 C245.25138,709.275847 229.736349,694.023936 211.636683,688.200312 C202.971708,685.446205 195.267995,679.575564 190.363721,671.080938 C185.700816,663.004384 184.357463,653.922194 185.910325,645.41431 C190.303844,625.978706 184.899633,604.621432 169.656142,589.377628 C146.040185,565.761185 107.751153,565.761185 84.1351963,589.377628 C73.8643631,599.648672 68.0604255,612.695147 66.7233834,626.102923 C66.1142253,632.211523 66.432272,638.395119 67.6775236,644.425406 C69.5649551,653.077212 68.332792,662.684281 63.4285182,671.178907 C58.7656137,679.255461 51.5691296,684.865678 43.4248066,687.774774 C24.3978041,693.688774 8.60072187,709.04907 3.02043923,729.875397 C-5.62360103,762.136058 13.5209149,795.296014 45.7809123,803.940232 C66.6698196,809.537512 87.9357745,803.483404 102.678986,789.761586" id="Combined-Shape-Copy-27" opacity="0.33"></path>
                <path d="M893.307619,788.992517 C899.899079,783.39373 908.436002,780.016036 917.761811,780.016036 C927.570359,780.016036 936.442675,783.753619 942.613687,789.399484 C957.328627,802.708933 978.285778,808.512729 998.876568,802.99533 C1031.13657,794.351112 1050.28108,761.191156 1041.63704,728.930496 C1036.11752,708.330945 1020.60249,693.079034 1002.50282,687.255411 C993.837849,684.501303 986.134136,678.630662 981.229863,670.136036 C976.566958,662.059483 975.223605,652.977292 976.776467,644.469409 C981.169986,625.033804 975.765775,603.676531 960.522284,588.432727 C936.906327,564.816284 898.617295,564.816284 875.001338,588.432727 C864.730505,598.703771 858.926567,611.750245 857.589525,625.158021 C856.980367,631.266621 857.298414,637.450218 858.543665,643.480505 C860.431097,652.132311 859.198934,661.73938 854.29466,670.234006 C849.631755,678.31056 842.435271,683.920777 834.290948,686.829873 C815.263946,692.743873 799.466864,708.104169 793.886581,728.930496 C785.242541,761.191156 804.387057,794.351112 836.647054,802.99533 C857.535961,808.592611 878.801916,802.538503 893.545128,788.816684" id="Combined-Shape-Copy-5"></path>
                <path d="M1288.26825,788.047616 C1294.85971,782.448828 1303.39663,779.071135 1312.72244,779.071135 C1322.53099,779.071135 1331.40331,782.808718 1337.57432,788.454582 C1352.28926,801.764032 1373.24641,807.567828 1393.8372,802.050429 C1426.0972,793.406211 1445.24171,760.246255 1436.59767,727.985594 C1431.07815,707.386044 1415.56312,692.134133 1397.46345,686.310509 C1388.79848,683.556402 1381.09477,677.685761 1376.19049,669.191135 C1371.52759,661.114582 1370.18423,652.032391 1371.7371,643.524507 C1376.13062,624.088903 1370.7264,602.731629 1355.48291,587.487825 C1331.86696,563.871383 1293.57793,563.871383 1269.96197,587.487825 C1259.69113,597.75887 1253.8872,610.805344 1252.55016,624.21312 C1251.941,630.32172 1252.25904,636.505316 1253.5043,642.535604 C1255.39173,651.18741 1254.15956,660.794479 1249.25529,669.289105 C1244.59239,677.365658 1237.3959,682.975876 1229.25158,685.884972 C1210.22458,691.798971 1194.42749,707.159268 1188.84721,727.985594 C1180.20317,760.246255 1199.34769,793.406211 1231.60768,802.050429 C1252.49659,807.64771 1273.76255,801.593602 1288.50576,787.871783" id="Combined-Shape-Copy-19" opacity="0.33"></path>
                <path d="M498.346989,788.992517 C504.938449,783.39373 513.475372,780.016036 522.801181,780.016036 C532.609729,780.016036 541.482045,783.753619 547.653057,789.399484 C562.367997,802.708933 583.325149,808.512729 603.915938,802.99533 C636.175936,794.351112 655.320451,761.191156 646.676411,728.930496 C641.156892,708.330945 625.641861,693.079034 607.542195,687.255411 C598.877219,684.501303 591.173506,678.630662 586.269233,670.136036 C581.606328,662.059483 580.262975,652.977292 581.815837,644.469409 C586.209356,625.033804 580.805145,603.676531 565.561654,588.432727 C541.945697,564.816284 503.656665,564.816284 480.040708,588.432727 C469.769875,598.703771 463.965937,611.750245 462.628895,625.158021 C462.019737,631.266621 462.337784,637.450218 463.583035,643.480505 C465.470467,652.132311 464.238304,661.73938 459.33403,670.234006 C454.671126,678.31056 447.474641,683.920777 439.330318,686.829873 C420.303316,692.743873 404.506234,708.104169 398.925951,728.930496 C390.281911,761.191156 409.426427,794.351112 441.686424,802.99533 C462.575331,808.592611 483.841286,802.538503 498.584498,788.816684" id="Combined-Shape-Copy-7"></path>
                <path d="M891.417855,1019.54844 C898.009316,1013.94965 906.546238,1010.57196 915.872047,1010.57196 C925.680595,1010.57196 934.552912,1014.30954 940.723923,1019.9554 C955.438863,1033.26485 976.396015,1039.06865 996.986804,1033.55125 C1029.2468,1024.90703 1048.39132,991.747077 1039.74728,959.486417 C1034.22776,938.886866 1018.71273,923.634956 1000.61306,917.811332 C991.948086,915.057224 984.244373,909.186583 979.340099,900.691957 C974.677194,892.615404 973.333841,883.533213 974.886703,875.02533 C979.280222,855.589726 973.876011,834.232452 958.63252,818.988648 C935.016563,795.372205 896.727531,795.372205 873.111574,818.988648 C862.840741,829.259692 857.036803,842.306166 855.699761,855.713942 C855.090603,861.822542 855.40865,868.006139 856.653902,874.036426 C858.541333,882.688232 857.30917,892.295301 852.404896,900.789927 C847.741992,908.866481 840.545508,914.476698 832.401185,917.385794 C813.374182,923.299794 797.5771,938.66009 791.996817,959.486417 C783.352777,991.747077 802.497293,1024.90703 834.75729,1033.55125 C855.646198,1039.14853 876.912152,1033.09442 891.655364,1019.37261" id="Combined-Shape-Copy-8" opacity="0.66"></path>
                <path d="M1286.37848,1018.60354 C1292.96995,1013.00475 1301.50687,1009.62706 1310.83268,1009.62706 C1320.64122,1009.62706 1329.51354,1013.36464 1335.68455,1019.0105 C1350.39949,1032.31995 1371.35664,1038.12375 1391.94743,1032.60635 C1424.20743,1023.96213 1443.35195,990.802176 1434.70791,958.541515 C1429.18839,937.941965 1413.67336,922.690054 1395.57369,916.86643 C1386.90872,914.112323 1379.205,908.241682 1374.30073,899.747056 C1369.63782,891.670503 1368.29447,882.588312 1369.84733,874.080428 C1374.24085,854.644824 1368.83664,833.28755 1353.59315,818.043746 C1329.97719,794.427304 1291.68816,794.427304 1268.0722,818.043746 C1257.80137,828.314791 1251.99743,841.361265 1250.66039,854.769041 C1250.05123,860.877641 1250.36928,867.061237 1251.61453,873.091525 C1253.50196,881.743331 1252.2698,891.3504 1247.36553,899.845026 C1242.70262,907.921579 1235.50614,913.531797 1227.36181,916.440893 C1208.33481,922.354892 1192.53773,937.715189 1186.95745,958.541515 C1178.31341,990.802176 1197.45792,1023.96213 1229.71792,1032.60635 C1250.60683,1038.20363 1271.87278,1032.14952 1286.61599,1018.4277" id="Combined-Shape-Copy-20" opacity="0.33"></path>
                <path d="M496.457225,1019.54844 C503.048686,1013.94965 511.585608,1010.57196 520.911417,1010.57196 C530.719965,1010.57196 539.592282,1014.30954 545.763293,1019.9554 C560.478233,1033.26485 581.435385,1039.06865 602.026174,1033.55125 C634.286172,1024.90703 653.430688,991.747077 644.786647,959.486417 C639.267128,938.886866 623.752097,923.634956 605.652431,917.811332 C596.987456,915.057224 589.283743,909.186583 584.379469,900.691957 C579.716564,892.615404 578.373211,883.533213 579.926073,875.02533 C584.319592,855.589726 578.915381,834.232452 563.67189,818.988648 C540.055933,795.372205 501.766901,795.372205 478.150944,818.988648 C467.880111,829.259692 462.076174,842.306166 460.739131,855.713942 C460.129973,861.822542 460.44802,868.006139 461.693272,874.036426 C463.580703,882.688232 462.34854,892.295301 457.444266,900.789927 C452.781362,908.866481 445.584878,914.476698 437.440555,917.385794 C418.413552,923.299794 402.61647,938.66009 397.036187,959.486417 C388.392147,991.747077 407.536663,1024.90703 439.79666,1033.55125 C460.685568,1039.14853 481.951523,1033.09442 496.694734,1019.37261" id="Combined-Shape-Copy-12" opacity="0.66"></path>
                <path d="M693.93754,1131.99169 C700.529001,1126.39291 709.065923,1123.01521 718.391732,1123.01521 C728.20028,1123.01521 737.072597,1126.7528 743.243608,1132.39866 C757.958548,1145.70811 778.9157,1151.51191 799.506489,1145.99451 C831.766487,1137.35029 850.911003,1104.19033 842.266962,1071.92967 C836.747443,1051.33012 821.232412,1036.07821 803.132746,1030.25459 C794.467771,1027.50048 786.764058,1021.62984 781.859784,1013.13521 C777.196879,1005.05866 775.853526,995.97647 777.406388,987.468586 C781.799907,968.032982 776.395696,946.675708 761.152205,931.431904 C737.536248,907.815462 699.247216,907.815462 675.631259,931.431904 C665.360426,941.702949 659.556489,954.749423 658.219446,968.157199 C657.610288,974.265799 657.928335,980.449395 659.173587,986.479683 C661.061018,995.131489 659.828855,1004.73856 654.924581,1013.23318 C650.261677,1021.30974 643.065193,1026.91995 634.92087,1029.82905 C615.893867,1035.74305 600.096785,1051.10335 594.516502,1071.92967 C585.872462,1104.19033 605.016978,1137.35029 637.276975,1145.99451 C658.165883,1151.59179 679.431838,1145.53768 694.175049,1131.81586" id="Combined-Shape-Copy-9" opacity="0.66"></path>
                <path d="M1088.89817,1131.04679 C1095.48963,1125.44801 1104.02655,1122.07031 1113.35236,1122.07031 C1123.16091,1122.07031 1132.03323,1125.8079 1138.20424,1131.45376 C1152.91918,1144.76321 1173.87633,1150.56701 1194.46712,1145.04961 C1226.72712,1136.40539 1245.87163,1103.24543 1237.22759,1070.98477 C1231.70807,1050.38522 1216.19304,1035.13331 1198.09338,1029.30969 C1189.4284,1026.55558 1181.72469,1020.68494 1176.82041,1012.19031 C1172.15751,1004.11376 1170.81416,995.031569 1172.36702,986.523685 C1176.76054,967.088081 1171.35633,945.730807 1156.11284,930.487003 C1132.49688,906.87056 1094.20785,906.87056 1070.59189,930.487003 C1060.32106,940.758047 1054.51712,953.804522 1053.18008,967.212298 C1052.57092,973.320898 1052.88896,979.504494 1054.13422,985.534781 C1056.02165,994.186587 1054.78948,1003.79366 1049.88521,1012.28828 C1045.22231,1020.36484 1038.02582,1025.97505 1029.8815,1028.88415 C1010.8545,1034.79815 995.057415,1050.15845 989.477132,1070.98477 C980.833092,1103.24543 999.977608,1136.40539 1032.23761,1145.04961 C1053.12651,1150.64689 1074.39247,1144.59278 1089.13568,1130.87096" id="Combined-Shape-Copy-21" opacity="0.33"></path>
                <path d="M298.97691,1131.99169 C305.568371,1126.39291 314.105293,1123.01521 323.431102,1123.01521 C333.23965,1123.01521 342.111967,1126.7528 348.282978,1132.39866 C362.997918,1145.70811 383.95507,1151.51191 404.545859,1145.99451 C436.805857,1137.35029 455.950373,1104.19033 447.306332,1071.92967 C441.786813,1051.33012 426.271782,1036.07821 408.172116,1030.25459 C399.507141,1027.50048 391.803428,1021.62984 386.899154,1013.13521 C382.236249,1005.05866 380.892896,995.97647 382.445758,987.468586 C386.839277,968.032982 381.435066,946.675708 366.191575,931.431904 C342.575618,907.815462 304.286586,907.815462 280.670629,931.431904 C270.399796,941.702949 264.595859,954.749423 263.258816,968.157199 C262.649658,974.265799 262.967705,980.449395 264.212957,986.479683 C266.100388,995.131489 264.868225,1004.73856 259.963951,1013.23318 C255.301047,1021.30974 248.104563,1026.91995 239.96024,1029.82905 C220.933237,1035.74305 205.136155,1051.10335 199.555872,1071.92967 C190.911832,1104.19033 210.056348,1137.35029 242.316345,1145.99451 C263.205253,1151.59179 284.471208,1145.53768 299.214419,1131.81586" id="Combined-Shape-Copy-13"></path>
                <path d="M693.93754,905.215379 C700.529001,899.616591 709.065923,896.238898 718.391732,896.238898 C728.20028,896.238898 737.072597,899.976481 743.243608,905.622345 C757.958548,918.931795 778.9157,924.735591 799.506489,919.218192 C831.766487,910.573974 850.911003,877.414018 842.266962,845.153357 C836.747443,824.553807 821.232412,809.301896 803.132746,803.478273 C794.467771,800.724165 786.764058,794.853524 781.859784,786.358898 C777.196879,778.282345 775.853526,769.200154 777.406388,760.69227 C781.799907,741.256666 776.395696,719.899392 761.152205,704.655589 C737.536248,681.039146 699.247216,681.039146 675.631259,704.655589 C665.360426,714.926633 659.556489,727.973107 658.219446,741.380883 C657.610288,747.489483 657.928335,753.673079 659.173587,759.703367 C661.061018,768.355173 659.828855,777.962242 654.924581,786.456868 C650.261677,794.533421 643.065193,800.143639 634.92087,803.052735 C615.893867,808.966734 600.096785,824.327031 594.516502,845.153357 C585.872462,877.414018 605.016978,910.573974 637.276975,919.218192 C658.165883,924.815473 679.431838,918.761365 694.175049,905.039546" id="Combined-Shape-Copy-6"></path>
                <path d="M1088.89817,904.270478 C1095.48963,898.67169 1104.02655,895.293997 1113.35236,895.293997 C1123.16091,895.293997 1132.03323,899.03158 1138.20424,904.677444 C1152.91918,917.986894 1173.87633,923.79069 1194.46712,918.273291 C1226.72712,909.629073 1245.87163,876.469117 1237.22759,844.208456 C1231.70807,823.608906 1216.19304,808.356995 1198.09338,802.533371 C1189.4284,799.779264 1181.72469,793.908623 1176.82041,785.413997 C1172.15751,777.337443 1170.81416,768.255253 1172.36702,759.747369 C1176.76054,740.311765 1171.35633,718.954491 1156.11284,703.710687 C1132.49688,680.094245 1094.20785,680.094245 1070.59189,703.710687 C1060.32106,713.981732 1054.51712,727.028206 1053.18008,740.435982 C1052.57092,746.544582 1052.88896,752.728178 1054.13422,758.758466 C1056.02165,767.410272 1054.78948,777.01734 1049.88521,785.511966 C1045.22231,793.58852 1038.02582,799.198738 1029.8815,802.107834 C1010.8545,808.021833 995.057415,823.38213 989.477132,844.208456 C980.833092,876.469117 999.977608,909.629073 1032.23761,918.273291 C1053.12651,923.870572 1074.39247,917.816464 1089.13568,904.094645" id="Combined-Shape-Copy-22" opacity="0.66"></path>
                <path d="M298.97691,905.215379 C305.568371,899.616591 314.105293,896.238898 323.431102,896.238898 C333.23965,896.238898 342.111967,899.976481 348.282978,905.622345 C362.997918,918.931795 383.95507,924.735591 404.545859,919.218192 C436.805857,910.573974 455.950373,877.414018 447.306332,845.153357 C441.786813,824.553807 426.271782,809.301896 408.172116,803.478273 C399.507141,800.724165 391.803428,794.853524 386.899154,786.358898 C382.236249,778.282345 380.892896,769.200154 382.445758,760.69227 C386.839277,741.256666 381.435066,719.899392 366.191575,704.655589 C342.575618,681.039146 304.286586,681.039146 280.670629,704.655589 C270.399796,714.926633 264.595859,727.973107 263.258816,741.380883 C262.649658,747.489483 262.967705,753.673079 264.212957,759.703367 C266.100388,768.355173 264.868225,777.962242 259.963951,786.456868 C255.301047,794.533421 248.104563,800.143639 239.96024,803.052735 C220.933237,808.966734 205.136155,824.327031 199.555872,845.153357 C190.911832,877.414018 210.056348,910.573974 242.316345,919.218192 C263.205253,924.815473 284.471208,918.761365 299.214419,905.039546" id="Combined-Shape-Copy-14" opacity="0.66"></path>
                <path d="M101.496595,1019.54844 C108.088056,1013.94965 116.624978,1010.57196 125.950787,1010.57196 C135.759335,1010.57196 144.631652,1014.30954 150.802663,1019.9554 C165.517603,1033.26485 186.474755,1039.06865 207.065544,1033.55125 C239.325542,1024.90703 258.470058,991.747077 249.826018,959.486417 C244.306498,938.886866 228.791467,923.634956 210.691801,917.811332 C202.026826,915.057224 194.323113,909.186583 189.418839,900.691957 C184.755934,892.615404 183.412581,883.533213 184.965443,875.02533 C189.358962,855.589726 183.954751,834.232452 168.711261,818.988648 C145.095303,795.372205 106.806272,795.372205 83.1903144,818.988648 C72.9194812,829.259692 67.1155436,842.306166 65.7785015,855.713942 C65.1693434,861.822542 65.4873901,868.006139 66.7326417,874.036426 C68.6200732,882.688232 67.3879101,892.295301 62.4836363,900.789927 C57.8207318,908.866481 50.6242478,914.476698 42.4799248,917.385794 C23.4529222,923.299794 7.65583998,938.66009 2.07555734,959.486417 C-6.56848292,991.747077 12.576033,1024.90703 44.8360304,1033.55125 C65.7249377,1039.14853 86.9908926,1033.09442 101.734104,1019.37261" id="Combined-Shape-Copy-29" opacity="0.33"></path>
                <path d="M695.827304,447.883142 C702.418764,442.284355 710.955687,438.906661 720.281496,438.906661 C730.090044,438.906661 738.96236,442.644244 745.133372,448.290109 C759.848312,461.599558 780.805464,467.403354 801.396253,461.885955 C833.656251,453.241737 852.800766,420.081781 844.156726,387.821121 C838.637207,367.22157 823.122176,351.969659 805.02251,346.146036 C796.357534,343.391928 788.653821,337.521287 783.749548,329.026661 C779.086643,320.950108 777.74329,311.867917 779.296152,303.360034 C783.689671,283.924429 778.28546,262.567156 763.041969,247.323352 C739.426012,223.706909 701.13698,223.706909 677.521023,247.323352 C667.25019,257.594396 661.446252,270.64087 660.10921,284.048646 C659.500052,290.157246 659.818099,296.340843 661.06335,302.37113 C662.950782,311.022936 661.718619,320.630005 656.814345,329.124631 C652.15144,337.201185 644.954956,342.811402 636.810633,345.720498 C617.783631,351.634498 601.986549,366.994794 596.406266,387.821121 C587.762226,420.081781 606.906742,453.241737 639.166739,461.885955 C660.055646,467.483236 681.321601,461.429128 696.064813,447.707309" id="Combined-Shape-Copy"></path>
                <path d="M1090.78793,446.938241 C1097.37939,441.339453 1105.91632,437.96176 1115.24213,437.96176 C1125.05067,437.96176 1133.92299,441.699343 1140.094,447.345207 C1154.80894,460.654657 1175.76609,466.458453 1196.35688,460.941054 C1228.61688,452.296836 1247.7614,419.13688 1239.11736,386.876219 C1233.59784,366.276669 1218.08281,351.024758 1199.98314,345.201134 C1191.31816,342.447027 1183.61445,336.576386 1178.71018,328.08176 C1174.04727,320.005207 1172.70392,310.923016 1174.25678,302.415132 C1178.6503,282.979528 1173.24609,261.622254 1158.0026,246.37845 C1134.38664,222.762008 1096.09761,222.762008 1072.48165,246.37845 C1062.21082,256.649495 1056.40688,269.695969 1055.06984,283.103745 C1054.46068,289.212345 1054.77873,295.395941 1056.02398,301.426229 C1057.91141,310.078035 1056.67925,319.685104 1051.77497,328.17973 C1047.11207,336.256283 1039.91559,341.866501 1031.77126,344.775597 C1012.74426,350.689596 996.947179,366.049893 991.366896,386.876219 C982.722856,419.13688 1001.86737,452.296836 1034.12737,460.941054 C1055.01628,466.538335 1076.28223,460.484227 1091.02544,446.762408" id="Combined-Shape-Copy-23" opacity="0.66"></path>
                <path d="M300.866674,447.883142 C307.458135,442.284355 315.995057,438.906661 325.320866,438.906661 C335.129414,438.906661 344.00173,442.644244 350.172742,448.290109 C364.887682,461.599558 385.844834,467.403354 406.435623,461.885955 C438.695621,453.241737 457.840137,420.081781 449.196096,387.821121 C443.676577,367.22157 428.161546,351.969659 410.06188,346.146036 C401.396904,343.391928 393.693191,337.521287 388.788918,329.026661 C384.126013,320.950108 382.78266,311.867917 384.335522,303.360034 C388.729041,283.924429 383.32483,262.567156 368.081339,247.323352 C344.465382,223.706909 306.17635,223.706909 282.560393,247.323352 C272.28956,257.594396 266.485622,270.64087 265.14858,284.048646 C264.539422,290.157246 264.857469,296.340843 266.10272,302.37113 C267.990152,311.022936 266.757989,320.630005 261.853715,329.124631 C257.190811,337.201185 249.994326,342.811402 241.850003,345.720498 C222.823001,351.634498 207.025919,366.994794 201.445636,387.821121 C192.801596,420.081781 211.946112,453.241737 244.206109,461.885955 C265.095016,467.483236 286.360971,461.429128 301.104183,447.707309" id="Combined-Shape-Copy-3" opacity="0.66"></path>
                <path d="M103.386359,562.216201 C109.97782,556.617414 118.514742,553.23972 127.840551,553.23972 C137.649099,553.23972 146.521415,556.977303 152.692427,562.623168 C167.407367,575.932618 188.364519,581.736413 208.955308,576.219014 C241.215306,567.574796 260.359822,534.414841 251.715781,502.15418 C246.196262,481.554629 230.681231,466.302719 212.581565,460.479095 C203.91659,457.724987 196.212877,451.854347 191.308603,443.359721 C186.645698,435.283167 185.302345,426.200976 186.855207,417.693093 C191.248726,398.257489 185.844515,376.900215 170.601024,361.656411 C146.985067,338.039968 108.696035,338.039968 85.0800781,361.656411 C74.809245,371.927455 69.0053074,384.97393 67.6682653,398.381705 C67.0591072,404.490305 67.3771539,410.673902 68.6224055,416.704189 C70.509837,425.355995 69.2776739,434.963064 64.3734001,443.45769 C59.7104956,451.534244 52.5140115,457.144461 44.3696885,460.053557 C25.342686,465.967557 9.54560376,481.327853 3.96532112,502.15418 C-4.67871914,534.414841 14.4657968,567.574796 46.7257942,576.219014 C67.6147015,581.816295 88.8806564,575.762187 103.623868,562.040368" id="Combined-Shape-Copy-30" opacity="0.33"></path>
                <path d="M894.252501,333.550083 C900.843961,327.951295 909.380884,324.573602 918.706693,324.573602 C928.515241,324.573602 937.387557,328.311185 943.558569,333.957049 C958.273509,347.266499 979.23066,353.070295 999.82145,347.552896 C1032.08145,338.908678 1051.22596,305.748722 1042.58192,273.488061 C1037.0624,252.888511 1021.54737,237.6366 1003.44771,231.812976 C994.782731,229.058869 987.079018,223.188228 982.174744,214.693602 C977.51184,206.617049 976.168487,197.534858 977.721349,189.026974 C982.114867,169.59137 976.710656,148.234096 961.467166,132.990293 C937.851209,109.37385 899.562177,109.37385 875.94622,132.990293 C865.675387,143.261337 859.871449,156.307811 858.534407,169.715587 C857.925249,175.824187 858.243296,182.007783 859.488547,188.038071 C861.375979,196.689877 860.143816,206.296946 855.239542,214.791572 C850.576637,222.868125 843.380153,228.478343 835.23583,231.387439 C816.208828,237.301438 800.411745,252.661735 794.831463,273.488061 C786.187423,305.748722 805.331938,338.908678 837.591936,347.552896 C858.480843,353.150177 879.746798,347.096069 894.49001,333.37425" id="Combined-Shape-Copy-10" opacity="0.66"></path>
                <path d="M1289.21313,332.605182 C1295.80459,327.006394 1304.34151,323.628701 1313.66732,323.628701 C1323.47587,323.628701 1332.34819,327.366284 1338.5192,333.012148 C1353.23414,346.321598 1374.19129,352.125394 1394.78208,346.607995 C1427.04208,337.963777 1446.18659,304.803821 1437.54255,272.54316 C1432.02303,251.94361 1416.508,236.691699 1398.40834,230.868075 C1389.74336,228.113968 1382.03965,222.243327 1377.13537,213.748701 C1372.47247,205.672147 1371.12912,196.589957 1372.68198,188.082073 C1377.0755,168.646469 1371.67129,147.289195 1356.4278,132.045391 C1332.81184,108.428949 1294.52281,108.428949 1270.90685,132.045391 C1260.63602,142.316436 1254.83208,155.36291 1253.49504,168.770686 C1252.88588,174.879286 1253.20393,181.062882 1254.44918,187.09317 C1256.33661,195.744976 1255.10445,205.352044 1250.20017,213.84667 C1245.53727,221.923224 1238.34078,227.533441 1230.19646,230.442538 C1211.16946,236.356537 1195.37238,251.716834 1189.79209,272.54316 C1181.14805,304.803821 1200.29257,337.963777 1232.55257,346.607995 C1253.44147,352.205276 1274.70743,346.151168 1289.45064,332.429349" id="Combined-Shape-Copy-24" opacity="0.33"></path>
                <path d="M499.291871,333.550083 C505.883331,327.951295 514.420254,324.573602 523.746063,324.573602 C533.554611,324.573602 542.426927,328.311185 548.597939,333.957049 C563.312879,347.266499 584.27003,353.070295 604.86082,347.552896 C637.120817,338.908678 656.265333,305.748722 647.621293,273.488061 C642.101774,252.888511 626.586743,237.6366 608.487076,231.812976 C599.822101,229.058869 592.118388,223.188228 587.214115,214.693602 C582.55121,206.617049 581.207857,197.534858 582.760719,189.026974 C587.154238,169.59137 581.750026,148.234096 566.506536,132.990293 C542.890579,109.37385 504.601547,109.37385 480.98559,132.990293 C470.714757,143.261337 464.910819,156.307811 463.573777,169.715587 C462.964619,175.824187 463.282666,182.007783 464.527917,188.038071 C466.415349,196.689877 465.183186,206.296946 460.278912,214.791572 C455.616007,222.868125 448.419523,228.478343 440.2752,231.387439 C421.248198,237.301438 405.451116,252.661735 399.870833,273.488061 C391.226793,305.748722 410.371309,338.908678 442.631306,347.552896 C463.520213,353.150177 484.786168,347.096069 499.52938,333.37425" id="Combined-Shape-Copy-15" opacity="0.66"></path>
                <path d="M695.827304,219.217024 C702.418764,213.618236 710.955687,210.240543 720.281496,210.240543 C730.090044,210.240543 738.96236,213.978126 745.133372,219.62399 C759.848312,232.93344 780.805464,238.737236 801.396253,233.219837 C833.656251,224.575619 852.800766,191.415663 844.156726,159.155002 C838.637207,138.555452 823.122176,123.303541 805.02251,117.479917 C796.357534,114.72581 788.653821,108.855169 783.749548,100.360543 C779.086643,92.2839894 777.74329,83.2017988 779.296152,74.6939152 C783.689671,55.258311 778.28546,33.9010371 763.041969,18.6572333 C739.426012,-4.95920936 701.13698,-4.95920936 677.521023,18.6572333 C667.25019,28.9282776 661.446252,41.974752 660.10921,55.3825278 C659.500052,61.4911279 659.818099,67.6747241 661.06335,73.7050117 C662.950782,82.3568177 661.718619,91.9638865 656.814345,100.458513 C652.15144,108.535066 644.954956,114.145284 636.810633,117.05438 C617.783631,122.968379 601.986549,138.328676 596.406266,159.155002 C587.762226,191.415663 606.906742,224.575619 639.166739,233.219837 C660.055646,238.817118 681.321601,232.76301 696.064813,219.041191" id="Combined-Shape-Copy-11" opacity="0.66"></path>
                <path d="M1090.78793,218.272122 C1097.37939,212.673335 1105.91632,209.295641 1115.24213,209.295641 C1125.05067,209.295641 1133.92299,213.033224 1140.094,218.679089 C1154.80894,231.988539 1175.76609,237.792334 1196.35688,232.274935 C1228.61688,223.630718 1247.7614,190.470762 1239.11736,158.210101 C1233.59784,137.61055 1218.08281,122.35864 1199.98314,116.535016 C1191.31816,113.780909 1183.61445,107.910268 1178.71018,99.4156416 C1174.04727,91.3390881 1172.70392,82.2568975 1174.25678,73.7490138 C1178.6503,54.3134097 1173.24609,32.9561358 1158.0026,17.712332 C1134.38664,-5.90411067 1096.09761,-5.90411067 1072.48165,17.712332 C1062.21082,27.9833763 1056.40688,41.0298507 1055.06984,54.4376265 C1054.46068,60.5462265 1054.77873,66.7298228 1056.02398,72.7601104 C1057.91141,81.4119164 1056.67925,91.0189852 1051.77497,99.5136112 C1047.11207,107.590165 1039.91559,113.200382 1031.77126,116.109478 C1012.74426,122.023478 996.947179,137.383774 991.366896,158.210101 C982.722856,190.470762 1001.86737,223.630718 1034.12737,232.274935 C1055.01628,237.872216 1076.28223,231.818108 1091.02544,218.09629" id="Combined-Shape-Copy-25" opacity="0.33"></path>
                <path d="M300.866674,219.217024 C307.458135,213.618236 315.995057,210.240543 325.320866,210.240543 C335.129414,210.240543 344.00173,213.978126 350.172742,219.62399 C364.887682,232.93344 385.844834,238.737236 406.435623,233.219837 C438.695621,224.575619 457.840137,191.415663 449.196096,159.155002 C443.676577,138.555452 428.161546,123.303541 410.06188,117.479917 C401.396904,114.72581 393.693191,108.855169 388.788918,100.360543 C384.126013,92.2839894 382.78266,83.2017988 384.335522,74.6939152 C388.729041,55.258311 383.32483,33.9010371 368.081339,18.6572333 C344.465382,-4.95920936 306.17635,-4.95920936 282.560393,18.6572333 C272.28956,28.9282776 266.485622,41.974752 265.14858,55.3825278 C264.539422,61.4911279 264.857469,67.6747241 266.10272,73.7050117 C267.990152,82.3568177 266.757989,91.9638865 261.853715,100.458513 C257.190811,108.535066 249.994326,114.145284 241.850003,117.05438 C222.823001,122.968379 207.025919,138.328676 201.445636,159.155002 C192.801596,191.415663 211.946112,224.575619 244.206109,233.219837 C265.095016,238.817118 286.360971,232.76301 301.104183,219.041191" id="Combined-Shape-Copy-16" opacity="0.33"></path>
                <path d="M103.386359,333.550083 C109.97782,327.951295 118.514742,324.573602 127.840551,324.573602 C137.649099,324.573602 146.521415,328.311185 152.692427,333.957049 C167.407367,347.266499 188.364519,353.070295 208.955308,347.552896 C241.215306,338.908678 260.359822,305.748722 251.715781,273.488061 C246.196262,252.888511 230.681231,237.6366 212.581565,231.812976 C203.91659,229.058869 196.212877,223.188228 191.308603,214.693602 C186.645698,206.617049 185.302345,197.534858 186.855207,189.026974 C191.248726,169.59137 185.844515,148.234096 170.601024,132.990293 C146.985067,109.37385 108.696035,109.37385 85.0800781,132.990293 C74.809245,143.261337 69.0053074,156.307811 67.6682653,169.715587 C67.0591072,175.824187 67.3771539,182.007783 68.6224055,188.038071 C70.509837,196.689877 69.2776739,206.296946 64.3734001,214.791572 C59.7104956,222.868125 52.5140115,228.478343 44.3696885,231.387439 C25.342686,237.301438 9.54560376,252.661735 3.96532112,273.488061 C-4.67871914,305.748722 14.4657968,338.908678 46.7257942,347.552896 C67.6147015,353.150177 88.8806564,347.096069 103.623868,333.37425" id="Combined-Shape-Copy-31" opacity="0.33"></path>
                <path d="M892.362737,561.2713 C898.954198,555.672513 907.49112,552.294819 916.816929,552.294819 C926.625477,552.294819 935.497793,556.032402 941.668805,561.678266 C956.383745,574.987716 977.340897,580.791512 997.931686,575.274113 C1030.19168,566.629895 1049.3362,533.469939 1040.69216,501.209279 C1035.17264,480.609728 1019.65761,465.357817 1001.55794,459.534194 C992.892967,456.780086 985.189254,450.909445 980.284981,442.414819 C975.622076,434.338266 974.278723,425.256075 975.831585,416.748191 C980.225104,397.312587 974.820893,375.955313 959.577402,360.71151 C935.961445,337.095067 897.672413,337.095067 874.056456,360.71151 C863.785623,370.982554 857.981685,384.029028 856.644643,397.436804 C856.035485,403.545404 856.353532,409.729 857.598783,415.759288 C859.486215,424.411094 858.254052,434.018163 853.349778,442.512789 C848.686874,450.589342 841.490389,456.19956 833.346066,459.108656 C814.319064,465.022655 798.521982,480.382952 792.941699,501.209279 C784.297659,533.469939 803.442175,566.629895 835.702172,575.274113 C856.591079,580.871394 877.857034,574.817286 892.600246,561.095467" id="Combined-Shape-Copy-4"></path>
                <path d="M1287.32337,560.326399 C1293.91483,554.727611 1302.45175,551.349918 1311.77756,551.349918 C1321.58611,551.349918 1330.45842,555.087501 1336.62943,560.733365 C1351.34437,574.042815 1372.30153,579.846611 1392.89232,574.329212 C1425.15231,565.684994 1444.29683,532.525038 1435.65279,500.264377 C1430.13327,479.664827 1414.61824,464.412916 1396.51857,458.589292 C1387.8536,455.835185 1380.14988,449.964544 1375.24561,441.469918 C1370.58271,433.393364 1369.23935,424.311174 1370.79222,415.80329 C1375.18573,396.367686 1369.78152,375.010412 1354.53803,359.766608 C1330.92207,336.150166 1292.63304,336.150166 1269.01709,359.766608 C1258.74625,370.037653 1252.94232,383.084127 1251.60527,396.491903 C1250.99612,402.600503 1251.31416,408.784099 1252.55941,414.814387 C1254.44684,423.466193 1253.21468,433.073261 1248.31041,441.567888 C1243.6475,449.644441 1236.45102,455.254659 1228.3067,458.163755 C1209.27969,464.077754 1193.48261,479.438051 1187.90233,500.264377 C1179.25829,532.525038 1198.4028,565.684994 1230.6628,574.329212 C1251.55171,579.926493 1272.81766,573.872385 1287.56088,560.150566" id="Combined-Shape-Copy-26" opacity="0.33"></path>
                <path d="M497.402107,561.2713 C503.993568,555.672513 512.53049,552.294819 521.856299,552.294819 C531.664847,552.294819 540.537164,556.032402 546.708175,561.678266 C561.423115,574.987716 582.380267,580.791512 602.971056,575.274113 C635.231054,566.629895 654.37557,533.469939 645.731529,501.209279 C640.21201,480.609728 624.696979,465.357817 606.597313,459.534194 C597.932338,456.780086 590.228625,450.909445 585.324351,442.414819 C580.661446,434.338266 579.318093,425.256075 580.870955,416.748191 C585.264474,397.312587 579.860263,375.955313 564.616772,360.71151 C541.000815,337.095067 502.711783,337.095067 479.095826,360.71151 C468.824993,370.982554 463.021055,384.029028 461.684013,397.436804 C461.074855,403.545404 461.392902,409.729 462.638154,415.759288 C464.525585,424.411094 463.293422,434.018163 458.389148,442.512789 C453.726244,450.589342 446.52976,456.19956 438.385437,459.108656 C419.358434,465.022655 403.561352,480.382952 397.981069,501.209279 C389.337029,533.469939 408.481545,566.629895 440.741542,575.274113 C461.63045,580.871394 482.896404,574.817286 497.639616,561.095467" id="Combined-Shape-Copy-17"></path>
            </g>
        </g>
    </g>
</svg>