<?xml version="1.0" encoding="UTF-8"?>
<svg width="128px" height="128px" viewBox="0 0 128 128" version="1.1" xmlns="http://www.w3.org/2000/svg" xmlns:xlink="http://www.w3.org/1999/xlink">
    <!-- Generator: Sketch 46 (44423) - http://www.bohemiancoding.com/sketch -->
    <title>github</title>
    <desc>Created with Sketch.</desc>
    <defs></defs>
    <g id="assets" stroke="none" stroke-width="1" fill="none" fill-rule="evenodd">
        <g id="github" fill-rule="nonzero" fill="#FFFFFF">
            <g transform="translate(0.000000, 1.000000)" id="Shape">
                <path d="M119.291335,31.9483918 C113.574196,22.1527472 105.819262,14.3975216 96.024492,8.68096583 C86.2282642,2.96411845 75.5337039,0.10642369 63.9332301,0.10642369 C52.3342141,0.10642369 41.6361549,2.96499317 31.8419681,8.68096583 C22.0463235,14.3972301 14.2916811,22.1527472 8.57454214,31.9483918 C2.8582779,41.7437449 0,52.4403462 0,64.0379043 C0,77.9692027 4.06451025,90.4965831 12.1955718,101.623253 C20.3257585,112.750797 30.8287563,120.450624 43.7036902,124.723608 C45.202369,125.001768 46.3117995,124.806123 47.0331481,124.141631 C47.7547882,123.476264 48.1151708,122.642952 48.1151708,121.645194 C48.1151708,121.478706 48.1008838,119.980902 48.0731845,117.150032 C48.0446105,114.319162 48.0311982,111.849549 48.0311982,109.74236 L46.1164465,110.073585 C44.8956355,110.297221 43.3555535,110.391982 41.4962005,110.365157 C39.6377221,110.339207 37.7083918,110.144437 35.7108337,109.782305 C33.7124009,109.42338 31.853631,108.590943 30.1330661,107.286743 C28.4133759,105.982542 27.1925649,104.27539 26.4709248,102.167909 L25.6384875,100.252282 C25.0836264,98.9769476 24.2100774,97.5602005 23.0166743,96.0072893 C21.8232711,94.4529203 20.6164556,93.39918 19.3956446,92.8443189 L18.8127927,92.4270797 C18.4244191,92.149795 18.0640364,91.8153622 17.7307699,91.4272802 C17.397795,91.0391982 17.1485011,90.6508246 16.9820137,90.2618679 C16.8152346,89.8726196 16.9534396,89.5533485 17.3980866,89.3028884 C17.8427335,89.0524282 18.6463052,88.9308428 19.8123007,88.9308428 L21.4765923,89.1795535 C22.5866059,89.4020228 23.9596173,90.0665148 25.5973759,91.1771116 C27.2342597,92.2868337 28.5798633,93.7295308 29.6344784,95.5046196 C30.9115626,97.7806287 32.4501868,99.5148975 34.2547244,100.708301 C36.0578041,101.901704 37.875754,102.497385 39.7068246,102.497385 C41.5378952,102.497385 43.1193804,102.358597 44.4518633,102.082478 C45.7828884,101.804902 47.0316902,101.387663 48.1976856,100.833093 C48.6971481,97.113221 50.0570387,94.2555262 52.2761913,92.2579681 C49.113221,91.9255763 46.2695216,91.4249476 43.7436355,90.7592893 C41.2192073,90.0927563 38.6105148,89.0110251 35.9193075,87.51118 C33.2266424,86.0133759 30.9929112,84.1534396 29.2175308,81.9345786 C27.4418588,79.7145513 25.9845831,76.8 24.8477449,73.193549 C23.7103235,69.5856401 23.141467,65.4237449 23.141467,60.706697 C23.141467,53.9903417 25.3340866,48.2749522 29.718451,43.5573212 C27.6646196,38.5078815 27.8585148,32.8473075 30.3007198,26.5761822 C31.9101959,26.0761367 34.2970023,26.4513895 37.4599727,27.6996082 C40.6235262,28.94841 42.9397722,30.0181868 44.4110433,30.9051481 C45.8823144,31.7918178 47.061139,32.5431982 47.9492665,33.1525831 C53.1115444,31.7101777 58.4388519,30.9888292 63.9326469,30.9888292 C69.4264419,30.9888292 74.7549157,31.7101777 79.9174852,33.1525831 L83.0807472,31.1556082 C85.243918,29.8231253 87.7983781,28.6020228 90.7380046,27.4920091 C93.6793804,26.3825786 95.9285649,26.0770114 97.4832255,26.5770569 C99.9796629,32.8484738 100.202132,38.5087563 98.1477175,43.5581959 C102.53179,48.2758269 104.725285,53.9926743 104.725285,60.7075718 C104.725285,65.4246196 104.154387,69.5996355 103.018715,73.2352437 C101.881585,76.8714351 100.411772,79.7830706 98.6086925,81.9762733 C96.8035718,84.1691845 94.5555535,86.0145421 91.8643462,87.5120547 C89.1725558,89.0107335 86.5629886,90.0924647 84.0385604,90.7589977 C81.5129658,91.4255308 78.6692665,91.926451 75.5062961,92.259426 C78.3911071,94.7558633 79.8338041,98.6964556 79.8338041,104.079453 L79.8338041,121.642861 C79.8338041,122.64062 80.1807745,123.47364 80.8752984,124.139298 C81.5689476,124.80379 82.6643827,124.999435 84.1630615,124.720984 C97.0397449,120.448583 107.542743,112.748465 115.672638,101.62092 C123.801658,90.4942506 127.867626,77.9668702 127.867626,64.0355718 C127.864711,52.4394715 125.004975,41.7437449 119.291335,31.9483918 Z"></path>
            </g>
        </g>
    </g>
</svg>