<?xml version="1.0" encoding="UTF-8"?>
<svg width="512px" height="512px" viewBox="0 0 512 512" version="1.1" xmlns="http://www.w3.org/2000/svg" xmlns:xlink="http://www.w3.org/1999/xlink">
    <!-- Generator: Sketch 46 (44423) - http://www.bohemiancoding.com/sketch -->
    <title>laptop</title>
    <desc>Created with Sketch.</desc>
    <defs>
        <path d="M32,144 C14.326888,144 0,129.673112 0,112 L0,0 L384,0 L384,112 C384,129.673112 369.673112,144 352,144 L32,144 Z" id="path-1"></path>
        <linearGradient x1="50%" y1="0%" x2="50%" y2="100%" id="linearGradient-3">
            <stop stop-color="#616161" offset="0%"></stop>
            <stop stop-color="#9E9E9E" offset="100%"></stop>
        </linearGradient>
        <path d="M0,24 C0,10.745166 10.745166,0 24,0 L344,0 C357.254834,0 368,10.745166 368,24 L368,184 C368,197.254834 357.254834,208 344,208 L24,208 C10.745166,208 0,197.254834 0,184 L0,24 Z" id="path-4"></path>
        <rect id="path-6" x="0" y="0" width="320" height="8" rx="4"></rect>
    </defs>
    <g id="graphic" stroke="none" stroke-width="1" fill="none" fill-rule="evenodd">
        <g id="laptop">
            <g transform="translate(64.000000, 32.000000)">
                <path d="M32,384 L352,384 C369.673112,384 384,369.673112 384,352 L384,256 L0,256 L0,352 C0,369.673112 14.326888,384 32,384 Z" id="volume" fill="#616161"></path>
                <path d="M32,368 C14.326888,368 0,353.673112 0,336 L0,32 C0,14.326888 14.326888,0 32,0 L352,0 C369.673112,0 384,14.326888 384,32 L384,336 C384,353.673112 369.673112,368 352,368 L32,368 Z" id="body" fill="#616161"></path>
                <g id="Path-7" transform="translate(0.000000, 224.000000)">
                    <mask id="mask-2" fill="white">
                        <use xlink:href="#path-1"></use>
                    </mask>
                    <use id="Mask" fill="#9E9E9E" xlink:href="#path-1"></use>
                    <polygon fill="#000000" opacity="0.1" mask="url(#mask-2)" points="384 3.55271368e-15 -42 82 -42 -18"></polygon>
                </g>
                <path d="M132,296 L252,296 C254.209139,296 256,297.790861 256,300 C256,302.209139 254.209139,304 252,304 L132,304 C129.790861,304 128,302.209139 128,300 C128,297.790861 129.790861,296 132,296 Z M264,296 L272,296 C274.209139,296 276,297.790861 276,300 C276,302.209139 274.209139,304 272,304 L264,304 C261.790861,304 260,302.209139 260,300 C260,297.790861 261.790861,296 264,296 Z M72,296 L80,296 C82.209139,296 84,297.790861 84,300 C84,302.209139 82.209139,304 80,304 L72,304 C69.790861,304 68,302.209139 68,300 C68,297.790861 69.790861,296 72,296 Z M196,284 L204,284 C206.209139,284 208,285.790861 208,288 C208,290.209139 206.209139,292 204,292 L196,292 C193.790861,292 192,290.209139 192,288 C192,285.790861 193.790861,284 196,284 Z M136,284 L144,284 C146.209139,284 148,285.790861 148,288 C148,290.209139 146.209139,292 144,292 L136,292 C133.790861,292 132,290.209139 132,288 C132,285.790861 133.790861,284 136,284 Z M276,284 L284,284 C286.209139,284 288,285.790861 288,288 C288,290.209139 286.209139,292 284,292 L276,292 C273.790861,292 272,290.209139 272,288 C272,285.790861 273.790861,284 276,284 Z M52,296 L60,296 C62.209139,296 64,297.790861 64,300 C64,302.209139 62.209139,304 60,304 L52,304 C49.790861,304 48,302.209139 48,300 C48,297.790861 49.790861,296 52,296 Z M36,296 L40,296 C42.209139,296 44,297.790861 44,300 C44,302.209139 42.209139,304 40,304 L36,304 C33.790861,304 32,302.209139 32,300 C32,297.790861 33.790861,296 36,296 Z M36,284 L64,284 C66.209139,284 68,285.790861 68,288 C68,290.209139 66.209139,292 64,292 L36,292 C33.790861,292 32,290.209139 32,288 C32,285.790861 33.790861,284 36,284 Z M116,284 L124,284 C126.209139,284 128,285.790861 128,288 C128,290.209139 126.209139,292 124,292 L116,292 C113.790861,292 112,290.209139 112,288 C112,285.790861 113.790861,284 116,284 Z M256,284 L264,284 C266.209139,284 268,285.790861 268,288 C268,290.209139 266.209139,292 264,292 L256,292 C253.790861,292 252,290.209139 252,288 C252,285.790861 253.790861,284 256,284 Z M284,296 L292,296 C294.209139,296 296,297.790861 296,300 C296,302.209139 294.209139,304 292,304 L284,304 C281.790861,304 280,302.209139 280,300 C280,297.790861 281.790861,296 284,296 Z M92,296 L100,296 C102.209139,296 104,297.790861 104,300 C104,302.209139 102.209139,304 100,304 L92,304 C89.790861,304 88,302.209139 88,300 C88,297.790861 89.790861,296 92,296 Z M76,284 L84,284 C86.209139,284 88,285.790861 88,288 C88,290.209139 86.209139,292 84,292 L76,292 C73.790861,292 72,290.209139 72,288 C72,285.790861 73.790861,284 76,284 Z M216,284 L224,284 C226.209139,284 228,285.790861 228,288 C228,290.209139 226.209139,292 224,292 L216,292 C213.790861,292 212,290.209139 212,288 C212,285.790861 213.790861,284 216,284 Z M156,284 L164,284 C166.209139,284 168,285.790861 168,288 C168,290.209139 166.209139,292 164,292 L156,292 C153.790861,292 152,290.209139 152,288 C152,285.790861 153.790861,284 156,284 Z M296,284 L304,284 C306.209139,284 308,285.790861 308,288 C308,290.209139 306.209139,292 304,292 L296,292 C293.790861,292 292,290.209139 292,288 C292,285.790861 293.790861,284 296,284 Z M292,272 L300,272 C302.209139,272 304,273.790861 304,276 C304,278.209139 302.209139,280 300,280 L292,280 C289.790861,280 288,278.209139 288,276 C288,273.790861 289.790861,272 292,272 Z M288,260 L296,260 C298.209139,260 300,261.790861 300,264 C300,266.209139 298.209139,268 296,268 L288,268 C285.790861,268 284,266.209139 284,264 C284,261.790861 285.790861,260 288,260 Z M284,248 L292,248 C294.209139,248 296,249.790861 296,252 C296,254.209139 294.209139,256 292,256 L284,256 C281.790861,256 280,254.209139 280,252 C280,249.790861 281.790861,248 284,248 Z M308,260 L316,260 C318.209139,260 320,261.790861 320,264 C320,266.209139 318.209139,268 316,268 L308,268 C305.790861,268 304,266.209139 304,264 C304,261.790861 305.790861,260 308,260 Z M304,248 L312,248 C314.209139,248 316,249.790861 316,252 C316,254.209139 314.209139,256 312,256 L304,256 C301.790861,256 300,254.209139 300,252 C300,249.790861 301.790861,248 304,248 Z M324,248 L348,248 C350.209139,248 352,249.790861 352,252 C352,254.209139 350.209139,256 348,256 L324,256 C321.790861,256 320,254.209139 320,252 C320,249.790861 321.790861,248 324,248 Z M328,260 L348,260 C350.209139,260 352,261.790861 352,264 C352,266.209139 350.209139,268 348,268 L328,268 C325.790861,268 324,266.209139 324,264 C324,261.790861 325.790861,260 328,260 Z M192,272 L200,272 C202.209139,272 204,273.790861 204,276 C204,278.209139 202.209139,280 200,280 L192,280 C189.790861,280 188,278.209139 188,276 C188,273.790861 189.790861,272 192,272 Z M188,260 L196,260 C198.209139,260 200,261.790861 200,264 C200,266.209139 198.209139,268 196,268 L188,268 C185.790861,268 184,266.209139 184,264 C184,261.790861 185.790861,260 188,260 Z M184,248 L192,248 C194.209139,248 196,249.790861 196,252 C196,254.209139 194.209139,256 192,256 L184,256 C181.790861,256 180,254.209139 180,252 C180,249.790861 181.790861,248 184,248 Z M272,272 L280,272 C282.209139,272 284,273.790861 284,276 C284,278.209139 282.209139,280 280,280 L272,280 C269.790861,280 268,278.209139 268,276 C268,273.790861 269.790861,272 272,272 Z M268,260 L276,260 C278.209139,260 280,261.790861 280,264 C280,266.209139 278.209139,268 276,268 L268,268 C265.790861,268 264,266.209139 264,264 C264,261.790861 265.790861,260 268,260 Z M264,248 L272,248 C274.209139,248 276,249.790861 276,252 C276,254.209139 274.209139,256 272,256 L264,256 C261.790861,256 260,254.209139 260,252 C260,249.790861 261.790861,248 264,248 Z M172,272 L180,272 C182.209139,272 184,273.790861 184,276 C184,278.209139 182.209139,280 180,280 L172,280 C169.790861,280 168,278.209139 168,276 C168,273.790861 169.790861,272 172,272 Z M168,260 L176,260 C178.209139,260 180,261.790861 180,264 C180,266.209139 178.209139,268 176,268 L168,268 C165.790861,268 164,266.209139 164,264 C164,261.790861 165.790861,260 168,260 Z M164,248 L172,248 C174.209139,248 176,249.790861 176,252 C176,254.209139 174.209139,256 172,256 L164,256 C161.790861,256 160,254.209139 160,252 C160,249.790861 161.790861,248 164,248 Z M252,272 L260,272 C262.209139,272 264,273.790861 264,276 C264,278.209139 262.209139,280 260,280 L252,280 C249.790861,280 248,278.209139 248,276 C248,273.790861 249.790861,272 252,272 Z M248,260 L256,260 C258.209139,260 260,261.790861 260,264 C260,266.209139 258.209139,268 256,268 L248,268 C245.790861,268 244,266.209139 244,264 C244,261.790861 245.790861,260 248,260 Z M244,248 L252,248 C254.209139,248 256,249.790861 256,252 C256,254.209139 254.209139,256 252,256 L244,256 C241.790861,256 240,254.209139 240,252 C240,249.790861 241.790861,248 244,248 Z M152,272 L160,272 C162.209139,272 164,273.790861 164,276 C164,278.209139 162.209139,280 160,280 L152,280 C149.790861,280 148,278.209139 148,276 C148,273.790861 149.790861,272 152,272 Z M148,260 L156,260 C158.209139,260 160,261.790861 160,264 C160,266.209139 158.209139,268 156,268 L148,268 C145.790861,268 144,266.209139 144,264 C144,261.790861 145.790861,260 148,260 Z M144,248 L152,248 C154.209139,248 156,249.790861 156,252 C156,254.209139 154.209139,256 152,256 L144,256 C141.790861,256 140,254.209139 140,252 C140,249.790861 141.790861,248 144,248 Z M92,272 L100,272 C102.209139,272 104,273.790861 104,276 C104,278.209139 102.209139,280 100,280 L92,280 C89.790861,280 88,278.209139 88,276 C88,273.790861 89.790861,272 92,272 Z M88,260 L96,260 C98.209139,260 100,261.790861 100,264 C100,266.209139 98.209139,268 96,268 L88,268 C85.790861,268 84,266.209139 84,264 C84,261.790861 85.790861,260 88,260 Z M84,248 L92,248 C94.209139,248 96,249.790861 96,252 C96,254.209139 94.209139,256 92,256 L84,256 C81.790861,256 80,254.209139 80,252 C80,249.790861 81.790861,248 84,248 Z M232,272 L240,272 C242.209139,272 244,273.790861 244,276 C244,278.209139 242.209139,280 240,280 L232,280 C229.790861,280 228,278.209139 228,276 C228,273.790861 229.790861,272 232,272 Z M228,260 L236,260 C238.209139,260 240,261.790861 240,264 C240,266.209139 238.209139,268 236,268 L228,268 C225.790861,268 224,266.209139 224,264 C224,261.790861 225.790861,260 228,260 Z M224,248 L232,248 C234.209139,248 236,249.790861 236,252 C236,254.209139 234.209139,256 232,256 L224,256 C221.790861,256 220,254.209139 220,252 C220,249.790861 221.790861,248 224,248 Z M132,272 L140,272 C142.209139,272 144,273.790861 144,276 C144,278.209139 142.209139,280 140,280 L132,280 C129.790861,280 128,278.209139 128,276 C128,273.790861 129.790861,272 132,272 Z M128,260 L136,260 C138.209139,260 140,261.790861 140,264 C140,266.209139 138.209139,268 136,268 L128,268 C125.790861,268 124,266.209139 124,264 C124,261.790861 125.790861,260 128,260 Z M124,248 L132,248 C134.209139,248 136,249.790861 136,252 C136,254.209139 134.209139,256 132,256 L124,256 C121.790861,256 120,254.209139 120,252 C120,249.790861 121.790861,248 124,248 Z M72,272 L80,272 C82.209139,272 84,273.790861 84,276 C84,278.209139 82.209139,280 80,280 L72,280 C69.790861,280 68,278.209139 68,276 C68,273.790861 69.790861,272 72,272 Z M68,260 L76,260 C78.209139,260 80,261.790861 80,264 C80,266.209139 78.209139,268 76,268 L68,268 C65.790861,268 64,266.209139 64,264 C64,261.790861 65.790861,260 68,260 Z M64,248 L72,248 C74.209139,248 76,249.790861 76,252 C76,254.209139 74.209139,256 72,256 L64,256 C61.790861,256 60,254.209139 60,252 C60,249.790861 61.790861,248 64,248 Z M36,260 L56,260 C58.209139,260 60,261.790861 60,264 C60,266.209139 58.209139,268 56,268 L36,268 C33.790861,268 32,266.209139 32,264 C32,261.790861 33.790861,260 36,260 Z M36,248 L52,248 C54.209139,248 56,249.790861 56,252 C56,254.209139 54.209139,256 52,256 L36,256 C33.790861,256 32,254.209139 32,252 C32,249.790861 33.790861,248 36,248 Z M212,272 L220,272 C222.209139,272 224,273.790861 224,276 C224,278.209139 222.209139,280 220,280 L212,280 C209.790861,280 208,278.209139 208,276 C208,273.790861 209.790861,272 212,272 Z M208,260 L216,260 C218.209139,260 220,261.790861 220,264 C220,266.209139 218.209139,268 216,268 L208,268 C205.790861,268 204,266.209139 204,264 C204,261.790861 205.790861,260 208,260 Z M204,248 L212,248 C214.209139,248 216,249.790861 216,252 C216,254.209139 214.209139,256 212,256 L204,256 C201.790861,256 200,254.209139 200,252 C200,249.790861 201.790861,248 204,248 Z M112,272 L120,272 C122.209139,272 124,273.790861 124,276 C124,278.209139 122.209139,280 120,280 L112,280 C109.790861,280 108,278.209139 108,276 C108,273.790861 109.790861,272 112,272 Z M108,260 L116,260 C118.209139,260 120,261.790861 120,264 C120,266.209139 118.209139,268 116,268 L108,268 C105.790861,268 104,266.209139 104,264 C104,261.790861 105.790861,260 108,260 Z M104,248 L112,248 C114.209139,248 116,249.790861 116,252 C116,254.209139 114.209139,256 112,256 L104,256 C101.790861,256 100,254.209139 100,252 C100,249.790861 101.790861,248 104,248 Z M36,272 L60,272 C62.209139,272 64,273.790861 64,276 C64,278.209139 62.209139,280 60,280 L36,280 C33.790861,280 32,278.209139 32,276 C32,273.790861 33.790861,272 36,272 Z M304,296 L312,296 C314.209139,296 316,297.790861 316,300 C316,302.209139 314.209139,304 312,304 L304,304 C301.790861,304 300,302.209139 300,300 C300,297.790861 301.790861,296 304,296 Z M112,296 L120,296 C122.209139,296 124,297.790861 124,300 C124,302.209139 122.209139,304 120,304 L112,304 C109.790861,304 108,302.209139 108,300 C108,297.790861 109.790861,296 112,296 Z M96,284 L104,284 C106.209139,284 108,285.790861 108,288 C108,290.209139 106.209139,292 104,292 L96,292 C93.790861,292 92,290.209139 92,288 C92,285.790861 93.790861,284 96,284 Z M236,284 L244,284 C246.209139,284 248,285.790861 248,288 C248,290.209139 246.209139,292 244,292 L236,292 C233.790861,292 232,290.209139 232,288 C232,285.790861 233.790861,284 236,284 Z M176,284 L184,284 C186.209139,284 188,285.790861 188,288 C188,290.209139 186.209139,292 184,292 L176,292 C173.790861,292 172,290.209139 172,288 C172,285.790861 173.790861,284 176,284 Z M316,284 L324,284 C326.209139,284 328,285.790861 328,288 C328,290.209139 326.209139,292 324,292 L316,292 C313.790861,292 312,290.209139 312,288 C312,285.790861 313.790861,284 316,284 Z M336,284 L348,284 C350.209139,284 352,285.790861 352,288 C352,290.209139 350.209139,292 348,292 L336,292 C333.790861,292 332,290.209139 332,288 C332,285.790861 333.790861,284 336,284 Z M312,272 L348,272 C350.209139,272 352,273.790861 352,276 C352,278.209139 350.209139,280 348,280 L312,280 C309.790861,280 308,278.209139 308,276 C308,273.790861 309.790861,272 312,272 Z M324,296 L348,296 C350.209139,296 352,297.790861 352,300 C352,302.209139 350.209139,304 348,304 L324,304 C321.790861,304 320,302.209139 320,300 C320,297.790861 321.790861,296 324,296 Z" id="keys" fill="#424242"></path>
                <path d="M360,250 C359.447715,250 359,249.552285 359,249 C359,248.447715 359.447715,248 360,248 C360.552285,248 361,248.447715 361,249 C361,249.552285 360.552285,250 360,250 Z M360,262 C359.447715,262 359,261.552285 359,261 C359,260.447715 359.447715,260 360,260 C360.552285,260 361,260.447715 361,261 C361,261.552285 360.552285,262 360,262 Z M360,256 C359.447715,256 359,255.552285 359,255 C359,254.447715 359.447715,254 360,254 C360.552285,254 361,254.447715 361,255 C361,255.552285 360.552285,256 360,256 Z M360,268 C359.447715,268 359,267.552285 359,267 C359,266.447715 359.447715,266 360,266 C360.552285,266 361,266.447715 361,267 C361,267.552285 360.552285,268 360,268 Z M368,250 C367.447715,250 367,249.552285 367,249 C367,248.447715 367.447715,248 368,248 C368.552285,248 369,248.447715 369,249 C369,249.552285 368.552285,250 368,250 Z M368,262 C367.447715,262 367,261.552285 367,261 C367,260.447715 367.447715,260 368,260 C368.552285,260 369,260.447715 369,261 C369,261.552285 368.552285,262 368,262 Z M368,256 C367.447715,256 367,255.552285 367,255 C367,254.447715 367.447715,254 368,254 C368.552285,254 369,254.447715 369,255 C369,255.552285 368.552285,256 368,256 Z M368,268 C367.447715,268 367,267.552285 367,267 C367,266.447715 367.447715,266 368,266 C368.552285,266 369,266.447715 369,267 C369,267.552285 368.552285,268 368,268 Z M376,250 C375.447715,250 375,249.552285 375,249 C375,248.447715 375.447715,248 376,248 C376.552285,248 377,248.447715 377,249 C377,249.552285 376.552285,250 376,250 Z M376,262 C375.447715,262 375,261.552285 375,261 C375,260.447715 375.447715,260 376,260 C376.552285,260 377,260.447715 377,261 C377,261.552285 376.552285,262 376,262 Z M376,256 C375.447715,256 375,255.552285 375,255 C375,254.447715 375.447715,254 376,254 C376.552285,254 377,254.447715 377,255 C377,255.552285 376.552285,256 376,256 Z M376,268 C375.447715,268 375,267.552285 375,267 C375,266.447715 375.447715,266 376,266 C376.552285,266 377,266.447715 377,267 C377,267.552285 376.552285,268 376,268 Z M372,250 C371.447715,250 371,249.552285 371,249 C371,248.447715 371.447715,248 372,248 C372.552285,248 373,248.447715 373,249 C373,249.552285 372.552285,250 372,250 Z M372,262 C371.447715,262 371,261.552285 371,261 C371,260.447715 371.447715,260 372,260 C372.552285,260 373,260.447715 373,261 C373,261.552285 372.552285,262 372,262 Z M372,256 C371.447715,256 371,255.552285 371,255 C371,254.447715 371.447715,254 372,254 C372.552285,254 373,254.447715 373,255 C373,255.552285 372.552285,256 372,256 Z M372,268 C371.447715,268 371,267.552285 371,267 C371,266.447715 371.447715,266 372,266 C372.552285,266 373,266.447715 373,267 C373,267.552285 372.552285,268 372,268 Z M374,253 C373.447715,253 373,252.552285 373,252 C373,251.447715 373.447715,251 374,251 C374.552285,251 375,251.447715 375,252 C375,252.552285 374.552285,253 374,253 Z M374,265 C373.447715,265 373,264.552285 373,264 C373,263.447715 373.447715,263 374,263 C374.552285,263 375,263.447715 375,264 C375,264.552285 374.552285,265 374,265 Z M374,259 C373.447715,259 373,258.552285 373,258 C373,257.447715 373.447715,257 374,257 C374.552285,257 375,257.447715 375,258 C375,258.552285 374.552285,259 374,259 Z M374,271 C373.447715,271 373,270.552285 373,270 C373,269.447715 373.447715,269 374,269 C374.552285,269 375,269.447715 375,270 C375,270.552285 374.552285,271 374,271 Z M370,253 C369.447715,253 369,252.552285 369,252 C369,251.447715 369.447715,251 370,251 C370.552285,251 371,251.447715 371,252 C371,252.552285 370.552285,253 370,253 Z M370,265 C369.447715,265 369,264.552285 369,264 C369,263.447715 369.447715,263 370,263 C370.552285,263 371,263.447715 371,264 C371,264.552285 370.552285,265 370,265 Z M370,259 C369.447715,259 369,258.552285 369,258 C369,257.447715 369.447715,257 370,257 C370.552285,257 371,257.447715 371,258 C371,258.552285 370.552285,259 370,259 Z M370,271 C369.447715,271 369,270.552285 369,270 C369,269.447715 369.447715,269 370,269 C370.552285,269 371,269.447715 371,270 C371,270.552285 370.552285,271 370,271 Z M366,253 C365.447715,253 365,252.552285 365,252 C365,251.447715 365.447715,251 366,251 C366.552285,251 367,251.447715 367,252 C367,252.552285 366.552285,253 366,253 Z M366,265 C365.447715,265 365,264.552285 365,264 C365,263.447715 365.447715,263 366,263 C366.552285,263 367,263.447715 367,264 C367,264.552285 366.552285,265 366,265 Z M366,259 C365.447715,259 365,258.552285 365,258 C365,257.447715 365.447715,257 366,257 C366.552285,257 367,257.447715 367,258 C367,258.552285 366.552285,259 366,259 Z M366,271 C365.447715,271 365,270.552285 365,270 C365,269.447715 365.447715,269 366,269 C366.552285,269 367,269.447715 367,270 C367,270.552285 366.552285,271 366,271 Z M362,253 C361.447715,253 361,252.552285 361,252 C361,251.447715 361.447715,251 362,251 C362.552285,251 363,251.447715 363,252 C363,252.552285 362.552285,253 362,253 Z M362,265 C361.447715,265 361,264.552285 361,264 C361,263.447715 361.447715,263 362,263 C362.552285,263 363,263.447715 363,264 C363,264.552285 362.552285,265 362,265 Z M362,259 C361.447715,259 361,258.552285 361,258 C361,257.447715 361.447715,257 362,257 C362.552285,257 363,257.447715 363,258 C363,258.552285 362.552285,259 362,259 Z M362,271 C361.447715,271 361,270.552285 361,270 C361,269.447715 361.447715,269 362,269 C362.552285,269 363,269.447715 363,270 C363,270.552285 362.552285,271 362,271 Z M364,250 C363.447715,250 363,249.552285 363,249 C363,248.447715 363.447715,248 364,248 C364.552285,248 365,248.447715 365,249 C365,249.552285 364.552285,250 364,250 Z M364,262 C363.447715,262 363,261.552285 363,261 C363,260.447715 363.447715,260 364,260 C364.552285,260 365,260.447715 365,261 C365,261.552285 364.552285,262 364,262 Z M364,256 C363.447715,256 363,255.552285 363,255 C363,254.447715 363.447715,254 364,254 C364.552285,254 365,254.447715 365,255 C365,255.552285 364.552285,256 364,256 Z M364,268 C363.447715,268 363,267.552285 363,267 C363,266.447715 363.447715,266 364,266 C364.552285,266 365,266.447715 365,267 C365,267.552285 364.552285,268 364,268 Z M360,274 C359.447715,274 359,273.552285 359,273 C359,272.447715 359.447715,272 360,272 C360.552285,272 361,272.447715 361,273 C361,273.552285 360.552285,274 360,274 Z M360,286 C359.447715,286 359,285.552285 359,285 C359,284.447715 359.447715,284 360,284 C360.552285,284 361,284.447715 361,285 C361,285.552285 360.552285,286 360,286 Z M360,280 C359.447715,280 359,279.552285 359,279 C359,278.447715 359.447715,278 360,278 C360.552285,278 361,278.447715 361,279 C361,279.552285 360.552285,280 360,280 Z M360,292 C359.447715,292 359,291.552285 359,291 C359,290.447715 359.447715,290 360,290 C360.552285,290 361,290.447715 361,291 C361,291.552285 360.552285,292 360,292 Z M368,274 C367.447715,274 367,273.552285 367,273 C367,272.447715 367.447715,272 368,272 C368.552285,272 369,272.447715 369,273 C369,273.552285 368.552285,274 368,274 Z M368,286 C367.447715,286 367,285.552285 367,285 C367,284.447715 367.447715,284 368,284 C368.552285,284 369,284.447715 369,285 C369,285.552285 368.552285,286 368,286 Z M368,280 C367.447715,280 367,279.552285 367,279 C367,278.447715 367.447715,278 368,278 C368.552285,278 369,278.447715 369,279 C369,279.552285 368.552285,280 368,280 Z M368,292 C367.447715,292 367,291.552285 367,291 C367,290.447715 367.447715,290 368,290 C368.552285,290 369,290.447715 369,291 C369,291.552285 368.552285,292 368,292 Z M376,274 C375.447715,274 375,273.552285 375,273 C375,272.447715 375.447715,272 376,272 C376.552285,272 377,272.447715 377,273 C377,273.552285 376.552285,274 376,274 Z M376,286 C375.447715,286 375,285.552285 375,285 C375,284.447715 375.447715,284 376,284 C376.552285,284 377,284.447715 377,285 C377,285.552285 376.552285,286 376,286 Z M376,280 C375.447715,280 375,279.552285 375,279 C375,278.447715 375.447715,278 376,278 C376.552285,278 377,278.447715 377,279 C377,279.552285 376.552285,280 376,280 Z M376,292 C375.447715,292 375,291.552285 375,291 C375,290.447715 375.447715,290 376,290 C376.552285,290 377,290.447715 377,291 C377,291.552285 376.552285,292 376,292 Z M372,274 C371.447715,274 371,273.552285 371,273 C371,272.447715 371.447715,272 372,272 C372.552285,272 373,272.447715 373,273 C373,273.552285 372.552285,274 372,274 Z M372,286 C371.447715,286 371,285.552285 371,285 C371,284.447715 371.447715,284 372,284 C372.552285,284 373,284.447715 373,285 C373,285.552285 372.552285,286 372,286 Z M372,280 C371.447715,280 371,279.552285 371,279 C371,278.447715 371.447715,278 372,278 C372.552285,278 373,278.447715 373,279 C373,279.552285 372.552285,280 372,280 Z M372,292 C371.447715,292 371,291.552285 371,291 C371,290.447715 371.447715,290 372,290 C372.552285,290 373,290.447715 373,291 C373,291.552285 372.552285,292 372,292 Z M374,277 C373.447715,277 373,276.552285 373,276 C373,275.447715 373.447715,275 374,275 C374.552285,275 375,275.447715 375,276 C375,276.552285 374.552285,277 374,277 Z M374,289 C373.447715,289 373,288.552285 373,288 C373,287.447715 373.447715,287 374,287 C374.552285,287 375,287.447715 375,288 C375,288.552285 374.552285,289 374,289 Z M374,283 C373.447715,283 373,282.552285 373,282 C373,281.447715 373.447715,281 374,281 C374.552285,281 375,281.447715 375,282 C375,282.552285 374.552285,283 374,283 Z M374,295 C373.447715,295 373,294.552285 373,294 C373,293.447715 373.447715,293 374,293 C374.552285,293 375,293.447715 375,294 C375,294.552285 374.552285,295 374,295 Z M370,277 C369.447715,277 369,276.552285 369,276 C369,275.447715 369.447715,275 370,275 C370.552285,275 371,275.447715 371,276 C371,276.552285 370.552285,277 370,277 Z M370,289 C369.447715,289 369,288.552285 369,288 C369,287.447715 369.447715,287 370,287 C370.552285,287 371,287.447715 371,288 C371,288.552285 370.552285,289 370,289 Z M370,283 C369.447715,283 369,282.552285 369,282 C369,281.447715 369.447715,281 370,281 C370.552285,281 371,281.447715 371,282 C371,282.552285 370.552285,283 370,283 Z M370,295 C369.447715,295 369,294.552285 369,294 C369,293.447715 369.447715,293 370,293 C370.552285,293 371,293.447715 371,294 C371,294.552285 370.552285,295 370,295 Z M366,277 C365.447715,277 365,276.552285 365,276 C365,275.447715 365.447715,275 366,275 C366.552285,275 367,275.447715 367,276 C367,276.552285 366.552285,277 366,277 Z M366,289 C365.447715,289 365,288.552285 365,288 C365,287.447715 365.447715,287 366,287 C366.552285,287 367,287.447715 367,288 C367,288.552285 366.552285,289 366,289 Z M366,283 C365.447715,283 365,282.552285 365,282 C365,281.447715 365.447715,281 366,281 C366.552285,281 367,281.447715 367,282 C367,282.552285 366.552285,283 366,283 Z M366,295 C365.447715,295 365,294.552285 365,294 C365,293.447715 365.447715,293 366,293 C366.552285,293 367,293.447715 367,294 C367,294.552285 366.552285,295 366,295 Z M362,277 C361.447715,277 361,276.552285 361,276 C361,275.447715 361.447715,275 362,275 C362.552285,275 363,275.447715 363,276 C363,276.552285 362.552285,277 362,277 Z M362,289 C361.447715,289 361,288.552285 361,288 C361,287.447715 361.447715,287 362,287 C362.552285,287 363,287.447715 363,288 C363,288.552285 362.552285,289 362,289 Z M362,283 C361.447715,283 361,282.552285 361,282 C361,281.447715 361.447715,281 362,281 C362.552285,281 363,281.447715 363,282 C363,282.552285 362.552285,283 362,283 Z M362,295 C361.447715,295 361,294.552285 361,294 C361,293.447715 361.447715,293 362,293 C362.552285,293 363,293.447715 363,294 C363,294.552285 362.552285,295 362,295 Z M364,274 C363.447715,274 363,273.552285 363,273 C363,272.447715 363.447715,272 364,272 C364.552285,272 365,272.447715 365,273 C365,273.552285 364.552285,274 364,274 Z M364,286 C363.447715,286 363,285.552285 363,285 C363,284.447715 363.447715,284 364,284 C364.552285,284 365,284.447715 365,285 C365,285.552285 364.552285,286 364,286 Z M364,280 C363.447715,280 363,279.552285 363,279 C363,278.447715 363.447715,278 364,278 C364.552285,278 365,278.447715 365,279 C365,279.552285 364.552285,280 364,280 Z M364,292 C363.447715,292 363,291.552285 363,291 C363,290.447715 363.447715,290 364,290 C364.552285,290 365,290.447715 365,291 C365,291.552285 364.552285,292 364,292 Z M360,298 C359.447715,298 359,297.552285 359,297 C359,296.447715 359.447715,296 360,296 C360.552285,296 361,296.447715 361,297 C361,297.552285 360.552285,298 360,298 Z M360,304 C359.447715,304 359,303.552285 359,303 C359,302.447715 359.447715,302 360,302 C360.552285,302 361,302.447715 361,303 C361,303.552285 360.552285,304 360,304 Z M368,298 C367.447715,298 367,297.552285 367,297 C367,296.447715 367.447715,296 368,296 C368.552285,296 369,296.447715 369,297 C369,297.552285 368.552285,298 368,298 Z M368,304 C367.447715,304 367,303.552285 367,303 C367,302.447715 367.447715,302 368,302 C368.552285,302 369,302.447715 369,303 C369,303.552285 368.552285,304 368,304 Z M376,298 C375.447715,298 375,297.552285 375,297 C375,296.447715 375.447715,296 376,296 C376.552285,296 377,296.447715 377,297 C377,297.552285 376.552285,298 376,298 Z M376,304 C375.447715,304 375,303.552285 375,303 C375,302.447715 375.447715,302 376,302 C376.552285,302 377,302.447715 377,303 C377,303.552285 376.552285,304 376,304 Z M372,298 C371.447715,298 371,297.552285 371,297 C371,296.447715 371.447715,296 372,296 C372.552285,296 373,296.447715 373,297 C373,297.552285 372.552285,298 372,298 Z M372,304 C371.447715,304 371,303.552285 371,303 C371,302.447715 371.447715,302 372,302 C372.552285,302 373,302.447715 373,303 C373,303.552285 372.552285,304 372,304 Z M374,301 C373.447715,301 373,300.552285 373,300 C373,299.447715 373.447715,299 374,299 C374.552285,299 375,299.447715 375,300 C375,300.552285 374.552285,301 374,301 Z M370,301 C369.447715,301 369,300.552285 369,300 C369,299.447715 369.447715,299 370,299 C370.552285,299 371,299.447715 371,300 C371,300.552285 370.552285,301 370,301 Z M366,301 C365.447715,301 365,300.552285 365,300 C365,299.447715 365.447715,299 366,299 C366.552285,299 367,299.447715 367,300 C367,300.552285 366.552285,301 366,301 Z M362,301 C361.447715,301 361,300.552285 361,300 C361,299.447715 361.447715,299 362,299 C362.552285,299 363,299.447715 363,300 C363,300.552285 362.552285,301 362,301 Z M364,298 C363.447715,298 363,297.552285 363,297 C363,296.447715 363.447715,296 364,296 C364.552285,296 365,296.447715 365,297 C365,297.552285 364.552285,298 364,298 Z M364,304 C363.447715,304 363,303.552285 363,303 C363,302.447715 363.447715,302 364,302 C364.552285,302 365,302.447715 365,303 C365,303.552285 364.552285,304 364,304 Z" id="speakers-R" fill="#757575"></path>
                <path d="M165,368 L219.634354,368 C217.987009,372.660769 213.542052,376 208.317177,376 L176.317177,376 C171.092302,376 166.647346,372.660769 165,368 L165,368 Z M165,368 C166.647346,365.669615 171.092302,364 176.317177,364 L208.317177,364 C213.542052,364 217.987009,365.669615 219.634354,368 C208.982034,368 200.992793,368 195.666633,368 C188.851826,368 178.629615,368 165,368 L165,368 Z" id="edge" fill="url(#linearGradient-3)"></path>
                <g id="screen" transform="translate(8.000000, 8.000000)">
                    <mask id="mask-5" fill="white">
                        <use xlink:href="#path-4"></use>
                    </mask>
                    <use id="Mask" fill="#212121" xlink:href="#path-4"></use>
                    <g id="logo" mask="url(#mask-5)" fill-rule="nonzero" fill="#757575">
                        <g transform="translate(135.000000, 58.000000)" id="Combined-Shape">
                            <path d="M18.496581,90.9620255 C5.44681464,87.4653512 -2.29749656,74.0518107 1.1991778,61.0020443 C3.3938719,52.8113344 9.60358312,46.4536745 17.5095106,43.9831281 C20.2931896,42.9807335 22.6121381,41.0824145 24.1010109,38.5036113 C25.6775336,35.7729939 26.1547835,32.6071137 25.5065113,29.635059 C25.0037115,27.2002373 24.8739143,24.7000111 25.1206299,22.2260125 C25.6769173,16.6477114 28.1172048,11.4161369 32.1640783,7.36926345 C41.7171703,-2.18382856 57.2057927,-2.18382856 66.7588847,7.36926345 C72.7545197,13.3648984 75.1552529,21.9202785 73.3413661,30.001815 C72.8220453,32.8907667 73.3231638,35.8701821 74.8222909,38.4667464 C76.4044906,41.2071967 78.9117145,43.1963804 81.8719348,44.1372596 C89.4697011,46.5818142 95.5596784,52.9254877 97.7237852,61.0020443 C101.22046,74.0518107 93.4761483,87.4653512 80.426382,90.9620255 C72.307948,93.1373534 63.7859174,90.9964459 57.6611351,85.4567456 C55.5511717,83.5263776 52.5875105,82.3733333 49.4614815,82.3733333 C46.515794,82.3733333 43.7317321,83.3923653 41.5086501,85.224424 C35.3839043,90.9305822 26.7346228,93.1694022 18.496581,90.9620255 Z M49.1026529,40.5955556 C57.8999353,40.5955556 65.0315418,33.4639491 65.0315418,24.6666667 C65.0315418,15.8693843 57.8999353,8.73777778 49.1026529,8.73777778 C40.3053705,8.73777778 33.173764,15.8693843 33.173764,24.6666667 C33.173764,33.4639491 40.3053705,40.5955556 49.1026529,40.5955556 Z M65.77182,81.1281558 C73.39049,85.526797 83.1324456,82.9164478 87.5310868,75.2977778 C91.929728,67.6791077 89.3193789,57.9371521 81.7007088,53.5385109 C74.0820388,49.1398697 64.3400832,51.7502188 59.941442,59.3688889 C55.5428008,66.9875589 58.1531499,76.7295146 65.77182,81.1281558 Z M10.674219,75.2977778 C15.0728602,82.9164478 24.8148158,85.526797 32.4334859,81.1281558 C40.0521559,76.7295146 42.6625051,66.9875589 38.2638639,59.3688889 C33.8652227,51.7502188 24.123267,49.1398697 16.504597,53.5385109 C8.88592693,57.9371521 6.27557779,67.6791077 10.674219,75.2977778 Z M49.1026529,37.1822222 C42.1905024,37.1822222 36.5870974,31.5788171 36.5870974,24.6666667 C36.5870974,17.7545162 42.1905024,12.1511111 49.1026529,12.1511111 C56.0148034,12.1511111 61.6182085,17.7545162 61.6182085,24.6666667 C61.6182085,31.5788171 56.0148034,37.1822222 49.1026529,37.1822222 Z M84.5750535,73.5911111 C81.1189782,79.577209 73.4645845,81.6281976 67.4784866,78.1721224 C61.4923887,74.7160472 59.4414001,67.0616535 62.8974753,61.0755556 C66.3535506,55.0894577 74.0079443,53.038469 79.9940422,56.4945443 C85.9801401,59.9506195 88.0311287,67.6050132 84.5750535,73.5911111 Z M13.6302524,73.5911111 C10.1741771,67.6050132 12.2251657,59.9506195 18.2112636,56.4945443 C24.1973615,53.038469 31.8517552,55.0894577 35.3078305,61.0755556 C38.7639057,67.0616535 36.7129171,74.7160472 30.7268192,78.1721224 C24.7407213,81.6281976 17.0863276,79.577209 13.6302524,73.5911111 Z"></path>
                        </g>
                    </g>
                    <polygon id="Path-5" fill="#FFFFFF" opacity="0.1" mask="url(#mask-5)" points="258 -25 125 217 -144 235 -72 -72"></polygon>
                </g>
                <rect id="trackpad" fill="#424242" x="128" y="312" width="128" height="40" rx="8"></rect>
                <g id="touch-bar" transform="translate(32.000000, 232.000000)">
                    <mask id="mask-7" fill="white">
                        <use xlink:href="#path-6"></use>
                    </mask>
                    <use id="Mask" fill="#212121" xlink:href="#path-6"></use>
                    <polygon id="Path-6" fill="#424242" mask="url(#mask-7)" points="87 43 173 -88 -94 -66 5 43"></polygon>
                </g>
                <path d="M8,250 C7.44771525,250 7,249.552285 7,249 C7,248.447715 7.44771525,248 8,248 C8.55228475,248 9,248.447715 9,249 C9,249.552285 8.55228475,250 8,250 Z M8,262 C7.44771525,262 7,261.552285 7,261 C7,260.447715 7.44771525,260 8,260 C8.55228475,260 9,260.447715 9,261 C9,261.552285 8.55228475,262 8,262 Z M8,256 C7.44771525,256 7,255.552285 7,255 C7,254.447715 7.44771525,254 8,254 C8.55228475,254 9,254.447715 9,255 C9,255.552285 8.55228475,256 8,256 Z M8,268 C7.44771525,268 7,267.552285 7,267 C7,266.447715 7.44771525,266 8,266 C8.55228475,266 9,266.447715 9,267 C9,267.552285 8.55228475,268 8,268 Z M16,250 C15.4477153,250 15,249.552285 15,249 C15,248.447715 15.4477153,248 16,248 C16.5522847,248 17,248.447715 17,249 C17,249.552285 16.5522847,250 16,250 Z M16,262 C15.4477153,262 15,261.552285 15,261 C15,260.447715 15.4477153,260 16,260 C16.5522847,260 17,260.447715 17,261 C17,261.552285 16.5522847,262 16,262 Z M16,256 C15.4477153,256 15,255.552285 15,255 C15,254.447715 15.4477153,254 16,254 C16.5522847,254 17,254.447715 17,255 C17,255.552285 16.5522847,256 16,256 Z M16,268 C15.4477153,268 15,267.552285 15,267 C15,266.447715 15.4477153,266 16,266 C16.5522847,266 17,266.447715 17,267 C17,267.552285 16.5522847,268 16,268 Z M24,250 C23.4477153,250 23,249.552285 23,249 C23,248.447715 23.4477153,248 24,248 C24.5522847,248 25,248.447715 25,249 C25,249.552285 24.5522847,250 24,250 Z M24,262 C23.4477153,262 23,261.552285 23,261 C23,260.447715 23.4477153,260 24,260 C24.5522847,260 25,260.447715 25,261 C25,261.552285 24.5522847,262 24,262 Z M24,256 C23.4477153,256 23,255.552285 23,255 C23,254.447715 23.4477153,254 24,254 C24.5522847,254 25,254.447715 25,255 C25,255.552285 24.5522847,256 24,256 Z M24,268 C23.4477153,268 23,267.552285 23,267 C23,266.447715 23.4477153,266 24,266 C24.5522847,266 25,266.447715 25,267 C25,267.552285 24.5522847,268 24,268 Z M20,250 C19.4477153,250 19,249.552285 19,249 C19,248.447715 19.4477153,248 20,248 C20.5522847,248 21,248.447715 21,249 C21,249.552285 20.5522847,250 20,250 Z M20,262 C19.4477153,262 19,261.552285 19,261 C19,260.447715 19.4477153,260 20,260 C20.5522847,260 21,260.447715 21,261 C21,261.552285 20.5522847,262 20,262 Z M20,256 C19.4477153,256 19,255.552285 19,255 C19,254.447715 19.4477153,254 20,254 C20.5522847,254 21,254.447715 21,255 C21,255.552285 20.5522847,256 20,256 Z M20,268 C19.4477153,268 19,267.552285 19,267 C19,266.447715 19.4477153,266 20,266 C20.5522847,266 21,266.447715 21,267 C21,267.552285 20.5522847,268 20,268 Z M22,253 C21.4477153,253 21,252.552285 21,252 C21,251.447715 21.4477153,251 22,251 C22.5522847,251 23,251.447715 23,252 C23,252.552285 22.5522847,253 22,253 Z M22,265 C21.4477153,265 21,264.552285 21,264 C21,263.447715 21.4477153,263 22,263 C22.5522847,263 23,263.447715 23,264 C23,264.552285 22.5522847,265 22,265 Z M22,259 C21.4477153,259 21,258.552285 21,258 C21,257.447715 21.4477153,257 22,257 C22.5522847,257 23,257.447715 23,258 C23,258.552285 22.5522847,259 22,259 Z M22,271 C21.4477153,271 21,270.552285 21,270 C21,269.447715 21.4477153,269 22,269 C22.5522847,269 23,269.447715 23,270 C23,270.552285 22.5522847,271 22,271 Z M18,253 C17.4477153,253 17,252.552285 17,252 C17,251.447715 17.4477153,251 18,251 C18.5522847,251 19,251.447715 19,252 C19,252.552285 18.5522847,253 18,253 Z M18,265 C17.4477153,265 17,264.552285 17,264 C17,263.447715 17.4477153,263 18,263 C18.5522847,263 19,263.447715 19,264 C19,264.552285 18.5522847,265 18,265 Z M18,259 C17.4477153,259 17,258.552285 17,258 C17,257.447715 17.4477153,257 18,257 C18.5522847,257 19,257.447715 19,258 C19,258.552285 18.5522847,259 18,259 Z M18,271 C17.4477153,271 17,270.552285 17,270 C17,269.447715 17.4477153,269 18,269 C18.5522847,269 19,269.447715 19,270 C19,270.552285 18.5522847,271 18,271 Z M14,253 C13.4477153,253 13,252.552285 13,252 C13,251.447715 13.4477153,251 14,251 C14.5522847,251 15,251.447715 15,252 C15,252.552285 14.5522847,253 14,253 Z M14,265 C13.4477153,265 13,264.552285 13,264 C13,263.447715 13.4477153,263 14,263 C14.5522847,263 15,263.447715 15,264 C15,264.552285 14.5522847,265 14,265 Z M14,259 C13.4477153,259 13,258.552285 13,258 C13,257.447715 13.4477153,257 14,257 C14.5522847,257 15,257.447715 15,258 C15,258.552285 14.5522847,259 14,259 Z M14,271 C13.4477153,271 13,270.552285 13,270 C13,269.447715 13.4477153,269 14,269 C14.5522847,269 15,269.447715 15,270 C15,270.552285 14.5522847,271 14,271 Z M10,253 C9.44771525,253 9,252.552285 9,252 C9,251.447715 9.44771525,251 10,251 C10.5522847,251 11,251.447715 11,252 C11,252.552285 10.5522847,253 10,253 Z M10,265 C9.44771525,265 9,264.552285 9,264 C9,263.447715 9.44771525,263 10,263 C10.5522847,263 11,263.447715 11,264 C11,264.552285 10.5522847,265 10,265 Z M10,259 C9.44771525,259 9,258.552285 9,258 C9,257.447715 9.44771525,257 10,257 C10.5522847,257 11,257.447715 11,258 C11,258.552285 10.5522847,259 10,259 Z M10,271 C9.44771525,271 9,270.552285 9,270 C9,269.447715 9.44771525,269 10,269 C10.5522847,269 11,269.447715 11,270 C11,270.552285 10.5522847,271 10,271 Z M12,250 C11.4477153,250 11,249.552285 11,249 C11,248.447715 11.4477153,248 12,248 C12.5522847,248 13,248.447715 13,249 C13,249.552285 12.5522847,250 12,250 Z M12,262 C11.4477153,262 11,261.552285 11,261 C11,260.447715 11.4477153,260 12,260 C12.5522847,260 13,260.447715 13,261 C13,261.552285 12.5522847,262 12,262 Z M12,256 C11.4477153,256 11,255.552285 11,255 C11,254.447715 11.4477153,254 12,254 C12.5522847,254 13,254.447715 13,255 C13,255.552285 12.5522847,256 12,256 Z M12,268 C11.4477153,268 11,267.552285 11,267 C11,266.447715 11.4477153,266 12,266 C12.5522847,266 13,266.447715 13,267 C13,267.552285 12.5522847,268 12,268 Z M8,274 C7.44771525,274 7,273.552285 7,273 C7,272.447715 7.44771525,272 8,272 C8.55228475,272 9,272.447715 9,273 C9,273.552285 8.55228475,274 8,274 Z M8,286 C7.44771525,286 7,285.552285 7,285 C7,284.447715 7.44771525,284 8,284 C8.55228475,284 9,284.447715 9,285 C9,285.552285 8.55228475,286 8,286 Z M8,280 C7.44771525,280 7,279.552285 7,279 C7,278.447715 7.44771525,278 8,278 C8.55228475,278 9,278.447715 9,279 C9,279.552285 8.55228475,280 8,280 Z M8,292 C7.44771525,292 7,291.552285 7,291 C7,290.447715 7.44771525,290 8,290 C8.55228475,290 9,290.447715 9,291 C9,291.552285 8.55228475,292 8,292 Z M16,274 C15.4477153,274 15,273.552285 15,273 C15,272.447715 15.4477153,272 16,272 C16.5522847,272 17,272.447715 17,273 C17,273.552285 16.5522847,274 16,274 Z M16,286 C15.4477153,286 15,285.552285 15,285 C15,284.447715 15.4477153,284 16,284 C16.5522847,284 17,284.447715 17,285 C17,285.552285 16.5522847,286 16,286 Z M16,280 C15.4477153,280 15,279.552285 15,279 C15,278.447715 15.4477153,278 16,278 C16.5522847,278 17,278.447715 17,279 C17,279.552285 16.5522847,280 16,280 Z M16,292 C15.4477153,292 15,291.552285 15,291 C15,290.447715 15.4477153,290 16,290 C16.5522847,290 17,290.447715 17,291 C17,291.552285 16.5522847,292 16,292 Z M24,274 C23.4477153,274 23,273.552285 23,273 C23,272.447715 23.4477153,272 24,272 C24.5522847,272 25,272.447715 25,273 C25,273.552285 24.5522847,274 24,274 Z M24,286 C23.4477153,286 23,285.552285 23,285 C23,284.447715 23.4477153,284 24,284 C24.5522847,284 25,284.447715 25,285 C25,285.552285 24.5522847,286 24,286 Z M24,280 C23.4477153,280 23,279.552285 23,279 C23,278.447715 23.4477153,278 24,278 C24.5522847,278 25,278.447715 25,279 C25,279.552285 24.5522847,280 24,280 Z M24,292 C23.4477153,292 23,291.552285 23,291 C23,290.447715 23.4477153,290 24,290 C24.5522847,290 25,290.447715 25,291 C25,291.552285 24.5522847,292 24,292 Z M20,274 C19.4477153,274 19,273.552285 19,273 C19,272.447715 19.4477153,272 20,272 C20.5522847,272 21,272.447715 21,273 C21,273.552285 20.5522847,274 20,274 Z M20,286 C19.4477153,286 19,285.552285 19,285 C19,284.447715 19.4477153,284 20,284 C20.5522847,284 21,284.447715 21,285 C21,285.552285 20.5522847,286 20,286 Z M20,280 C19.4477153,280 19,279.552285 19,279 C19,278.447715 19.4477153,278 20,278 C20.5522847,278 21,278.447715 21,279 C21,279.552285 20.5522847,280 20,280 Z M20,292 C19.4477153,292 19,291.552285 19,291 C19,290.447715 19.4477153,290 20,290 C20.5522847,290 21,290.447715 21,291 C21,291.552285 20.5522847,292 20,292 Z M22,277 C21.4477153,277 21,276.552285 21,276 C21,275.447715 21.4477153,275 22,275 C22.5522847,275 23,275.447715 23,276 C23,276.552285 22.5522847,277 22,277 Z M22,289 C21.4477153,289 21,288.552285 21,288 C21,287.447715 21.4477153,287 22,287 C22.5522847,287 23,287.447715 23,288 C23,288.552285 22.5522847,289 22,289 Z M22,283 C21.4477153,283 21,282.552285 21,282 C21,281.447715 21.4477153,281 22,281 C22.5522847,281 23,281.447715 23,282 C23,282.552285 22.5522847,283 22,283 Z M22,295 C21.4477153,295 21,294.552285 21,294 C21,293.447715 21.4477153,293 22,293 C22.5522847,293 23,293.447715 23,294 C23,294.552285 22.5522847,295 22,295 Z M18,277 C17.4477153,277 17,276.552285 17,276 C17,275.447715 17.4477153,275 18,275 C18.5522847,275 19,275.447715 19,276 C19,276.552285 18.5522847,277 18,277 Z M18,289 C17.4477153,289 17,288.552285 17,288 C17,287.447715 17.4477153,287 18,287 C18.5522847,287 19,287.447715 19,288 C19,288.552285 18.5522847,289 18,289 Z M18,283 C17.4477153,283 17,282.552285 17,282 C17,281.447715 17.4477153,281 18,281 C18.5522847,281 19,281.447715 19,282 C19,282.552285 18.5522847,283 18,283 Z M18,295 C17.4477153,295 17,294.552285 17,294 C17,293.447715 17.4477153,293 18,293 C18.5522847,293 19,293.447715 19,294 C19,294.552285 18.5522847,295 18,295 Z M14,277 C13.4477153,277 13,276.552285 13,276 C13,275.447715 13.4477153,275 14,275 C14.5522847,275 15,275.447715 15,276 C15,276.552285 14.5522847,277 14,277 Z M14,289 C13.4477153,289 13,288.552285 13,288 C13,287.447715 13.4477153,287 14,287 C14.5522847,287 15,287.447715 15,288 C15,288.552285 14.5522847,289 14,289 Z M14,283 C13.4477153,283 13,282.552285 13,282 C13,281.447715 13.4477153,281 14,281 C14.5522847,281 15,281.447715 15,282 C15,282.552285 14.5522847,283 14,283 Z M14,295 C13.4477153,295 13,294.552285 13,294 C13,293.447715 13.4477153,293 14,293 C14.5522847,293 15,293.447715 15,294 C15,294.552285 14.5522847,295 14,295 Z M10,277 C9.44771525,277 9,276.552285 9,276 C9,275.447715 9.44771525,275 10,275 C10.5522847,275 11,275.447715 11,276 C11,276.552285 10.5522847,277 10,277 Z M10,289 C9.44771525,289 9,288.552285 9,288 C9,287.447715 9.44771525,287 10,287 C10.5522847,287 11,287.447715 11,288 C11,288.552285 10.5522847,289 10,289 Z M10,283 C9.44771525,283 9,282.552285 9,282 C9,281.447715 9.44771525,281 10,281 C10.5522847,281 11,281.447715 11,282 C11,282.552285 10.5522847,283 10,283 Z M10,295 C9.44771525,295 9,294.552285 9,294 C9,293.447715 9.44771525,293 10,293 C10.5522847,293 11,293.447715 11,294 C11,294.552285 10.5522847,295 10,295 Z M12,274 C11.4477153,274 11,273.552285 11,273 C11,272.447715 11.4477153,272 12,272 C12.5522847,272 13,272.447715 13,273 C13,273.552285 12.5522847,274 12,274 Z M12,286 C11.4477153,286 11,285.552285 11,285 C11,284.447715 11.4477153,284 12,284 C12.5522847,284 13,284.447715 13,285 C13,285.552285 12.5522847,286 12,286 Z M12,280 C11.4477153,280 11,279.552285 11,279 C11,278.447715 11.4477153,278 12,278 C12.5522847,278 13,278.447715 13,279 C13,279.552285 12.5522847,280 12,280 Z M12,292 C11.4477153,292 11,291.552285 11,291 C11,290.447715 11.4477153,290 12,290 C12.5522847,290 13,290.447715 13,291 C13,291.552285 12.5522847,292 12,292 Z M8,298 C7.44771525,298 7,297.552285 7,297 C7,296.447715 7.44771525,296 8,296 C8.55228475,296 9,296.447715 9,297 C9,297.552285 8.55228475,298 8,298 Z M8,304 C7.44771525,304 7,303.552285 7,303 C7,302.447715 7.44771525,302 8,302 C8.55228475,302 9,302.447715 9,303 C9,303.552285 8.55228475,304 8,304 Z M16,298 C15.4477153,298 15,297.552285 15,297 C15,296.447715 15.4477153,296 16,296 C16.5522847,296 17,296.447715 17,297 C17,297.552285 16.5522847,298 16,298 Z M16,304 C15.4477153,304 15,303.552285 15,303 C15,302.447715 15.4477153,302 16,302 C16.5522847,302 17,302.447715 17,303 C17,303.552285 16.5522847,304 16,304 Z M24,298 C23.4477153,298 23,297.552285 23,297 C23,296.447715 23.4477153,296 24,296 C24.5522847,296 25,296.447715 25,297 C25,297.552285 24.5522847,298 24,298 Z M24,304 C23.4477153,304 23,303.552285 23,303 C23,302.447715 23.4477153,302 24,302 C24.5522847,302 25,302.447715 25,303 C25,303.552285 24.5522847,304 24,304 Z M20,298 C19.4477153,298 19,297.552285 19,297 C19,296.447715 19.4477153,296 20,296 C20.5522847,296 21,296.447715 21,297 C21,297.552285 20.5522847,298 20,298 Z M20,304 C19.4477153,304 19,303.552285 19,303 C19,302.447715 19.4477153,302 20,302 C20.5522847,302 21,302.447715 21,303 C21,303.552285 20.5522847,304 20,304 Z M22,301 C21.4477153,301 21,300.552285 21,300 C21,299.447715 21.4477153,299 22,299 C22.5522847,299 23,299.447715 23,300 C23,300.552285 22.5522847,301 22,301 Z M18,301 C17.4477153,301 17,300.552285 17,300 C17,299.447715 17.4477153,299 18,299 C18.5522847,299 19,299.447715 19,300 C19,300.552285 18.5522847,301 18,301 Z M14,301 C13.4477153,301 13,300.552285 13,300 C13,299.447715 13.4477153,299 14,299 C14.5522847,299 15,299.447715 15,300 C15,300.552285 14.5522847,301 14,301 Z M10,301 C9.44771525,301 9,300.552285 9,300 C9,299.447715 9.44771525,299 10,299 C10.5522847,299 11,299.447715 11,300 C11,300.552285 10.5522847,301 10,301 Z M12,298 C11.4477153,298 11,297.552285 11,297 C11,296.447715 11.4477153,296 12,296 C12.5522847,296 13,296.447715 13,297 C13,297.552285 12.5522847,298 12,298 Z M12,304 C11.4477153,304 11,303.552285 11,303 C11,302.447715 11.4477153,302 12,302 C12.5522847,302 13,302.447715 13,303 C13,303.552285 12.5522847,304 12,304 Z" id="speakers-L" fill="#757575"></path>
            </g>
        </g>
    </g>
</svg>