<?xml version="1.0" encoding="UTF-8"?>
<svg width="512px" height="512px" viewBox="0 0 512 512" version="1.1" xmlns="http://www.w3.org/2000/svg" xmlns:xlink="http://www.w3.org/1999/xlink">
    <!-- Generator: Sketch 46 (44423) - http://www.bohemiancoding.com/sketch -->
    <title>laptop</title>
    <desc>Created with Sketch.</desc>
    <defs>
        <path d="M32,144 C14.326888,144 0,129.673112 0,112 L0,0 L384,0 L384,112 C384,129.673112 369.673112,144 352,144 L32,144 Z" id="path-1"></path>
        <linearGradient x1="50%" y1="0%" x2="50%" y2="100%" id="linearGradient-3">
            <stop stop-color="#616161" offset="0%"></stop>
            <stop stop-color="#9E9E9E" offset="100%"></stop>
        </linearGradient>
        <path d="M0,24 C0,10.745166 10.745166,0 24,0 L344,0 C357.254834,0 368,10.745166 368,24 L368,184 C368,197.254834 357.254834,208 344,208 L24,208 C10.745166,208 0,197.254834 0,184 L0,24 Z" id="path-4"></path>
        <rect id="path-6" x="0" y="0" width="320" height="8" rx="4"></rect>
    </defs>
    <g id="graphic" stroke="none" stroke-width="1" fill="none" fill-rule="evenodd">
        <g id="laptop">
            <path d="M96,448 L416,448 C433.673112,448 448,433.673112 448,416 L448,320 L64,320 L64,416 C64,433.673112 78.326888,448 96,448 Z" id="volume" fill="#616161"></path>
            <path d="M96,432 C78.326888,432 64,417.673112 64,400 L64,96 C64,78.326888 78.326888,64 96,64 L416,64 C433.673112,64 448,78.326888 448,96 L448,400 C448,417.673112 433.673112,432 416,432 L96,432 Z" id="body" fill="#616161"></path>
            <g id="Path-7" transform="translate(64.000000, 288.000000)">
                <mask id="mask-2" fill="white">
                    <use xlink:href="#path-1"></use>
                </mask>
                <use id="Mask" fill="#9E9E9E" xlink:href="#path-1"></use>
                <polygon fill="#000000" opacity="0.1" mask="url(#mask-2)" points="384 3.55271368e-15 -42 82 -42 -18"></polygon>
            </g>
            <path d="M196,360 L316,360 C318.209139,360 320,361.790861 320,364 C320,366.209139 318.209139,368 316,368 L196,368 C193.790861,368 192,366.209139 192,364 C192,361.790861 193.790861,360 196,360 Z M328,360 L336,360 C338.209139,360 340,361.790861 340,364 C340,366.209139 338.209139,368 336,368 L328,368 C325.790861,368 324,366.209139 324,364 C324,361.790861 325.790861,360 328,360 Z M136,360 L144,360 C146.209139,360 148,361.790861 148,364 C148,366.209139 146.209139,368 144,368 L136,368 C133.790861,368 132,366.209139 132,364 C132,361.790861 133.790861,360 136,360 Z M260,348 L268,348 C270.209139,348 272,349.790861 272,352 C272,354.209139 270.209139,356 268,356 L260,356 C257.790861,356 256,354.209139 256,352 C256,349.790861 257.790861,348 260,348 Z M200,348 L208,348 C210.209139,348 212,349.790861 212,352 C212,354.209139 210.209139,356 208,356 L200,356 C197.790861,356 196,354.209139 196,352 C196,349.790861 197.790861,348 200,348 Z M340,348 L348,348 C350.209139,348 352,349.790861 352,352 C352,354.209139 350.209139,356 348,356 L340,356 C337.790861,356 336,354.209139 336,352 C336,349.790861 337.790861,348 340,348 Z M116,360 L124,360 C126.209139,360 128,361.790861 128,364 C128,366.209139 126.209139,368 124,368 L116,368 C113.790861,368 112,366.209139 112,364 C112,361.790861 113.790861,360 116,360 Z M100,360 L104,360 C106.209139,360 108,361.790861 108,364 C108,366.209139 106.209139,368 104,368 L100,368 C97.790861,368 96,366.209139 96,364 C96,361.790861 97.790861,360 100,360 Z M100,348 L128,348 C130.209139,348 132,349.790861 132,352 C132,354.209139 130.209139,356 128,356 L100,356 C97.790861,356 96,354.209139 96,352 C96,349.790861 97.790861,348 100,348 Z M180,348 L188,348 C190.209139,348 192,349.790861 192,352 C192,354.209139 190.209139,356 188,356 L180,356 C177.790861,356 176,354.209139 176,352 C176,349.790861 177.790861,348 180,348 Z M320,348 L328,348 C330.209139,348 332,349.790861 332,352 C332,354.209139 330.209139,356 328,356 L320,356 C317.790861,356 316,354.209139 316,352 C316,349.790861 317.790861,348 320,348 Z M348,360 L356,360 C358.209139,360 360,361.790861 360,364 C360,366.209139 358.209139,368 356,368 L348,368 C345.790861,368 344,366.209139 344,364 C344,361.790861 345.790861,360 348,360 Z M156,360 L164,360 C166.209139,360 168,361.790861 168,364 C168,366.209139 166.209139,368 164,368 L156,368 C153.790861,368 152,366.209139 152,364 C152,361.790861 153.790861,360 156,360 Z M140,348 L148,348 C150.209139,348 152,349.790861 152,352 C152,354.209139 150.209139,356 148,356 L140,356 C137.790861,356 136,354.209139 136,352 C136,349.790861 137.790861,348 140,348 Z M280,348 L288,348 C290.209139,348 292,349.790861 292,352 C292,354.209139 290.209139,356 288,356 L280,356 C277.790861,356 276,354.209139 276,352 C276,349.790861 277.790861,348 280,348 Z M220,348 L228,348 C230.209139,348 232,349.790861 232,352 C232,354.209139 230.209139,356 228,356 L220,356 C217.790861,356 216,354.209139 216,352 C216,349.790861 217.790861,348 220,348 Z M360,348 L368,348 C370.209139,348 372,349.790861 372,352 C372,354.209139 370.209139,356 368,356 L360,356 C357.790861,356 356,354.209139 356,352 C356,349.790861 357.790861,348 360,348 Z M356,336 L364,336 C366.209139,336 368,337.790861 368,340 C368,342.209139 366.209139,344 364,344 L356,344 C353.790861,344 352,342.209139 352,340 C352,337.790861 353.790861,336 356,336 Z M352,324 L360,324 C362.209139,324 364,325.790861 364,328 C364,330.209139 362.209139,332 360,332 L352,332 C349.790861,332 348,330.209139 348,328 C348,325.790861 349.790861,324 352,324 Z M348,312 L356,312 C358.209139,312 360,313.790861 360,316 C360,318.209139 358.209139,320 356,320 L348,320 C345.790861,320 344,318.209139 344,316 C344,313.790861 345.790861,312 348,312 Z M372,324 L380,324 C382.209139,324 384,325.790861 384,328 C384,330.209139 382.209139,332 380,332 L372,332 C369.790861,332 368,330.209139 368,328 C368,325.790861 369.790861,324 372,324 Z M368,312 L376,312 C378.209139,312 380,313.790861 380,316 C380,318.209139 378.209139,320 376,320 L368,320 C365.790861,320 364,318.209139 364,316 C364,313.790861 365.790861,312 368,312 Z M388,312 L412,312 C414.209139,312 416,313.790861 416,316 C416,318.209139 414.209139,320 412,320 L388,320 C385.790861,320 384,318.209139 384,316 C384,313.790861 385.790861,312 388,312 Z M392,324 L412,324 C414.209139,324 416,325.790861 416,328 C416,330.209139 414.209139,332 412,332 L392,332 C389.790861,332 388,330.209139 388,328 C388,325.790861 389.790861,324 392,324 Z M256,336 L264,336 C266.209139,336 268,337.790861 268,340 C268,342.209139 266.209139,344 264,344 L256,344 C253.790861,344 252,342.209139 252,340 C252,337.790861 253.790861,336 256,336 Z M252,324 L260,324 C262.209139,324 264,325.790861 264,328 C264,330.209139 262.209139,332 260,332 L252,332 C249.790861,332 248,330.209139 248,328 C248,325.790861 249.790861,324 252,324 Z M248,312 L256,312 C258.209139,312 260,313.790861 260,316 C260,318.209139 258.209139,320 256,320 L248,320 C245.790861,320 244,318.209139 244,316 C244,313.790861 245.790861,312 248,312 Z M336,336 L344,336 C346.209139,336 348,337.790861 348,340 C348,342.209139 346.209139,344 344,344 L336,344 C333.790861,344 332,342.209139 332,340 C332,337.790861 333.790861,336 336,336 Z M332,324 L340,324 C342.209139,324 344,325.790861 344,328 C344,330.209139 342.209139,332 340,332 L332,332 C329.790861,332 328,330.209139 328,328 C328,325.790861 329.790861,324 332,324 Z M328,312 L336,312 C338.209139,312 340,313.790861 340,316 C340,318.209139 338.209139,320 336,320 L328,320 C325.790861,320 324,318.209139 324,316 C324,313.790861 325.790861,312 328,312 Z M236,336 L244,336 C246.209139,336 248,337.790861 248,340 C248,342.209139 246.209139,344 244,344 L236,344 C233.790861,344 232,342.209139 232,340 C232,337.790861 233.790861,336 236,336 Z M232,324 L240,324 C242.209139,324 244,325.790861 244,328 C244,330.209139 242.209139,332 240,332 L232,332 C229.790861,332 228,330.209139 228,328 C228,325.790861 229.790861,324 232,324 Z M228,312 L236,312 C238.209139,312 240,313.790861 240,316 C240,318.209139 238.209139,320 236,320 L228,320 C225.790861,320 224,318.209139 224,316 C224,313.790861 225.790861,312 228,312 Z M316,336 L324,336 C326.209139,336 328,337.790861 328,340 C328,342.209139 326.209139,344 324,344 L316,344 C313.790861,344 312,342.209139 312,340 C312,337.790861 313.790861,336 316,336 Z M312,324 L320,324 C322.209139,324 324,325.790861 324,328 C324,330.209139 322.209139,332 320,332 L312,332 C309.790861,332 308,330.209139 308,328 C308,325.790861 309.790861,324 312,324 Z M308,312 L316,312 C318.209139,312 320,313.790861 320,316 C320,318.209139 318.209139,320 316,320 L308,320 C305.790861,320 304,318.209139 304,316 C304,313.790861 305.790861,312 308,312 Z M216,336 L224,336 C226.209139,336 228,337.790861 228,340 C228,342.209139 226.209139,344 224,344 L216,344 C213.790861,344 212,342.209139 212,340 C212,337.790861 213.790861,336 216,336 Z M212,324 L220,324 C222.209139,324 224,325.790861 224,328 C224,330.209139 222.209139,332 220,332 L212,332 C209.790861,332 208,330.209139 208,328 C208,325.790861 209.790861,324 212,324 Z M208,312 L216,312 C218.209139,312 220,313.790861 220,316 C220,318.209139 218.209139,320 216,320 L208,320 C205.790861,320 204,318.209139 204,316 C204,313.790861 205.790861,312 208,312 Z M156,336 L164,336 C166.209139,336 168,337.790861 168,340 C168,342.209139 166.209139,344 164,344 L156,344 C153.790861,344 152,342.209139 152,340 C152,337.790861 153.790861,336 156,336 Z M152,324 L160,324 C162.209139,324 164,325.790861 164,328 C164,330.209139 162.209139,332 160,332 L152,332 C149.790861,332 148,330.209139 148,328 C148,325.790861 149.790861,324 152,324 Z M148,312 L156,312 C158.209139,312 160,313.790861 160,316 C160,318.209139 158.209139,320 156,320 L148,320 C145.790861,320 144,318.209139 144,316 C144,313.790861 145.790861,312 148,312 Z M296,336 L304,336 C306.209139,336 308,337.790861 308,340 C308,342.209139 306.209139,344 304,344 L296,344 C293.790861,344 292,342.209139 292,340 C292,337.790861 293.790861,336 296,336 Z M292,324 L300,324 C302.209139,324 304,325.790861 304,328 C304,330.209139 302.209139,332 300,332 L292,332 C289.790861,332 288,330.209139 288,328 C288,325.790861 289.790861,324 292,324 Z M288,312 L296,312 C298.209139,312 300,313.790861 300,316 C300,318.209139 298.209139,320 296,320 L288,320 C285.790861,320 284,318.209139 284,316 C284,313.790861 285.790861,312 288,312 Z M196,336 L204,336 C206.209139,336 208,337.790861 208,340 C208,342.209139 206.209139,344 204,344 L196,344 C193.790861,344 192,342.209139 192,340 C192,337.790861 193.790861,336 196,336 Z M192,324 L200,324 C202.209139,324 204,325.790861 204,328 C204,330.209139 202.209139,332 200,332 L192,332 C189.790861,332 188,330.209139 188,328 C188,325.790861 189.790861,324 192,324 Z M188,312 L196,312 C198.209139,312 200,313.790861 200,316 C200,318.209139 198.209139,320 196,320 L188,320 C185.790861,320 184,318.209139 184,316 C184,313.790861 185.790861,312 188,312 Z M136,336 L144,336 C146.209139,336 148,337.790861 148,340 C148,342.209139 146.209139,344 144,344 L136,344 C133.790861,344 132,342.209139 132,340 C132,337.790861 133.790861,336 136,336 Z M132,324 L140,324 C142.209139,324 144,325.790861 144,328 C144,330.209139 142.209139,332 140,332 L132,332 C129.790861,332 128,330.209139 128,328 C128,325.790861 129.790861,324 132,324 Z M128,312 L136,312 C138.209139,312 140,313.790861 140,316 C140,318.209139 138.209139,320 136,320 L128,320 C125.790861,320 124,318.209139 124,316 C124,313.790861 125.790861,312 128,312 Z M100,324 L120,324 C122.209139,324 124,325.790861 124,328 C124,330.209139 122.209139,332 120,332 L100,332 C97.790861,332 96,330.209139 96,328 C96,325.790861 97.790861,324 100,324 Z M100,312 L116,312 C118.209139,312 120,313.790861 120,316 C120,318.209139 118.209139,320 116,320 L100,320 C97.790861,320 96,318.209139 96,316 C96,313.790861 97.790861,312 100,312 Z M276,336 L284,336 C286.209139,336 288,337.790861 288,340 C288,342.209139 286.209139,344 284,344 L276,344 C273.790861,344 272,342.209139 272,340 C272,337.790861 273.790861,336 276,336 Z M272,324 L280,324 C282.209139,324 284,325.790861 284,328 C284,330.209139 282.209139,332 280,332 L272,332 C269.790861,332 268,330.209139 268,328 C268,325.790861 269.790861,324 272,324 Z M268,312 L276,312 C278.209139,312 280,313.790861 280,316 C280,318.209139 278.209139,320 276,320 L268,320 C265.790861,320 264,318.209139 264,316 C264,313.790861 265.790861,312 268,312 Z M176,336 L184,336 C186.209139,336 188,337.790861 188,340 C188,342.209139 186.209139,344 184,344 L176,344 C173.790861,344 172,342.209139 172,340 C172,337.790861 173.790861,336 176,336 Z M172,324 L180,324 C182.209139,324 184,325.790861 184,328 C184,330.209139 182.209139,332 180,332 L172,332 C169.790861,332 168,330.209139 168,328 C168,325.790861 169.790861,324 172,324 Z M168,312 L176,312 C178.209139,312 180,313.790861 180,316 C180,318.209139 178.209139,320 176,320 L168,320 C165.790861,320 164,318.209139 164,316 C164,313.790861 165.790861,312 168,312 Z M100,336 L124,336 C126.209139,336 128,337.790861 128,340 C128,342.209139 126.209139,344 124,344 L100,344 C97.790861,344 96,342.209139 96,340 C96,337.790861 97.790861,336 100,336 Z M368,360 L376,360 C378.209139,360 380,361.790861 380,364 C380,366.209139 378.209139,368 376,368 L368,368 C365.790861,368 364,366.209139 364,364 C364,361.790861 365.790861,360 368,360 Z M176,360 L184,360 C186.209139,360 188,361.790861 188,364 C188,366.209139 186.209139,368 184,368 L176,368 C173.790861,368 172,366.209139 172,364 C172,361.790861 173.790861,360 176,360 Z M160,348 L168,348 C170.209139,348 172,349.790861 172,352 C172,354.209139 170.209139,356 168,356 L160,356 C157.790861,356 156,354.209139 156,352 C156,349.790861 157.790861,348 160,348 Z M300,348 L308,348 C310.209139,348 312,349.790861 312,352 C312,354.209139 310.209139,356 308,356 L300,356 C297.790861,356 296,354.209139 296,352 C296,349.790861 297.790861,348 300,348 Z M240,348 L248,348 C250.209139,348 252,349.790861 252,352 C252,354.209139 250.209139,356 248,356 L240,356 C237.790861,356 236,354.209139 236,352 C236,349.790861 237.790861,348 240,348 Z M380,348 L388,348 C390.209139,348 392,349.790861 392,352 C392,354.209139 390.209139,356 388,356 L380,356 C377.790861,356 376,354.209139 376,352 C376,349.790861 377.790861,348 380,348 Z M400,348 L412,348 C414.209139,348 416,349.790861 416,352 C416,354.209139 414.209139,356 412,356 L400,356 C397.790861,356 396,354.209139 396,352 C396,349.790861 397.790861,348 400,348 Z M376,336 L412,336 C414.209139,336 416,337.790861 416,340 C416,342.209139 414.209139,344 412,344 L376,344 C373.790861,344 372,342.209139 372,340 C372,337.790861 373.790861,336 376,336 Z M388,360 L412,360 C414.209139,360 416,361.790861 416,364 C416,366.209139 414.209139,368 412,368 L388,368 C385.790861,368 384,366.209139 384,364 C384,361.790861 385.790861,360 388,360 Z" id="keys" fill="#424242"></path>
            <path d="M424,314 C423.447715,314 423,313.552285 423,313 C423,312.447715 423.447715,312 424,312 C424.552285,312 425,312.447715 425,313 C425,313.552285 424.552285,314 424,314 Z M424,326 C423.447715,326 423,325.552285 423,325 C423,324.447715 423.447715,324 424,324 C424.552285,324 425,324.447715 425,325 C425,325.552285 424.552285,326 424,326 Z M424,320 C423.447715,320 423,319.552285 423,319 C423,318.447715 423.447715,318 424,318 C424.552285,318 425,318.447715 425,319 C425,319.552285 424.552285,320 424,320 Z M424,332 C423.447715,332 423,331.552285 423,331 C423,330.447715 423.447715,330 424,330 C424.552285,330 425,330.447715 425,331 C425,331.552285 424.552285,332 424,332 Z M432,314 C431.447715,314 431,313.552285 431,313 C431,312.447715 431.447715,312 432,312 C432.552285,312 433,312.447715 433,313 C433,313.552285 432.552285,314 432,314 Z M432,326 C431.447715,326 431,325.552285 431,325 C431,324.447715 431.447715,324 432,324 C432.552285,324 433,324.447715 433,325 C433,325.552285 432.552285,326 432,326 Z M432,320 C431.447715,320 431,319.552285 431,319 C431,318.447715 431.447715,318 432,318 C432.552285,318 433,318.447715 433,319 C433,319.552285 432.552285,320 432,320 Z M432,332 C431.447715,332 431,331.552285 431,331 C431,330.447715 431.447715,330 432,330 C432.552285,330 433,330.447715 433,331 C433,331.552285 432.552285,332 432,332 Z M440,314 C439.447715,314 439,313.552285 439,313 C439,312.447715 439.447715,312 440,312 C440.552285,312 441,312.447715 441,313 C441,313.552285 440.552285,314 440,314 Z M440,326 C439.447715,326 439,325.552285 439,325 C439,324.447715 439.447715,324 440,324 C440.552285,324 441,324.447715 441,325 C441,325.552285 440.552285,326 440,326 Z M440,320 C439.447715,320 439,319.552285 439,319 C439,318.447715 439.447715,318 440,318 C440.552285,318 441,318.447715 441,319 C441,319.552285 440.552285,320 440,320 Z M440,332 C439.447715,332 439,331.552285 439,331 C439,330.447715 439.447715,330 440,330 C440.552285,330 441,330.447715 441,331 C441,331.552285 440.552285,332 440,332 Z M436,314 C435.447715,314 435,313.552285 435,313 C435,312.447715 435.447715,312 436,312 C436.552285,312 437,312.447715 437,313 C437,313.552285 436.552285,314 436,314 Z M436,326 C435.447715,326 435,325.552285 435,325 C435,324.447715 435.447715,324 436,324 C436.552285,324 437,324.447715 437,325 C437,325.552285 436.552285,326 436,326 Z M436,320 C435.447715,320 435,319.552285 435,319 C435,318.447715 435.447715,318 436,318 C436.552285,318 437,318.447715 437,319 C437,319.552285 436.552285,320 436,320 Z M436,332 C435.447715,332 435,331.552285 435,331 C435,330.447715 435.447715,330 436,330 C436.552285,330 437,330.447715 437,331 C437,331.552285 436.552285,332 436,332 Z M438,317 C437.447715,317 437,316.552285 437,316 C437,315.447715 437.447715,315 438,315 C438.552285,315 439,315.447715 439,316 C439,316.552285 438.552285,317 438,317 Z M438,329 C437.447715,329 437,328.552285 437,328 C437,327.447715 437.447715,327 438,327 C438.552285,327 439,327.447715 439,328 C439,328.552285 438.552285,329 438,329 Z M438,323 C437.447715,323 437,322.552285 437,322 C437,321.447715 437.447715,321 438,321 C438.552285,321 439,321.447715 439,322 C439,322.552285 438.552285,323 438,323 Z M438,335 C437.447715,335 437,334.552285 437,334 C437,333.447715 437.447715,333 438,333 C438.552285,333 439,333.447715 439,334 C439,334.552285 438.552285,335 438,335 Z M434,317 C433.447715,317 433,316.552285 433,316 C433,315.447715 433.447715,315 434,315 C434.552285,315 435,315.447715 435,316 C435,316.552285 434.552285,317 434,317 Z M434,329 C433.447715,329 433,328.552285 433,328 C433,327.447715 433.447715,327 434,327 C434.552285,327 435,327.447715 435,328 C435,328.552285 434.552285,329 434,329 Z M434,323 C433.447715,323 433,322.552285 433,322 C433,321.447715 433.447715,321 434,321 C434.552285,321 435,321.447715 435,322 C435,322.552285 434.552285,323 434,323 Z M434,335 C433.447715,335 433,334.552285 433,334 C433,333.447715 433.447715,333 434,333 C434.552285,333 435,333.447715 435,334 C435,334.552285 434.552285,335 434,335 Z M430,317 C429.447715,317 429,316.552285 429,316 C429,315.447715 429.447715,315 430,315 C430.552285,315 431,315.447715 431,316 C431,316.552285 430.552285,317 430,317 Z M430,329 C429.447715,329 429,328.552285 429,328 C429,327.447715 429.447715,327 430,327 C430.552285,327 431,327.447715 431,328 C431,328.552285 430.552285,329 430,329 Z M430,323 C429.447715,323 429,322.552285 429,322 C429,321.447715 429.447715,321 430,321 C430.552285,321 431,321.447715 431,322 C431,322.552285 430.552285,323 430,323 Z M430,335 C429.447715,335 429,334.552285 429,334 C429,333.447715 429.447715,333 430,333 C430.552285,333 431,333.447715 431,334 C431,334.552285 430.552285,335 430,335 Z M426,317 C425.447715,317 425,316.552285 425,316 C425,315.447715 425.447715,315 426,315 C426.552285,315 427,315.447715 427,316 C427,316.552285 426.552285,317 426,317 Z M426,329 C425.447715,329 425,328.552285 425,328 C425,327.447715 425.447715,327 426,327 C426.552285,327 427,327.447715 427,328 C427,328.552285 426.552285,329 426,329 Z M426,323 C425.447715,323 425,322.552285 425,322 C425,321.447715 425.447715,321 426,321 C426.552285,321 427,321.447715 427,322 C427,322.552285 426.552285,323 426,323 Z M426,335 C425.447715,335 425,334.552285 425,334 C425,333.447715 425.447715,333 426,333 C426.552285,333 427,333.447715 427,334 C427,334.552285 426.552285,335 426,335 Z M428,314 C427.447715,314 427,313.552285 427,313 C427,312.447715 427.447715,312 428,312 C428.552285,312 429,312.447715 429,313 C429,313.552285 428.552285,314 428,314 Z M428,326 C427.447715,326 427,325.552285 427,325 C427,324.447715 427.447715,324 428,324 C428.552285,324 429,324.447715 429,325 C429,325.552285 428.552285,326 428,326 Z M428,320 C427.447715,320 427,319.552285 427,319 C427,318.447715 427.447715,318 428,318 C428.552285,318 429,318.447715 429,319 C429,319.552285 428.552285,320 428,320 Z M428,332 C427.447715,332 427,331.552285 427,331 C427,330.447715 427.447715,330 428,330 C428.552285,330 429,330.447715 429,331 C429,331.552285 428.552285,332 428,332 Z M424,338 C423.447715,338 423,337.552285 423,337 C423,336.447715 423.447715,336 424,336 C424.552285,336 425,336.447715 425,337 C425,337.552285 424.552285,338 424,338 Z M424,350 C423.447715,350 423,349.552285 423,349 C423,348.447715 423.447715,348 424,348 C424.552285,348 425,348.447715 425,349 C425,349.552285 424.552285,350 424,350 Z M424,344 C423.447715,344 423,343.552285 423,343 C423,342.447715 423.447715,342 424,342 C424.552285,342 425,342.447715 425,343 C425,343.552285 424.552285,344 424,344 Z M424,356 C423.447715,356 423,355.552285 423,355 C423,354.447715 423.447715,354 424,354 C424.552285,354 425,354.447715 425,355 C425,355.552285 424.552285,356 424,356 Z M432,338 C431.447715,338 431,337.552285 431,337 C431,336.447715 431.447715,336 432,336 C432.552285,336 433,336.447715 433,337 C433,337.552285 432.552285,338 432,338 Z M432,350 C431.447715,350 431,349.552285 431,349 C431,348.447715 431.447715,348 432,348 C432.552285,348 433,348.447715 433,349 C433,349.552285 432.552285,350 432,350 Z M432,344 C431.447715,344 431,343.552285 431,343 C431,342.447715 431.447715,342 432,342 C432.552285,342 433,342.447715 433,343 C433,343.552285 432.552285,344 432,344 Z M432,356 C431.447715,356 431,355.552285 431,355 C431,354.447715 431.447715,354 432,354 C432.552285,354 433,354.447715 433,355 C433,355.552285 432.552285,356 432,356 Z M440,338 C439.447715,338 439,337.552285 439,337 C439,336.447715 439.447715,336 440,336 C440.552285,336 441,336.447715 441,337 C441,337.552285 440.552285,338 440,338 Z M440,350 C439.447715,350 439,349.552285 439,349 C439,348.447715 439.447715,348 440,348 C440.552285,348 441,348.447715 441,349 C441,349.552285 440.552285,350 440,350 Z M440,344 C439.447715,344 439,343.552285 439,343 C439,342.447715 439.447715,342 440,342 C440.552285,342 441,342.447715 441,343 C441,343.552285 440.552285,344 440,344 Z M440,356 C439.447715,356 439,355.552285 439,355 C439,354.447715 439.447715,354 440,354 C440.552285,354 441,354.447715 441,355 C441,355.552285 440.552285,356 440,356 Z M436,338 C435.447715,338 435,337.552285 435,337 C435,336.447715 435.447715,336 436,336 C436.552285,336 437,336.447715 437,337 C437,337.552285 436.552285,338 436,338 Z M436,350 C435.447715,350 435,349.552285 435,349 C435,348.447715 435.447715,348 436,348 C436.552285,348 437,348.447715 437,349 C437,349.552285 436.552285,350 436,350 Z M436,344 C435.447715,344 435,343.552285 435,343 C435,342.447715 435.447715,342 436,342 C436.552285,342 437,342.447715 437,343 C437,343.552285 436.552285,344 436,344 Z M436,356 C435.447715,356 435,355.552285 435,355 C435,354.447715 435.447715,354 436,354 C436.552285,354 437,354.447715 437,355 C437,355.552285 436.552285,356 436,356 Z M438,341 C437.447715,341 437,340.552285 437,340 C437,339.447715 437.447715,339 438,339 C438.552285,339 439,339.447715 439,340 C439,340.552285 438.552285,341 438,341 Z M438,353 C437.447715,353 437,352.552285 437,352 C437,351.447715 437.447715,351 438,351 C438.552285,351 439,351.447715 439,352 C439,352.552285 438.552285,353 438,353 Z M438,347 C437.447715,347 437,346.552285 437,346 C437,345.447715 437.447715,345 438,345 C438.552285,345 439,345.447715 439,346 C439,346.552285 438.552285,347 438,347 Z M438,359 C437.447715,359 437,358.552285 437,358 C437,357.447715 437.447715,357 438,357 C438.552285,357 439,357.447715 439,358 C439,358.552285 438.552285,359 438,359 Z M434,341 C433.447715,341 433,340.552285 433,340 C433,339.447715 433.447715,339 434,339 C434.552285,339 435,339.447715 435,340 C435,340.552285 434.552285,341 434,341 Z M434,353 C433.447715,353 433,352.552285 433,352 C433,351.447715 433.447715,351 434,351 C434.552285,351 435,351.447715 435,352 C435,352.552285 434.552285,353 434,353 Z M434,347 C433.447715,347 433,346.552285 433,346 C433,345.447715 433.447715,345 434,345 C434.552285,345 435,345.447715 435,346 C435,346.552285 434.552285,347 434,347 Z M434,359 C433.447715,359 433,358.552285 433,358 C433,357.447715 433.447715,357 434,357 C434.552285,357 435,357.447715 435,358 C435,358.552285 434.552285,359 434,359 Z M430,341 C429.447715,341 429,340.552285 429,340 C429,339.447715 429.447715,339 430,339 C430.552285,339 431,339.447715 431,340 C431,340.552285 430.552285,341 430,341 Z M430,353 C429.447715,353 429,352.552285 429,352 C429,351.447715 429.447715,351 430,351 C430.552285,351 431,351.447715 431,352 C431,352.552285 430.552285,353 430,353 Z M430,347 C429.447715,347 429,346.552285 429,346 C429,345.447715 429.447715,345 430,345 C430.552285,345 431,345.447715 431,346 C431,346.552285 430.552285,347 430,347 Z M430,359 C429.447715,359 429,358.552285 429,358 C429,357.447715 429.447715,357 430,357 C430.552285,357 431,357.447715 431,358 C431,358.552285 430.552285,359 430,359 Z M426,341 C425.447715,341 425,340.552285 425,340 C425,339.447715 425.447715,339 426,339 C426.552285,339 427,339.447715 427,340 C427,340.552285 426.552285,341 426,341 Z M426,353 C425.447715,353 425,352.552285 425,352 C425,351.447715 425.447715,351 426,351 C426.552285,351 427,351.447715 427,352 C427,352.552285 426.552285,353 426,353 Z M426,347 C425.447715,347 425,346.552285 425,346 C425,345.447715 425.447715,345 426,345 C426.552285,345 427,345.447715 427,346 C427,346.552285 426.552285,347 426,347 Z M426,359 C425.447715,359 425,358.552285 425,358 C425,357.447715 425.447715,357 426,357 C426.552285,357 427,357.447715 427,358 C427,358.552285 426.552285,359 426,359 Z M428,338 C427.447715,338 427,337.552285 427,337 C427,336.447715 427.447715,336 428,336 C428.552285,336 429,336.447715 429,337 C429,337.552285 428.552285,338 428,338 Z M428,350 C427.447715,350 427,349.552285 427,349 C427,348.447715 427.447715,348 428,348 C428.552285,348 429,348.447715 429,349 C429,349.552285 428.552285,350 428,350 Z M428,344 C427.447715,344 427,343.552285 427,343 C427,342.447715 427.447715,342 428,342 C428.552285,342 429,342.447715 429,343 C429,343.552285 428.552285,344 428,344 Z M428,356 C427.447715,356 427,355.552285 427,355 C427,354.447715 427.447715,354 428,354 C428.552285,354 429,354.447715 429,355 C429,355.552285 428.552285,356 428,356 Z M424,362 C423.447715,362 423,361.552285 423,361 C423,360.447715 423.447715,360 424,360 C424.552285,360 425,360.447715 425,361 C425,361.552285 424.552285,362 424,362 Z M424,368 C423.447715,368 423,367.552285 423,367 C423,366.447715 423.447715,366 424,366 C424.552285,366 425,366.447715 425,367 C425,367.552285 424.552285,368 424,368 Z M432,362 C431.447715,362 431,361.552285 431,361 C431,360.447715 431.447715,360 432,360 C432.552285,360 433,360.447715 433,361 C433,361.552285 432.552285,362 432,362 Z M432,368 C431.447715,368 431,367.552285 431,367 C431,366.447715 431.447715,366 432,366 C432.552285,366 433,366.447715 433,367 C433,367.552285 432.552285,368 432,368 Z M440,362 C439.447715,362 439,361.552285 439,361 C439,360.447715 439.447715,360 440,360 C440.552285,360 441,360.447715 441,361 C441,361.552285 440.552285,362 440,362 Z M440,368 C439.447715,368 439,367.552285 439,367 C439,366.447715 439.447715,366 440,366 C440.552285,366 441,366.447715 441,367 C441,367.552285 440.552285,368 440,368 Z M436,362 C435.447715,362 435,361.552285 435,361 C435,360.447715 435.447715,360 436,360 C436.552285,360 437,360.447715 437,361 C437,361.552285 436.552285,362 436,362 Z M436,368 C435.447715,368 435,367.552285 435,367 C435,366.447715 435.447715,366 436,366 C436.552285,366 437,366.447715 437,367 C437,367.552285 436.552285,368 436,368 Z M438,365 C437.447715,365 437,364.552285 437,364 C437,363.447715 437.447715,363 438,363 C438.552285,363 439,363.447715 439,364 C439,364.552285 438.552285,365 438,365 Z M434,365 C433.447715,365 433,364.552285 433,364 C433,363.447715 433.447715,363 434,363 C434.552285,363 435,363.447715 435,364 C435,364.552285 434.552285,365 434,365 Z M430,365 C429.447715,365 429,364.552285 429,364 C429,363.447715 429.447715,363 430,363 C430.552285,363 431,363.447715 431,364 C431,364.552285 430.552285,365 430,365 Z M426,365 C425.447715,365 425,364.552285 425,364 C425,363.447715 425.447715,363 426,363 C426.552285,363 427,363.447715 427,364 C427,364.552285 426.552285,365 426,365 Z M428,362 C427.447715,362 427,361.552285 427,361 C427,360.447715 427.447715,360 428,360 C428.552285,360 429,360.447715 429,361 C429,361.552285 428.552285,362 428,362 Z M428,368 C427.447715,368 427,367.552285 427,367 C427,366.447715 427.447715,366 428,366 C428.552285,366 429,366.447715 429,367 C429,367.552285 428.552285,368 428,368 Z" id="speakers-R" fill="#757575"></path>
            <path d="M229,432 L283.634354,432 C281.987009,436.660769 277.542052,440 272.317177,440 L240.317177,440 C235.092302,440 230.647346,436.660769 229,432 L229,432 Z M229,432 C230.647346,429.669615 235.092302,428 240.317177,428 L272.317177,428 C277.542052,428 281.987009,429.669615 283.634354,432 C272.982034,432 264.992793,432 259.666633,432 C252.851826,432 242.629615,432 229,432 L229,432 Z" id="edge" fill="url(#linearGradient-3)"></path>
            <g id="screen" transform="translate(72.000000, 72.000000)">
                <mask id="mask-5" fill="white">
                    <use xlink:href="#path-4"></use>
                </mask>
                <use id="Mask" fill="#212121" xlink:href="#path-4"></use>
                <g id="logo" mask="url(#mask-5)" fill-rule="nonzero" fill="#757575">
                    <g transform="translate(135.000000, 58.000000)" id="Combined-Shape">
                        <path d="M18.496581,90.9620255 C5.44681464,87.4653512 -2.29749656,74.0518107 1.1991778,61.0020443 C3.3938719,52.8113344 9.60358312,46.4536745 17.5095106,43.9831281 C20.2931896,42.9807335 22.6121381,41.0824145 24.1010109,38.5036113 C25.6775336,35.7729939 26.1547835,32.6071137 25.5065113,29.635059 C25.0037115,27.2002373 24.8739143,24.7000111 25.1206299,22.2260125 C25.6769173,16.6477114 28.1172048,11.4161369 32.1640783,7.36926345 C41.7171703,-2.18382856 57.2057927,-2.18382856 66.7588847,7.36926345 C72.7545197,13.3648984 75.1552529,21.9202785 73.3413661,30.001815 C72.8220453,32.8907667 73.3231638,35.8701821 74.8222909,38.4667464 C76.4044906,41.2071967 78.9117145,43.1963804 81.8719348,44.1372596 C89.4697011,46.5818142 95.5596784,52.9254877 97.7237852,61.0020443 C101.22046,74.0518107 93.4761483,87.4653512 80.426382,90.9620255 C72.307948,93.1373534 63.7859174,90.9964459 57.6611351,85.4567456 C55.5511717,83.5263776 52.5875105,82.3733333 49.4614815,82.3733333 C46.515794,82.3733333 43.7317321,83.3923653 41.5086501,85.224424 C35.3839043,90.9305822 26.7346228,93.1694022 18.496581,90.9620255 Z M49.1026529,40.5955556 C57.8999353,40.5955556 65.0315418,33.4639491 65.0315418,24.6666667 C65.0315418,15.8693843 57.8999353,8.73777778 49.1026529,8.73777778 C40.3053705,8.73777778 33.173764,15.8693843 33.173764,24.6666667 C33.173764,33.4639491 40.3053705,40.5955556 49.1026529,40.5955556 Z M65.77182,81.1281558 C73.39049,85.526797 83.1324456,82.9164478 87.5310868,75.2977778 C91.929728,67.6791077 89.3193789,57.9371521 81.7007088,53.5385109 C74.0820388,49.1398697 64.3400832,51.7502188 59.941442,59.3688889 C55.5428008,66.9875589 58.1531499,76.7295146 65.77182,81.1281558 Z M10.674219,75.2977778 C15.0728602,82.9164478 24.8148158,85.526797 32.4334859,81.1281558 C40.0521559,76.7295146 42.6625051,66.9875589 38.2638639,59.3688889 C33.8652227,51.7502188 24.123267,49.1398697 16.504597,53.5385109 C8.88592693,57.9371521 6.27557779,67.6791077 10.674219,75.2977778 Z M49.1026529,37.1822222 C42.1905024,37.1822222 36.5870974,31.5788171 36.5870974,24.6666667 C36.5870974,17.7545162 42.1905024,12.1511111 49.1026529,12.1511111 C56.0148034,12.1511111 61.6182085,17.7545162 61.6182085,24.6666667 C61.6182085,31.5788171 56.0148034,37.1822222 49.1026529,37.1822222 Z M84.5750535,73.5911111 C81.1189782,79.577209 73.4645845,81.6281976 67.4784866,78.1721224 C61.4923887,74.7160472 59.4414001,67.0616535 62.8974753,61.0755556 C66.3535506,55.0894577 74.0079443,53.038469 79.9940422,56.4945443 C85.9801401,59.9506195 88.0311287,67.6050132 84.5750535,73.5911111 Z M13.6302524,73.5911111 C10.1741771,67.6050132 12.2251657,59.9506195 18.2112636,56.4945443 C24.1973615,53.038469 31.8517552,55.0894577 35.3078305,61.0755556 C38.7639057,67.0616535 36.7129171,74.7160472 30.7268192,78.1721224 C24.7407213,81.6281976 17.0863276,79.577209 13.6302524,73.5911111 Z"></path>
                    </g>
                </g>
                <polygon id="Path-5" fill="#FFFFFF" opacity="0.1" mask="url(#mask-5)" points="258 -25 125 217 -144 235 -72 -72"></polygon>
            </g>
            <rect id="trackpad" fill="#424242" x="192" y="376" width="128" height="40" rx="8"></rect>
            <g id="touch-bar" transform="translate(96.000000, 296.000000)">
                <mask id="mask-7" fill="white">
                    <use xlink:href="#path-6"></use>
                </mask>
                <use id="Mask" fill="#212121" xlink:href="#path-6"></use>
                <polygon id="Path-6" fill="#424242" mask="url(#mask-7)" points="87 43 173 -88 -94 -66 5 43"></polygon>
            </g>
            <path d="M72,314 C71.4477153,314 71,313.552285 71,313 C71,312.447715 71.4477153,312 72,312 C72.5522847,312 73,312.447715 73,313 C73,313.552285 72.5522847,314 72,314 Z M72,326 C71.4477153,326 71,325.552285 71,325 C71,324.447715 71.4477153,324 72,324 C72.5522847,324 73,324.447715 73,325 C73,325.552285 72.5522847,326 72,326 Z M72,320 C71.4477153,320 71,319.552285 71,319 C71,318.447715 71.4477153,318 72,318 C72.5522847,318 73,318.447715 73,319 C73,319.552285 72.5522847,320 72,320 Z M72,332 C71.4477153,332 71,331.552285 71,331 C71,330.447715 71.4477153,330 72,330 C72.5522847,330 73,330.447715 73,331 C73,331.552285 72.5522847,332 72,332 Z M80,314 C79.4477153,314 79,313.552285 79,313 C79,312.447715 79.4477153,312 80,312 C80.5522847,312 81,312.447715 81,313 C81,313.552285 80.5522847,314 80,314 Z M80,326 C79.4477153,326 79,325.552285 79,325 C79,324.447715 79.4477153,324 80,324 C80.5522847,324 81,324.447715 81,325 C81,325.552285 80.5522847,326 80,326 Z M80,320 C79.4477153,320 79,319.552285 79,319 C79,318.447715 79.4477153,318 80,318 C80.5522847,318 81,318.447715 81,319 C81,319.552285 80.5522847,320 80,320 Z M80,332 C79.4477153,332 79,331.552285 79,331 C79,330.447715 79.4477153,330 80,330 C80.5522847,330 81,330.447715 81,331 C81,331.552285 80.5522847,332 80,332 Z M88,314 C87.4477153,314 87,313.552285 87,313 C87,312.447715 87.4477153,312 88,312 C88.5522847,312 89,312.447715 89,313 C89,313.552285 88.5522847,314 88,314 Z M88,326 C87.4477153,326 87,325.552285 87,325 C87,324.447715 87.4477153,324 88,324 C88.5522847,324 89,324.447715 89,325 C89,325.552285 88.5522847,326 88,326 Z M88,320 C87.4477153,320 87,319.552285 87,319 C87,318.447715 87.4477153,318 88,318 C88.5522847,318 89,318.447715 89,319 C89,319.552285 88.5522847,320 88,320 Z M88,332 C87.4477153,332 87,331.552285 87,331 C87,330.447715 87.4477153,330 88,330 C88.5522847,330 89,330.447715 89,331 C89,331.552285 88.5522847,332 88,332 Z M84,314 C83.4477153,314 83,313.552285 83,313 C83,312.447715 83.4477153,312 84,312 C84.5522847,312 85,312.447715 85,313 C85,313.552285 84.5522847,314 84,314 Z M84,326 C83.4477153,326 83,325.552285 83,325 C83,324.447715 83.4477153,324 84,324 C84.5522847,324 85,324.447715 85,325 C85,325.552285 84.5522847,326 84,326 Z M84,320 C83.4477153,320 83,319.552285 83,319 C83,318.447715 83.4477153,318 84,318 C84.5522847,318 85,318.447715 85,319 C85,319.552285 84.5522847,320 84,320 Z M84,332 C83.4477153,332 83,331.552285 83,331 C83,330.447715 83.4477153,330 84,330 C84.5522847,330 85,330.447715 85,331 C85,331.552285 84.5522847,332 84,332 Z M86,317 C85.4477153,317 85,316.552285 85,316 C85,315.447715 85.4477153,315 86,315 C86.5522847,315 87,315.447715 87,316 C87,316.552285 86.5522847,317 86,317 Z M86,329 C85.4477153,329 85,328.552285 85,328 C85,327.447715 85.4477153,327 86,327 C86.5522847,327 87,327.447715 87,328 C87,328.552285 86.5522847,329 86,329 Z M86,323 C85.4477153,323 85,322.552285 85,322 C85,321.447715 85.4477153,321 86,321 C86.5522847,321 87,321.447715 87,322 C87,322.552285 86.5522847,323 86,323 Z M86,335 C85.4477153,335 85,334.552285 85,334 C85,333.447715 85.4477153,333 86,333 C86.5522847,333 87,333.447715 87,334 C87,334.552285 86.5522847,335 86,335 Z M82,317 C81.4477153,317 81,316.552285 81,316 C81,315.447715 81.4477153,315 82,315 C82.5522847,315 83,315.447715 83,316 C83,316.552285 82.5522847,317 82,317 Z M82,329 C81.4477153,329 81,328.552285 81,328 C81,327.447715 81.4477153,327 82,327 C82.5522847,327 83,327.447715 83,328 C83,328.552285 82.5522847,329 82,329 Z M82,323 C81.4477153,323 81,322.552285 81,322 C81,321.447715 81.4477153,321 82,321 C82.5522847,321 83,321.447715 83,322 C83,322.552285 82.5522847,323 82,323 Z M82,335 C81.4477153,335 81,334.552285 81,334 C81,333.447715 81.4477153,333 82,333 C82.5522847,333 83,333.447715 83,334 C83,334.552285 82.5522847,335 82,335 Z M78,317 C77.4477153,317 77,316.552285 77,316 C77,315.447715 77.4477153,315 78,315 C78.5522847,315 79,315.447715 79,316 C79,316.552285 78.5522847,317 78,317 Z M78,329 C77.4477153,329 77,328.552285 77,328 C77,327.447715 77.4477153,327 78,327 C78.5522847,327 79,327.447715 79,328 C79,328.552285 78.5522847,329 78,329 Z M78,323 C77.4477153,323 77,322.552285 77,322 C77,321.447715 77.4477153,321 78,321 C78.5522847,321 79,321.447715 79,322 C79,322.552285 78.5522847,323 78,323 Z M78,335 C77.4477153,335 77,334.552285 77,334 C77,333.447715 77.4477153,333 78,333 C78.5522847,333 79,333.447715 79,334 C79,334.552285 78.5522847,335 78,335 Z M74,317 C73.4477153,317 73,316.552285 73,316 C73,315.447715 73.4477153,315 74,315 C74.5522847,315 75,315.447715 75,316 C75,316.552285 74.5522847,317 74,317 Z M74,329 C73.4477153,329 73,328.552285 73,328 C73,327.447715 73.4477153,327 74,327 C74.5522847,327 75,327.447715 75,328 C75,328.552285 74.5522847,329 74,329 Z M74,323 C73.4477153,323 73,322.552285 73,322 C73,321.447715 73.4477153,321 74,321 C74.5522847,321 75,321.447715 75,322 C75,322.552285 74.5522847,323 74,323 Z M74,335 C73.4477153,335 73,334.552285 73,334 C73,333.447715 73.4477153,333 74,333 C74.5522847,333 75,333.447715 75,334 C75,334.552285 74.5522847,335 74,335 Z M76,314 C75.4477153,314 75,313.552285 75,313 C75,312.447715 75.4477153,312 76,312 C76.5522847,312 77,312.447715 77,313 C77,313.552285 76.5522847,314 76,314 Z M76,326 C75.4477153,326 75,325.552285 75,325 C75,324.447715 75.4477153,324 76,324 C76.5522847,324 77,324.447715 77,325 C77,325.552285 76.5522847,326 76,326 Z M76,320 C75.4477153,320 75,319.552285 75,319 C75,318.447715 75.4477153,318 76,318 C76.5522847,318 77,318.447715 77,319 C77,319.552285 76.5522847,320 76,320 Z M76,332 C75.4477153,332 75,331.552285 75,331 C75,330.447715 75.4477153,330 76,330 C76.5522847,330 77,330.447715 77,331 C77,331.552285 76.5522847,332 76,332 Z M72,338 C71.4477153,338 71,337.552285 71,337 C71,336.447715 71.4477153,336 72,336 C72.5522847,336 73,336.447715 73,337 C73,337.552285 72.5522847,338 72,338 Z M72,350 C71.4477153,350 71,349.552285 71,349 C71,348.447715 71.4477153,348 72,348 C72.5522847,348 73,348.447715 73,349 C73,349.552285 72.5522847,350 72,350 Z M72,344 C71.4477153,344 71,343.552285 71,343 C71,342.447715 71.4477153,342 72,342 C72.5522847,342 73,342.447715 73,343 C73,343.552285 72.5522847,344 72,344 Z M72,356 C71.4477153,356 71,355.552285 71,355 C71,354.447715 71.4477153,354 72,354 C72.5522847,354 73,354.447715 73,355 C73,355.552285 72.5522847,356 72,356 Z M80,338 C79.4477153,338 79,337.552285 79,337 C79,336.447715 79.4477153,336 80,336 C80.5522847,336 81,336.447715 81,337 C81,337.552285 80.5522847,338 80,338 Z M80,350 C79.4477153,350 79,349.552285 79,349 C79,348.447715 79.4477153,348 80,348 C80.5522847,348 81,348.447715 81,349 C81,349.552285 80.5522847,350 80,350 Z M80,344 C79.4477153,344 79,343.552285 79,343 C79,342.447715 79.4477153,342 80,342 C80.5522847,342 81,342.447715 81,343 C81,343.552285 80.5522847,344 80,344 Z M80,356 C79.4477153,356 79,355.552285 79,355 C79,354.447715 79.4477153,354 80,354 C80.5522847,354 81,354.447715 81,355 C81,355.552285 80.5522847,356 80,356 Z M88,338 C87.4477153,338 87,337.552285 87,337 C87,336.447715 87.4477153,336 88,336 C88.5522847,336 89,336.447715 89,337 C89,337.552285 88.5522847,338 88,338 Z M88,350 C87.4477153,350 87,349.552285 87,349 C87,348.447715 87.4477153,348 88,348 C88.5522847,348 89,348.447715 89,349 C89,349.552285 88.5522847,350 88,350 Z M88,344 C87.4477153,344 87,343.552285 87,343 C87,342.447715 87.4477153,342 88,342 C88.5522847,342 89,342.447715 89,343 C89,343.552285 88.5522847,344 88,344 Z M88,356 C87.4477153,356 87,355.552285 87,355 C87,354.447715 87.4477153,354 88,354 C88.5522847,354 89,354.447715 89,355 C89,355.552285 88.5522847,356 88,356 Z M84,338 C83.4477153,338 83,337.552285 83,337 C83,336.447715 83.4477153,336 84,336 C84.5522847,336 85,336.447715 85,337 C85,337.552285 84.5522847,338 84,338 Z M84,350 C83.4477153,350 83,349.552285 83,349 C83,348.447715 83.4477153,348 84,348 C84.5522847,348 85,348.447715 85,349 C85,349.552285 84.5522847,350 84,350 Z M84,344 C83.4477153,344 83,343.552285 83,343 C83,342.447715 83.4477153,342 84,342 C84.5522847,342 85,342.447715 85,343 C85,343.552285 84.5522847,344 84,344 Z M84,356 C83.4477153,356 83,355.552285 83,355 C83,354.447715 83.4477153,354 84,354 C84.5522847,354 85,354.447715 85,355 C85,355.552285 84.5522847,356 84,356 Z M86,341 C85.4477153,341 85,340.552285 85,340 C85,339.447715 85.4477153,339 86,339 C86.5522847,339 87,339.447715 87,340 C87,340.552285 86.5522847,341 86,341 Z M86,353 C85.4477153,353 85,352.552285 85,352 C85,351.447715 85.4477153,351 86,351 C86.5522847,351 87,351.447715 87,352 C87,352.552285 86.5522847,353 86,353 Z M86,347 C85.4477153,347 85,346.552285 85,346 C85,345.447715 85.4477153,345 86,345 C86.5522847,345 87,345.447715 87,346 C87,346.552285 86.5522847,347 86,347 Z M86,359 C85.4477153,359 85,358.552285 85,358 C85,357.447715 85.4477153,357 86,357 C86.5522847,357 87,357.447715 87,358 C87,358.552285 86.5522847,359 86,359 Z M82,341 C81.4477153,341 81,340.552285 81,340 C81,339.447715 81.4477153,339 82,339 C82.5522847,339 83,339.447715 83,340 C83,340.552285 82.5522847,341 82,341 Z M82,353 C81.4477153,353 81,352.552285 81,352 C81,351.447715 81.4477153,351 82,351 C82.5522847,351 83,351.447715 83,352 C83,352.552285 82.5522847,353 82,353 Z M82,347 C81.4477153,347 81,346.552285 81,346 C81,345.447715 81.4477153,345 82,345 C82.5522847,345 83,345.447715 83,346 C83,346.552285 82.5522847,347 82,347 Z M82,359 C81.4477153,359 81,358.552285 81,358 C81,357.447715 81.4477153,357 82,357 C82.5522847,357 83,357.447715 83,358 C83,358.552285 82.5522847,359 82,359 Z M78,341 C77.4477153,341 77,340.552285 77,340 C77,339.447715 77.4477153,339 78,339 C78.5522847,339 79,339.447715 79,340 C79,340.552285 78.5522847,341 78,341 Z M78,353 C77.4477153,353 77,352.552285 77,352 C77,351.447715 77.4477153,351 78,351 C78.5522847,351 79,351.447715 79,352 C79,352.552285 78.5522847,353 78,353 Z M78,347 C77.4477153,347 77,346.552285 77,346 C77,345.447715 77.4477153,345 78,345 C78.5522847,345 79,345.447715 79,346 C79,346.552285 78.5522847,347 78,347 Z M78,359 C77.4477153,359 77,358.552285 77,358 C77,357.447715 77.4477153,357 78,357 C78.5522847,357 79,357.447715 79,358 C79,358.552285 78.5522847,359 78,359 Z M74,341 C73.4477153,341 73,340.552285 73,340 C73,339.447715 73.4477153,339 74,339 C74.5522847,339 75,339.447715 75,340 C75,340.552285 74.5522847,341 74,341 Z M74,353 C73.4477153,353 73,352.552285 73,352 C73,351.447715 73.4477153,351 74,351 C74.5522847,351 75,351.447715 75,352 C75,352.552285 74.5522847,353 74,353 Z M74,347 C73.4477153,347 73,346.552285 73,346 C73,345.447715 73.4477153,345 74,345 C74.5522847,345 75,345.447715 75,346 C75,346.552285 74.5522847,347 74,347 Z M74,359 C73.4477153,359 73,358.552285 73,358 C73,357.447715 73.4477153,357 74,357 C74.5522847,357 75,357.447715 75,358 C75,358.552285 74.5522847,359 74,359 Z M76,338 C75.4477153,338 75,337.552285 75,337 C75,336.447715 75.4477153,336 76,336 C76.5522847,336 77,336.447715 77,337 C77,337.552285 76.5522847,338 76,338 Z M76,350 C75.4477153,350 75,349.552285 75,349 C75,348.447715 75.4477153,348 76,348 C76.5522847,348 77,348.447715 77,349 C77,349.552285 76.5522847,350 76,350 Z M76,344 C75.4477153,344 75,343.552285 75,343 C75,342.447715 75.4477153,342 76,342 C76.5522847,342 77,342.447715 77,343 C77,343.552285 76.5522847,344 76,344 Z M76,356 C75.4477153,356 75,355.552285 75,355 C75,354.447715 75.4477153,354 76,354 C76.5522847,354 77,354.447715 77,355 C77,355.552285 76.5522847,356 76,356 Z M72,362 C71.4477153,362 71,361.552285 71,361 C71,360.447715 71.4477153,360 72,360 C72.5522847,360 73,360.447715 73,361 C73,361.552285 72.5522847,362 72,362 Z M72,368 C71.4477153,368 71,367.552285 71,367 C71,366.447715 71.4477153,366 72,366 C72.5522847,366 73,366.447715 73,367 C73,367.552285 72.5522847,368 72,368 Z M80,362 C79.4477153,362 79,361.552285 79,361 C79,360.447715 79.4477153,360 80,360 C80.5522847,360 81,360.447715 81,361 C81,361.552285 80.5522847,362 80,362 Z M80,368 C79.4477153,368 79,367.552285 79,367 C79,366.447715 79.4477153,366 80,366 C80.5522847,366 81,366.447715 81,367 C81,367.552285 80.5522847,368 80,368 Z M88,362 C87.4477153,362 87,361.552285 87,361 C87,360.447715 87.4477153,360 88,360 C88.5522847,360 89,360.447715 89,361 C89,361.552285 88.5522847,362 88,362 Z M88,368 C87.4477153,368 87,367.552285 87,367 C87,366.447715 87.4477153,366 88,366 C88.5522847,366 89,366.447715 89,367 C89,367.552285 88.5522847,368 88,368 Z M84,362 C83.4477153,362 83,361.552285 83,361 C83,360.447715 83.4477153,360 84,360 C84.5522847,360 85,360.447715 85,361 C85,361.552285 84.5522847,362 84,362 Z M84,368 C83.4477153,368 83,367.552285 83,367 C83,366.447715 83.4477153,366 84,366 C84.5522847,366 85,366.447715 85,367 C85,367.552285 84.5522847,368 84,368 Z M86,365 C85.4477153,365 85,364.552285 85,364 C85,363.447715 85.4477153,363 86,363 C86.5522847,363 87,363.447715 87,364 C87,364.552285 86.5522847,365 86,365 Z M82,365 C81.4477153,365 81,364.552285 81,364 C81,363.447715 81.4477153,363 82,363 C82.5522847,363 83,363.447715 83,364 C83,364.552285 82.5522847,365 82,365 Z M78,365 C77.4477153,365 77,364.552285 77,364 C77,363.447715 77.4477153,363 78,363 C78.5522847,363 79,363.447715 79,364 C79,364.552285 78.5522847,365 78,365 Z M74,365 C73.4477153,365 73,364.552285 73,364 C73,363.447715 73.4477153,363 74,363 C74.5522847,363 75,363.447715 75,364 C75,364.552285 74.5522847,365 74,365 Z M76,362 C75.4477153,362 75,361.552285 75,361 C75,360.447715 75.4477153,360 76,360 C76.5522847,360 77,360.447715 77,361 C77,361.552285 76.5522847,362 76,362 Z M76,368 C75.4477153,368 75,367.552285 75,367 C75,366.447715 75.4477153,366 76,366 C76.5522847,366 77,366.447715 77,367 C77,367.552285 76.5522847,368 76,368 Z" id="speakers-L" fill="#757575"></path>
        </g>
    </g>
</svg>