<?xml version="1.0" encoding="UTF-8"?>
<svg width="128px" height="128px" viewBox="0 0 128 128" version="1.1" xmlns="http://www.w3.org/2000/svg" xmlns:xlink="http://www.w3.org/1999/xlink">
    <!-- Generator: Sketch 46 (44423) - http://www.bohemiancoding.com/sketch -->
    <title>linkedin</title>
    <desc>Created with Sketch.</desc>
    <defs></defs>
    <g id="assets" stroke="none" stroke-width="1" fill="none" fill-rule="evenodd">
        <g id="linkedin" fill-rule="nonzero" fill="#FFFFFF">
            <g transform="translate(0.000000, 3.000000)" id="LinkedIn">
                <path d="M127.737763,75.0011694 L127.737763,122.226636 L100.359425,122.226636 L100.359425,78.1640464 C100.359425,67.0951647 96.3994432,59.5410858 86.4893921,59.5410858 C78.9243248,59.5410858 74.422348,64.6319814 72.4417633,69.5565661 C71.7194988,71.3170858 71.533587,73.7674988 71.533587,76.2318701 L71.533587,122.226636 L44.1460418,122.226636 C44.1460418,122.226636 44.5148956,47.5990719 44.1460418,39.8670998 L71.5309142,39.8670998 L71.5309142,51.5412343 C71.4753782,51.6285476 71.4032111,51.7226914 71.350942,51.8073318 L71.5309142,51.8073318 L71.5309142,51.5412343 C75.1692622,45.9374478 81.6669698,37.9322506 96.2108585,37.9322506 C114.229754,37.9319536 127.737763,49.7034988 127.737763,75.0011694 Z M15.4975035,0.165716937 C6.12825986,0.165716937 0,6.31120186 0,14.3927239 C0,22.2981346 5.95096056,28.6301253 15.1339954,28.6301253 L15.3169374,28.6301253 C24.8676381,28.6301253 30.8073132,22.2993225 30.8073132,14.3927239 C30.6273411,6.31120186 24.8676381,0.165716937 15.4975035,0.165716937 Z M1.62658005,122.226636 L29.0037309,122.226636 L29.0037309,39.8670998 L1.62658005,39.8670998 L1.62658005,122.226636 Z"></path>
            </g>
        </g>
    </g>
</svg>