<?xml version="1.0" encoding="UTF-8"?>
<svg width="500px" height="500px" viewBox="0 0 500 500" version="1.1" xmlns="http://www.w3.org/2000/svg" xmlns:xlink="http://www.w3.org/1999/xlink">
    <!-- Generator: Sketch 46 (44423) - http://www.bohemiancoding.com/sketch -->
    <title>logo-type-std</title>
    <desc>Created with Sketch.</desc>
    <defs></defs>
    <g id="logo" stroke="none" stroke-width="1" fill="none" fill-rule="evenodd">
        <g id="logo-type-std">
            <g id="logo" transform="translate(100.000000, 100.000000)">
                <rect id="inner-bound" stroke="#424242" stroke-width="0.01" x="0.005" y="0.005" width="299.99" height="299.99"></rect>
                <path d="M129.514358,239.166595 C135.32766,234.228877 142.856752,231.25 151.081597,231.25 C159.732191,231.25 167.557082,234.546273 172.999571,239.525509 C185.97733,251.263463 204.460374,256.381983 222.620307,251.516044 C251.071832,243.892481 267.956232,214.647843 260.332668,186.196318 C255.464759,168.029032 241.781364,154.577971 225.818463,149.441964 C218.176437,147.013044 211.38219,141.835571 207.056893,134.343937 C202.94447,127.221012 201.759707,119.211189 203.129245,111.707863 C207.004085,94.5670918 202.237871,75.73155 188.793959,62.2876383 C167.965997,41.4596761 134.197198,41.4596761 113.369236,62.2876383 C104.310931,71.3459425 99.1921808,82.8519716 98.012984,94.6766419 C97.4757404,100.063977 97.7562399,105.517453 98.8544826,110.835723 C100.519092,118.465978 99.432393,126.938705 95.1070959,134.430339 C90.9946732,141.553264 84.6477741,146.501062 77.4649336,149.066671 C60.6841744,154.282382 46.7520255,167.829032 41.8305263,186.196318 C34.206963,214.647843 51.0913624,243.892481 79.5428879,251.516044 C97.9657437,256.452433 116.721134,251.113156 129.723828,239.011523" id="around" stroke="#424242" stroke-width="8" fill="#424242"></path>
                <path d="M150.240593,133.333333 C131.831101,133.333333 116.907259,118.409492 116.907259,100 C116.907259,81.5905083 131.831101,66.6666667 150.240593,66.6666667 C168.650084,66.6666667 183.573926,81.5905083 183.573926,100 C183.573926,118.409492 168.650084,133.333333 150.240593,133.333333 Z M236.843133,216.666667 C227.638387,232.609754 207.25204,238.072259 191.308953,228.867513 C175.365866,219.662768 169.90336,199.276421 179.108106,183.333333 C188.312852,167.390246 208.699199,161.927741 224.642286,171.132487 C240.585374,180.337232 246.047879,200.723579 236.843133,216.666667 Z M63.6380524,216.666667 C54.4333066,200.723579 59.8958117,180.337232 75.8388992,171.132487 C91.7819866,161.927741 112.168333,167.390246 121.373079,183.333333 C130.577825,199.276421 125.11532,219.662768 109.172233,228.867513 C93.2291451,238.072259 72.8427982,232.609754 63.6380524,216.666667 Z" id="Combined-Shape" stroke="#FFFFFF" stroke-width="8"></path>
            </g>
            <text id="CONNECT-platform" font-family="Futura-Bold, Futura" font-size="28" font-weight="bold" fill="#424242">
                <tspan x="183.256" y="415">CONNECT</tspan>
                <tspan x="213.961" y="451" font-size="18">platform</tspan>
            </text>
        </g>
    </g>
</svg>