<?xml version="1.0" encoding="UTF-8"?>
<svg width="360px" height="360px" viewBox="0 0 360 360" version="1.1" xmlns="http://www.w3.org/2000/svg" xmlns:xlink="http://www.w3.org/1999/xlink">
    <!-- Generator: Sketch 52.5 (67469) - http://www.bohemiancoding.com/sketch -->
    <title>logo-type-std</title>
    <desc>Created with Sketch.</desc>
    <g id="logo-type-std" stroke="none" stroke-width="1" fill="none" fill-rule="evenodd">
        <g id="Group" transform="translate(70.000000, 53.000000)">
            <g id="logo" stroke-width="8">
                <path d="M89.5143581,193.166595 C95.3276603,188.228877 102.856752,185.25 111.081597,185.25 C119.732191,185.25 127.557082,188.546273 132.999571,193.525509 C145.97733,205.263463 164.460374,210.381983 182.620307,205.516044 C211.071832,197.892481 227.956232,168.647843 220.332668,140.196318 C215.464759,122.029032 201.781364,108.577971 185.818463,103.441964 C178.176437,101.013044 171.38219,95.8355712 167.056893,88.3439369 C162.94447,81.2210118 161.759707,73.211189 163.129245,65.7078625 C167.004085,48.5670918 162.237871,29.73155 148.793959,16.2876383 C127.965997,-4.54032389 94.1971978,-4.54032389 73.3692356,16.2876383 C64.3109314,25.3459425 59.1921808,36.8519716 58.012984,48.6766419 C57.4757404,54.063977 57.7562399,59.5174532 58.8544826,64.8357226 C60.5190923,72.4659779 59.432393,80.9387046 55.1070959,88.4303389 C50.9946732,95.553264 44.6477741,100.501062 37.4649336,103.066671 C20.6841744,108.282382 6.75202554,121.829032 1.83052626,140.196318 C-5.79303702,168.647843 11.0913624,197.892481 39.5428879,205.516044 C57.9657437,210.452433 76.7211345,205.113156 89.7238279,193.011523" id="around" stroke="#424242" fill="#424242"></path>
                <path d="M110.240593,87.3333333 C91.8311011,87.3333333 76.9072594,72.4094917 76.9072594,54 C76.9072594,35.5905083 91.8311011,20.6666667 110.240593,20.6666667 C128.650084,20.6666667 143.573926,35.5905083 143.573926,54 C143.573926,72.4094917 128.650084,87.3333333 110.240593,87.3333333 Z M196.843133,170.666667 C187.638387,186.609754 167.25204,192.072259 151.308953,182.867513 C135.365866,173.662768 129.90336,153.276421 139.108106,137.333333 C148.312852,121.390246 168.699199,115.927741 184.642286,125.132487 C200.585374,134.337232 206.047879,154.723579 196.843133,170.666667 Z M23.6380524,170.666667 C14.4333066,154.723579 19.8958117,134.337232 35.8388992,125.132487 C51.7819866,115.927741 72.1683335,121.390246 81.3730793,137.333333 C90.5778251,153.276421 85.11532,173.662768 69.1722325,182.867513 C53.2291451,192.072259 32.8427982,186.609754 23.6380524,170.666667 Z" id="Combined-Shape" stroke="#FFFFFF"></path>
            </g>
            <path d="M54.672,254.944 C53.4026603,253.394659 51.834676,252.62 49.968,252.62 C49.1466626,252.62 48.3860035,252.769332 47.686,253.068 C46.9859965,253.366668 46.3840025,253.772664 45.88,254.286 C45.3759975,254.799336 44.9793348,255.410663 44.69,256.12 C44.4006652,256.829337 44.256,257.594663 44.256,258.416 C44.256,259.256004 44.4006652,260.030663 44.69,260.74 C44.9793348,261.449337 45.3806641,262.065331 45.894,262.588 C46.4073359,263.110669 47.0093299,263.521332 47.7,263.82 C48.3906701,264.118668 49.1373293,264.268 49.94,264.268 C51.6946754,264.268 53.271993,263.521341 54.672,262.028 L54.672,268.524 L54.112,268.72 C53.2719958,269.018668 52.4880036,269.237999 51.76,269.378 C51.0319964,269.518001 50.3133369,269.588 49.604,269.588 C48.1479927,269.588 46.7526733,269.312669 45.418,268.762 C44.0833267,268.211331 42.9073384,267.436672 41.89,266.438 C40.8726616,265.439328 40.0560031,264.254007 39.44,262.882 C38.8239969,261.509993 38.516,260.012008 38.516,258.388 C38.516,256.763992 38.8193303,255.27534 39.426,253.922 C40.0326697,252.56866 40.8446616,251.402005 41.862,250.422 C42.8793384,249.441995 44.0599933,248.676669 45.404,248.126 C46.7480067,247.575331 48.157326,247.3 49.632,247.3 C50.4720042,247.3 51.2979959,247.388666 52.11,247.566 C52.9220041,247.743334 53.7759955,248.018665 54.672,248.392 L54.672,254.944 Z M63.24,258.444 C63.24,259.284004 63.3986651,260.058663 63.716,260.768 C64.0333349,261.477337 64.462664,262.093331 65.004,262.616 C65.545336,263.138669 66.1753297,263.544665 66.894,263.834 C67.6126703,264.123335 68.3733293,264.268 69.176,264.268 C69.9786707,264.268 70.7393297,264.123335 71.458,263.834 C72.1766703,263.544665 72.8113306,263.138669 73.362,262.616 C73.9126694,262.093331 74.3466651,261.477337 74.664,260.768 C74.9813349,260.058663 75.14,259.284004 75.14,258.444 C75.14,257.603996 74.9813349,256.829337 74.664,256.12 C74.3466651,255.410663 73.9126694,254.794669 73.362,254.272 C72.8113306,253.749331 72.1766703,253.343335 71.458,253.054 C70.7393297,252.764665 69.9786707,252.62 69.176,252.62 C68.3733293,252.62 67.6126703,252.764665 66.894,253.054 C66.1753297,253.343335 65.545336,253.749331 65.004,254.272 C64.462664,254.794669 64.0333349,255.410663 63.716,256.12 C63.3986651,256.829337 63.24,257.603996 63.24,258.444 Z M57.5,258.444 C57.5,256.875992 57.7893304,255.41534 58.368,254.062 C58.9466696,252.70866 59.7493282,251.528005 60.776,250.52 C61.8026718,249.511995 63.0299929,248.723336 64.458,248.154 C65.8860071,247.584664 67.4586581,247.3 69.176,247.3 C70.8746752,247.3 72.4426595,247.584664 73.88,248.154 C75.3173405,248.723336 76.5539948,249.511995 77.59,250.52 C78.6260052,251.528005 79.4333304,252.70866 80.012,254.062 C80.5906696,255.41534 80.88,256.875992 80.88,258.444 C80.88,260.012008 80.5906696,261.47266 80.012,262.826 C79.4333304,264.17934 78.6260052,265.359995 77.59,266.368 C76.5539948,267.376005 75.3173405,268.164664 73.88,268.734 C72.4426595,269.303336 70.8746752,269.588 69.176,269.588 C67.4586581,269.588 65.8860071,269.303336 64.458,268.734 C63.0299929,268.164664 61.8026718,267.376005 60.776,266.368 C59.7493282,265.359995 58.9466696,264.17934 58.368,262.826 C57.7893304,261.47266 57.5,260.012008 57.5,258.444 Z M84.352,269 L84.352,247.888 L89.84,247.888 L99.976,260.796 L99.976,247.888 L105.436,247.888 L105.436,269 L99.976,269 L89.84,256.092 L89.84,269 L84.352,269 Z M109.86,269 L109.86,247.888 L115.348,247.888 L125.484,260.796 L125.484,247.888 L130.944,247.888 L130.944,269 L125.484,269 L115.348,256.092 L115.348,269 L109.86,269 Z M147.38,252.536 L140.856,252.536 L140.856,256.064 L147.016,256.064 L147.016,260.712 L140.856,260.712 L140.856,264.352 L147.38,264.352 L147.38,269 L135.368,269 L135.368,247.888 L147.38,247.888 L147.38,252.536 Z M166.532,254.944 C165.26266,253.394659 163.694676,252.62 161.828,252.62 C161.006663,252.62 160.246004,252.769332 159.546,253.068 C158.845997,253.366668 158.244003,253.772664 157.74,254.286 C157.235997,254.799336 156.839335,255.410663 156.55,256.12 C156.260665,256.829337 156.116,257.594663 156.116,258.416 C156.116,259.256004 156.260665,260.030663 156.55,260.74 C156.839335,261.449337 157.240664,262.065331 157.754,262.588 C158.267336,263.110669 158.86933,263.521332 159.56,263.82 C160.25067,264.118668 160.997329,264.268 161.8,264.268 C163.554675,264.268 165.131993,263.521341 166.532,262.028 L166.532,268.524 L165.972,268.72 C165.131996,269.018668 164.348004,269.237999 163.62,269.378 C162.891996,269.518001 162.173337,269.588 161.464,269.588 C160.007993,269.588 158.612673,269.312669 157.278,268.762 C155.943327,268.211331 154.767338,267.436672 153.75,266.438 C152.732662,265.439328 151.916003,264.254007 151.3,262.882 C150.683997,261.509993 150.376,260.012008 150.376,258.388 C150.376,256.763992 150.67933,255.27534 151.286,253.922 C151.89267,252.56866 152.704662,251.402005 153.722,250.422 C154.739338,249.441995 155.919993,248.676669 157.264,248.126 C158.608007,247.575331 160.017326,247.3 161.492,247.3 C162.332004,247.3 163.157996,247.388666 163.97,247.566 C164.782004,247.743334 165.635996,248.018665 166.532,248.392 L166.532,254.944 Z M178.012,252.536 L178.012,269 L172.524,269 L172.524,252.536 L168.016,252.536 L168.016,247.888 L182.52,247.888 L182.52,252.536 L178.012,252.536 Z M76.439,290.41 C76.439,290.121999 76.3880005,289.849001 76.286,289.591 C76.1839995,289.332999 76.037001,289.108001 75.845,288.916 C75.652999,288.723999 75.4280013,288.571001 75.17,288.457 C74.9119987,288.342999 74.6330015,288.286 74.333,288.286 C74.0449986,288.286 73.7750013,288.339999 73.523,288.448 C73.2709987,288.556001 73.0520009,288.705999 72.866,288.898 C72.6799991,289.090001 72.5300006,289.314999 72.416,289.573 C72.3019994,289.831001 72.245,290.103999 72.245,290.392 C72.245,290.680001 72.2989995,290.949999 72.407,291.202 C72.5150005,291.454001 72.664999,291.672999 72.857,291.859 C73.049001,292.045001 73.2739987,292.194999 73.532,292.309 C73.7900013,292.423001 74.0629986,292.48 74.351,292.48 C74.6390014,292.48 74.9089987,292.426001 75.161,292.318 C75.4130013,292.209999 75.6319991,292.060001 75.818,291.868 C76.0040009,291.675999 76.1539994,291.454001 76.268,291.202 C76.3820006,290.949999 76.439,290.686001 76.439,290.41 Z M72.335,299.608 L69.077,299.608 L69.077,285.766 L72.335,285.766 L72.335,286.792 C73.0310035,285.915996 73.978994,285.478 75.179,285.478 C75.8390033,285.478 76.4539972,285.606999 77.024,285.865 C77.5940029,286.123001 78.0889979,286.473998 78.509,286.918 C78.9290021,287.362002 79.2559988,287.883997 79.49,288.484 C79.7240012,289.084003 79.841,289.725997 79.841,290.41 C79.841,291.094003 79.7240012,291.729997 79.49,292.318 C79.2559988,292.906003 78.9320021,293.421998 78.518,293.866 C78.1039979,294.310002 77.6150028,294.657999 77.051,294.91 C76.4869972,295.162001 75.8750033,295.288 75.215,295.288 C74.0629942,295.288 73.1030038,294.892004 72.335,294.1 L72.335,299.608 Z M84.953,280.06 L84.953,295 L81.695,295 L81.695,280.06 L84.953,280.06 Z M90.209,290.356 C90.209,290.656002 90.2629995,290.934999 90.371,291.193 C90.4790005,291.451001 90.6259991,291.675999 90.812,291.868 C90.9980009,292.060001 91.2199987,292.209999 91.478,292.318 C91.7360013,292.426001 92.0149985,292.48 92.315,292.48 C92.6030014,292.48 92.8759987,292.426001 93.134,292.318 C93.3920013,292.209999 93.6139991,292.060001 93.8,291.868 C93.9860009,291.675999 94.1359994,291.454001 94.25,291.202 C94.3640006,290.949999 94.421,290.680001 94.421,290.392 C94.421,290.103999 94.3640006,289.831001 94.25,289.573 C94.1359994,289.314999 93.9860009,289.090001 93.8,288.898 C93.6139991,288.705999 93.3920013,288.556001 93.134,288.448 C92.8759987,288.339999 92.6030014,288.286 92.315,288.286 C92.0149985,288.286 91.7360013,288.339999 91.478,288.448 C91.2199987,288.556001 90.9980009,288.705999 90.812,288.898 C90.6259991,289.090001 90.4790005,289.308999 90.371,289.555 C90.2629995,289.801001 90.209,290.067999 90.209,290.356 Z M94.313,285.766 L97.589,285.766 L97.589,295 L94.313,295 L94.313,293.974 C93.6169965,294.850004 92.6750059,295.288 91.487,295.288 C90.8149966,295.288 90.1970028,295.165001 89.633,294.919 C89.0689972,294.672999 88.5770021,294.328002 88.157,293.884 C87.7369979,293.439998 87.4100012,292.918003 87.176,292.318 C86.9419988,291.717997 86.825,291.064004 86.825,290.356 C86.825,289.695997 86.9389989,289.069003 87.167,288.475 C87.3950011,287.880997 87.712998,287.362002 88.121,286.918 C88.529002,286.473998 89.0149972,286.123001 89.579,285.865 C90.1430028,285.606999 90.7669966,285.478 91.451,285.478 C92.6030058,285.478 93.5569962,285.879996 94.313,286.684 L94.313,285.766 Z M103.439,288.484 L103.439,295 L100.181,295 L100.181,288.484 L99.101,288.484 L99.101,285.766 L100.181,285.766 L100.181,282.994 L103.439,282.994 L103.439,285.766 L105.293,285.766 L105.293,288.484 L103.439,288.484 Z M110.639,288.484 L110.639,295 L107.381,295 L107.381,288.484 L106.211,288.484 L106.211,285.766 L107.381,285.766 L107.381,284.38 C107.381,283.611996 107.452999,283.000002 107.597,282.544 C107.717001,282.159998 107.908999,281.803002 108.173,281.473 C108.437001,281.142998 108.745998,280.858001 109.1,280.618 C109.454002,280.377999 109.834998,280.192001 110.243,280.06 C110.651002,279.927999 111.052998,279.862 111.449,279.862 C111.725001,279.862 111.979999,279.892 112.214,279.952 C112.448001,280.012 112.684999,280.095999 112.925,280.204 L112.925,283.048 C112.708999,282.939999 112.508001,282.859 112.322,282.805 C112.135999,282.751 111.941001,282.724 111.737,282.724 C111.604999,282.724 111.470001,282.745 111.332,282.787 C111.193999,282.829 111.065001,282.915999 110.945,283.048 C110.824999,283.180001 110.744,283.368999 110.702,283.615 C110.66,283.861001 110.639,284.193998 110.639,284.614 L110.639,285.766 L112.925,285.766 L112.925,288.484 L110.639,288.484 Z M117.389,290.338 C117.389,290.650002 117.445999,290.934999 117.56,291.193 C117.674001,291.451001 117.823999,291.675999 118.01,291.868 C118.196001,292.060001 118.417999,292.209999 118.676,292.318 C118.934001,292.426001 119.206999,292.48 119.495,292.48 C119.783001,292.48 120.055999,292.426001 120.314,292.318 C120.572001,292.209999 120.793999,292.060001 120.98,291.868 C121.166001,291.675999 121.315999,291.451001 121.43,291.193 C121.544001,290.934999 121.601,290.656002 121.601,290.356 C121.601,290.067999 121.544001,289.795001 121.43,289.537 C121.315999,289.278999 121.166001,289.054001 120.98,288.862 C120.793999,288.669999 120.572001,288.520001 120.314,288.412 C120.055999,288.303999 119.783001,288.25 119.495,288.25 C119.206999,288.25 118.934001,288.303999 118.676,288.412 C118.417999,288.520001 118.196001,288.669999 118.01,288.862 C117.823999,289.054001 117.674001,289.275999 117.56,289.528 C117.445999,289.780001 117.389,290.049999 117.389,290.338 Z M113.951,290.302 C113.951,289.617997 114.088999,288.979003 114.365,288.385 C114.641001,287.790997 115.024998,287.275002 115.517,286.837 C116.009002,286.398998 116.593997,286.054001 117.272,285.802 C117.950003,285.549999 118.690996,285.424 119.495,285.424 C120.287004,285.424 121.021997,285.546999 121.7,285.793 C122.378003,286.039001 122.965998,286.380998 123.464,286.819 C123.962002,287.257002 124.348999,287.778997 124.625,288.385 C124.901001,288.991003 125.039,289.659996 125.039,290.392 C125.039,291.124004 124.898001,291.792997 124.616,292.399 C124.333999,293.005003 123.947002,293.526998 123.455,293.965 C122.962998,294.403002 122.372003,294.741999 121.682,294.982 C120.991997,295.222001 120.245004,295.342 119.441,295.342 C118.648996,295.342 117.917003,295.222001 117.245,294.982 C116.572997,294.741999 115.994002,294.400002 115.508,293.956 C115.021998,293.511998 114.641001,292.981003 114.365,292.363 C114.088999,291.744997 113.951,291.058004 113.951,290.302 Z M126.911,285.766 L130.169,285.766 L130.169,287.278 C130.517002,286.725997 130.942997,286.303001 131.447,286.009 C131.951003,285.714999 132.538997,285.568 133.211,285.568 L133.49,285.568 C133.592001,285.568 133.708999,285.58 133.841,285.604 L133.841,288.718 C133.408998,288.501999 132.941003,288.394 132.437,288.394 C131.680996,288.394 131.114002,288.618998 130.736,289.069 C130.357998,289.519002 130.169,290.175996 130.169,291.04 L130.169,295 L126.911,295 L126.911,285.766 Z M135.299,285.766 L138.557,285.766 L138.557,286.9 C139.445004,286.047996 140.440994,285.622 141.545,285.622 C142.913007,285.622 143.956996,286.197994 144.677,287.35 C145.409004,286.185994 146.452993,285.604 147.809,285.604 C148.241002,285.604 148.648998,285.666999 149.033,285.793 C149.417002,285.919001 149.746999,286.116999 150.023,286.387 C150.299001,286.657001 150.517999,287.007998 150.68,287.44 C150.842001,287.872002 150.923,288.393997 150.923,289.006 L150.923,295 L147.665,295 L147.665,290.446 C147.665,289.977998 147.632,289.594001 147.566,289.294 C147.5,288.993998 147.404001,288.760001 147.278,288.592 C147.151999,288.423999 147.005001,288.31 146.837,288.25 C146.668999,288.19 146.489001,288.16 146.297,288.16 C145.252995,288.16 144.731,288.921992 144.731,290.446 L144.731,295 L141.473,295 L141.473,290.446 C141.473,289.977998 141.443,289.591002 141.383,289.285 C141.323,288.978998 141.236001,288.736001 141.122,288.556 C141.007999,288.375999 140.861001,288.253 140.681,288.187 C140.500999,288.121 140.291001,288.088 140.051,288.088 C139.846999,288.088 139.655001,288.118 139.475,288.178 C139.294999,288.238 139.136001,288.354999 138.998,288.529 C138.859999,288.703001 138.752,288.942998 138.674,289.249 C138.596,289.555002 138.557,289.953998 138.557,290.446 L138.557,295 L135.299,295 L135.299,285.766 Z" id="CONNECT-platform" fill="#424242"></path>
        </g>
    </g>
</svg>
