<?xml version="1.0" encoding="UTF-8"?>
<svg width="275px" height="368px" viewBox="0 0 275 368" version="1.1" xmlns="http://www.w3.org/2000/svg" xmlns:xlink="http://www.w3.org/1999/xlink">
    <!-- Generator: Sketch 46 (44423) - http://www.bohemiancoding.com/sketch -->
    <title>logo</title>
    <desc>Created with Sketch.</desc>
    <defs></defs>
    <g id="Page-1" stroke="none" stroke-width="1" fill="none" fill-rule="evenodd">
        <g id="logo" transform="translate(4.000000, 4.000000)">
            <g stroke-width="8">
                <path d="M107.41723,230.999914 C114.393192,225.074652 123.428102,221.5 133.297917,221.5 C143.67863,221.5 153.068498,225.455527 159.599485,231.430611 C175.172797,245.516156 197.352449,251.65838 219.144368,245.819253 C253.286199,236.670977 273.547478,201.577412 264.399202,167.435581 C258.55771,145.634838 242.137636,129.493565 222.982156,123.330356 C213.811724,120.415653 205.658628,114.202685 200.468271,105.212724 C195.533364,96.665214 194.111649,87.053427 195.755094,78.049435 C200.404901,57.48051 194.685445,34.87786 178.552751,18.745166 C153.559196,-6.248389 113.036637,-6.248389 88.043083,18.745166 C77.173118,29.615131 71.030617,43.422366 69.615581,57.61197 C68.970888,64.076772 69.307488,70.620944 70.625379,77.002867 C72.622911,86.159174 71.318872,96.326446 66.128515,105.316407 C61.193608,113.863917 53.577329,119.801275 44.95792,122.880005 C24.821009,129.138859 8.102431,145.394839 2.196632,167.435581 C-6.951644,201.577412 13.309635,236.670977 47.451466,245.819253 C69.558892,251.74292 92.065361,245.335787 107.668594,230.813828" id="around" stroke="#B2FF59"></path>
                <path d="M133.297917,104 C111.206527,104 93.297917,86.09139 93.297917,64 C93.297917,41.90861 111.206527,24 133.297917,24 C155.389307,24 173.297917,41.90861 173.297917,64 C173.297917,86.09139 155.389307,104 133.297917,104 Z M237.220965,204 C226.17527,223.131705 201.711654,229.686711 182.579949,218.641016 C163.448244,207.595321 156.893238,183.131705 167.938933,164 C178.984628,144.868295 203.448244,138.313289 222.579949,149.358984 C241.711654,160.404679 248.26666,184.868295 237.220965,204 Z M29.374868,204 C18.329173,184.868295 24.884179,160.404679 44.015884,149.358984 C63.147589,138.313289 87.611206,144.868295 98.656901,164 C109.702596,183.131705 103.147589,207.595321 84.015884,218.641016 C64.884179,229.686711 40.420563,223.131705 29.374868,204 Z" id="Combined-Shape" stroke="#FFFFFF"></path>
            </g>
            <path d="M76.672,308.944 C75.4026603,307.394659 73.834676,306.62 71.968,306.62 C71.1466626,306.62 70.3860035,306.769332 69.686,307.068 C68.9859965,307.366668 68.3840025,307.772664 67.88,308.286 C67.3759975,308.799336 66.9793348,309.410663 66.69,310.12 C66.4006652,310.829337 66.256,311.594663 66.256,312.416 C66.256,313.256004 66.4006652,314.030663 66.69,314.74 C66.9793348,315.449337 67.3806641,316.065331 67.894,316.588 C68.4073359,317.110669 69.0093299,317.521332 69.7,317.82 C70.3906701,318.118668 71.1373293,318.268 71.94,318.268 C73.6946754,318.268 75.271993,317.521341 76.672,316.028 L76.672,322.524 L76.112,322.72 C75.2719958,323.018668 74.4880036,323.237999 73.76,323.378 C73.0319964,323.518001 72.3133369,323.588 71.604,323.588 C70.1479927,323.588 68.7526733,323.312669 67.418,322.762 C66.0833267,322.211331 64.9073384,321.436672 63.89,320.438 C62.8726616,319.439328 62.0560031,318.254007 61.44,316.882 C60.8239969,315.509993 60.516,314.012008 60.516,312.388 C60.516,310.763992 60.8193303,309.27534 61.426,307.922 C62.0326697,306.56866 62.8446616,305.402005 63.862,304.422 C64.8793384,303.441995 66.0599933,302.676669 67.404,302.126 C68.7480067,301.575331 70.157326,301.3 71.632,301.3 C72.4720042,301.3 73.2979959,301.388666 74.11,301.566 C74.9220041,301.743334 75.7759955,302.018665 76.672,302.392 L76.672,308.944 Z M85.24,312.444 C85.24,313.284004 85.3986651,314.058663 85.716,314.768 C86.0333349,315.477337 86.462664,316.093331 87.004,316.616 C87.545336,317.138669 88.1753297,317.544665 88.894,317.834 C89.6126703,318.123335 90.3733293,318.268 91.176,318.268 C91.9786707,318.268 92.7393297,318.123335 93.458,317.834 C94.1766703,317.544665 94.8113306,317.138669 95.362,316.616 C95.9126694,316.093331 96.3466651,315.477337 96.664,314.768 C96.9813349,314.058663 97.14,313.284004 97.14,312.444 C97.14,311.603996 96.9813349,310.829337 96.664,310.12 C96.3466651,309.410663 95.9126694,308.794669 95.362,308.272 C94.8113306,307.749331 94.1766703,307.343335 93.458,307.054 C92.7393297,306.764665 91.9786707,306.62 91.176,306.62 C90.3733293,306.62 89.6126703,306.764665 88.894,307.054 C88.1753297,307.343335 87.545336,307.749331 87.004,308.272 C86.462664,308.794669 86.0333349,309.410663 85.716,310.12 C85.3986651,310.829337 85.24,311.603996 85.24,312.444 Z M79.5,312.444 C79.5,310.875992 79.7893304,309.41534 80.368,308.062 C80.9466696,306.70866 81.7493282,305.528005 82.776,304.52 C83.8026718,303.511995 85.0299929,302.723336 86.458,302.154 C87.8860071,301.584664 89.4586581,301.3 91.176,301.3 C92.8746752,301.3 94.4426595,301.584664 95.88,302.154 C97.3173405,302.723336 98.5539948,303.511995 99.59,304.52 C100.626005,305.528005 101.43333,306.70866 102.012,308.062 C102.59067,309.41534 102.88,310.875992 102.88,312.444 C102.88,314.012008 102.59067,315.47266 102.012,316.826 C101.43333,318.17934 100.626005,319.359995 99.59,320.368 C98.5539948,321.376005 97.3173405,322.164664 95.88,322.734 C94.4426595,323.303336 92.8746752,323.588 91.176,323.588 C89.4586581,323.588 87.8860071,323.303336 86.458,322.734 C85.0299929,322.164664 83.8026718,321.376005 82.776,320.368 C81.7493282,319.359995 80.9466696,318.17934 80.368,316.826 C79.7893304,315.47266 79.5,314.012008 79.5,312.444 Z M106.352,323 L106.352,301.888 L111.84,301.888 L121.976,314.796 L121.976,301.888 L127.436,301.888 L127.436,323 L121.976,323 L111.84,310.092 L111.84,323 L106.352,323 Z M131.86,323 L131.86,301.888 L137.348,301.888 L147.484,314.796 L147.484,301.888 L152.944,301.888 L152.944,323 L147.484,323 L137.348,310.092 L137.348,323 L131.86,323 Z M169.38,306.536 L162.856,306.536 L162.856,310.064 L169.016,310.064 L169.016,314.712 L162.856,314.712 L162.856,318.352 L169.38,318.352 L169.38,323 L157.368,323 L157.368,301.888 L169.38,301.888 L169.38,306.536 Z M188.532,308.944 C187.26266,307.394659 185.694676,306.62 183.828,306.62 C183.006663,306.62 182.246003,306.769332 181.546,307.068 C180.845996,307.366668 180.244003,307.772664 179.74,308.286 C179.235997,308.799336 178.839335,309.410663 178.55,310.12 C178.260665,310.829337 178.116,311.594663 178.116,312.416 C178.116,313.256004 178.260665,314.030663 178.55,314.74 C178.839335,315.449337 179.240664,316.065331 179.754,316.588 C180.267336,317.110669 180.86933,317.521332 181.56,317.82 C182.25067,318.118668 182.997329,318.268 183.8,318.268 C185.554675,318.268 187.131993,317.521341 188.532,316.028 L188.532,322.524 L187.972,322.72 C187.131996,323.018668 186.348004,323.237999 185.62,323.378 C184.891996,323.518001 184.173337,323.588 183.464,323.588 C182.007993,323.588 180.612673,323.312669 179.278,322.762 C177.943327,322.211331 176.767338,321.436672 175.75,320.438 C174.732662,319.439328 173.916003,318.254007 173.3,316.882 C172.683997,315.509993 172.376,314.012008 172.376,312.388 C172.376,310.763992 172.67933,309.27534 173.286,307.922 C173.89267,306.56866 174.704662,305.402005 175.722,304.422 C176.739338,303.441995 177.919993,302.676669 179.264,302.126 C180.608007,301.575331 182.017326,301.3 183.492,301.3 C184.332004,301.3 185.157996,301.388666 185.97,301.566 C186.782004,301.743334 187.635996,302.018665 188.532,302.392 L188.532,308.944 Z M200.012,306.536 L200.012,323 L194.524,323 L194.524,306.536 L190.016,306.536 L190.016,301.888 L204.52,301.888 L204.52,306.536 L200.012,306.536 Z" id="CONNECT" fill="#FFFFFF"></path>
            <path d="M98.439,354.41 C98.439,354.121999 98.3880005,353.849001 98.286,353.591 C98.1839995,353.332999 98.037001,353.108001 97.845,352.916 C97.652999,352.723999 97.4280013,352.571001 97.17,352.457 C96.9119987,352.342999 96.6330015,352.286 96.333,352.286 C96.0449986,352.286 95.7750013,352.339999 95.523,352.448 C95.2709987,352.556001 95.0520009,352.705999 94.866,352.898 C94.6799991,353.090001 94.5300006,353.314999 94.416,353.573 C94.3019994,353.831001 94.245,354.103999 94.245,354.392 C94.245,354.680001 94.2989995,354.949999 94.407,355.202 C94.5150005,355.454001 94.664999,355.672999 94.857,355.859 C95.049001,356.045001 95.2739987,356.194999 95.532,356.309 C95.7900013,356.423001 96.0629986,356.48 96.351,356.48 C96.6390014,356.48 96.9089987,356.426001 97.161,356.318 C97.4130013,356.209999 97.6319991,356.060001 97.818,355.868 C98.0040009,355.675999 98.1539994,355.454001 98.268,355.202 C98.3820006,354.949999 98.439,354.686001 98.439,354.41 Z M94.335,363.608 L91.077,363.608 L91.077,349.766 L94.335,349.766 L94.335,350.792 C95.0310035,349.915996 95.978994,349.478 97.179,349.478 C97.8390033,349.478 98.4539972,349.606999 99.024,349.865 C99.5940029,350.123001 100.088998,350.473998 100.509,350.918 C100.929002,351.362002 101.255999,351.883997 101.49,352.484 C101.724001,353.084003 101.841,353.725997 101.841,354.41 C101.841,355.094003 101.724001,355.729997 101.49,356.318 C101.255999,356.906003 100.932002,357.421998 100.518,357.866 C100.103998,358.310002 99.6150028,358.657999 99.051,358.91 C98.4869972,359.162001 97.8750033,359.288 97.215,359.288 C96.0629942,359.288 95.1030038,358.892004 94.335,358.1 L94.335,363.608 Z M106.953,344.06 L106.953,359 L103.695,359 L103.695,344.06 L106.953,344.06 Z M112.209,354.356 C112.209,354.656002 112.262999,354.934999 112.371,355.193 C112.479001,355.451001 112.625999,355.675999 112.812,355.868 C112.998001,356.060001 113.219999,356.209999 113.478,356.318 C113.736001,356.426001 114.014999,356.48 114.315,356.48 C114.603001,356.48 114.875999,356.426001 115.134,356.318 C115.392001,356.209999 115.613999,356.060001 115.8,355.868 C115.986001,355.675999 116.135999,355.454001 116.25,355.202 C116.364001,354.949999 116.421,354.680001 116.421,354.392 C116.421,354.103999 116.364001,353.831001 116.25,353.573 C116.135999,353.314999 115.986001,353.090001 115.8,352.898 C115.613999,352.705999 115.392001,352.556001 115.134,352.448 C114.875999,352.339999 114.603001,352.286 114.315,352.286 C114.014999,352.286 113.736001,352.339999 113.478,352.448 C113.219999,352.556001 112.998001,352.705999 112.812,352.898 C112.625999,353.090001 112.479001,353.308999 112.371,353.555 C112.262999,353.801001 112.209,354.067999 112.209,354.356 Z M116.313,349.766 L119.589,349.766 L119.589,359 L116.313,359 L116.313,357.974 C115.616997,358.850004 114.675006,359.288 113.487,359.288 C112.814997,359.288 112.197003,359.165001 111.633,358.919 C111.068997,358.672999 110.577002,358.328002 110.157,357.884 C109.736998,357.439998 109.410001,356.918003 109.176,356.318 C108.941999,355.717997 108.825,355.064004 108.825,354.356 C108.825,353.695997 108.938999,353.069003 109.167,352.475 C109.395001,351.880997 109.712998,351.362002 110.121,350.918 C110.529002,350.473998 111.014997,350.123001 111.579,349.865 C112.143003,349.606999 112.766997,349.478 113.451,349.478 C114.603006,349.478 115.556996,349.879996 116.313,350.684 L116.313,349.766 Z M125.439,352.484 L125.439,359 L122.181,359 L122.181,352.484 L121.101,352.484 L121.101,349.766 L122.181,349.766 L122.181,346.994 L125.439,346.994 L125.439,349.766 L127.293,349.766 L127.293,352.484 L125.439,352.484 Z M132.639,352.484 L132.639,359 L129.381,359 L129.381,352.484 L128.211,352.484 L128.211,349.766 L129.381,349.766 L129.381,348.38 C129.381,347.611996 129.452999,347.000002 129.597,346.544 C129.717001,346.159998 129.908999,345.803002 130.173,345.473 C130.437001,345.142998 130.745998,344.858001 131.1,344.618 C131.454002,344.377999 131.834998,344.192001 132.243,344.06 C132.651002,343.927999 133.052998,343.862 133.449,343.862 C133.725001,343.862 133.979999,343.892 134.214,343.952 C134.448001,344.012 134.684999,344.095999 134.925,344.204 L134.925,347.048 C134.708999,346.939999 134.508001,346.859 134.322,346.805 C134.135999,346.751 133.941001,346.724 133.737,346.724 C133.604999,346.724 133.470001,346.745 133.332,346.787 C133.193999,346.829 133.065001,346.915999 132.945,347.048 C132.824999,347.180001 132.744,347.368999 132.702,347.615 C132.66,347.861001 132.639,348.193998 132.639,348.614 L132.639,349.766 L134.925,349.766 L134.925,352.484 L132.639,352.484 Z M139.389,354.338 C139.389,354.650002 139.445999,354.934999 139.56,355.193 C139.674001,355.451001 139.823999,355.675999 140.01,355.868 C140.196001,356.060001 140.417999,356.209999 140.676,356.318 C140.934001,356.426001 141.206999,356.48 141.495,356.48 C141.783001,356.48 142.055999,356.426001 142.314,356.318 C142.572001,356.209999 142.793999,356.060001 142.98,355.868 C143.166001,355.675999 143.315999,355.451001 143.43,355.193 C143.544001,354.934999 143.601,354.656002 143.601,354.356 C143.601,354.067999 143.544001,353.795001 143.43,353.537 C143.315999,353.278999 143.166001,353.054001 142.98,352.862 C142.793999,352.669999 142.572001,352.520001 142.314,352.412 C142.055999,352.303999 141.783001,352.25 141.495,352.25 C141.206999,352.25 140.934001,352.303999 140.676,352.412 C140.417999,352.520001 140.196001,352.669999 140.01,352.862 C139.823999,353.054001 139.674001,353.275999 139.56,353.528 C139.445999,353.780001 139.389,354.049999 139.389,354.338 Z M135.951,354.302 C135.951,353.617997 136.088999,352.979003 136.365,352.385 C136.641001,351.790997 137.024998,351.275002 137.517,350.837 C138.009002,350.398998 138.593997,350.054001 139.272,349.802 C139.950003,349.549999 140.690996,349.424 141.495,349.424 C142.287004,349.424 143.021997,349.546999 143.7,349.793 C144.378003,350.039001 144.965998,350.380998 145.464,350.819 C145.962002,351.257002 146.348999,351.778997 146.625,352.385 C146.901001,352.991003 147.039,353.659996 147.039,354.392 C147.039,355.124004 146.898001,355.792997 146.616,356.399 C146.333999,357.005003 145.947002,357.526998 145.455,357.965 C144.962998,358.403002 144.372003,358.741999 143.682,358.982 C142.991997,359.222001 142.245004,359.342 141.441,359.342 C140.648996,359.342 139.917003,359.222001 139.245,358.982 C138.572997,358.741999 137.994002,358.400002 137.508,357.956 C137.021998,357.511998 136.641001,356.981003 136.365,356.363 C136.088999,355.744997 135.951,355.058004 135.951,354.302 Z M148.911,349.766 L152.169,349.766 L152.169,351.278 C152.517002,350.725997 152.942997,350.303001 153.447,350.009 C153.951003,349.714999 154.538997,349.568 155.211,349.568 L155.49,349.568 C155.592001,349.568 155.708999,349.58 155.841,349.604 L155.841,352.718 C155.408998,352.501999 154.941003,352.394 154.437,352.394 C153.680996,352.394 153.114002,352.618998 152.736,353.069 C152.357998,353.519002 152.169,354.175996 152.169,355.04 L152.169,359 L148.911,359 L148.911,349.766 Z M157.299,349.766 L160.557,349.766 L160.557,350.9 C161.445004,350.047996 162.440994,349.622 163.545,349.622 C164.913007,349.622 165.956996,350.197994 166.677,351.35 C167.409004,350.185994 168.452993,349.604 169.809,349.604 C170.241002,349.604 170.648998,349.666999 171.033,349.793 C171.417002,349.919001 171.746999,350.116999 172.023,350.387 C172.299001,350.657001 172.517999,351.007998 172.68,351.44 C172.842001,351.872002 172.923,352.393997 172.923,353.006 L172.923,359 L169.665,359 L169.665,354.446 C169.665,353.977998 169.632,353.594001 169.566,353.294 C169.5,352.993998 169.404001,352.760001 169.278,352.592 C169.151999,352.423999 169.005001,352.31 168.837,352.25 C168.668999,352.19 168.489001,352.16 168.297,352.16 C167.252995,352.16 166.731,352.921992 166.731,354.446 L166.731,359 L163.473,359 L163.473,354.446 C163.473,353.977998 163.443,353.591002 163.383,353.285 C163.323,352.978998 163.236001,352.736001 163.122,352.556 C163.007999,352.375999 162.861001,352.253 162.681,352.187 C162.500999,352.121 162.291001,352.088 162.051,352.088 C161.846999,352.088 161.655001,352.118 161.475,352.178 C161.294999,352.238 161.136001,352.354999 160.998,352.529 C160.859999,352.703001 160.752,352.942998 160.674,353.249 C160.596,353.555002 160.557,353.953998 160.557,354.446 L160.557,359 L157.299,359 L157.299,349.766 Z" id="platform" fill="#FFFFFF"></path>
        </g>
    </g>
</svg>