<?xml version="1.0" encoding="UTF-8"?>
<svg width="300px" height="300px" viewBox="0 0 300 300" version="1.1" xmlns="http://www.w3.org/2000/svg" xmlns:xlink="http://www.w3.org/1999/xlink">
    <!-- Generator: Sketch 46 (44423) - http://www.bohemiancoding.com/sketch -->
    <title>logo-std</title>
    <desc>Created with Sketch.</desc>
    <defs>
        <path d="M78.5076118,255.379747 C47.9222219,247.184417 29.7714924,215.746431 37.966823,185.161042 C43.1106372,165.964065 57.6646479,151.063299 76.1941654,145.272957 C82.7184135,142.923594 88.1534489,138.474409 91.6429943,132.430339 C95.3379691,126.030455 96.4565236,118.610423 94.9371359,111.64467 C93.7586987,105.938056 93.4544866,100.078151 94.0327264,94.2797169 C95.336525,81.205573 101.055949,68.9440705 110.540809,59.4592112 C132.930868,37.0691518 169.232327,37.0691518 191.622386,59.4592111 C205.674656,73.5114808 211.301375,93.5631529 207.050077,112.504254 C205.832919,119.275235 207.007415,126.25824 210.520995,132.343937 C214.229275,138.766867 220.105581,143.429017 227.043597,145.634203 C244.850862,151.363627 259.124246,166.231612 264.196371,185.161042 C272.391703,215.746431 254.240973,247.184417 223.655583,255.379747 C204.628003,260.478172 184.654493,255.46042 170.299536,242.476748 C165.354309,237.952448 158.408227,235.25 151.081597,235.25 C144.177643,235.25 137.652497,237.638356 132.442149,241.932244 C118.087275,255.306052 97.8155223,260.553286 78.5076118,255.379747 Z" id="path-1"></path>
    </defs>
    <g id="Page-1" stroke="none" stroke-width="1" fill="none" fill-rule="evenodd">
        <g id="logo-std">
            <rect id="inner-bound" stroke="#424242" stroke-width="0.01" x="0.005" y="0.005" width="299.99" height="299.99"></rect>
            <g id="Combined-Shape" fill-rule="nonzero">
                <use fill="#424242" fill-rule="evenodd" xlink:href="#path-1"></use>
                <path stroke="#FFFFFF" stroke-width="8" d="M74.9152516,141.481922 C80.5764655,139.423948 85.2069329,135.577924 88.1788927,130.430339 C91.3475061,124.94214 92.3482711,118.545307 91.0197892,112.453617 C89.7599393,106.352759 89.4338331,100.086306 90.0524688,93.8827919 C91.4570213,79.7983146 97.6386107,66.7045543 107.712382,56.6307841 C131.664538,32.6786275 170.498657,32.6786275 194.450813,56.630784 C209.348217,71.5281871 215.518643,92.897648 210.972712,113.292018 C209.937259,119.158683 210.983567,125.145135 213.985096,130.343937 C217.167815,135.856568 222.21598,139.902603 228.268731,141.826441 C247.529858,148.023641 262.680486,164.048866 268.060075,184.125765 C276.827173,216.845019 257.410114,250.476353 224.690859,259.243451 C204.480761,264.65873 183.078341,259.428268 167.5995,245.427986 C163.33798,241.529197 157.33216,239.25 151.081597,239.25 C145.196887,239.25 139.594387,241.255567 135.075063,244.946059 C119.617335,259.287867 97.9396084,264.727639 77.4723356,259.243451 C44.7530814,250.476353 25.3360218,216.84502 34.1031197,184.125766 C39.5561821,163.774659 54.9793481,147.743837 74.9152516,141.481922 Z"></path>
            </g>
            <path d="M150.240593,133.333333 C131.831101,133.333333 116.907259,118.409492 116.907259,100 C116.907259,81.5905083 131.831101,66.6666667 150.240593,66.6666667 C168.650084,66.6666667 183.573926,81.5905083 183.573926,100 C183.573926,118.409492 168.650084,133.333333 150.240593,133.333333 Z M236.843133,216.666667 C227.638387,232.609754 207.25204,238.072259 191.308953,228.867513 C175.365866,219.662768 169.90336,199.276421 179.108106,183.333333 C188.312852,167.390246 208.699199,161.927741 224.642286,171.132487 C240.585374,180.337232 246.047879,200.723579 236.843133,216.666667 Z M63.6380524,216.666667 C54.4333066,200.723579 59.8958117,180.337232 75.8388992,171.132487 C91.7819866,161.927741 112.168333,167.390246 121.373079,183.333333 C130.577825,199.276421 125.11532,219.662768 109.172233,228.867513 C93.2291451,238.072259 72.8427982,232.609754 63.6380524,216.666667 Z" id="Combined-Shape" stroke="#FFFFFF" stroke-width="8"></path>
        </g>
    </g>
</svg>