<?xml version="1.0" encoding="UTF-8"?>
<svg width="300px" height="300px" viewBox="0 0 300 300" version="1.1" xmlns="http://www.w3.org/2000/svg" xmlns:xlink="http://www.w3.org/1999/xlink">
    <!-- Generator: Sketch 46 (44423) - http://www.bohemiancoding.com/sketch -->
    <title>logo-std</title>
    <desc>Created with Sketch.</desc>
    <defs></defs>
    <g id="Page-1" stroke="none" stroke-width="1" fill="none" fill-rule="evenodd">
        <g id="logo-std">
            <rect id="inner-bound" stroke-opacity="0.01" stroke="#424242" stroke-width="0.01" x="0.005" y="0.005" width="299.99" height="299.99"></rect>
            <g id="Combined-Shape" transform="translate(31.000000, 38.000000)">
                <g id="path-1-link" transform="translate(4.000000, 4.000000)" fill="#424242">
                    <path d="M43.5076118,213.379747 C12.9222219,205.184417 -5.2285076,173.746431 2.966823,143.161042 C8.1106372,123.964065 22.6646479,109.063299 41.1941654,103.272957 C47.7184135,100.923594 53.1534489,96.474409 56.6429943,90.430339 C60.3379691,84.030455 61.4565236,76.610423 59.9371359,69.64467 C58.7586987,63.938056 58.4544866,58.078151 59.0327264,52.2797169 C60.336525,39.205573 66.055949,26.9440705 75.540809,17.4592112 C97.930868,-4.9308482 134.232327,-4.9308482 156.622386,17.4592111 C170.674656,31.5114808 176.301375,51.5631529 172.050077,70.504254 C170.832919,77.275235 172.007415,84.25824 175.520995,90.343937 C179.229275,96.766867 185.105581,101.429017 192.043597,103.634203 C209.850862,109.363627 224.124246,124.231612 229.196371,143.161042 C237.391703,173.746431 219.240973,205.184417 188.655583,213.379747 C169.628003,218.478172 149.654493,213.46042 135.299536,200.476748 C130.354309,195.952448 123.408227,193.25 116.081597,193.25 C109.177643,193.25 102.652497,195.638356 97.442149,199.932244 C83.087275,213.306052 62.8155223,218.553286 43.5076118,213.379747 Z" id="path-1"></path>
                </g>
                <path d="M43.9152516,103.481922 C49.5764655,101.423948 54.2069329,97.577924 57.1788927,92.430339 C60.3475061,86.94214 61.3482711,80.545307 60.0197892,74.453617 C58.7599393,68.352759 58.4338331,62.086306 59.0524688,55.8827919 C60.4570213,41.7983146 66.6386107,28.7045543 76.712382,18.6307841 C100.664538,-5.3213725 139.498657,-5.3213725 163.450813,18.630784 C178.348217,33.5281871 184.518643,54.897648 179.972712,75.292018 C178.937259,81.158683 179.983567,87.145135 182.985096,92.343937 C186.167815,97.856568 191.21598,101.902603 197.268731,103.826441 C216.529858,110.023641 231.680486,126.048866 237.060075,146.125765 C245.827173,178.845019 226.410114,212.476353 193.690859,221.243451 C173.480761,226.65873 152.078341,221.428268 136.5995,207.427986 C132.33798,203.529197 126.33216,201.25 120.081597,201.25 C114.196887,201.25 108.594387,203.255567 104.075063,206.946059 C88.617335,221.287867 66.9396084,226.727639 46.4723356,221.243451 C13.7530814,212.476353 -5.6639782,178.84502 3.1031197,146.125766 C8.5561821,125.774659 23.9793481,109.743837 43.9152516,103.481922 Z" id="Shape" stroke="#FFFFFF" stroke-width="8"></path>
            </g>
            <path d="M150.240593,133.333333 C131.831101,133.333333 116.907259,118.409492 116.907259,100 C116.907259,81.5905083 131.831101,66.6666667 150.240593,66.6666667 C168.650084,66.6666667 183.573926,81.5905083 183.573926,100 C183.573926,118.409492 168.650084,133.333333 150.240593,133.333333 Z M236.843133,216.666667 C227.638387,232.609754 207.25204,238.072259 191.308953,228.867513 C175.365866,219.662768 169.90336,199.276421 179.108106,183.333333 C188.312852,167.390246 208.699199,161.927741 224.642286,171.132487 C240.585374,180.337232 246.047879,200.723579 236.843133,216.666667 Z M63.6380524,216.666667 C54.4333066,200.723579 59.8958117,180.337232 75.8388992,171.132487 C91.7819866,161.927741 112.168333,167.390246 121.373079,183.333333 C130.577825,199.276421 125.11532,219.662768 109.172233,228.867513 C93.2291451,238.072259 72.8427982,232.609754 63.6380524,216.666667 Z" id="Combined-Shape" stroke="#FFFFFF" stroke-width="8"></path>
        </g>
    </g>
</svg>