<?xml version="1.0" encoding="UTF-8"?>
<svg width="256px" height="256px" viewBox="0 0 256 256" version="1.1" xmlns="http://www.w3.org/2000/svg" xmlns:xlink="http://www.w3.org/1999/xlink">
    <!-- Generator: Sketch 46 (44423) - http://www.bohemiancoding.com/sketch -->
    <title>macrologic</title>
    <desc>Created with Sketch.</desc>
    <defs></defs>
    <g id="assets" stroke="none" stroke-width="1" fill="none" fill-rule="evenodd">
        <g id="macrologic" stroke="#000000" stroke-width="2">
            <path d="M95.0214606,84.1526371 L162.755936,66.0032391 L163.161102,66.5490861 C165.224618,69.3290928 168.472243,71 172,71 C178.075132,71 183,66.0751322 183,60 C183,53.9248678 178.075132,49 172,49 C166.09846,49 161.25443,53.6578113 161.009695,59.5335426 L160.979117,60.2676793 L93.4705055,78.3565572 L93.0701529,77.7744857 C91.029598,74.807729 87.6682047,73 84,73 C77.9248678,73 73,77.9248678 73,84 C73,90.0751322 77.9248678,95 84,95 C89.7557479,95 94.527308,90.5623245 94.9670446,84.858471 L95.0214606,84.1526371 Z M186.672226,89.8761132 L121.389904,162.379477 L120.71641,162.059314 C119.255932,161.365037 117.654877,161 116,161 C109.924868,161 105,165.924868 105,172 C105,178.075132 109.924868,183 116,183 C122.075132,183 127,178.075132 127,172 C127,170.329019 126.627812,168.712977 125.920475,167.241307 L125.630088,166.637135 L191.130254,93.8918307 L191.783607,94.1632205 C193.107742,94.7132392 194.533014,95 196,95 C202.075132,95 207,90.0751322 207,84 C207,77.9248678 202.075132,73 196,73 C189.924868,73 185,77.9248678 185,84 C185,85.8626383 185.462659,87.6560934 186.333575,89.2545586 L186.672226,89.8761132 Z M137,247 L143,247 L143,206.610001 L143.666754,206.374337 C148.025857,204.833615 151,200.699399 151,196 C151,189.924868 146.075132,185 140,185 C133.924868,185 129,189.924868 129,196 C129,200.699399 131.974143,204.833615 136.333246,206.374337 L137,206.610001 L137,247 Z M9,57 L9,63 L49.389999,63 L49.6256627,63.6667539 C51.1663847,68.0258572 55.3006013,71 60,71 C66.0751322,71 71,66.0751322 71,60 C71,53.9248678 66.0751322,49 60,49 C55.3006013,49 51.1663847,51.9741428 49.6256627,56.3332461 L49.389999,57 L9,57 Z M127,217 L104,217 C99.0294373,217 95,212.970563 95,208 L95,160 C95,155.029437 99.0294373,151 104,151 L118.179704,151 L123.582128,145 L104,145 C95.7157288,145 89,151.715729 89,160 L89,208 C89,216.284271 95.7157288,223 104,223 L127,223 L127,217 Z M153,216.945071 L153,222.967195 C160.818032,222.452609 167,215.948243 167,208 L167,160 C167,153.808243 163.213802,148.336601 157.59729,146.078722 L153.105616,151.067235 C157.554597,151.612223 161,155.403753 161,160 L161,208 C161,212.632554 157.49995,216.447627 153,216.945071 Z M39.0549288,47 C39.5523731,42.5000495 43.3674463,39 48,39 L96,39 C100.970563,39 105,43.0294373 105,48 L105,64.9144766 L111,63.3067815 L111,48 C111,39.7157288 104.284271,33 96,33 L48,33 C40.0517573,33 33.5473906,39.1819682 33.0328046,47 L39.0549288,47 Z M39,73 L33,73 L33,96 C33,104.284271 39.7157288,111 48,111 L96,111 C104.284271,111 111,104.284271 111,96 L111,90.2239621 L105,91.8316573 L105,96 C105,100.970563 100.970563,105 96,105 L48,105 C43.0294373,105 39,100.970563 39,96 L39,73 Z M151,52.5888138 L151,48 C151,43.0294373 155.029437,39 160,39 L208,39 C212.970563,39 217,43.0294373 217,48 L217,96 C217,100.970563 212.970563,105 208,105 L194.584741,105 L189.182316,111 L208,111 C216.284271,111 223,104.284271 223,96 L223,48 C223,39.7157288 216.284271,33 208,33 L160,33 C151.715729,33 145,39.7157288 145,48 L145,54.1965089 L151,52.5888138 Z M151,79.5059945 L145,81.1136896 L145,96 C145,102.412757 149.060529,108.03713 154.972716,110.137219 L159.605919,104.991527 C154.818195,104.78525 151,100.838519 151,96 L151,79.5059945 Z M60,65 C57.2385763,65 55,62.7614237 55,60 C55,57.2385763 57.2385763,55 60,55 C62.7614237,55 65,57.2385763 65,60 C65,62.7614237 62.7614237,65 60,65 Z M140,201 C137.238576,201 135,198.761424 135,196 C135,193.238576 137.238576,191 140,191 C142.761424,191 145,193.238576 145,196 C145,198.761424 142.761424,201 140,201 Z M196,89 C193.238576,89 191,86.7614237 191,84 C191,81.2385763 193.238576,79 196,79 C198.761424,79 201,81.2385763 201,84 C201,86.7614237 198.761424,89 196,89 Z M116,177 C113.238576,177 111,174.761424 111,172 C111,169.238576 113.238576,167 116,167 C118.761424,167 121,169.238576 121,172 C121,174.761424 118.761424,177 116,177 Z M84,89 C81.2385763,89 79,86.7614237 79,84 C79,81.2385763 81.2385763,79 84,79 C86.7614237,79 89,81.2385763 89,84 C89,86.7614237 86.7614237,89 84,89 Z M172,65 C169.238576,65 167,62.7614237 167,60 C167,57.2385763 169.238576,55 172,55 C174.761424,55 177,57.2385763 177,60 C177,62.7614237 174.761424,65 172,65 Z" id="Combined-Shape"></path>
        </g>
    </g>
</svg>