<?xml version="1.0" encoding="UTF-8"?>
<svg width="512px" height="860px" viewBox="0 0 512 860" version="1.1" xmlns="http://www.w3.org/2000/svg" xmlns:xlink="http://www.w3.org/1999/xlink">
    <!-- Generator: Sketch 46 (44423) - http://www.bohemiancoding.com/sketch -->
    <title>map</title>
    <desc>Created with Sketch.</desc>
    <defs>
        <circle id="path-1" cx="262" cy="372" r="8"></circle>
        <filter x="-75.0%" y="-75.0%" width="250.0%" height="250.0%" filterUnits="objectBoundingBox" id="filter-2">
            <feOffset dx="0" dy="0" in="SourceAlpha" result="shadowOffsetOuter1"></feOffset>
            <feGaussianBlur stdDeviation="4" in="shadowOffsetOuter1" result="shadowBlurOuter1"></feGaussianBlur>
            <feColorMatrix values="0 0 0 0 0.721568627   0 0 0 0 0.91372549   0 0 0 0 0.525490196  0 0 0 1 0" type="matrix" in="shadowBlurOuter1"></feColorMatrix>
        </filter>
    </defs>
    <g id="graphic" stroke="none" stroke-width="1" fill="none" fill-rule="evenodd">
        <g id="map">
            <path d="M504,860 C499.581722,860 496,856.418278 496,852 C496,847.581722 499.581722,844 504,844 C508.418278,844 512,847.581722 512,852 C512,856.418278 508.418278,860 504,860 Z M504,668 C499.581722,668 496,664.418278 496,660 C496,655.581722 499.581722,652 504,652 C508.418278,652 512,655.581722 512,660 C512,664.418278 508.418278,668 504,668 Z M502,476 C497.581722,476 494,472.418278 494,468 C494,463.581722 497.581722,460 502,460 C506.418278,460 510,463.581722 510,468 C510,472.418278 506.418278,476 502,476 Z M504,764 C499.581722,764 496,760.418278 496,756 C496,751.581722 499.581722,748 504,748 C508.418278,748 512,751.581722 512,756 C512,760.418278 508.418278,764 504,764 Z M504,572 C499.581722,572 496,568.418278 496,564 C496,559.581722 499.581722,556 504,556 C508.418278,556 512,559.581722 512,564 C512,568.418278 508.418278,572 504,572 Z M502,380 C497.581722,380 494,376.418278 494,372 C494,367.581722 497.581722,364 502,364 C506.418278,364 510,367.581722 510,372 C510,376.418278 506.418278,380 502,380 Z M500,284 C495.581722,284 492,280.418278 492,276 C492,271.581722 495.581722,268 500,268 C504.418278,268 508,271.581722 508,276 C508,280.418278 504.418278,284 500,284 Z M504,812 C499.581722,812 496,808.418278 496,804 C496,799.581722 499.581722,796 504,796 C508.418278,796 512,799.581722 512,804 C512,808.418278 508.418278,812 504,812 Z M504,620 C499.581722,620 496,616.418278 496,612 C496,607.581722 499.581722,604 504,604 C508.418278,604 512,607.581722 512,612 C512,616.418278 508.418278,620 504,620 Z M502,428 C497.581722,428 494,424.418278 494,420 C494,415.581722 497.581722,412 502,412 C506.418278,412 510,415.581722 510,420 C510,424.418278 506.418278,428 502,428 Z M504,524 C499.581722,524 496,520.418278 496,516 C496,511.581722 499.581722,508 504,508 C508.418278,508 512,511.581722 512,516 C512,520.418278 508.418278,524 504,524 Z M502,332 C497.581722,332 494,328.418278 494,324 C494,319.581722 497.581722,316 502,316 C506.418278,316 510,319.581722 510,324 C510,328.418278 506.418278,332 502,332 Z M500,236 C495.581722,236 492,232.418278 492,228 C492,223.581722 495.581722,220 500,220 C504.418278,220 508,223.581722 508,228 C508,232.418278 504.418278,236 500,236 Z M492,836 C487.581722,836 484,832.418278 484,828 C484,823.581722 487.581722,820 492,820 C496.418278,820 500,823.581722 500,828 C500,832.418278 496.418278,836 492,836 Z M492,644 C487.581722,644 484,640.418278 484,636 C484,631.581722 487.581722,628 492,628 C496.418278,628 500,631.581722 500,636 C500,640.418278 496.418278,644 492,644 Z M490,452 C485.581722,452 482,448.418278 482,444 C482,439.581722 485.581722,436 490,436 C494.418278,436 498,439.581722 498,444 C498,448.418278 494.418278,452 490,452 Z M492,740 C487.581722,740 484,736.418278 484,732 C484,727.581722 487.581722,724 492,724 C496.418278,724 500,727.581722 500,732 C500,736.418278 496.418278,740 492,740 Z M492,548 C487.581722,548 484,544.418278 484,540 C484,535.581722 487.581722,532 492,532 C496.418278,532 500,535.581722 500,540 C500,544.418278 496.418278,548 492,548 Z M490,356 C485.581722,356 482,352.418278 482,348 C482,343.581722 485.581722,340 490,340 C494.418278,340 498,343.581722 498,348 C498,352.418278 494.418278,356 490,356 Z M488,260 C483.581722,260 480,256.418278 480,252 C480,247.581722 483.581722,244 488,244 C492.418278,244 496,247.581722 496,252 C496,256.418278 492.418278,260 488,260 Z M492,788 C487.581722,788 484,784.418278 484,780 C484,775.581722 487.581722,772 492,772 C496.418278,772 500,775.581722 500,780 C500,784.418278 496.418278,788 492,788 Z M492,596 C487.581722,596 484,592.418278 484,588 C484,583.581722 487.581722,580 492,580 C496.418278,580 500,583.581722 500,588 C500,592.418278 496.418278,596 492,596 Z M490,404 C485.581722,404 482,400.418278 482,396 C482,391.581722 485.581722,388 490,388 C494.418278,388 498,391.581722 498,396 C498,400.418278 494.418278,404 490,404 Z M492,500 C487.581722,500 484,496.418278 484,492 C484,487.581722 487.581722,484 492,484 C496.418278,484 500,487.581722 500,492 C500,496.418278 496.418278,500 492,500 Z M490,308 C485.581722,308 482,304.418278 482,300 C482,295.581722 485.581722,292 490,292 C494.418278,292 498,295.581722 498,300 C498,304.418278 494.418278,308 490,308 Z M488,212 C483.581722,212 480,208.418278 480,204 C480,199.581722 483.581722,196 488,196 C492.418278,196 496,199.581722 496,204 C496,208.418278 492.418278,212 488,212 Z M312,860 C307.581722,860 304,856.418278 304,852 C304,847.581722 307.581722,844 312,844 C316.418278,844 320,847.581722 320,852 C320,856.418278 316.418278,860 312,860 Z M312,668 C307.581722,668 304,664.418278 304,660 C304,655.581722 307.581722,652 312,652 C316.418278,652 320,655.581722 320,660 C320,664.418278 316.418278,668 312,668 Z M286,476 C281.581722,476 278,472.418278 278,468 C278,463.581722 281.581722,460 286,460 C290.418278,460 294,463.581722 294,468 C294,472.418278 290.418278,476 286,476 Z M312,764 C307.581722,764 304,760.418278 304,756 C304,751.581722 307.581722,748 312,748 C316.418278,748 320,751.581722 320,756 C320,760.418278 316.418278,764 312,764 Z M312,572 C307.581722,572 304,568.418278 304,564 C304,559.581722 307.581722,556 312,556 C316.418278,556 320,559.581722 320,564 C320,568.418278 316.418278,572 312,572 Z M310,380 C305.581722,380 302,376.418278 302,372 C302,367.581722 305.581722,364 310,364 C314.418278,364 318,367.581722 318,372 C318,376.418278 314.418278,380 310,380 Z M308,284 C303.581722,284 300,280.418278 300,276 C300,271.581722 303.581722,268 308,268 C312.418278,268 316,271.581722 316,276 C316,280.418278 312.418278,284 308,284 Z M312,812 C307.581722,812 304,808.418278 304,804 C304,799.581722 307.581722,796 312,796 C316.418278,796 320,799.581722 320,804 C320,808.418278 316.418278,812 312,812 Z M312,620 C307.581722,620 304,616.418278 304,612 C304,607.581722 307.581722,604 312,604 C316.418278,604 320,607.581722 320,612 C320,616.418278 316.418278,620 312,620 Z M312,716 C307.581722,716 304,712.418278 304,708 C304,703.581722 307.581722,700 312,700 C316.418278,700 320,703.581722 320,708 C320,712.418278 316.418278,716 312,716 Z M308,236 C303.581722,236 300,232.418278 300,228 C300,223.581722 303.581722,220 308,220 C312.418278,220 316,223.581722 316,228 C316,232.418278 312.418278,236 308,236 Z M308,188 C303.581722,188 300,184.418278 300,180 C300,175.581722 303.581722,172 308,172 C312.418278,172 316,175.581722 316,180 C316,184.418278 312.418278,188 308,188 Z M300,836 C295.581722,836 292,832.418278 292,828 C292,823.581722 295.581722,820 300,820 C304.418278,820 308,823.581722 308,828 C308,832.418278 304.418278,836 300,836 Z M300,644 C295.581722,644 292,640.418278 292,636 C292,631.581722 295.581722,628 300,628 C304.418278,628 308,631.581722 308,636 C308,640.418278 304.418278,644 300,644 Z M300,740 C295.581722,740 292,736.418278 292,732 C292,727.581722 295.581722,724 300,724 C304.418278,724 308,727.581722 308,732 C308,736.418278 304.418278,740 300,740 Z M298,356 C293.581722,356 290,352.418278 290,348 C290,343.581722 293.581722,340 298,340 C302.418278,340 306,343.581722 306,348 C306,352.418278 302.418278,356 298,356 Z M296,260 C291.581722,260 288,256.418278 288,252 C288,247.581722 291.581722,244 296,244 C300.418278,244 304,247.581722 304,252 C304,256.418278 300.418278,260 296,260 Z M300,788 C295.581722,788 292,784.418278 292,780 C292,775.581722 295.581722,772 300,772 C304.418278,772 308,775.581722 308,780 C308,784.418278 304.418278,788 300,788 Z M300,596 C295.581722,596 292,592.418278 292,588 C292,583.581722 295.581722,580 300,580 C304.418278,580 308,583.581722 308,588 C308,592.418278 304.418278,596 300,596 Z M298,404 C293.581722,404 290,400.418278 290,396 C290,391.581722 293.581722,388 298,388 C302.418278,388 306,391.581722 306,396 C306,400.418278 302.418278,404 298,404 Z M300,692 C295.581722,692 292,688.418278 292,684 C292,679.581722 295.581722,676 300,676 C304.418278,676 308,679.581722 308,684 C308,688.418278 304.418278,692 300,692 Z M300,500 C295.581722,500 292,496.418278 292,492 C292,487.581722 295.581722,484 300,484 C304.418278,484 308,487.581722 308,492 C308,496.418278 304.418278,500 300,500 Z M298,308 C293.581722,308 290,304.418278 290,300 C290,295.581722 293.581722,292 298,292 C302.418278,292 306,295.581722 306,300 C306,304.418278 302.418278,308 298,308 Z M296,212 C291.581722,212 288,208.418278 288,204 C288,199.581722 291.581722,196 296,196 C300.418278,196 304,199.581722 304,204 C304,208.418278 300.418278,212 296,212 Z M408,860 C403.581722,860 400,856.418278 400,852 C400,847.581722 403.581722,844 408,844 C412.418278,844 416,847.581722 416,852 C416,856.418278 412.418278,860 408,860 Z M408,668 C403.581722,668 400,664.418278 400,660 C400,655.581722 403.581722,652 408,652 C412.418278,652 416,655.581722 416,660 C416,664.418278 412.418278,668 408,668 Z M406,476 C401.581722,476 398,472.418278 398,468 C398,463.581722 401.581722,460 406,460 C410.418278,460 414,463.581722 414,468 C414,472.418278 410.418278,476 406,476 Z M408,764 C403.581722,764 400,760.418278 400,756 C400,751.581722 403.581722,748 408,748 C412.418278,748 416,751.581722 416,756 C416,760.418278 412.418278,764 408,764 Z M408,572 C403.581722,572 400,568.418278 400,564 C400,559.581722 403.581722,556 408,556 C412.418278,556 416,559.581722 416,564 C416,568.418278 412.418278,572 408,572 Z M406,380 C401.581722,380 398,376.418278 398,372 C398,367.581722 401.581722,364 406,364 C410.418278,364 414,367.581722 414,372 C414,376.418278 410.418278,380 406,380 Z M404,284 C399.581722,284 396,280.418278 396,276 C396,271.581722 399.581722,268 404,268 C408.418278,268 412,271.581722 412,276 C412,280.418278 408.418278,284 404,284 Z M408,812 C403.581722,812 400,808.418278 400,804 C400,799.581722 403.581722,796 408,796 C412.418278,796 416,799.581722 416,804 C416,808.418278 412.418278,812 408,812 Z M408,620 C403.581722,620 400,616.418278 400,612 C400,607.581722 403.581722,604 408,604 C412.418278,604 416,607.581722 416,612 C416,616.418278 412.418278,620 408,620 Z M408,716 C403.581722,716 400,712.418278 400,708 C400,703.581722 403.581722,700 408,700 C412.418278,700 416,703.581722 416,708 C416,712.418278 412.418278,716 408,716 Z M406,332 C401.581722,332 398,328.418278 398,324 C398,319.581722 401.581722,316 406,316 C410.418278,316 414,319.581722 414,324 C414,328.418278 410.418278,332 406,332 Z M404,236 C399.581722,236 396,232.418278 396,228 C396,223.581722 399.581722,220 404,220 C408.418278,220 412,223.581722 412,228 C412,232.418278 408.418278,236 404,236 Z M404,188 C399.581722,188 396,184.418278 396,180 C396,175.581722 399.581722,172 404,172 C408.418278,172 412,175.581722 412,180 C412,184.418278 408.418278,188 404,188 Z M396,836 C391.581722,836 388,832.418278 388,828 C388,823.581722 391.581722,820 396,820 C400.418278,820 404,823.581722 404,828 C404,832.418278 400.418278,836 396,836 Z M396,644 C391.581722,644 388,640.418278 388,636 C388,631.581722 391.581722,628 396,628 C400.418278,628 404,631.581722 404,636 C404,640.418278 400.418278,644 396,644 Z M394,452 C389.581722,452 386,448.418278 386,444 C386,439.581722 389.581722,436 394,436 C398.418278,436 402,439.581722 402,444 C402,448.418278 398.418278,452 394,452 Z M396,740 C391.581722,740 388,736.418278 388,732 C388,727.581722 391.581722,724 396,724 C400.418278,724 404,727.581722 404,732 C404,736.418278 400.418278,740 396,740 Z M394,356 C389.581722,356 386,352.418278 386,348 C386,343.581722 389.581722,340 394,340 C398.418278,340 402,343.581722 402,348 C402,352.418278 398.418278,356 394,356 Z M392,260 C387.581722,260 384,256.418278 384,252 C384,247.581722 387.581722,244 392,244 C396.418278,244 400,247.581722 400,252 C400,256.418278 396.418278,260 392,260 Z M396,788 C391.581722,788 388,784.418278 388,780 C388,775.581722 391.581722,772 396,772 C400.418278,772 404,775.581722 404,780 C404,784.418278 400.418278,788 396,788 Z M396,596 C391.581722,596 388,592.418278 388,588 C388,583.581722 391.581722,580 396,580 C400.418278,580 404,583.581722 404,588 C404,592.418278 400.418278,596 396,596 Z M394,404 C389.581722,404 386,400.418278 386,396 C386,391.581722 389.581722,388 394,388 C398.418278,388 402,391.581722 402,396 C402,400.418278 398.418278,404 394,404 Z M396,692 C391.581722,692 388,688.418278 388,684 C388,679.581722 391.581722,676 396,676 C400.418278,676 404,679.581722 404,684 C404,688.418278 400.418278,692 396,692 Z M396,500 C391.581722,500 388,496.418278 388,492 C388,487.581722 391.581722,484 396,484 C400.418278,484 404,487.581722 404,492 C404,496.418278 400.418278,500 396,500 Z M394,308 C389.581722,308 386,304.418278 386,300 C386,295.581722 389.581722,292 394,292 C398.418278,292 402,295.581722 402,300 C402,304.418278 398.418278,308 394,308 Z M392,212 C387.581722,212 384,208.418278 384,204 C384,199.581722 387.581722,196 392,196 C396.418278,196 400,199.581722 400,204 C400,208.418278 396.418278,212 392,212 Z M216,668 C211.581722,668 208,664.418278 208,660 C208,655.581722 211.581722,652 216,652 C220.418278,652 224,655.581722 224,660 C224,664.418278 220.418278,668 216,668 Z M216,764 C211.581722,764 208,760.418278 208,756 C208,751.581722 211.581722,748 216,748 C220.418278,748 224,751.581722 224,756 C224,760.418278 220.418278,764 216,764 Z M216,572 C211.581722,572 208,568.418278 208,564 C208,559.581722 211.581722,556 216,556 C220.418278,556 224,559.581722 224,564 C224,568.418278 220.418278,572 216,572 Z M214,380 C209.581722,380 206,376.418278 206,372 C206,367.581722 209.581722,364 214,364 C218.418278,364 222,367.581722 222,372 C222,376.418278 218.418278,380 214,380 Z M212,284 C207.581722,284 204,280.418278 204,276 C204,271.581722 207.581722,268 212,268 C216.418278,268 220,271.581722 220,276 C220,280.418278 216.418278,284 212,284 Z M216,812 C211.581722,812 208,808.418278 208,804 C208,799.581722 211.581722,796 216,796 C220.418278,796 224,799.581722 224,804 C224,808.418278 220.418278,812 216,812 Z M216,620 C211.581722,620 208,616.418278 208,612 C208,607.581722 211.581722,604 216,604 C220.418278,604 224,607.581722 224,612 C224,616.418278 220.418278,620 216,620 Z M214,428 C209.581722,428 206,424.418278 206,420 C206,415.581722 209.581722,412 214,412 C218.418278,412 222,415.581722 222,420 C222,424.418278 218.418278,428 214,428 Z M216,716 C211.581722,716 208,712.418278 208,708 C208,703.581722 211.581722,700 216,700 C220.418278,700 224,703.581722 224,708 C224,712.418278 220.418278,716 216,716 Z M216,524 C211.581722,524 208,520.418278 208,516 C208,511.581722 211.581722,508 216,508 C220.418278,508 224,511.581722 224,516 C224,520.418278 220.418278,524 216,524 Z M204,644 C199.581722,644 196,640.418278 196,636 C196,631.581722 199.581722,628 204,628 C208.418278,628 212,631.581722 212,636 C212,640.418278 208.418278,644 204,644 Z M204,740 C199.581722,740 196,736.418278 196,732 C196,727.581722 199.581722,724 204,724 C208.418278,724 212,727.581722 212,732 C212,736.418278 208.418278,740 204,740 Z M204,548 C199.581722,548 196,544.418278 196,540 C196,535.581722 199.581722,532 204,532 C208.418278,532 212,535.581722 212,540 C212,544.418278 208.418278,548 204,548 Z M204,788 C199.581722,788 196,784.418278 196,780 C196,775.581722 199.581722,772 204,772 C208.418278,772 212,775.581722 212,780 C212,784.418278 208.418278,788 204,788 Z M204,596 C199.581722,596 196,592.418278 196,588 C196,583.581722 199.581722,580 204,580 C208.418278,580 212,583.581722 212,588 C212,592.418278 208.418278,596 204,596 Z M202,404 C197.581722,404 194,400.418278 194,396 C194,391.581722 197.581722,388 202,388 C206.418278,388 210,391.581722 210,396 C210,400.418278 206.418278,404 202,404 Z M204,692 C199.581722,692 196,688.418278 196,684 C196,679.581722 199.581722,676 204,676 C208.418278,676 212,679.581722 212,684 C212,688.418278 208.418278,692 204,692 Z M96,668 C91.581722,668 88,664.418278 88,660 C88,655.581722 91.581722,652 96,652 C100.418278,652 104,655.581722 104,660 C104,664.418278 100.418278,668 96,668 Z M94,476 C89.581722,476 86,472.418278 86,468 C86,463.581722 89.581722,460 94,460 C98.418278,460 102,463.581722 102,468 C102,472.418278 98.418278,476 94,476 Z M96,764 C91.581722,764 88,760.418278 88,756 C88,751.581722 91.581722,748 96,748 C100.418278,748 104,751.581722 104,756 C104,760.418278 100.418278,764 96,764 Z M96,572 C91.581722,572 88,568.418278 88,564 C88,559.581722 91.581722,556 96,556 C100.418278,556 104,559.581722 104,564 C104,568.418278 100.418278,572 96,572 Z M96,620 C91.581722,620 88,616.418278 88,612 C88,607.581722 91.581722,604 96,604 C100.418278,604 104,607.581722 104,612 C104,616.418278 100.418278,620 96,620 Z M96,716 C91.581722,716 88,712.418278 88,708 C88,703.581722 91.581722,700 96,700 C100.418278,700 104,703.581722 104,708 C104,712.418278 100.418278,716 96,716 Z M94,332 C89.581722,332 86,328.418278 86,324 C86,319.581722 89.581722,316 94,316 C98.418278,316 102,319.581722 102,324 C102,328.418278 98.418278,332 94,332 Z M84,644 C79.581722,644 76,640.418278 76,636 C76,631.581722 79.581722,628 84,628 C88.418278,628 92,631.581722 92,636 C92,640.418278 88.418278,644 84,644 Z M84,740 C79.581722,740 76,736.418278 76,732 C76,727.581722 79.581722,724 84,724 C88.418278,724 92,727.581722 92,732 C92,736.418278 88.418278,740 84,740 Z M84,788 C79.581722,788 76,784.418278 76,780 C76,775.581722 79.581722,772 84,772 C88.418278,772 92,775.581722 92,780 C92,784.418278 88.418278,788 84,788 Z M84,596 C79.581722,596 76,592.418278 76,588 C76,583.581722 79.581722,580 84,580 C88.418278,580 92,583.581722 92,588 C92,592.418278 88.418278,596 84,596 Z M84,692 C79.581722,692 76,688.418278 76,684 C76,679.581722 79.581722,676 84,676 C88.418278,676 92,679.581722 92,684 C92,688.418278 88.418278,692 84,692 Z M456,860 C451.581722,860 448,856.418278 448,852 C448,847.581722 451.581722,844 456,844 C460.418278,844 464,847.581722 464,852 C464,856.418278 460.418278,860 456,860 Z M456,668 C451.581722,668 448,664.418278 448,660 C448,655.581722 451.581722,652 456,652 C460.418278,652 464,655.581722 464,660 C464,664.418278 460.418278,668 456,668 Z M454,476 C449.581722,476 446,472.418278 446,468 C446,463.581722 449.581722,460 454,460 C458.418278,460 462,463.581722 462,468 C462,472.418278 458.418278,476 454,476 Z M456,764 C451.581722,764 448,760.418278 448,756 C448,751.581722 451.581722,748 456,748 C460.418278,748 464,751.581722 464,756 C464,760.418278 460.418278,764 456,764 Z M456,572 C451.581722,572 448,568.418278 448,564 C448,559.581722 451.581722,556 456,556 C460.418278,556 464,559.581722 464,564 C464,568.418278 460.418278,572 456,572 Z M454,380 C449.581722,380 446,376.418278 446,372 C446,367.581722 449.581722,364 454,364 C458.418278,364 462,367.581722 462,372 C462,376.418278 458.418278,380 454,380 Z M452,284 C447.581722,284 444,280.418278 444,276 C444,271.581722 447.581722,268 452,268 C456.418278,268 460,271.581722 460,276 C460,280.418278 456.418278,284 452,284 Z M456,812 C451.581722,812 448,808.418278 448,804 C448,799.581722 451.581722,796 456,796 C460.418278,796 464,799.581722 464,804 C464,808.418278 460.418278,812 456,812 Z M456,716 C451.581722,716 448,712.418278 448,708 C448,703.581722 451.581722,700 456,700 C460.418278,700 464,703.581722 464,708 C464,712.418278 460.418278,716 456,716 Z M456,524 C451.581722,524 448,520.418278 448,516 C448,511.581722 451.581722,508 456,508 C460.418278,508 464,511.581722 464,516 C464,520.418278 460.418278,524 456,524 Z M454,332 C449.581722,332 446,328.418278 446,324 C446,319.581722 449.581722,316 454,316 C458.418278,316 462,319.581722 462,324 C462,328.418278 458.418278,332 454,332 Z M452,236 C447.581722,236 444,232.418278 444,228 C444,223.581722 447.581722,220 452,220 C456.418278,220 460,223.581722 460,228 C460,232.418278 456.418278,236 452,236 Z M452,188 C447.581722,188 444,184.418278 444,180 C444,175.581722 447.581722,172 452,172 C456.418278,172 460,175.581722 460,180 C460,184.418278 456.418278,188 452,188 Z M444,836 C439.581722,836 436,832.418278 436,828 C436,823.581722 439.581722,820 444,820 C448.418278,820 452,823.581722 452,828 C452,832.418278 448.418278,836 444,836 Z M444,644 C439.581722,644 436,640.418278 436,636 C436,631.581722 439.581722,628 444,628 C448.418278,628 452,631.581722 452,636 C452,640.418278 448.418278,644 444,644 Z M442,452 C437.581722,452 434,448.418278 434,444 C434,439.581722 437.581722,436 442,436 C446.418278,436 450,439.581722 450,444 C450,448.418278 446.418278,452 442,452 Z M444,740 C439.581722,740 436,736.418278 436,732 C436,727.581722 439.581722,724 444,724 C448.418278,724 452,727.581722 452,732 C452,736.418278 448.418278,740 444,740 Z M444,548 C439.581722,548 436,544.418278 436,540 C436,535.581722 439.581722,532 444,532 C448.418278,532 452,535.581722 452,540 C452,544.418278 448.418278,548 444,548 Z M442,356 C437.581722,356 434,352.418278 434,348 C434,343.581722 437.581722,340 442,340 C446.418278,340 450,343.581722 450,348 C450,352.418278 446.418278,356 442,356 Z M444,788 C439.581722,788 436,784.418278 436,780 C436,775.581722 439.581722,772 444,772 C448.418278,772 452,775.581722 452,780 C452,784.418278 448.418278,788 444,788 Z M442,404 C437.581722,404 434,400.418278 434,396 C434,391.581722 437.581722,388 442,388 C446.418278,388 450,391.581722 450,396 C450,400.418278 446.418278,404 442,404 Z M444,692 C439.581722,692 436,688.418278 436,684 C436,679.581722 439.581722,676 444,676 C448.418278,676 452,679.581722 452,684 C452,688.418278 448.418278,692 444,692 Z M444,500 C439.581722,500 436,496.418278 436,492 C436,487.581722 439.581722,484 444,484 C448.418278,484 452,487.581722 452,492 C452,496.418278 448.418278,500 444,500 Z M442,308 C437.581722,308 434,304.418278 434,300 C434,295.581722 437.581722,292 442,292 C446.418278,292 450,295.581722 450,300 C450,304.418278 446.418278,308 442,308 Z M440,212 C435.581722,212 432,208.418278 432,204 C432,199.581722 435.581722,196 440,196 C444.418278,196 448,199.581722 448,204 C448,208.418278 444.418278,212 440,212 Z M264,860 C259.581722,860 256,856.418278 256,852 C256,847.581722 259.581722,844 264,844 C268.418278,844 272,847.581722 272,852 C272,856.418278 268.418278,860 264,860 Z M264,668 C259.581722,668 256,664.418278 256,660 C256,655.581722 259.581722,652 264,652 C268.418278,652 272,655.581722 272,660 C272,664.418278 268.418278,668 264,668 Z M264,764 C259.581722,764 256,760.418278 256,756 C256,751.581722 259.581722,748 264,748 C268.418278,748 272,751.581722 272,756 C272,760.418278 268.418278,764 264,764 Z M264,572 C259.581722,572 256,568.418278 256,564 C256,559.581722 259.581722,556 264,556 C268.418278,556 272,559.581722 272,564 C272,568.418278 268.418278,572 264,572 Z M262,380 C257.581722,380 254,376.418278 254,372 C254,367.581722 257.581722,364 262,364 C266.418278,364 270,367.581722 270,372 C270,376.418278 266.418278,380 262,380 Z M260,284 C255.581722,284 252,280.418278 252,276 C252,271.581722 255.581722,268 260,268 C264.418278,268 268,271.581722 268,276 C268,280.418278 264.418278,284 260,284 Z M264,812 C259.581722,812 256,808.418278 256,804 C256,799.581722 259.581722,796 264,796 C268.418278,796 272,799.581722 272,804 C272,808.418278 268.418278,812 264,812 Z M264,620 C259.581722,620 256,616.418278 256,612 C256,607.581722 259.581722,604 264,604 C268.418278,604 272,607.581722 272,612 C272,616.418278 268.418278,620 264,620 Z M262,428 C257.581722,428 254,424.418278 254,420 C254,415.581722 257.581722,412 262,412 C266.418278,412 270,415.581722 270,420 C270,424.418278 266.418278,428 262,428 Z M264,716 C259.581722,716 256,712.418278 256,708 C256,703.581722 259.581722,700 264,700 C268.418278,700 272,703.581722 272,708 C272,712.418278 268.418278,716 264,716 Z M260,236 C255.581722,236 252,232.418278 252,228 C252,223.581722 255.581722,220 260,220 C264.418278,220 268,223.581722 268,228 C268,232.418278 264.418278,236 260,236 Z M252,836 C247.581722,836 244,832.418278 244,828 C244,823.581722 247.581722,820 252,820 C256.418278,820 260,823.581722 260,828 C260,832.418278 256.418278,836 252,836 Z M252,644 C247.581722,644 244,640.418278 244,636 C244,631.581722 247.581722,628 252,628 C256.418278,628 260,631.581722 260,636 C260,640.418278 256.418278,644 252,644 Z M250,452 C245.581722,452 242,448.418278 242,444 C242,439.581722 245.581722,436 250,436 C254.418278,436 258,439.581722 258,444 C258,448.418278 254.418278,452 250,452 Z M252,740 C247.581722,740 244,736.418278 244,732 C244,727.581722 247.581722,724 252,724 C256.418278,724 260,727.581722 260,732 C260,736.418278 256.418278,740 252,740 Z M252,548 C247.581722,548 244,544.418278 244,540 C244,535.581722 247.581722,532 252,532 C256.418278,532 260,535.581722 260,540 C260,544.418278 256.418278,548 252,548 Z M250,356 C245.581722,356 242,352.418278 242,348 C242,343.581722 245.581722,340 250,340 C254.418278,340 258,343.581722 258,348 C258,352.418278 254.418278,356 250,356 Z M248,260 C243.581722,260 240,256.418278 240,252 C240,247.581722 243.581722,244 248,244 C252.418278,244 256,247.581722 256,252 C256,256.418278 252.418278,260 248,260 Z M252,788 C247.581722,788 244,784.418278 244,780 C244,775.581722 247.581722,772 252,772 C256.418278,772 260,775.581722 260,780 C260,784.418278 256.418278,788 252,788 Z M252,596 C247.581722,596 244,592.418278 244,588 C244,583.581722 247.581722,580 252,580 C256.418278,580 260,583.581722 260,588 C260,592.418278 256.418278,596 252,596 Z M250,404 C245.581722,404 242,400.418278 242,396 C242,391.581722 245.581722,388 250,388 C254.418278,388 258,391.581722 258,396 C258,400.418278 254.418278,404 250,404 Z M252,692 C247.581722,692 244,688.418278 244,684 C244,679.581722 247.581722,676 252,676 C256.418278,676 260,679.581722 260,684 C260,688.418278 256.418278,692 252,692 Z M360,860 C355.581722,860 352,856.418278 352,852 C352,847.581722 355.581722,844 360,844 C364.418278,844 368,847.581722 368,852 C368,856.418278 364.418278,860 360,860 Z M360,668 C355.581722,668 352,664.418278 352,660 C352,655.581722 355.581722,652 360,652 C364.418278,652 368,655.581722 368,660 C368,664.418278 364.418278,668 360,668 Z M358,476 C353.581722,476 350,472.418278 350,468 C350,463.581722 353.581722,460 358,460 C362.418278,460 366,463.581722 366,468 C366,472.418278 362.418278,476 358,476 Z M334,476 C329.581722,476 326,472.418278 326,468 C326,463.581722 329.581722,460 334,460 C338.418278,460 342,463.581722 342,468 C342,472.418278 338.418278,476 334,476 Z M348,500 C343.581722,500 340,496.418278 340,492 C340,487.581722 343.581722,484 348,484 C352.418278,484 356,487.581722 356,492 C356,496.418278 352.418278,500 348,500 Z M360,764 C355.581722,764 352,760.418278 352,756 C352,751.581722 355.581722,748 360,748 C364.418278,748 368,751.581722 368,756 C368,760.418278 364.418278,764 360,764 Z M360,572 C355.581722,572 352,568.418278 352,564 C352,559.581722 355.581722,556 360,556 C364.418278,556 368,559.581722 368,564 C368,568.418278 364.418278,572 360,572 Z M358,380 C353.581722,380 350,376.418278 350,372 C350,367.581722 353.581722,364 358,364 C362.418278,364 366,367.581722 366,372 C366,376.418278 362.418278,380 358,380 Z M360,812 C355.581722,812 352,808.418278 352,804 C352,799.581722 355.581722,796 360,796 C364.418278,796 368,799.581722 368,804 C368,808.418278 364.418278,812 360,812 Z M360,620 C355.581722,620 352,616.418278 352,612 C352,607.581722 355.581722,604 360,604 C364.418278,604 368,607.581722 368,612 C368,616.418278 364.418278,620 360,620 Z M358,428 C353.581722,428 350,424.418278 350,420 C350,415.581722 353.581722,412 358,412 C362.418278,412 366,415.581722 366,420 C366,424.418278 362.418278,428 358,428 Z M360,716 C355.581722,716 352,712.418278 352,708 C352,703.581722 355.581722,700 360,700 C364.418278,700 368,703.581722 368,708 C368,712.418278 364.418278,716 360,716 Z M358,332 C353.581722,332 350,328.418278 350,324 C350,319.581722 353.581722,316 358,316 C362.418278,316 366,319.581722 366,324 C366,328.418278 362.418278,332 358,332 Z M356,188 C351.581722,188 348,184.418278 348,180 C348,175.581722 351.581722,172 356,172 C360.418278,172 364,175.581722 364,180 C364,184.418278 360.418278,188 356,188 Z M348,836 C343.581722,836 340,832.418278 340,828 C340,823.581722 343.581722,820 348,820 C352.418278,820 356,823.581722 356,828 C356,832.418278 352.418278,836 348,836 Z M348,644 C343.581722,644 340,640.418278 340,636 C340,631.581722 343.581722,628 348,628 C352.418278,628 356,631.581722 356,636 C356,640.418278 352.418278,644 348,644 Z M346,452 C341.581722,452 338,448.418278 338,444 C338,439.581722 341.581722,436 346,436 C350.418278,436 354,439.581722 354,444 C354,448.418278 350.418278,452 346,452 Z M348,740 C343.581722,740 340,736.418278 340,732 C340,727.581722 343.581722,724 348,724 C352.418278,724 356,727.581722 356,732 C356,736.418278 352.418278,740 348,740 Z M348,548 C343.581722,548 340,544.418278 340,540 C340,535.581722 343.581722,532 348,532 C352.418278,532 356,535.581722 356,540 C356,544.418278 352.418278,548 348,548 Z M346,356 C341.581722,356 338,352.418278 338,348 C338,343.581722 341.581722,340 346,340 C350.418278,340 354,343.581722 354,348 C354,352.418278 350.418278,356 346,356 Z M348,788 C343.581722,788 340,784.418278 340,780 C340,775.581722 343.581722,772 348,772 C352.418278,772 356,775.581722 356,780 C356,784.418278 352.418278,788 348,788 Z M348,596 C343.581722,596 340,592.418278 340,588 C340,583.581722 343.581722,580 348,580 C352.418278,580 356,583.581722 356,588 C356,592.418278 352.418278,596 348,596 Z M346,404 C341.581722,404 338,400.418278 338,396 C338,391.581722 341.581722,388 346,388 C350.418278,388 354,391.581722 354,396 C354,400.418278 350.418278,404 346,404 Z M348,692 C343.581722,692 340,688.418278 340,684 C340,679.581722 343.581722,676 348,676 C352.418278,676 356,679.581722 356,684 C356,688.418278 352.418278,692 348,692 Z M346,308 C341.581722,308 338,304.418278 338,300 C338,295.581722 341.581722,292 346,292 C350.418278,292 354,295.581722 354,300 C354,304.418278 350.418278,308 346,308 Z M344,212 C339.581722,212 336,208.418278 336,204 C336,199.581722 339.581722,196 344,196 C348.418278,196 352,199.581722 352,204 C352,208.418278 348.418278,212 344,212 Z M168,668 C163.581722,668 160,664.418278 160,660 C160,655.581722 163.581722,652 168,652 C172.418278,652 176,655.581722 176,660 C176,664.418278 172.418278,668 168,668 Z M166,476 C161.581722,476 158,472.418278 158,468 C158,463.581722 161.581722,460 166,460 C170.418278,460 174,463.581722 174,468 C174,472.418278 170.418278,476 166,476 Z M168,764 C163.581722,764 160,760.418278 160,756 C160,751.581722 163.581722,748 168,748 C172.418278,748 176,751.581722 176,756 C176,760.418278 172.418278,764 168,764 Z M168,572 C163.581722,572 160,568.418278 160,564 C160,559.581722 163.581722,556 168,556 C172.418278,556 176,559.581722 176,564 C176,568.418278 172.418278,572 168,572 Z M168,620 C163.581722,620 160,616.418278 160,612 C160,607.581722 163.581722,604 168,604 C172.418278,604 176,607.581722 176,612 C176,616.418278 172.418278,620 168,620 Z M166,428 C161.581722,428 158,424.418278 158,420 C158,415.581722 161.581722,412 166,412 C170.418278,412 174,415.581722 174,420 C174,424.418278 170.418278,428 166,428 Z M168,716 C163.581722,716 160,712.418278 160,708 C160,703.581722 163.581722,700 168,700 C172.418278,700 176,703.581722 176,708 C176,712.418278 172.418278,716 168,716 Z M168,524 C163.581722,524 160,520.418278 160,516 C160,511.581722 163.581722,508 168,508 C172.418278,508 176,511.581722 176,516 C176,520.418278 172.418278,524 168,524 Z M166,332 C161.581722,332 158,328.418278 158,324 C158,319.581722 161.581722,316 166,316 C170.418278,316 174,319.581722 174,324 C174,328.418278 170.418278,332 166,332 Z M156,644 C151.581722,644 148,640.418278 148,636 C148,631.581722 151.581722,628 156,628 C160.418278,628 164,631.581722 164,636 C164,640.418278 160.418278,644 156,644 Z M154,452 C149.581722,452 146,448.418278 146,444 C146,439.581722 149.581722,436 154,436 C158.418278,436 162,439.581722 162,444 C162,448.418278 158.418278,452 154,452 Z M156,740 C151.581722,740 148,736.418278 148,732 C148,727.581722 151.581722,724 156,724 C160.418278,724 164,727.581722 164,732 C164,736.418278 160.418278,740 156,740 Z M156,548 C151.581722,548 148,544.418278 148,540 C148,535.581722 151.581722,532 156,532 C160.418278,532 164,535.581722 164,540 C164,544.418278 160.418278,548 156,548 Z M154,356 C149.581722,356 146,352.418278 146,348 C146,343.581722 149.581722,340 154,340 C158.418278,340 162,343.581722 162,348 C162,352.418278 158.418278,356 154,356 Z M156,788 C151.581722,788 148,784.418278 148,780 C148,775.581722 151.581722,772 156,772 C160.418278,772 164,775.581722 164,780 C164,784.418278 160.418278,788 156,788 Z M156,596 C151.581722,596 148,592.418278 148,588 C148,583.581722 151.581722,580 156,580 C160.418278,580 164,583.581722 164,588 C164,592.418278 160.418278,596 156,596 Z M154,404 C149.581722,404 146,400.418278 146,396 C146,391.581722 149.581722,388 154,388 C158.418278,388 162,391.581722 162,396 C162,400.418278 158.418278,404 154,404 Z M156,692 C151.581722,692 148,688.418278 148,684 C148,679.581722 151.581722,676 156,676 C160.418278,676 164,679.581722 164,684 C164,688.418278 160.418278,692 156,692 Z M154,308 C149.581722,308 146,304.418278 146,300 C146,295.581722 149.581722,292 154,292 C158.418278,292 162,295.581722 162,300 C162,304.418278 158.418278,308 154,308 Z M48,668 C43.581722,668 40,664.418278 40,660 C40,655.581722 43.581722,652 48,652 C52.418278,652 56,655.581722 56,660 C56,664.418278 52.418278,668 48,668 Z M48,620 C43.581722,620 40,616.418278 40,612 C40,607.581722 43.581722,604 48,604 C52.418278,604 56,607.581722 56,612 C56,616.418278 52.418278,620 48,620 Z M48,716 C43.581722,716 40,712.418278 40,708 C40,703.581722 43.581722,700 48,700 C52.418278,700 56,703.581722 56,708 C56,712.418278 52.418278,716 48,716 Z M36,644 C31.581722,644 28,640.418278 28,636 C28,631.581722 31.581722,628 36,628 C40.418278,628 44,631.581722 44,636 C44,640.418278 40.418278,644 36,644 Z M480,860 C475.581722,860 472,856.418278 472,852 C472,847.581722 475.581722,844 480,844 C484.418278,844 488,847.581722 488,852 C488,856.418278 484.418278,860 480,860 Z M478,476 C473.581722,476 470,472.418278 470,468 C470,463.581722 473.581722,460 478,460 C482.418278,460 486,463.581722 486,468 C486,472.418278 482.418278,476 478,476 Z M480,764 C475.581722,764 472,760.418278 472,756 C472,751.581722 475.581722,748 480,748 C484.418278,748 488,751.581722 488,756 C488,760.418278 484.418278,764 480,764 Z M480,572 C475.581722,572 472,568.418278 472,564 C472,559.581722 475.581722,556 480,556 C484.418278,556 488,559.581722 488,564 C488,568.418278 484.418278,572 480,572 Z M478,380 C473.581722,380 470,376.418278 470,372 C470,367.581722 473.581722,364 478,364 C482.418278,364 486,367.581722 486,372 C486,376.418278 482.418278,380 478,380 Z M476,284 C471.581722,284 468,280.418278 468,276 C468,271.581722 471.581722,268 476,268 C480.418278,268 484,271.581722 484,276 C484,280.418278 480.418278,284 476,284 Z M480,812 C475.581722,812 472,808.418278 472,804 C472,799.581722 475.581722,796 480,796 C484.418278,796 488,799.581722 488,804 C488,808.418278 484.418278,812 480,812 Z M480,620 C475.581722,620 472,616.418278 472,612 C472,607.581722 475.581722,604 480,604 C484.418278,604 488,607.581722 488,612 C488,616.418278 484.418278,620 480,620 Z M480,716 C475.581722,716 472,712.418278 472,708 C472,703.581722 475.581722,700 480,700 C484.418278,700 488,703.581722 488,708 C488,712.418278 484.418278,716 480,716 Z M480,524 C475.581722,524 472,520.418278 472,516 C472,511.581722 475.581722,508 480,508 C484.418278,508 488,511.581722 488,516 C488,520.418278 484.418278,524 480,524 Z M478,332 C473.581722,332 470,328.418278 470,324 C470,319.581722 473.581722,316 478,316 C482.418278,316 486,319.581722 486,324 C486,328.418278 482.418278,332 478,332 Z M468,836 C463.581722,836 460,832.418278 460,828 C460,823.581722 463.581722,820 468,820 C472.418278,820 476,823.581722 476,828 C476,832.418278 472.418278,836 468,836 Z M468,740 C463.581722,740 460,736.418278 460,732 C460,727.581722 463.581722,724 468,724 C472.418278,724 476,727.581722 476,732 C476,736.418278 472.418278,740 468,740 Z M468,548 C463.581722,548 460,544.418278 460,540 C460,535.581722 463.581722,532 468,532 C472.418278,532 476,535.581722 476,540 C476,544.418278 472.418278,548 468,548 Z M466,356 C461.581722,356 458,352.418278 458,348 C458,343.581722 461.581722,340 466,340 C470.418278,340 474,343.581722 474,348 C474,352.418278 470.418278,356 466,356 Z M464,260 C459.581722,260 456,256.418278 456,252 C456,247.581722 459.581722,244 464,244 C468.418278,244 472,247.581722 472,252 C472,256.418278 468.418278,260 464,260 Z M468,788 C463.581722,788 460,784.418278 460,780 C460,775.581722 463.581722,772 468,772 C472.418278,772 476,775.581722 476,780 C476,784.418278 472.418278,788 468,788 Z M468,596 C463.581722,596 460,592.418278 460,588 C460,583.581722 463.581722,580 468,580 C472.418278,580 476,583.581722 476,588 C476,592.418278 472.418278,596 468,596 Z M466,404 C461.581722,404 458,400.418278 458,396 C458,391.581722 461.581722,388 466,388 C470.418278,388 474,391.581722 474,396 C474,400.418278 470.418278,404 466,404 Z M468,692 C463.581722,692 460,688.418278 460,684 C460,679.581722 463.581722,676 468,676 C472.418278,676 476,679.581722 476,684 C476,688.418278 472.418278,692 468,692 Z M468,500 C463.581722,500 460,496.418278 460,492 C460,487.581722 463.581722,484 468,484 C472.418278,484 476,487.581722 476,492 C476,496.418278 472.418278,500 468,500 Z M466,308 C461.581722,308 458,304.418278 458,300 C458,295.581722 461.581722,292 466,292 C470.418278,292 474,295.581722 474,300 C474,304.418278 470.418278,308 466,308 Z M464,212 C459.581722,212 456,208.418278 456,204 C456,199.581722 459.581722,196 464,196 C468.418278,196 472,199.581722 472,204 C472,208.418278 468.418278,212 464,212 Z M288,860 C283.581722,860 280,856.418278 280,852 C280,847.581722 283.581722,844 288,844 C292.418278,844 296,847.581722 296,852 C296,856.418278 292.418278,860 288,860 Z M288,668 C283.581722,668 280,664.418278 280,660 C280,655.581722 283.581722,652 288,652 C292.418278,652 296,655.581722 296,660 C296,664.418278 292.418278,668 288,668 Z M288,764 C283.581722,764 280,760.418278 280,756 C280,751.581722 283.581722,748 288,748 C292.418278,748 296,751.581722 296,756 C296,760.418278 292.418278,764 288,764 Z M288,572 C283.581722,572 280,568.418278 280,564 C280,559.581722 283.581722,556 288,556 C292.418278,556 296,559.581722 296,564 C296,568.418278 292.418278,572 288,572 Z M286,380 C281.581722,380 278,376.418278 278,372 C278,367.581722 281.581722,364 286,364 C290.418278,364 294,367.581722 294,372 C294,376.418278 290.418278,380 286,380 Z M284,284 C279.581722,284 276,280.418278 276,276 C276,271.581722 279.581722,268 284,268 C288.418278,268 292,271.581722 292,276 C292,280.418278 288.418278,284 284,284 Z M288,812 C283.581722,812 280,808.418278 280,804 C280,799.581722 283.581722,796 288,796 C292.418278,796 296,799.581722 296,804 C296,808.418278 292.418278,812 288,812 Z M288,620 C283.581722,620 280,616.418278 280,612 C280,607.581722 283.581722,604 288,604 C292.418278,604 296,607.581722 296,612 C296,616.418278 292.418278,620 288,620 Z M288,716 C283.581722,716 280,712.418278 280,708 C280,703.581722 283.581722,700 288,700 C292.418278,700 296,703.581722 296,708 C296,712.418278 292.418278,716 288,716 Z M284,236 C279.581722,236 276,232.418278 276,228 C276,223.581722 279.581722,220 284,220 C288.418278,220 292,223.581722 292,228 C292,232.418278 288.418278,236 284,236 Z M284,188 C279.581722,188 276,184.418278 276,180 C276,175.581722 279.581722,172 284,172 C288.418278,172 292,175.581722 292,180 C292,184.418278 288.418278,188 284,188 Z M276,836 C271.581722,836 268,832.418278 268,828 C268,823.581722 271.581722,820 276,820 C280.418278,820 284,823.581722 284,828 C284,832.418278 280.418278,836 276,836 Z M276,644 C271.581722,644 268,640.418278 268,636 C268,631.581722 271.581722,628 276,628 C280.418278,628 284,631.581722 284,636 C284,640.418278 280.418278,644 276,644 Z M274,452 C269.581722,452 266,448.418278 266,444 C266,439.581722 269.581722,436 274,436 C278.418278,436 282,439.581722 282,444 C282,448.418278 278.418278,452 274,452 Z M276,740 C271.581722,740 268,736.418278 268,732 C268,727.581722 271.581722,724 276,724 C280.418278,724 284,727.581722 284,732 C284,736.418278 280.418278,740 276,740 Z M276,548 C271.581722,548 268,544.418278 268,540 C268,535.581722 271.581722,532 276,532 C280.418278,532 284,535.581722 284,540 C284,544.418278 280.418278,548 276,548 Z M274,356 C269.581722,356 266,352.418278 266,348 C266,343.581722 269.581722,340 274,340 C278.418278,340 282,343.581722 282,348 C282,352.418278 278.418278,356 274,356 Z M272,260 C267.581722,260 264,256.418278 264,252 C264,247.581722 267.581722,244 272,244 C276.418278,244 280,247.581722 280,252 C280,256.418278 276.418278,260 272,260 Z M276,788 C271.581722,788 268,784.418278 268,780 C268,775.581722 271.581722,772 276,772 C280.418278,772 284,775.581722 284,780 C284,784.418278 280.418278,788 276,788 Z M276,596 C271.581722,596 268,592.418278 268,588 C268,583.581722 271.581722,580 276,580 C280.418278,580 284,583.581722 284,588 C284,592.418278 280.418278,596 276,596 Z M274,404 C269.581722,404 266,400.418278 266,396 C266,391.581722 269.581722,388 274,388 C278.418278,388 282,391.581722 282,396 C282,400.418278 278.418278,404 274,404 Z M276,692 C271.581722,692 268,688.418278 268,684 C268,679.581722 271.581722,676 276,676 C280.418278,676 284,679.581722 284,684 C284,688.418278 280.418278,692 276,692 Z M276,500 C271.581722,500 268,496.418278 268,492 C268,487.581722 271.581722,484 276,484 C280.418278,484 284,487.581722 284,492 C284,496.418278 280.418278,500 276,500 Z M274,308 C269.581722,308 266,304.418278 266,300 C266,295.581722 269.581722,292 274,292 C278.418278,292 282,295.581722 282,300 C282,304.418278 278.418278,308 274,308 Z M272,212 C267.581722,212 264,208.418278 264,204 C264,199.581722 267.581722,196 272,196 C276.418278,196 280,199.581722 280,204 C280,208.418278 276.418278,212 272,212 Z M384,860 C379.581722,860 376,856.418278 376,852 C376,847.581722 379.581722,844 384,844 C388.418278,844 392,847.581722 392,852 C392,856.418278 388.418278,860 384,860 Z M384,668 C379.581722,668 376,664.418278 376,660 C376,655.581722 379.581722,652 384,652 C388.418278,652 392,655.581722 392,660 C392,664.418278 388.418278,668 384,668 Z M384,764 C379.581722,764 376,760.418278 376,756 C376,751.581722 379.581722,748 384,748 C388.418278,748 392,751.581722 392,756 C392,760.418278 388.418278,764 384,764 Z M384,572 C379.581722,572 376,568.418278 376,564 C376,559.581722 379.581722,556 384,556 C388.418278,556 392,559.581722 392,564 C392,568.418278 388.418278,572 384,572 Z M382,380 C377.581722,380 374,376.418278 374,372 C374,367.581722 377.581722,364 382,364 C386.418278,364 390,367.581722 390,372 C390,376.418278 386.418278,380 382,380 Z M384,812 C379.581722,812 376,808.418278 376,804 C376,799.581722 379.581722,796 384,796 C388.418278,796 392,799.581722 392,804 C392,808.418278 388.418278,812 384,812 Z M384,620 C379.581722,620 376,616.418278 376,612 C376,607.581722 379.581722,604 384,604 C388.418278,604 392,607.581722 392,612 C392,616.418278 388.418278,620 384,620 Z M382,428 C377.581722,428 374,424.418278 374,420 C374,415.581722 377.581722,412 382,412 C386.418278,412 390,415.581722 390,420 C390,424.418278 386.418278,428 382,428 Z M384,716 C379.581722,716 376,712.418278 376,708 C376,703.581722 379.581722,700 384,700 C388.418278,700 392,703.581722 392,708 C392,712.418278 388.418278,716 384,716 Z M382,332 C377.581722,332 374,328.418278 374,324 C374,319.581722 377.581722,316 382,316 C386.418278,316 390,319.581722 390,324 C390,328.418278 386.418278,332 382,332 Z M380,236 C375.581722,236 372,232.418278 372,228 C372,223.581722 375.581722,220 380,220 C384.418278,220 388,223.581722 388,228 C388,232.418278 384.418278,236 380,236 Z M380,188 C375.581722,188 372,184.418278 372,180 C372,175.581722 375.581722,172 380,172 C384.418278,172 388,175.581722 388,180 C388,184.418278 384.418278,188 380,188 Z M372,836 C367.581722,836 364,832.418278 364,828 C364,823.581722 367.581722,820 372,820 C376.418278,820 380,823.581722 380,828 C380,832.418278 376.418278,836 372,836 Z M372,644 C367.581722,644 364,640.418278 364,636 C364,631.581722 367.581722,628 372,628 C376.418278,628 380,631.581722 380,636 C380,640.418278 376.418278,644 372,644 Z M370,452 C365.581722,452 362,448.418278 362,444 C362,439.581722 365.581722,436 370,436 C374.418278,436 378,439.581722 378,444 C378,448.418278 374.418278,452 370,452 Z M372,740 C367.581722,740 364,736.418278 364,732 C364,727.581722 367.581722,724 372,724 C376.418278,724 380,727.581722 380,732 C380,736.418278 376.418278,740 372,740 Z M370,356 C365.581722,356 362,352.418278 362,348 C362,343.581722 365.581722,340 370,340 C374.418278,340 378,343.581722 378,348 C378,352.418278 374.418278,356 370,356 Z M368,260 C363.581722,260 360,256.418278 360,252 C360,247.581722 363.581722,244 368,244 C372.418278,244 376,247.581722 376,252 C376,256.418278 372.418278,260 368,260 Z M372,788 C367.581722,788 364,784.418278 364,780 C364,775.581722 367.581722,772 372,772 C376.418278,772 380,775.581722 380,780 C380,784.418278 376.418278,788 372,788 Z M372,596 C367.581722,596 364,592.418278 364,588 C364,583.581722 367.581722,580 372,580 C376.418278,580 380,583.581722 380,588 C380,592.418278 376.418278,596 372,596 Z M370,404 C365.581722,404 362,400.418278 362,396 C362,391.581722 365.581722,388 370,388 C374.418278,388 378,391.581722 378,396 C378,400.418278 374.418278,404 370,404 Z M372,692 C367.581722,692 364,688.418278 364,684 C364,679.581722 367.581722,676 372,676 C376.418278,676 380,679.581722 380,684 C380,688.418278 376.418278,692 372,692 Z M370,308 C365.581722,308 362,304.418278 362,300 C362,295.581722 365.581722,292 370,292 C374.418278,292 378,295.581722 378,300 C378,304.418278 374.418278,308 370,308 Z M368,212 C363.581722,212 360,208.418278 360,204 C360,199.581722 363.581722,196 368,196 C372.418278,196 376,199.581722 376,204 C376,208.418278 372.418278,212 368,212 Z M192,668 C187.581722,668 184,664.418278 184,660 C184,655.581722 187.581722,652 192,652 C196.418278,652 200,655.581722 200,660 C200,664.418278 196.418278,668 192,668 Z M192,764 C187.581722,764 184,760.418278 184,756 C184,751.581722 187.581722,748 192,748 C196.418278,748 200,751.581722 200,756 C200,760.418278 196.418278,764 192,764 Z M192,572 C187.581722,572 184,568.418278 184,564 C184,559.581722 187.581722,556 192,556 C196.418278,556 200,559.581722 200,564 C200,568.418278 196.418278,572 192,572 Z M190,380 C185.581722,380 182,376.418278 182,372 C182,367.581722 185.581722,364 190,364 C194.418278,364 198,367.581722 198,372 C198,376.418278 194.418278,380 190,380 Z M192,620 C187.581722,620 184,616.418278 184,612 C184,607.581722 187.581722,604 192,604 C196.418278,604 200,607.581722 200,612 C200,616.418278 196.418278,620 192,620 Z M190,428 C185.581722,428 182,424.418278 182,420 C182,415.581722 185.581722,412 190,412 C194.418278,412 198,415.581722 198,420 C198,424.418278 194.418278,428 190,428 Z M192,716 C187.581722,716 184,712.418278 184,708 C184,703.581722 187.581722,700 192,700 C196.418278,700 200,703.581722 200,708 C200,712.418278 196.418278,716 192,716 Z M192,524 C187.581722,524 184,520.418278 184,516 C184,511.581722 187.581722,508 192,508 C196.418278,508 200,511.581722 200,516 C200,520.418278 196.418278,524 192,524 Z M180,644 C175.581722,644 172,640.418278 172,636 C172,631.581722 175.581722,628 180,628 C184.418278,628 188,631.581722 188,636 C188,640.418278 184.418278,644 180,644 Z M178,452 C173.581722,452 170,448.418278 170,444 C170,439.581722 173.581722,436 178,436 C182.418278,436 186,439.581722 186,444 C186,448.418278 182.418278,452 178,452 Z M180,740 C175.581722,740 172,736.418278 172,732 C172,727.581722 175.581722,724 180,724 C184.418278,724 188,727.581722 188,732 C188,736.418278 184.418278,740 180,740 Z M180,548 C175.581722,548 172,544.418278 172,540 C172,535.581722 175.581722,532 180,532 C184.418278,532 188,535.581722 188,540 C188,544.418278 184.418278,548 180,548 Z M178,356 C173.581722,356 170,352.418278 170,348 C170,343.581722 173.581722,340 178,340 C182.418278,340 186,343.581722 186,348 C186,352.418278 182.418278,356 178,356 Z M180,788 C175.581722,788 172,784.418278 172,780 C172,775.581722 175.581722,772 180,772 C184.418278,772 188,775.581722 188,780 C188,784.418278 184.418278,788 180,788 Z M180,596 C175.581722,596 172,592.418278 172,588 C172,583.581722 175.581722,580 180,580 C184.418278,580 188,583.581722 188,588 C188,592.418278 184.418278,596 180,596 Z M178,404 C173.581722,404 170,400.418278 170,396 C170,391.581722 173.581722,388 178,388 C182.418278,388 186,391.581722 186,396 C186,400.418278 182.418278,404 178,404 Z M180,692 C175.581722,692 172,688.418278 172,684 C172,679.581722 175.581722,676 180,676 C184.418278,676 188,679.581722 188,684 C188,688.418278 184.418278,692 180,692 Z M72,668 C67.581722,668 64,664.418278 64,660 C64,655.581722 67.581722,652 72,652 C76.418278,652 80,655.581722 80,660 C80,664.418278 76.418278,668 72,668 Z M72,764 C67.581722,764 64,760.418278 64,756 C64,751.581722 67.581722,748 72,748 C76.418278,748 80,751.581722 80,756 C80,760.418278 76.418278,764 72,764 Z M72,620 C67.581722,620 64,616.418278 64,612 C64,607.581722 67.581722,604 72,604 C76.418278,604 80,607.581722 80,612 C80,616.418278 76.418278,620 72,620 Z M72,716 C67.581722,716 64,712.418278 64,708 C64,703.581722 67.581722,700 72,700 C76.418278,700 80,703.581722 80,708 C80,712.418278 76.418278,716 72,716 Z M60,644 C55.581722,644 52,640.418278 52,636 C52,631.581722 55.581722,628 60,628 C64.418278,628 68,631.581722 68,636 C68,640.418278 64.418278,644 60,644 Z M60,740 C55.581722,740 52,736.418278 52,732 C52,727.581722 55.581722,724 60,724 C64.418278,724 68,727.581722 68,732 C68,736.418278 64.418278,740 60,740 Z M60,596 C55.581722,596 52,592.418278 52,588 C52,583.581722 55.581722,580 60,580 C64.418278,580 68,583.581722 68,588 C68,592.418278 64.418278,596 60,596 Z M60,692 C55.581722,692 52,688.418278 52,684 C52,679.581722 55.581722,676 60,676 C64.418278,676 68,679.581722 68,684 C68,688.418278 64.418278,692 60,692 Z M432,860 C427.581722,860 424,856.418278 424,852 C424,847.581722 427.581722,844 432,844 C436.418278,844 440,847.581722 440,852 C440,856.418278 436.418278,860 432,860 Z M432,668 C427.581722,668 424,664.418278 424,660 C424,655.581722 427.581722,652 432,652 C436.418278,652 440,655.581722 440,660 C440,664.418278 436.418278,668 432,668 Z M430,476 C425.581722,476 422,472.418278 422,468 C422,463.581722 425.581722,460 430,460 C434.418278,460 438,463.581722 438,468 C438,472.418278 434.418278,476 430,476 Z M432,764 C427.581722,764 424,760.418278 424,756 C424,751.581722 427.581722,748 432,748 C436.418278,748 440,751.581722 440,756 C440,760.418278 436.418278,764 432,764 Z M432,572 C427.581722,572 424,568.418278 424,564 C424,559.581722 427.581722,556 432,556 C436.418278,556 440,559.581722 440,564 C440,568.418278 436.418278,572 432,572 Z M430,380 C425.581722,380 422,376.418278 422,372 C422,367.581722 425.581722,364 430,364 C434.418278,364 438,367.581722 438,372 C438,376.418278 434.418278,380 430,380 Z M432,812 C427.581722,812 424,808.418278 424,804 C424,799.581722 427.581722,796 432,796 C436.418278,796 440,799.581722 440,804 C440,808.418278 436.418278,812 432,812 Z M432,620 C427.581722,620 424,616.418278 424,612 C424,607.581722 427.581722,604 432,604 C436.418278,604 440,607.581722 440,612 C440,616.418278 436.418278,620 432,620 Z M456,620 C451.581722,620 448,616.418278 448,612 C448,607.581722 451.581722,604 456,604 C460.418278,604 464,607.581722 464,612 C464,616.418278 460.418278,620 456,620 Z M432,716 C427.581722,716 424,712.418278 424,708 C424,703.581722 427.581722,700 432,700 C436.418278,700 440,703.581722 440,708 C440,712.418278 436.418278,716 432,716 Z M430,332 C425.581722,332 422,328.418278 422,324 C422,319.581722 425.581722,316 430,316 C434.418278,316 438,319.581722 438,324 C438,328.418278 434.418278,332 430,332 Z M428,236 C423.581722,236 420,232.418278 420,228 C420,223.581722 423.581722,220 428,220 C432.418278,220 436,223.581722 436,228 C436,232.418278 432.418278,236 428,236 Z M428,188 C423.581722,188 420,184.418278 420,180 C420,175.581722 423.581722,172 428,172 C432.418278,172 436,175.581722 436,180 C436,184.418278 432.418278,188 428,188 Z M420,836 C415.581722,836 412,832.418278 412,828 C412,823.581722 415.581722,820 420,820 C424.418278,820 428,823.581722 428,828 C428,832.418278 424.418278,836 420,836 Z M420,644 C415.581722,644 412,640.418278 412,636 C412,631.581722 415.581722,628 420,628 C424.418278,628 428,631.581722 428,636 C428,640.418278 424.418278,644 420,644 Z M420,740 C415.581722,740 412,736.418278 412,732 C412,727.581722 415.581722,724 420,724 C424.418278,724 428,727.581722 428,732 C428,736.418278 424.418278,740 420,740 Z M418,356 C413.581722,356 410,352.418278 410,348 C410,343.581722 413.581722,340 418,340 C422.418278,340 426,343.581722 426,348 C426,352.418278 422.418278,356 418,356 Z M416,260 C411.581722,260 408,256.418278 408,252 C408,247.581722 411.581722,244 416,244 C420.418278,244 424,247.581722 424,252 C424,256.418278 420.418278,260 416,260 Z M420,788 C415.581722,788 412,784.418278 412,780 C412,775.581722 415.581722,772 420,772 C424.418278,772 428,775.581722 428,780 C428,784.418278 424.418278,788 420,788 Z M420,596 C415.581722,596 412,592.418278 412,588 C412,583.581722 415.581722,580 420,580 C424.418278,580 428,583.581722 428,588 C428,592.418278 424.418278,596 420,596 Z M444,596 C439.581722,596 436,592.418278 436,588 C436,583.581722 439.581722,580 444,580 C448.418278,580 452,583.581722 452,588 C452,592.418278 448.418278,596 444,596 Z M418,404 C413.581722,404 410,400.418278 410,396 C410,391.581722 413.581722,388 418,388 C422.418278,388 426,391.581722 426,396 C426,400.418278 422.418278,404 418,404 Z M420,692 C415.581722,692 412,688.418278 412,684 C412,679.581722 415.581722,676 420,676 C424.418278,676 428,679.581722 428,684 C428,688.418278 424.418278,692 420,692 Z M420,500 C415.581722,500 412,496.418278 412,492 C412,487.581722 415.581722,484 420,484 C424.418278,484 428,487.581722 428,492 C428,496.418278 424.418278,500 420,500 Z M418,308 C413.581722,308 410,304.418278 410,300 C410,295.581722 413.581722,292 418,292 C422.418278,292 426,295.581722 426,300 C426,304.418278 422.418278,308 418,308 Z M416,212 C411.581722,212 408,208.418278 408,204 C408,199.581722 411.581722,196 416,196 C420.418278,196 424,199.581722 424,204 C424,208.418278 420.418278,212 416,212 Z M240,668 C235.581722,668 232,664.418278 232,660 C232,655.581722 235.581722,652 240,652 C244.418278,652 248,655.581722 248,660 C248,664.418278 244.418278,668 240,668 Z M240,764 C235.581722,764 232,760.418278 232,756 C232,751.581722 235.581722,748 240,748 C244.418278,748 248,751.581722 248,756 C248,760.418278 244.418278,764 240,764 Z M240,572 C235.581722,572 232,568.418278 232,564 C232,559.581722 235.581722,556 240,556 C244.418278,556 248,559.581722 248,564 C248,568.418278 244.418278,572 240,572 Z M238,380 C233.581722,380 230,376.418278 230,372 C230,367.581722 233.581722,364 238,364 C242.418278,364 246,367.581722 246,372 C246,376.418278 242.418278,380 238,380 Z M236,284 C231.581722,284 228,280.418278 228,276 C228,271.581722 231.581722,268 236,268 C240.418278,268 244,271.581722 244,276 C244,280.418278 240.418278,284 236,284 Z M240,812 C235.581722,812 232,808.418278 232,804 C232,799.581722 235.581722,796 240,796 C244.418278,796 248,799.581722 248,804 C248,808.418278 244.418278,812 240,812 Z M240,620 C235.581722,620 232,616.418278 232,612 C232,607.581722 235.581722,604 240,604 C244.418278,604 248,607.581722 248,612 C248,616.418278 244.418278,620 240,620 Z M238,428 C233.581722,428 230,424.418278 230,420 C230,415.581722 233.581722,412 238,412 C242.418278,412 246,415.581722 246,420 C246,424.418278 242.418278,428 238,428 Z M240,716 C235.581722,716 232,712.418278 232,708 C232,703.581722 235.581722,700 240,700 C244.418278,700 248,703.581722 248,708 C248,712.418278 244.418278,716 240,716 Z M240,524 C235.581722,524 232,520.418278 232,516 C232,511.581722 235.581722,508 240,508 C244.418278,508 248,511.581722 248,516 C248,520.418278 244.418278,524 240,524 Z M238,332 C233.581722,332 230,328.418278 230,324 C230,319.581722 233.581722,316 238,316 C242.418278,316 246,319.581722 246,324 C246,328.418278 242.418278,332 238,332 Z M236,236 C231.581722,236 228,232.418278 228,228 C228,223.581722 231.581722,220 236,220 C240.418278,220 244,223.581722 244,228 C244,232.418278 240.418278,236 236,236 Z M228,644 C223.581722,644 220,640.418278 220,636 C220,631.581722 223.581722,628 228,628 C232.418278,628 236,631.581722 236,636 C236,640.418278 232.418278,644 228,644 Z M228,740 C223.581722,740 220,736.418278 220,732 C220,727.581722 223.581722,724 228,724 C232.418278,724 236,727.581722 236,732 C236,736.418278 232.418278,740 228,740 Z M228,548 C223.581722,548 220,544.418278 220,540 C220,535.581722 223.581722,532 228,532 C232.418278,532 236,535.581722 236,540 C236,544.418278 232.418278,548 228,548 Z M226,356 C221.581722,356 218,352.418278 218,348 C218,343.581722 221.581722,340 226,340 C230.418278,340 234,343.581722 234,348 C234,352.418278 230.418278,356 226,356 Z M224,260 C219.581722,260 216,256.418278 216,252 C216,247.581722 219.581722,244 224,244 C228.418278,244 232,247.581722 232,252 C232,256.418278 228.418278,260 224,260 Z M228,788 C223.581722,788 220,784.418278 220,780 C220,775.581722 223.581722,772 228,772 C232.418278,772 236,775.581722 236,780 C236,784.418278 232.418278,788 228,788 Z M228,596 C223.581722,596 220,592.418278 220,588 C220,583.581722 223.581722,580 228,580 C232.418278,580 236,583.581722 236,588 C236,592.418278 232.418278,596 228,596 Z M226,404 C221.581722,404 218,400.418278 218,396 C218,391.581722 221.581722,388 226,388 C230.418278,388 234,391.581722 234,396 C234,400.418278 230.418278,404 226,404 Z M228,692 C223.581722,692 220,688.418278 220,684 C220,679.581722 223.581722,676 228,676 C232.418278,676 236,679.581722 236,684 C236,688.418278 232.418278,692 228,692 Z M228,500 C223.581722,500 220,496.418278 220,492 C220,487.581722 223.581722,484 228,484 C232.418278,484 236,487.581722 236,492 C236,496.418278 232.418278,500 228,500 Z M120,668 C115.581722,668 112,664.418278 112,660 C112,655.581722 115.581722,652 120,652 C124.418278,652 128,655.581722 128,660 C128,664.418278 124.418278,668 120,668 Z M118,476 C113.581722,476 110,472.418278 110,468 C110,463.581722 113.581722,460 118,460 C122.418278,460 126,463.581722 126,468 C126,472.418278 122.418278,476 118,476 Z M120,764 C115.581722,764 112,760.418278 112,756 C112,751.581722 115.581722,748 120,748 C124.418278,748 128,751.581722 128,756 C128,760.418278 124.418278,764 120,764 Z M120,572 C115.581722,572 112,568.418278 112,564 C112,559.581722 115.581722,556 120,556 C124.418278,556 128,559.581722 128,564 C128,568.418278 124.418278,572 120,572 Z M120,812 C115.581722,812 112,808.418278 112,804 C112,799.581722 115.581722,796 120,796 C124.418278,796 128,799.581722 128,804 C128,808.418278 124.418278,812 120,812 Z M120,620 C115.581722,620 112,616.418278 112,612 C112,607.581722 115.581722,604 120,604 C124.418278,604 128,607.581722 128,612 C128,616.418278 124.418278,620 120,620 Z M120,716 C115.581722,716 112,712.418278 112,708 C112,703.581722 115.581722,700 120,700 C124.418278,700 128,703.581722 128,708 C128,712.418278 124.418278,716 120,716 Z M120,524 C115.581722,524 112,520.418278 112,516 C112,511.581722 115.581722,508 120,508 C124.418278,508 128,511.581722 128,516 C128,520.418278 124.418278,524 120,524 Z M108,644 C103.581722,644 100,640.418278 100,636 C100,631.581722 103.581722,628 108,628 C112.418278,628 116,631.581722 116,636 C116,640.418278 112.418278,644 108,644 Z M106,452 C101.581722,452 98,448.418278 98,444 C98,439.581722 101.581722,436 106,436 C110.418278,436 114,439.581722 114,444 C114,448.418278 110.418278,452 106,452 Z M108,740 C103.581722,740 100,736.418278 100,732 C100,727.581722 103.581722,724 108,724 C112.418278,724 116,727.581722 116,732 C116,736.418278 112.418278,740 108,740 Z M108,548 C103.581722,548 100,544.418278 100,540 C100,535.581722 103.581722,532 108,532 C112.418278,532 116,535.581722 116,540 C116,544.418278 112.418278,548 108,548 Z M108,788 C103.581722,788 100,784.418278 100,780 C100,775.581722 103.581722,772 108,772 C112.418278,772 116,775.581722 116,780 C116,784.418278 112.418278,788 108,788 Z M108,596 C103.581722,596 100,592.418278 100,588 C100,583.581722 103.581722,580 108,580 C112.418278,580 116,583.581722 116,588 C116,592.418278 112.418278,596 108,596 Z M108,692 C103.581722,692 100,688.418278 100,684 C100,679.581722 103.581722,676 108,676 C112.418278,676 116,679.581722 116,684 C116,688.418278 112.418278,692 108,692 Z M336,860 C331.581722,860 328,856.418278 328,852 C328,847.581722 331.581722,844 336,844 C340.418278,844 344,847.581722 344,852 C344,856.418278 340.418278,860 336,860 Z M336,668 C331.581722,668 328,664.418278 328,660 C328,655.581722 331.581722,652 336,652 C340.418278,652 344,655.581722 344,660 C344,664.418278 340.418278,668 336,668 Z M336,764 C331.581722,764 328,760.418278 328,756 C328,751.581722 331.581722,748 336,748 C340.418278,748 344,751.581722 344,756 C344,760.418278 340.418278,764 336,764 Z M336,572 C331.581722,572 328,568.418278 328,564 C328,559.581722 331.581722,556 336,556 C340.418278,556 344,559.581722 344,564 C344,568.418278 340.418278,572 336,572 Z M334,380 C329.581722,380 326,376.418278 326,372 C326,367.581722 329.581722,364 334,364 C338.418278,364 342,367.581722 342,372 C342,376.418278 338.418278,380 334,380 Z M336,812 C331.581722,812 328,808.418278 328,804 C328,799.581722 331.581722,796 336,796 C340.418278,796 344,799.581722 344,804 C344,808.418278 340.418278,812 336,812 Z M336,620 C331.581722,620 328,616.418278 328,612 C328,607.581722 331.581722,604 336,604 C340.418278,604 344,607.581722 344,612 C344,616.418278 340.418278,620 336,620 Z M334,428 C329.581722,428 326,424.418278 326,420 C326,415.581722 329.581722,412 334,412 C338.418278,412 342,415.581722 342,420 C342,424.418278 338.418278,428 334,428 Z M336,716 C331.581722,716 328,712.418278 328,708 C328,703.581722 331.581722,700 336,700 C340.418278,700 344,703.581722 344,708 C344,712.418278 340.418278,716 336,716 Z M334,332 C329.581722,332 326,328.418278 326,324 C326,319.581722 329.581722,316 334,316 C338.418278,316 342,319.581722 342,324 C342,328.418278 338.418278,332 334,332 Z M332,236 C327.581722,236 324,232.418278 324,228 C324,223.581722 327.581722,220 332,220 C336.418278,220 340,223.581722 340,228 C340,232.418278 336.418278,236 332,236 Z M332,188 C327.581722,188 324,184.418278 324,180 C324,175.581722 327.581722,172 332,172 C336.418278,172 340,175.581722 340,180 C340,184.418278 336.418278,188 332,188 Z M324,836 C319.581722,836 316,832.418278 316,828 C316,823.581722 319.581722,820 324,820 C328.418278,820 332,823.581722 332,828 C332,832.418278 328.418278,836 324,836 Z M324,644 C319.581722,644 316,640.418278 316,636 C316,631.581722 319.581722,628 324,628 C328.418278,628 332,631.581722 332,636 C332,640.418278 328.418278,644 324,644 Z M324,740 C319.581722,740 316,736.418278 316,732 C316,727.581722 319.581722,724 324,724 C328.418278,724 332,727.581722 332,732 C332,736.418278 328.418278,740 324,740 Z M322,356 C317.581722,356 314,352.418278 314,348 C314,343.581722 317.581722,340 322,340 C326.418278,340 330,343.581722 330,348 C330,352.418278 326.418278,356 322,356 Z M324,788 C319.581722,788 316,784.418278 316,780 C316,775.581722 319.581722,772 324,772 C328.418278,772 332,775.581722 332,780 C332,784.418278 328.418278,788 324,788 Z M324,596 C319.581722,596 316,592.418278 316,588 C316,583.581722 319.581722,580 324,580 C328.418278,580 332,583.581722 332,588 C332,592.418278 328.418278,596 324,596 Z M322,404 C317.581722,404 314,400.418278 314,396 C314,391.581722 317.581722,388 322,388 C326.418278,388 330,391.581722 330,396 C330,400.418278 326.418278,404 322,404 Z M324,692 C319.581722,692 316,688.418278 316,684 C316,679.581722 319.581722,676 324,676 C328.418278,676 332,679.581722 332,684 C332,688.418278 328.418278,692 324,692 Z M320,212 C315.581722,212 312,208.418278 312,204 C312,199.581722 315.581722,196 320,196 C324.418278,196 328,199.581722 328,204 C328,208.418278 324.418278,212 320,212 Z M144,668 C139.581722,668 136,664.418278 136,660 C136,655.581722 139.581722,652 144,652 C148.418278,652 152,655.581722 152,660 C152,664.418278 148.418278,668 144,668 Z M142,476 C137.581722,476 134,472.418278 134,468 C134,463.581722 137.581722,460 142,460 C146.418278,460 150,463.581722 150,468 C150,472.418278 146.418278,476 142,476 Z M144,764 C139.581722,764 136,760.418278 136,756 C136,751.581722 139.581722,748 144,748 C148.418278,748 152,751.581722 152,756 C152,760.418278 148.418278,764 144,764 Z M144,572 C139.581722,572 136,568.418278 136,564 C136,559.581722 139.581722,556 144,556 C148.418278,556 152,559.581722 152,564 C152,568.418278 148.418278,572 144,572 Z M140,284 C135.581722,284 132,280.418278 132,276 C132,271.581722 135.581722,268 140,268 C144.418278,268 148,271.581722 148,276 C148,280.418278 144.418278,284 140,284 Z M144,812 C139.581722,812 136,808.418278 136,804 C136,799.581722 139.581722,796 144,796 C148.418278,796 152,799.581722 152,804 C152,808.418278 148.418278,812 144,812 Z M144,620 C139.581722,620 136,616.418278 136,612 C136,607.581722 139.581722,604 144,604 C148.418278,604 152,607.581722 152,612 C152,616.418278 148.418278,620 144,620 Z M144,716 C139.581722,716 136,712.418278 136,708 C136,703.581722 139.581722,700 144,700 C148.418278,700 152,703.581722 152,708 C152,712.418278 148.418278,716 144,716 Z M144,524 C139.581722,524 136,520.418278 136,516 C136,511.581722 139.581722,508 144,508 C148.418278,508 152,511.581722 152,516 C152,520.418278 148.418278,524 144,524 Z M142,332 C137.581722,332 134,328.418278 134,324 C134,319.581722 137.581722,316 142,316 C146.418278,316 150,319.581722 150,324 C150,328.418278 146.418278,332 142,332 Z M132,644 C127.581722,644 124,640.418278 124,636 C124,631.581722 127.581722,628 132,628 C136.418278,628 140,631.581722 140,636 C140,640.418278 136.418278,644 132,644 Z M130,452 C125.581722,452 122,448.418278 122,444 C122,439.581722 125.581722,436 130,436 C134.418278,436 138,439.581722 138,444 C138,448.418278 134.418278,452 130,452 Z M132,740 C127.581722,740 124,736.418278 124,732 C124,727.581722 127.581722,724 132,724 C136.418278,724 140,727.581722 140,732 C140,736.418278 136.418278,740 132,740 Z M132,548 C127.581722,548 124,544.418278 124,540 C124,535.581722 127.581722,532 132,532 C136.418278,532 140,535.581722 140,540 C140,544.418278 136.418278,548 132,548 Z M130,356 C125.581722,356 122,352.418278 122,348 C122,343.581722 125.581722,340 130,340 C134.418278,340 138,343.581722 138,348 C138,352.418278 134.418278,356 130,356 Z M132,788 C127.581722,788 124,784.418278 124,780 C124,775.581722 127.581722,772 132,772 C136.418278,772 140,775.581722 140,780 C140,784.418278 136.418278,788 132,788 Z M132,596 C127.581722,596 124,592.418278 124,588 C124,583.581722 127.581722,580 132,580 C136.418278,580 140,583.581722 140,588 C140,592.418278 136.418278,596 132,596 Z M132,692 C127.581722,692 124,688.418278 124,684 C124,679.581722 127.581722,676 132,676 C136.418278,676 140,679.581722 140,684 C140,688.418278 136.418278,692 132,692 Z M132,500 C127.581722,500 124,496.418278 124,492 C124,487.581722 127.581722,484 132,484 C136.418278,484 140,487.581722 140,492 C140,496.418278 136.418278,500 132,500 Z M130,308 C125.581722,308 122,304.418278 122,300 C122,295.581722 125.581722,292 130,292 C134.418278,292 138,295.581722 138,300 C138,304.418278 134.418278,308 130,308 Z" id="Combined-Shape" fill="#212121"></path>
            <g id="Oval-5">
                <use fill="black" fill-opacity="1" filter="url(#filter-2)" xlink:href="#path-1"></use>
                <use fill="#B8E986" fill-rule="evenodd" xlink:href="#path-1"></use>
            </g>
        </g>
    </g>
</svg>