<?xml version="1.0" encoding="UTF-8"?>
<svg width="128px" height="128px" viewBox="0 0 128 128" version="1.1" xmlns="http://www.w3.org/2000/svg" xmlns:xlink="http://www.w3.org/1999/xlink">
    <!-- Generator: Sketch 46 (44423) - http://www.bohemiancoding.com/sketch -->
    <title>medium</title>
    <desc>Created with Sketch.</desc>
    <defs></defs>
    <g id="assets" stroke="none" stroke-width="1" fill="none" fill-rule="evenodd">
        <g id="medium" fill-rule="nonzero" fill="#FFFFFF">
            <g transform="translate(0.000000, 16.000000)" id="Shape">
                <path d="M127.962975,13.8433058 L120.902083,13.8433058 C119.063537,13.8433058 114.252694,15.8405289 114.252694,17.5407603 L114.252694,79.2840992 C114.252694,80.988562 119.063537,82.3859835 120.902083,82.3859835 L127.962975,82.3859835 L127.962975,96.0944132 L82.261686,96.0944132 L82.261686,82.3859835 L91.4041653,82.3859835 L91.4041653,18.4105785 L89.813157,18.4105785 L67.8135537,96.0941488 L50.780562,96.0941488 L29.0655207,18.4105785 L27.4208264,18.4105785 L27.4208264,82.385719 L36.5593388,82.385719 L36.5593388,96.0941488 L0,96.0941488 L0,82.385719 L5.07054545,82.385719 C7.06115702,82.385719 9.13877686,80.988562 9.13877686,79.2838347 L9.13877686,17.5407603 C9.13877686,15.8402645 7.06142149,13.8433058 5.07054545,13.8433058 L0,13.8433058 L0,0.133289256 L47.3798347,0.133289256 L62.8498512,54.9675372 L63.2661157,54.9675372 L78.8887273,0.133289256 L127.962975,0.133289256 L127.962975,13.8433058 Z"></path>
            </g>
        </g>
    </g>
</svg>