<?xml version="1.0" encoding="UTF-8"?>
<svg width="256px" height="256px" viewBox="0 0 256 256" version="1.1" xmlns="http://www.w3.org/2000/svg" xmlns:xlink="http://www.w3.org/1999/xlink">
    <!-- Generator: Sketch 46 (44423) - http://www.bohemiancoding.com/sketch -->
    <title>micrologic</title>
    <desc>Created with Sketch.</desc>
    <defs></defs>
    <g id="assets" stroke="none" stroke-width="1" fill="none" fill-rule="evenodd">
        <g id="micrologic" stroke="#000000" stroke-width="2">
            <path d="M207,89 L201,89 L201,103 L207,103 L207,89 Z M207,167 L207,153 L201,153 L201,167 L207,167 Z M207,135 L207,121 L201,121 L201,135 L207,135 Z M55,89 L49,89 L49,103 L55,103 L55,89 Z M55,167 L55,153 L49,153 L49,167 L55,167 Z M55,135 L55,121 L49,121 L49,135 L55,135 Z M121,201 L121,207 L135,207 L135,201 L121,201 Z M103,201 L89,201 L89,207 L103,207 L103,201 Z M153,201 L153,207 L167,207 L167,201 L153,201 Z M121,49 L121,55 L135,55 L135,49 L121,49 Z M103,49 L89,49 L89,55 L103,55 L103,49 Z M153,49 L153,55 L167,55 L167,49 L153,49 Z M49,71 L54.9999978,71 L55,64 C55,59.0294373 59.0294373,55 64,55 L71,55 L71,49 C70.2131487,49 69.8115529,49 68.3428614,49 L64,49 C55.7157288,49 49,55.7157288 49,64 L49,68.3428614 C49,69.8115529 49,70.2131487 49,70.9503326 L49,71 Z M54.9999978,185 L49,185 C49,186.388958 49,186.745916 49,188.270195 L49,191.859482 C49,200.143754 55.7157288,206.859482 64,206.859482 C64.5979331,206.859482 64.8653415,206.859542 65.1993499,206.859839 C67.8403428,206.862187 69.6235842,206.882933 71,206.942674 L71,200.859482 L64,200.859482 C59.0294373,200.859482 55,196.830045 55,191.859483 L54.9999978,185 Z M185,49 L185,55 L191.859485,55 C196.830048,55 200.859485,59.0294373 200.859485,63.9999997 L200.859487,71 L207.859485,71 L206.859485,72 L206.859485,64 C206.859485,55.7157288 200.143756,49 191.859485,49 L187.983563,49 C186.591839,49 186.242473,49 185.261823,49 L185,49 Z M185,200.859482 L185,206.942376 C186.373341,206.882269 188.133733,206.86186 190.761616,206.859774 C191.06724,206.859531 191.312005,206.859482 191.859485,206.859482 C200.143756,206.859482 206.859485,200.143754 206.859485,191.859482 L206.859485,188.270195 C206.859485,186.745916 206.859485,186.388958 206.859485,185.281424 L200.859487,185 L200.859485,191.859482 C200.859485,196.830045 196.830048,200.859482 191.859485,200.859482 L185,200.859482 Z M88,103 C96.2842712,103 103,96.2842712 103,88 C103,79.7157288 96.2842712,73 88,73 C79.7157288,73 73,79.7157288 73,88 C73,96.2842712 79.7157288,103 88,103 Z M88,97 C83.0294373,97 79,92.9705627 79,88 C79,83.0294373 83.0294373,79 88,79 C92.9705627,79 97,83.0294373 97,88 C97,92.9705627 92.9705627,97 88,97 Z M88,151 C96.2842712,151 103,144.284271 103,136 C103,127.715729 96.2842712,121 88,121 C79.7157288,121 73,127.715729 73,136 C73,144.284271 79.7157288,151 88,151 Z M88,145 C83.0294373,145 79,140.970563 79,136 C79,131.029437 83.0294373,127 88,127 C92.9705627,127 97,131.029437 97,136 C97,140.970563 92.9705627,145 88,145 Z M168,183 C176.284271,183 183,176.284271 183,168 C183,159.715729 176.284271,153 168,153 C159.715729,153 153,159.715729 153,168 C153,176.284271 159.715729,183 168,183 Z M168,177 C163.029437,177 159,172.970563 159,168 C159,163.029437 163.029437,159 168,159 C172.970563,159 177,163.029437 177,168 C177,172.970563 172.970563,177 168,177 Z" id="Combined-Shape"></path>
        </g>
    </g>
</svg>