<?xml version="1.0" encoding="UTF-8"?>
<svg width="512px" height="512px" viewBox="0 0 512 512" version="1.1" xmlns="http://www.w3.org/2000/svg" xmlns:xlink="http://www.w3.org/1999/xlink">
    <!-- Generator: Sketch 46 (44423) - http://www.bohemiancoding.com/sketch -->
    <title>server</title>
    <desc>Created with Sketch.</desc>
    <defs>
        <path d="M192,424 L176,424 C176,419.581722 172.418278,416 168,416 C163.581722,416 160,419.581722 160,424 L144,424 C144,419.581722 140.418278,416 136,416 C131.581722,416 128,419.581722 128,424 L112,424 C112,419.581722 108.418278,416 104,416 C99.581722,416 96,419.581722 96,424 C78.326888,424 64,409.673112 64,392 L64,264 C64,246.326888 78.326888,232 96,232 L416,232 C433.673112,232 448,246.326888 448,264 L448,392 C448,409.673112 433.673112,424 416,424 L208,424 C208,419.581722 204.418278,416 200,416 C195.581722,416 192,419.581722 192,424 Z" id="path-1"></path>
        <filter x="-1.6%" y="-3.1%" width="103.1%" height="106.2%" filterUnits="objectBoundingBox" id="filter-2">
            <feOffset dx="0" dy="0" in="SourceAlpha" result="shadowOffsetOuter1"></feOffset>
            <feGaussianBlur stdDeviation="2" in="shadowOffsetOuter1" result="shadowBlurOuter1"></feGaussianBlur>
            <feColorMatrix values="0 0 0 0 0   0 0 0 0 0   0 0 0 0 0  0 0 0 1 0" type="matrix" in="shadowBlurOuter1"></feColorMatrix>
        </filter>
    </defs>
    <g id="graphic" stroke="none" stroke-width="1" fill="none" fill-rule="evenodd" fill-opacity="1" opacity="0.25">
        <g id="server" fill="black">
            <g id="shadow">
                <use filter="url(#filter-2)" xlink:href="#path-1"></use>
            </g>
        </g>
    </g>
</svg>