<?xml version="1.0" encoding="UTF-8"?>
<svg width="128px" height="128px" viewBox="0 0 128 128" version="1.1" xmlns="http://www.w3.org/2000/svg" xmlns:xlink="http://www.w3.org/1999/xlink">
    <!-- Generator: Sketch 46 (44423) - http://www.bohemiancoding.com/sketch -->
    <title>twitter</title>
    <desc>Created with Sketch.</desc>
    <defs></defs>
    <g id="assets" stroke="none" stroke-width="1" fill="none" fill-rule="evenodd">
        <g id="twitter" fill-rule="nonzero" fill="#FFFFFF">
            <g transform="translate(0.000000, 12.000000)" id="Shape">
                <path d="M127.750986,12.5282807 C123.050168,14.6127096 117.999532,16.0217076 112.697887,16.6552203 C118.108819,13.4115556 122.264702,8.27533723 124.221879,2.15479142 C119.157021,5.15867446 113.548476,7.33966472 107.578136,8.5148694 C102.797474,3.42106823 95.9855283,0.238534113 88.4470019,0.238534113 C73.9725224,0.238534113 62.237692,11.9728655 62.237692,26.4470955 C62.237692,28.5013333 62.4694893,30.5016764 62.9163665,32.4201793 C41.1339103,31.3268148 21.8213801,20.892694 8.89462768,5.0354152 C6.63853411,8.90635478 5.34580897,13.4085614 5.34580897,18.2119298 C5.34580897,27.3051696 9.97277193,35.327501 17.0055361,40.0275712 C12.7091774,39.8913372 8.66782066,38.7123899 5.13447173,36.7492242 C5.13197661,36.8585107 5.13197661,36.9682963 5.13197661,37.0788304 C5.13197661,49.7775283 14.1665809,60.3703392 26.1561637,62.7786355 C23.9572086,63.3772164 21.6414815,63.6985887 19.2511501,63.6985887 C17.5621988,63.6985887 15.9204055,63.5339103 14.3197817,63.2275088 C17.6552671,73.6396725 27.3343626,81.2183704 38.803462,81.4292086 C29.8334815,88.4594776 18.5323041,92.6490448 6.25253801,92.6490448 C4.13692008,92.6490448 2.05074464,92.5252865 0.000249512671,92.2820117 C11.5990955,99.7192359 25.3759376,104.058261 40.1770292,104.058261 C88.3856218,104.058261 114.748382,64.1207641 114.748382,29.4859103 C114.748382,28.3496296 114.722433,27.2193372 114.672281,26.0950331 C119.793778,22.4 124.237349,17.7840156 127.750986,12.5282807 Z"></path>
            </g>
        </g>
    </g>
</svg>